<svg xmlns="http://www.w3.org/2000/svg" viewBox="0 0 102.79 167.48"><title>About</title><g id="Layer_2" data-name="Layer 2"><g id="Layer_1-2" data-name="Layer 1"><path d="M2.61,74.2c13.32,34.29,48.79,93.28,48.79,93.28s35.46-59,48.78-93.28C107.9,54.33,96.5,50.29,92,49.58c-10.87-1.72-33-1.66-34.67,9-2.37,15.25,1.77,29.76,5.18,32.94,11.63,10.83,20.18-5.69,19.76-4.2-6.44,22.85-21.38,15-21.38,15,10.82,12.49-9.36,44.76-9.36,44.76s-20.08-32.76-9.26-45.26c0,0-14.76,7.51-21.7-14.47-.47-1.48,8.12,15,19.75,4.2,3.42-3.18,7.56-17.69,5.18-32.94-1.66-10.68-23.8-10.74-34.67-9C6.29,50.29-5.11,54.33,2.61,74.2Zm78.25-3.6c-11.52,0-14.49-7-14.49-7S69.46,58,80,58c9.5,0,13.42,5,13.42,5A14.22,14.22,0,0,1,80.86,70.6ZM23.06,58c9.5,0,13.42,5,13.42,5A14.22,14.22,0,0,1,23.89,70.6c-11.52,0-14.49-7-14.49-7S12.49,58,23.06,58Z"/><path d="M47.36,55.58C49.6,59.44,50.08,73,45.6,85.37c-7.23,20-21.79,7.34-21.79,7.34,5.77,11.85,19.7,7.79,19.7,7.79-1,6-6.39,20.4,7.89,31.09,13.06-10.69,9.2-24.82,8-30.84,0,0,14.1,4,19.56-8,0,0-12.6,12.7-22-6.77-5.71-11.88-4.3-26.48-2.16-30.4,6.74-12.36,10.41-15.43,12.61-24.82C69.24,23.16,69.68,5.34,51.39,0,33.25,5.82,31.74,22.89,33.71,30.44,36.16,39.77,40.3,43.4,47.36,55.58Zm6.51,35.79A9.88,9.88,0,0,1,52.2,96s5.31,6,5.7,13.22c.15,2.7-.25,6.57-6,12-5.86-5.36-6.55-9.27-6.45-12,.29-7.26,5.5-13.3,5.5-13.3a10,10,0,0,1-1.74-4.57c0-2.14,1.35-4.06,2.36-5.23A8.41,8.41,0,0,1,53.87,91.37ZM50.92,5.71S64.58,13.07,62.2,26.37c-1.6,9-10.57,20.42-10.57,20.42s-10.51-11-11.87-20.54C37.67,11.54,50.92,5.71,50.92,5.71Z"/></g></g></svg>