<svg xmlns="http://www.w3.org/2000/svg" viewBox="0 0 1082.49 327.72"><title>cacador</title><g id="Layer_2" data-name="Layer 2"><g id="Layer_1-2" data-name="Layer 1"><path d="M207.66,270.87a16.8,16.8,0,0,1-2.13,7.78c-2.13,4-4.62,7.64-8.37,10.32-1.43,1-2.74,2.2-4.09,3.32a11.43,11.43,0,0,1-5.09,2.53c-.11,0-.29-.11-.38-.21a.52.52,0,0,1-.1-.42,16.9,16.9,0,0,1,3.39-4,36.84,36.84,0,0,0,5.64-7.11,33.31,33.31,0,0,0,4.17-10.64,14.2,14.2,0,0,0,.08-5.24c-.39-2.34-1.2-2.35-2.86-1.51a5.47,5.47,0,0,1-7.27-1.45,4.4,4.4,0,0,1-.52-5.34,4.28,4.28,0,0,1,4.36-2.37C202.2,257.18,207.75,262.89,207.66,270.87Z"/><path d="M780.38,209.49a44.71,44.71,0,0,0-4.26-2.15c-3.41-1.36-6.9-2.53-10.3-3.93-4.13-1.71-8.2-3.56-12.29-5.37a1.51,1.51,0,0,1-.68-1.64c.65-1.63,1.32-3.25,2-4.87a3.82,3.82,0,0,1,2.38-2.2.88.88,0,0,0,.36-.76c0-.23-.36-.48-.61-.58a9.2,9.2,0,0,0-1.83-.56,41.07,41.07,0,0,0-18,1.13,24.44,24.44,0,0,0-10.3,5.88,26.86,26.86,0,0,0-6,8.59,19.05,19.05,0,0,0-1.53,10.77,43.32,43.32,0,0,0,5.11,15.37c.73,1.23,1.33,2.55,2,3.83.22.43.4.87.58,1.31.37.9.12,1.66-.76,1.9a18.81,18.81,0,0,0-6.7,3.62,8.35,8.35,0,0,0-3.2,7.61,7.46,7.46,0,0,0,1.57,4c.28.36,1.05.69,1.23.43a3.23,3.23,0,0,0,.51-1.24,2.4,2.4,0,0,0-.16-.93,5.38,5.38,0,0,1,1.21-4.48,8.65,8.65,0,0,1,5.58-3.42,1.66,1.66,0,0,1,.94.07c.25.12.58.44.58.66a5.19,5.19,0,0,1-.35,1.84c-1.9,4.22-3.8,8.44-5.79,12.63-3.7,7.79-7,15.75-11.07,23.39-.45.85-.78,1.75-1.19,2.62q-2.55,5.41-5.13,10.83a2.42,2.42,0,0,1-1.49,1.51l-1.6.1c-.8,0-1.6,0-2.39.12a1.33,1.33,0,0,0-1.13.75,1.38,1.38,0,0,0,.57,1.65c.52.37,1,.76,1.59,1.08a29.25,29.25,0,0,0,24.5,2.47,42.9,42.9,0,0,0,7.93-3.36c10.47-5.85,15.56-14.89,15.38-26.78A37.29,37.29,0,0,0,743,254.82c-1.4-2.69-2.91-5.33-4.33-8a21.11,21.11,0,0,1-1.12-2.64c-.07-.22.2-.56.33-.92a37.55,37.55,0,0,0,3.69-.82A7.57,7.57,0,0,0,746.23,232a3,3,0,0,0-.91-1.06c-.18-.14-.55,0-1,0a14.21,14.21,0,0,1-1,5.08,4.68,4.68,0,0,1-2.72,2.54,6.49,6.49,0,0,1-4.24.16,2.34,2.34,0,0,1-1.79-2.93,16.86,16.86,0,0,1,.68-1.79c2.26-5.29,4.45-10.61,6.8-15.86,1.82-4.09,3.74-8.14,5.81-12.1,2.46-4.7,2.07-4.34,6.88-2.46.59.23,1.17.51,1.74.79a145.69,145.69,0,0,0,13.68,5.8c2.68,1,5.5,1.72,8,3.26a1.71,1.71,0,0,0,1.73-.54,11.16,11.16,0,0,0,.92-1.66A1.36,1.36,0,0,0,780.38,209.49ZM740.5,266.42c0,.32,0,.64,0,1a23,23,0,0,1-3.37,11.81,36.37,36.37,0,0,1-12.45,13,24.53,24.53,0,0,1-14.54,4,4.79,4.79,0,0,1-1.84-.41,1.63,1.63,0,0,1-.75-1.06,3,3,0,0,1,.23-1.39c.32-.9.68-1.79,1.06-2.67,2.14-4.8,4.21-9.64,6.46-14.39,1.7-3.6,3.5-7.15,5.07-10.82,1.76-4.1,3.66-8.14,5.5-12.2a81.73,81.73,0,0,1,4.76-9.38,1,1,0,0,1,1.63,0C736.89,250.67,740.12,258,740.5,266.42Zm10.41-73.66c-.06.15-.12.3-.19.44-3.36,6-5.73,12.46-8.6,18.69s-5.85,12.76-8.78,19.13c-.27.57-.65,1.09-1,1.64a1,1,0,0,1-1.26,0,16.87,16.87,0,0,1-2.81-5.5,27.38,27.38,0,0,1-1.72-10,24.23,24.23,0,0,1,2.08-9.09,36.75,36.75,0,0,1,8.81-12.38,15.94,15.94,0,0,1,6.56-3.82c1.69-.46,3.41-.83,5.13-1.18a1.77,1.77,0,0,1,1.8.29C751.42,191.53,751.14,192.18,750.91,192.76Z"/><path d="M62.26,202.51a12.06,12.06,0,0,0-1-1c-2.38-1.88-4.74-3.8-7.19-5.59a40.59,40.59,0,0,1-7.53-7.34c-1.41-1.73-2.79-3.49-4.12-5.3a2.05,2.05,0,0,1-.09-2.26c.83-1.55,1.68-3.08,2.44-4.66a2.1,2.1,0,0,0,.09-1.4A5.52,5.52,0,0,0,43,172.24a3.38,3.38,0,0,0-4.67.73,5.67,5.67,0,0,0-.9,4.57c.2.77.47,1.52.69,2.29a2,2,0,0,1-.4,1.81,56.72,56.72,0,0,1-4.28,5.15c-3.74,3.73-7.4,7.52-11,11.35a27.34,27.34,0,0,1-7,5,1.88,1.88,0,0,1-1.85,0c-.69-.39-1.35-.86-2.05-1.24a10.17,10.17,0,0,0-6-1.13A6.09,6.09,0,0,0,0,207.51a2.25,2.25,0,0,0,1.73,2,16,16,0,0,0,6.67,0c.78-.17,1.54-.41,2.32-.6a1.69,1.69,0,0,1,1.59.82,28.06,28.06,0,0,1,2,9.34c.24,6.23.49,12.45.87,18.67s.49,12.76.3,19.16c-.24,7.66-.26,15.33-.76,23a81,81,0,0,1-1.41,9.47,1.29,1.29,0,0,1-1.44.94c-1.68-.54-3.33-1.09-5.15-.57-2.71.77-3.58,2.1-3.15,4.95a6.19,6.19,0,0,0,.17.94,2.06,2.06,0,0,0,1.66,1.54,9,9,0,0,0,7.31-1.34,1.91,1.91,0,0,1,2.24-.13,52.88,52.88,0,0,1,8.37,5.56A130.25,130.25,0,0,1,33.24,311a15.27,15.27,0,0,1,3.11,4.85c-.6,1.34-1.16,2.65-1.78,3.94a6.21,6.21,0,0,0,2.66,7.46,3.46,3.46,0,0,0,5-2,7.08,7.08,0,0,0,.11-4.7c-.49-1.34-.93-2.71-1.44-4.05a1.7,1.7,0,0,1,.37-1.78,27.57,27.57,0,0,1,4.8-4.67c3.71-2.77,7.4-5.58,11.09-8.39a19.49,19.49,0,0,0,4-3.46,1.85,1.85,0,0,0,.06-1.81,1.69,1.69,0,0,0-1.64-.76,6.37,6.37,0,0,0-1.83.5q-2.15,1.07-4.23,2.26a35.8,35.8,0,0,1-7,3,13.36,13.36,0,0,1-8.93-.44,10.35,10.35,0,0,1-5.4-4.56,26.35,26.35,0,0,1-3.61-11.32,7.34,7.34,0,0,1,.34-3.3c1.44-3.73,2.87-7.46,5.26-10.73,1.13-1.55,2.14-3.18,3.17-4.79a29.79,29.79,0,0,0,4.42-15,17.31,17.31,0,0,0-.48-5.23,70,70,0,0,0-3.82-11.34c-1.48-3.19-2.91-6.41-4.35-9.61a35,35,0,0,1-2.49-9.7,16.21,16.21,0,0,1,.19-5.25,10.78,10.78,0,0,1,2.77-5.49,13.72,13.72,0,0,1,9.4-4.23,6.07,6.07,0,0,1,1.9.17c4.52,1.1,9,2.26,12.54,5.61a6.1,6.1,0,0,0,.76.58,2.56,2.56,0,0,0,3.44-.5,8.85,8.85,0,0,0,1.05-1.58A2,2,0,0,0,62.26,202.51Zm-51.84,3.21a11.26,11.26,0,0,1-1.38.71,11.59,11.59,0,0,1-4.5.9,3.57,3.57,0,0,0-.47,0A1.8,1.8,0,0,1,2.28,206a2.1,2.1,0,0,1,.91-2,3,3,0,0,1,1.25-.64,9.77,9.77,0,0,1,6,.82,1,1,0,0,1,.39.75A1.12,1.12,0,0,1,10.42,205.72Zm-.76,88.61c-.56,1-1.5,1-2.48.94a1.69,1.69,0,0,1-1.41-1.11,1.17,1.17,0,0,1,.9-1.76,3.26,3.26,0,0,1,2.66.71,3.32,3.32,0,0,1,.5.79A3.2,3.2,0,0,1,9.66,294.33Zm31.61-120c.62-.08,1.37.62,1.22,1.13a4.52,4.52,0,0,1-2.29,2.9c-.19.09-.61-.09-.82-.26a1.46,1.46,0,0,1-.48-.79A2.58,2.58,0,0,1,41.27,174.37ZM41,322.93a4.12,4.12,0,0,1,0,.93c0,1.07-1.67,2.16-2.83,1.86A3.09,3.09,0,0,1,36,322.06a7.31,7.31,0,0,1,1.55-2.89,1.14,1.14,0,0,1,1.65-.05A10,10,0,0,1,41,322.93Zm1.63-126.81a17.69,17.69,0,0,0-9.25,2.07A10.09,10.09,0,0,0,30,200.84a21.14,21.14,0,0,0-2.8,22.9c1,2,1.91,4.06,3,6a56.12,56.12,0,0,1,6,18.12,22.21,22.21,0,0,1-3.3,16.52c-2,3.07-3.9,6.23-5.83,9.36a31.85,31.85,0,0,0-2.94,6.55c-1.33,4-.58,7.93.46,11.8A23.54,23.54,0,0,0,29,300.56,16.66,16.66,0,0,0,39.85,307a7.15,7.15,0,0,1,1.81.55.86.86,0,0,1,.23.82,9.42,9.42,0,0,1-3.13,3.53,1.08,1.08,0,0,1-.87-.13,2.35,2.35,0,0,1-.65-.68,52.82,52.82,0,0,0-11.33-11c-2.2-1.59-4.45-3.12-6.66-4.7-1-.75-2.06-1.52-3-2.36a1.55,1.55,0,0,1-.47-1.74c1.68-4.75,1.68-9.75,2-14.68.27-4,.34-8,.51-12,.05-1.12.1-2.24.22-3.35a126.7,126.7,0,0,0,.08-21.07c-.24-3.5-.17-7-.22-10.55a61.09,61.09,0,0,0-.62-9.56,8.78,8.78,0,0,1-.14-1.44,42.58,42.58,0,0,0-1.27-9.47,15.19,15.19,0,0,1-.45-2.35,3.33,3.33,0,0,1,.47-1.33,1,1,0,0,1,.34-.33c4.87-2.92,8.66-7.06,12.44-11.18,2.81-3.08,5.77-6,8.86-8.77.36-.31.75-.59,1.13-.88a1.17,1.17,0,0,1,1.29.22c.56.79,1.12,1.56,1.65,2.36,1.78,2.66,3.57,5.31,5.31,8,.21.33.11.85.17,1.45C45.79,196.3,44.21,196.26,42.63,196.12Z"/><path d="M592.6,79.54a70.13,70.13,0,0,0-5.11-10.8A38.83,38.83,0,0,0,578,57.45q-3.39-2.66-6.94-5.14a24.12,24.12,0,0,0-6-3,12.19,12.19,0,0,0-6.13-.61,2.16,2.16,0,0,0-.75.49c-.31.24-.07.86.52,1.14A17.5,17.5,0,0,1,566.32,58c1,1.8,1.81,3.74,2.68,5.62a28.15,28.15,0,0,1,2.48,11.62,13.86,13.86,0,0,1-3.28,9.28c-1.52,1.85-3.25,3.53-4.86,5.3a13.71,13.71,0,0,1-5.13,3.46c-2.22.87-4.4,1.87-6.87,2-1.59,0-3.17.37-4.76.49a20.45,20.45,0,0,0-7.36,2,10.72,10.72,0,0,0-6.06,8.13,17.69,17.69,0,0,0,.58,9.44A34.85,34.85,0,0,1,535.83,129a11.63,11.63,0,0,1-.35,2.84,25.3,25.3,0,0,1-7.31,11.63,12.35,12.35,0,0,1-4.1,2.43,24.84,24.84,0,0,1-16.92,0,63.15,63.15,0,0,1-10.5-4.59.49.49,0,0,0-.41.08c-.13.08-.31.25-.29.35a12.31,12.31,0,0,0,3.31,6.27,35.64,35.64,0,0,0,7.94,6.15A84.42,84.42,0,0,0,523.49,161a36.16,36.16,0,0,0,12.75,1.82c2.55-.13,5.09-.42,7.63-.73A68.25,68.25,0,0,0,570,153c5.89-3.4,11-7.75,14.42-13.75a20.11,20.11,0,0,1,2-2.72,29,29,0,0,0,5.11-9.18c3-8.64,5.13-17.49,5-25.62A60.45,60.45,0,0,0,592.6,79.54Zm-.84,32.83a44.64,44.64,0,0,1-4.31,13.15c-1.49,3.18-3.38,6.16-5,9.27a47.85,47.85,0,0,1-5.75,8.24A31.49,31.49,0,0,1,565.6,152c-6.28,2.82-12.63,5.36-19.44,6.65a43.86,43.86,0,0,1-15.24.45,63.22,63.22,0,0,1-14.31-3.79c-.35-.15-.63-.34-.49-.69.08-.19.49-.34.75-.35,1.28-.05,2.56-.05,3.84-.06a16.2,16.2,0,0,0,10.17-3.63,36,36,0,0,0,8.67-9.52,22,22,0,0,0,2.39-18c-.35-1.23-.88-2.4-1.28-3.61q-1.29-3.87-2.52-7.75c-1.14-3.6-.2-6.55,2.69-9a11.09,11.09,0,0,1,5.49-2.74c2.21-.33,4.42-.68,6.65-.84a46.68,46.68,0,0,0,8.49-1.46A13.76,13.76,0,0,0,565,96.28c8.18-5,12.45-12.18,12.4-21.8a28.25,28.25,0,0,0-2-10.78c-.43-1-.79-2.09-1.13-3.16a1.91,1.91,0,0,1,.42-1.75h0l-.31.2.25-.23h0l.07,0,0,0c2.07,2.4,4.18,4.75,6.18,7.2A63.22,63.22,0,0,1,588.8,79.1a28.44,28.44,0,0,1,2.73,8.65,19.24,19.24,0,0,0,.59,2.32,32.42,32.42,0,0,1,.72,14.23C592.33,107,592.11,109.68,591.76,112.37Z"/><path d="M831.38,233.21a3.46,3.46,0,0,0-1.16-2,8.06,8.06,0,0,0-1.14-.88q-3.45-2.16-6.92-4.3a18.58,18.58,0,0,0-5.24-2.3,1.51,1.51,0,0,0-1.64.68,7.28,7.28,0,0,0-.79,1.73c-.43,2-.88,4.06-1.13,6.12-.86,7.14-1.25,14.32-1.76,21.49-.37,5.26-.59,10.53-.76,15.81-.2,6.06-.49,12.14.46,18.18.47,3,1,6,1.36,9,.19,1.42.24,2.86.36,4.28a1.45,1.45,0,0,1-.8,1.08c-.64.06-1.27.16-1.91.16A137.64,137.64,0,0,0,796,303a37.52,37.52,0,0,1-3.83.1,1.19,1.19,0,0,1-.92-.93c.07-.95.09-1.9.22-2.85s.5-2.19.57-3.29a94.23,94.23,0,0,0,.2-11c-.2-3.82-.4-7.63-1-11.45-.9-6.31-1.4-12.69-2.76-18.95-.54-2.49-.91-5-1.27-7.55a92.56,92.56,0,0,0-5.3-19.84,6.7,6.7,0,0,0-.89-1.26,6.84,6.84,0,0,0-1.76.67,28.14,28.14,0,0,0-3.3,2.77,36.54,36.54,0,0,1-6.32,5.11,27.24,27.24,0,0,0-2.2,1.75,24.1,24.1,0,0,0,0,8.68c1.56,7.67,3.2,15.32,4.85,23A117,117,0,0,0,777,283c2.39,6.61,4.84,13.2,8.34,19.34.23.41.42.85.62,1.29a1.18,1.18,0,0,1-.53,1.2c-1.63.66-3.28,1.26-4.88,2a18.1,18.1,0,0,0-2.91,1.64,5.83,5.83,0,0,0-2.63,5.34,2.7,2.7,0,0,0,2.22,2.7,8.44,8.44,0,0,0,5.58-.8c2.6-1.37,4.87-3.06,6-5.88a13.61,13.61,0,0,1,.88-1.47c2.51,1.05,4.71,2,6.92,2.89a15.77,15.77,0,0,0,9.88.47A31.48,31.48,0,0,0,811,310c.73-.3,1.41-.76,2.14-1.05a2,2,0,0,1,2.24.3c.59.53,1.13,1.13,1.75,1.63a13.35,13.35,0,0,0,7.47,2.94,7,7,0,0,0,6.33-2.7,2.71,2.71,0,0,0-.06-3.12,9.56,9.56,0,0,0-1.43-1.27,18.84,18.84,0,0,0-6.19-2.48,29.19,29.19,0,0,1-3.16-1,.86.86,0,0,1-.37-.76,11.61,11.61,0,0,1,.76-1.74c2.25-4.58,4.69-9.07,6.13-14,2.28-7.82,4.58-15.63,5.07-23.83,0-.32.09-.63.13-.95A107.94,107.94,0,0,0,831.38,233.21ZM786.45,309a12,12,0,0,1-6.28,5.41,3.94,3.94,0,0,1-.92.16,1.64,1.64,0,0,1-1.8-1.69,4,4,0,0,1,1.81-3.15,12.31,12.31,0,0,1,6.63-2.16.33.33,0,0,1,.16.05c.17.11.33.34.5.48h0A2.57,2.57,0,0,1,786.45,309Zm3.2-20.19c-.21,2.7-.41,5.4-.66,8.1a.84.84,0,0,1-1.42.36,8,8,0,0,1-1-1.65c-1.37-3.05-2.8-6.08-4-9.2A168.32,168.32,0,0,1,774,258c-1-5-2-10-2.66-15.07-.75-5.47-.83-5,3.34-8.57,1.57-1.35,3.28-2.53,4.94-3.78a1.09,1.09,0,0,1,1.52.65c.59,2.15,1.19,4.3,1.71,6.46,1.52,6.2,3,12.39,4,18.71.65,4.25,1.36,8.5,1.63,12.81.19,3,.43,6.05.84,9.05A63.76,63.76,0,0,1,789.65,288.81ZM810,306.65c-3,2.17-11,2.35-14.23.42a3.67,3.67,0,0,1-.67-.64c.32-.29.6-.73,1-.83a14.79,14.79,0,0,1,2.8-.49c1.9-.16,3.81-.23,6.18-.36,1.28.05,3,.11,4.77.22.24,0,.48.3.69.49S810.42,306.36,810,306.65Zm17.49,1.59a2.38,2.38,0,0,1,1.09.84,1,1,0,0,1,.12.84,1.15,1.15,0,0,1-.57.68,7.78,7.78,0,0,1-1.42.25,13,13,0,0,1-7.76-3,.94.94,0,0,1-.25-.39.65.65,0,0,1,0-.45c.15-.23.41-.63.55-.6C822,307,824.76,307.58,827.51,308.24Zm1.26-52.16c-.28,4.13-.82,8.25-1.4,12.36a123.06,123.06,0,0,1-3.53,15.86,53.58,53.58,0,0,1-6,13.53,1.43,1.43,0,0,1-.7.61c-.23.09-.77,0-.79-.08a56.79,56.79,0,0,1-1.12-5.61,96.12,96.12,0,0,1-.46-19.11c.09-1.27.1-2.55.13-3.83,0-1.59,0-3.19.09-4.78.26-6.06.53-12.12.86-18.17.16-2.86.49-5.72.72-8.58.19-2.39.32-4.78.54-7.16a9.81,9.81,0,0,1,.54-2.31c.07-.22.49-.4.77-.44a1.84,1.84,0,0,1,.91.19c3.07,1.36,6,3,9.1,4.59.13.94.25,1.41.26,1.88C828.88,242.05,829.25,249.07,828.77,256.08Z"/><path d="M174.72,248.53a4.86,4.86,0,0,1-.7,1.13.91.91,0,0,1-1.23.1,2,2,0,0,1-.89-2.36c.19-.54.92-1.13,1.38-1a2.17,2.17,0,0,1,1.08.74A4.43,4.43,0,0,1,174.72,248.53Z" style="fill:none"/><path d="M208.58,247.36c.22.06.68.14,1.12.29s.61.66.6,1.15-.46.8-.92.92a1.55,1.55,0,0,1-1.87-1A1,1,0,0,1,208.58,247.36Z" style="fill:none"/><path d="M210.15,244.46a21.91,21.91,0,0,0-2.61-1.18,1.72,1.72,0,0,1-1-1.5c0-.16,0-.32,0-.48.44-3.32.89-6.64,1.32-10,.15-1.11.29-2.23.34-3.34.18-3.84.31-7.67.47-11.51,0-.48.05-1,0-1.43s-.1-1-.14-1.44-.52-1.08-.85-.87-.61.29-.72.53a20.36,20.36,0,0,0-1.62,7.44,23.28,23.28,0,0,1-3,11,9.22,9.22,0,0,1-2.44,2.93c-4.26,3-8.84,4.34-14,2.55a15.52,15.52,0,0,1-6.15-3.61,34.79,34.79,0,0,1-6.2-7.88,43.28,43.28,0,0,1-3.74-8.81,56.9,56.9,0,0,0-7.22-15.62c-3.24-5-7.07-9.5-12.26-12.61-2.74-1.65-5.55-3.17-8.37-4.67-2-1.05-4-2-6-2.93-4.12-2-7.37-5-10.67-8.07a9.75,9.75,0,0,1-1.2-1.5,20.31,20.31,0,0,1-3.17-7.43,14.14,14.14,0,0,1-.15-6.14c.89-5.13,7.27-10.65,12.18-10.75,1.44,0,2.87-.1,4.31-.17a21,21,0,0,0,7.93-1.68,7.48,7.48,0,0,0,1.6-1,1.31,1.31,0,0,0,.24-.84c0-.35-.24-.54-.64-.54-1.91,0-3.83,0-5.74.15-6.06.34-12.15-.3-18.2.34a3.87,3.87,0,0,1-.48,0,1.91,1.91,0,0,1-1.43-1.12c-.18-.62-.28-1.25-.48-1.86A6.38,6.38,0,0,0,111.9,136a3.22,3.22,0,0,0-1.21.74,5.2,5.2,0,0,0-1,5.76,4.89,4.89,0,0,0,2.35,2.29,14.07,14.07,0,0,0,3.7.94,1.77,1.77,0,0,1,1.4,1.7c0,.8.1,1.6.09,2.4A93.61,93.61,0,0,1,115,166.91a47.62,47.62,0,0,1-1.73,5.48,1.66,1.66,0,0,1-1.87,1.11c-.8-.05-1.59-.17-2.39-.18a4.06,4.06,0,0,0-3.31,1.64,9.29,9.29,0,0,0-1,1.62,3.54,3.54,0,0,0,.53,4,2.75,2.75,0,0,0,3.83.62c.77-.55,1.41-1.28,2.14-1.88.48-.39,1-.7,1.5-1a13,13,0,0,1,1.36.83,64.32,64.32,0,0,1,7.79,7.07c3,3.31,6,6.65,8.72,10.2.79,1,1.6,2,2.42,3q6.14,7.38,12.29,14.73c1.24,1.47,2.5,2.91,3.78,4.34,3.84,4.29,7.64,8.62,11.57,12.83,3.48,3.73,6.66,7.76,10.61,11.05.23.19.3.55.48.88-.53.94-1.17,1.87-1.62,2.88a5.18,5.18,0,0,0,.58,5,2.62,2.62,0,0,0,1.09.88,4.32,4.32,0,0,0,1.4.3,4.85,4.85,0,0,0,3.9-1.51,3.34,3.34,0,0,0,.62-2.72c0-.48,0-1,0-1.43a1.37,1.37,0,0,1,1.28-1.17,17.48,17.48,0,0,1,5.73.11,68.89,68.89,0,0,0,10,.93c1.76.1,3.51.39,5.26.42,2,0,3.38.75,3.88,2.8a3,3,0,0,0,.47.83,4.2,4.2,0,0,0,4.49,2,4.39,4.39,0,0,0,1.32-8.08ZM115.8,143.05a3.5,3.5,0,0,1-3.17-.55,2.23,2.23,0,0,1-.94-2.07c0-.63.85-1.28,1.7-1.45a2.25,2.25,0,0,1,2.77,1.26,15.39,15.39,0,0,1,.61,1.88C116.44,142.46,116.17,142.94,115.8,143.05Zm-6.31,34.85a1.14,1.14,0,0,1-.76.44c-.25,0-.52-.19-.79-.3a2.25,2.25,0,0,1,.35-.75,2.91,2.91,0,0,1,.82-.36,2,2,0,0,1,.32.12.08.08,0,0,1,0,0C109.53,177.36,109.62,177.71,109.49,177.9Zm14.28-31.28c.2.07.43.63.35.75a11.41,11.41,0,0,1-3.23,3.44c-.09.05-.28,0-.52-.09,0-.61-.09-1.24-.07-1.87C120.37,146.58,121.57,145.81,123.77,146.62Zm50.25,103a.91.91,0,0,1-1.23.1,2,2,0,0,1-.89-2.36c.19-.54.92-1.13,1.38-1a2.17,2.17,0,0,1,1.08.74,4.43,4.43,0,0,1,.36,1.37A4.86,4.86,0,0,1,174,249.66Zm29.62-8.14a1.51,1.51,0,0,1-1.2,1.33c-1.56.29-3.14.49-3.87.6-1,0-1.18,0-1.34-.07-6.66-1-13.38-.7-20.08-.69a3.86,3.86,0,0,1-3.28-1.61,98.5,98.5,0,0,0-8.88-9.39c-2.48-2.48-4.84-5.09-7.11-7.77-1.87-2.19-3.81-4.29-5.81-6.36C146.76,212,141.8,206.2,137,200.22c-1.3-1.62-2.68-3.17-4-4.77-1.12-1.35-2.32-2.65-3.3-4.1-3.33-4.95-7.66-9-11.91-13.08-.34-.33-.73-.62-1.07-1-1.82-1.72-2.13-1.75-1.22-4.54.78-2.41.8-5.06,2.28-7.25.07-.09.29-.11.44-.12s.34,0,.41.08a2.62,2.62,0,0,1,.48.8,28.54,28.54,0,0,0,7.14,11.21,14.36,14.36,0,0,0,2.17,1.87,92.72,92.72,0,0,0,9.72,6.1c4.1,2.13,8,4.65,11.9,7.14a22.7,22.7,0,0,1,5.71,5.77,50.4,50.4,0,0,1,8.51,16.5,108.33,108.33,0,0,0,6.1,15.59,28.26,28.26,0,0,0,2.75,4.47,10.35,10.35,0,0,0,4.82,3.8,45.93,45.93,0,0,0,5.76,2.33,19.68,19.68,0,0,0,9,.18c3.82-.84,7.33-2.18,10.16-5,.28-.28.86-.26,1.3-.37a2.55,2.55,0,0,1,.21.91C204.15,238.37,203.89,240,203.64,241.52Zm5.74,8.2a1.55,1.55,0,0,1-1.87-1,1,1,0,0,1,1.07-1.36c.22.06.68.14,1.12.29s.61.66.6,1.15S209.84,249.6,209.38,249.72Z"/><path d="M948.18,232.33a9.54,9.54,0,0,0-3.15-1.1c-2.07-.25-4.13-.52-6.19-.78-.47-.06-1-.06-1.43-.11a1.52,1.52,0,0,1-1.23-1.26c0-1.27,0-2.55,0-3.83a89.47,89.47,0,0,0-.9-16.27c-.44-2.52-.79-5.06-1-7.6-.9-9.18-3.93-17.76-7.52-26.15a54.27,54.27,0,0,0-4.87-9.35c-.54-.79-1-1.62-1.65-2.36a6.46,6.46,0,0,0-4.53-2.42c-.63,0-1.27-.1-1.91-.11l-10.56-.1c-.47,0-.95.08-1.43.12a1.37,1.37,0,0,0-1.2,1.71,12.09,12.09,0,0,0,.44,2.34c2.9,8.3,5.75,16.63,8.79,24.88,2.64,7.2,5.8,14.2,9,21.2a180,180,0,0,0,9.18,17.92c.48.81.86,1.69,1.25,2.47-.14.26-.18.45-.3.54a4.39,4.39,0,0,1-1.17.77,41.86,41.86,0,0,0-11.23,5.3.57.57,0,0,1-.44.13c-.27-.06-.72-.16-.76-.33a83.78,83.78,0,0,0-2.53-9.22c-1.54-4-3.05-8.08-4.71-12.06a74.93,74.93,0,0,0-6.44-12.85,20.26,20.26,0,0,1-1.2-2.07c-2.53-5-5.71-9.61-8.47-14.48a38.55,38.55,0,0,0-2.36-3.61,55.76,55.76,0,0,0-8.06-9.49,1.21,1.21,0,0,0-1.7.1,7.06,7.06,0,0,0-.63.72c-2,3.44-4.06,6.89-6.11,10.32a8.78,8.78,0,0,0-.63,7.85c.59,1.65,1.23,3.29,2,4.88a152.07,152.07,0,0,0,16,26.14c1.71,2.31,3.63,4.47,5.52,6.64a33.16,33.16,0,0,0,6.79,6.05c2.41,1.58,4.84,3.11,7.26,4.68a4.1,4.1,0,0,1,1.06.93,1,1,0,0,1,.12.87,6.8,6.8,0,0,1-1,1.61,19.09,19.09,0,0,0-3.53,7.29,8.57,8.57,0,0,0-.14,4.27,2.66,2.66,0,0,0,3.78,1.67,8.29,8.29,0,0,0,3.4-3.29,16,16,0,0,0,2-6.83c.06-.8.15-1.59.25-2.38a1.46,1.46,0,0,1,1.39-1.07c1.12,0,2.23.16,3.35.16,4.42,0,6.28-.53,9.83-3.1a24.42,24.42,0,0,0,2.77-2.62,2.83,2.83,0,0,1,1.63-1.1,6.48,6.48,0,0,1,1.22.44c2.68,1.57,5.58,1.28,8.44,1a6.67,6.67,0,0,0,4.47-2.55A2.82,2.82,0,0,0,948.18,232.33ZM910,237.53a50.48,50.48,0,0,1-5.94-3.07,43,43,0,0,1-9.43-8.8c-7.95-9.92-14.06-20.91-19.31-32.44-1.48-3.23-1.63-6.08.62-8.93.68-.88,1.18-1.9,1.82-2.82,2.84-4.06,2.53-4.15,5.92-.15a90.89,90.89,0,0,1,8.72,12.6c4.33,7.28,8.37,14.72,12,22.38,1.5,3.17,2.85,6.42,4.2,9.66a55.81,55.81,0,0,1,2.66,9.69,1.32,1.32,0,0,1,0,.54C911.34,237.23,910.58,237.81,910,237.53ZM912,253.59a2.94,2.94,0,0,1-1.68,1.6,1.21,1.21,0,0,1-1.28-.31,1.39,1.39,0,0,1-.26-.83,42,42,0,0,1,1.44-4.54,10,10,0,0,1,1.6-2.32,1,1,0,0,1,.84-.24c.21.05.37.39.51.64s0,.31.06.67A11.92,11.92,0,0,1,912,253.59Zm13.94-12.86c-.3.11-.69.32-.92.22-1.66-.71-3,.73-4.59.56a1.06,1.06,0,0,1-.75-.43c-.1-.24,0-.6.14-.89a.78.78,0,0,1,.29-.36,10.55,10.55,0,0,1,1.53-1.15,40,40,0,0,1,8.84-3.37,2.06,2.06,0,0,1,.47.33.48.48,0,0,1,.1.41A8.79,8.79,0,0,1,925.89,240.73Zm8.32-17.36c0,.71,0,2.31-.19,3.89a5.6,5.6,0,0,1-.69,1.74.49.49,0,0,1-.81.16,7.57,7.57,0,0,1-1.22-1.43,153.46,153.46,0,0,1-11.88-22.37c-.63-1.46-1.22-2.94-1.92-4.38a158.77,158.77,0,0,1-8.59-22.29c-1-3.35-2.25-6.65-3.34-10-.39-1.21-.64-2.45-.94-3.69-.09-.35.46-1,.83-1,3.64.37,7.33.12,10.95.74a3.79,3.79,0,0,1,2.91,2.23c.82,1.73,1.67,3.45,2.42,5.21,1.36,3.23,2.56,6.53,4,9.73a73.46,73.46,0,0,1,4.43,13.62c.58,2.49,1.08,5,1.7,7.47a115.8,115.8,0,0,1,2.33,15.6C934.33,219.92,934.21,221.21,934.21,223.37ZM946.32,236a8.43,8.43,0,0,1-1.78.64,9.74,9.74,0,0,1-6.08-.76c-.56-.28-1.11-.57-1.27-1.29-.1-.47.46-.87,1.4-.9s1.6,0,2.4,0l0-.2c1.73.23,3.47.43,5.19.71.24,0,.45.39.62.63A.92.92,0,0,1,946.32,236Z"/><path d="M1017.17,149.49c-.53-.59-1.13-1.12-1.71-1.68l-2.4-2.34L996,128.63c-1.93-1.91-3.81-3.87-5.78-5.74s-3.77-3.43-5.68-5.12a1.24,1.24,0,0,0-1.67.4,5.45,5.45,0,0,0-.63,1.77c-.22,2.86-.41,5.73-.51,8.6-.26,7.35-.31,14.71-.73,22q-.59,10.54-.79,21.08c0,1.6-.16,3.19-.28,4.79a15.26,15.26,0,0,1-1.87,6.86,26.74,26.74,0,0,0-1.52,3.51q-4.26,10.68-8.51,21.37c-.53,1.34-1.06,2.68-1.5,4.05-1.5,4.71-3.33,9.31-5.17,13.91-.65,1.63-1.31,3.26-1.93,4.9-.34.89-.62,1.81-.92,2.72a1.2,1.2,0,0,0,.64,1.15,2.49,2.49,0,0,0,.45.18c4.09.92,8.24.75,12.38.6.66,0,1.24-1,1.2-1.84a1.62,1.62,0,0,0-1-1.46c-.79-.12-1.58-.22-2.38-.28-1.59-.11-3.18-.17-4.78-.28a1.28,1.28,0,0,1-1-1.41c.33-1.06.62-2.14,1-3.16,3.76-8.82,7.18-17.77,10.53-26.75,1.73-4.64,3.81-9.14,5.76-13.69a13.91,13.91,0,0,1,1.19-2c.19-.28.51-.22.8.07,1,1,.89,2.36,1.27,3.55,2.07,6.55,4,13.13,6,19.7.51,1.68,1,3.38,1.47,5.06,1.81,6,3.66,11.9,5.47,17.86q1,3.21,1.85,6.45a8.34,8.34,0,0,1,.25,4.72c-.07.25.15.59.26,1,3.47,1.24,7.15,1.36,10.8,1.71a4.11,4.11,0,0,0,.47-.07,2.06,2.06,0,0,0,1.52-2.14,1.52,1.52,0,0,0-1.08-1.4c-1.09-.2-2.2-.36-3.3-.5s-2.57,0-3.72-.68a10.64,10.64,0,0,1-1.7-3.94c-2.24-7.66-4.5-15.32-6.31-23.1a114.74,114.74,0,0,0-4.06-14.77c-2.11-5.55-3.5-11.28-5.16-16.95a5.79,5.79,0,0,1-.35-1.39,2.25,2.25,0,0,1,.34-1.35,17,17,0,0,1,2.38-2.35c2.14-1.67,4.35-3.25,6.52-4.88,3.33-2.48,6.76-4.85,10-7.49s6.23-5,9.44-7.38c.39-.28.78-.55,1.15-.86C1019.18,153.64,1019.28,151.86,1017.17,149.49Zm-4,3.92c-1.65,1.25-3.36,2.43-5,3.67q-6.49,4.89-13,9.83c-1.64,1.26-3.19,2.64-4.84,3.9s-3.33,2.43-5,3.62c-.33.24-1.07-.14-1.11-.53a6.1,6.1,0,0,1-.14-.94c.19-4.62.39-9.23.57-13.85s.34-9.24.54-13.86q.34-8.13.76-16.24c0-1,.2-1.9.32-3,.48,0,1-.15,1.34,0a6.72,6.72,0,0,1,1.47,1.2c4.48,4.31,9,8.61,13.41,13,3.64,3.57,7.22,7.21,10.82,10.82A1.42,1.42,0,0,1,1013.17,153.41Z"/><path d="M432.36,111.7a17.39,17.39,0,0,0-2.36-.41c-2.23-.14-4.47-.19-6.7-.32-.78,0-1.55-.19-2.33-.3-.72-1.19-1.43-2.26-2-3.38s-.95-2-1.42-3L410.2,88.11c-.2-.43-.44-.85-.65-1.28q-3.87-8-7.72-16-2.49-5.19-4.94-10.39-1-2.16-2.06-4.33a1.73,1.73,0,0,1,.39-1.76c1.35-1.13,2.7-2.25,4.08-3.35q9.72-7.78,19.46-15.57c.87-.7,1.69-1.47,2.49-2.24a2.25,2.25,0,0,0,.14-2.27c-.19-.25-.35-.53-.56-.77C416.93,26,413,21.78,409.3,17.36c-1.43-1.71-3.06-3.26-4.59-4.9q-3.42-3.68-6.83-7.39C396.9,4,396,2.91,395,1.91A12.34,12.34,0,0,0,392.67.18,3.56,3.56,0,0,0,391.3,0a10.78,10.78,0,0,0-1.2,4.65,42.45,42.45,0,0,0-.3,4.78c0,5-.15,9.89-.54,14.84a116.73,116.73,0,0,0-.15,14.37,40.37,40.37,0,0,1-.05,6.22,9.45,9.45,0,0,0,.19,2.85c.45,2.39,0,4.78.19,7.17a6.14,6.14,0,0,1-.64,2.78c-.94,2.2-2,4.37-3,6.51-1.71,3.43-3.48,6.83-5.21,10.25-2.32,4.55-4.65,9.1-6.92,13.67-1.42,2.86-2.85,5.73-4.08,8.67-2.09,5-4.23,10-6.65,14.86a8.65,8.65,0,0,0-.41.87,1.54,1.54,0,0,0,1.08,1.83,4.59,4.59,0,0,0,.94.15q6.69-.57,13.37-1.18a5.33,5.33,0,0,0,.92-.27c.37-.1.86-.75.71-1.11s-.39-.94-.74-1.12a3.49,3.49,0,0,0-1.81-.44c-1.75.1-3.49.36-5.24.5-1.1.09-2.21.08-3.32.07a.49.49,0,0,1-.47-.68,12,12,0,0,1,.65-1.76c3.32-6.91,7-13.62,10.26-20.59,2.88-6.23,5.92-12.39,8.71-18.67,1.09-2.47,2.46-4.82,3.72-7.21a.82.82,0,0,1,1.22,0c1,2,2,4,2.94,6,1.68,3.62,3.18,7.33,5,10.87C403,83.7,405,88.76,408,93.3a13.74,13.74,0,0,1,1.25,2.59c2.19,5.66,5.27,11,6.91,16.83a2.2,2.2,0,0,0,1.7,1.53,11.75,11.75,0,0,0,2.35.38c3.67.18,7.35.31,11,.44a5,5,0,0,0,.94-.11,1.93,1.93,0,0,0,1.24-1.84A1.74,1.74,0,0,0,432.36,111.7ZM394.1,48.18c-.82-1.13-.47-2.44-.47-3.66,0-9.87.07-19.74.13-29.61,0-1.44.06-2.87.14-4.3a1.67,1.67,0,0,1,.44-.75c.21-.29.86-.18,1.26.22.68.67,1.38,1.32,2,2A92.89,92.89,0,0,0,405,19.56c1.41,1.29,2.75,2.66,4,4.06,1.61,1.76,3.15,3.58,4.7,5.4A19,19,0,0,1,415.15,31a4.08,4.08,0,0,1,.3,1c-5.05,4.26-9.93,8.83-15.42,12.67-.78.55-1.54,1.13-2.34,1.64C396.55,47,395.81,48.55,394.1,48.18Z"/><path d="M304.21,105.73a54.05,54.05,0,0,0-1.36-14.14A67.26,67.26,0,0,0,293,68.83a38.45,38.45,0,0,0-4.22-5.21,64.49,64.49,0,0,0-8.1-6.74c-9.18-6.81-19.55-10.79-30.64-13a56.86,56.86,0,0,0-16.68-1.1c-2.87.27-5.72.63-8.55,1.11a14.27,14.27,0,0,0-6.19,2.46,18.14,18.14,0,0,0-5.93,8,5.47,5.47,0,0,0-.21,3.3c0,.16.13.42.2.42.29,0,.7,0,.85-.16.93-1.09,1.68-2.35,2.7-3.33a13,13,0,0,1,13.28-3.23,21.33,21.33,0,0,1,8.61,5c5.21,4.71,8.42,10.4,8.83,17.49a41.06,41.06,0,0,0,3.69,14.32,25.45,25.45,0,0,0,9.76,11.55c2.56,1.61,5.25,3,7.92,4.48A49.85,49.85,0,0,1,281,113.49a22.38,22.38,0,0,1,5.74,10.88,9.42,9.42,0,0,1,.16,2.85,42.16,42.16,0,0,1-2.24,10.28c-1.34,3.53-3.15,6.64-6.83,8.21a11.33,11.33,0,0,0-1.65,1,.59.59,0,0,0-.23.41c0,.3,0,.81.11.87a3.35,3.35,0,0,0,1.79.46,16.41,16.41,0,0,0,8.39-4.34,80.63,80.63,0,0,0,10.34-12,45,45,0,0,0,5.9-12.53A40.45,40.45,0,0,0,304.21,105.73Zm-5.09,12.54c-.29.74-.53,1.51-.75,2.27-1.42,4.83-4.07,9-7,13-.16.22-.56.26-.93.42a9.56,9.56,0,0,1,0-1.42,27.2,27.2,0,0,0-2.77-16.28,28.82,28.82,0,0,0-9-10.41,123.21,123.21,0,0,0-13.59-8.09c-1.53-.85-3.09-1.68-4.6-2.57a15.26,15.26,0,0,1-5.3-5.44,29.15,29.15,0,0,1-4.36-13.56c-.11-2.23-.15-4.47-.23-6.71-.05-1.28-.08-2.56-.21-3.83a17.9,17.9,0,0,0-3.59-9.27,37.41,37.41,0,0,0-7.6-7.94c-.5-.36-1-.8-1.43-1.2.27-.34.42-.73.63-.76a10.2,10.2,0,0,1,2.84-.26A101.79,101.79,0,0,1,253.07,48c6.35,1.58,12.64,3.44,18.3,6.94,3,1.85,6.08,3.52,9,5.5a54.1,54.1,0,0,1,8.21,7.34,29.65,29.65,0,0,1,4.11,5.88c5.34,9.29,8.68,19.21,8.83,30A37.85,37.85,0,0,1,299.12,118.27Z"/><path d="M892.49,271a20.15,20.15,0,0,0-2-5.88c-1.56-3-3.15-5.93-4.68-8.92a187.85,187.85,0,0,0-11.48-19.37,115.11,115.11,0,0,1-12.5-23.69,59.05,59.05,0,0,1-2.19-7.35,9.39,9.39,0,0,1,.19-5.2c.54-1.67,1-3.38,1.58-5a12.75,12.75,0,0,0,.62-4.24,14,14,0,0,0-1.21-6.07c-1.69-3.61-1.76-7.43-1.57-11.28a13.54,13.54,0,0,1,.54-2.81,35.84,35.84,0,0,1,8.94-15.12c1.86-2,3.76-3.93,5.61-5.91a12,12,0,0,0,1.13-1.52.54.54,0,0,0-.8-.66,43.07,43.07,0,0,0-14.4,14.48,27.46,27.46,0,0,0-4,16.47,54.09,54.09,0,0,0,1.79,10.37,10.67,10.67,0,0,1-.6,8.35c-.3.57-.53,1.17-.8,1.75a12.31,12.31,0,0,0-1,6.08,35.78,35.78,0,0,0,2.72,11.61,166.2,166.2,0,0,0,14,26.71c3.38,5.24,6.91,10.37,10,15.82.7,1.25,1.55,2.42,2.3,3.64.59.95,1.15,1.92,1.71,2.89.16.27.3.56.45.84.25.51.16,1.34-.14,1.31a2,2,0,0,1-.87-.19,25.62,25.62,0,0,1-5.77-5.71A159.89,159.89,0,0,1,870.49,248c-3.53-5.9-6.65-12-10-18-4.37-7.9-7-16.42-9.75-24.95a1.63,1.63,0,0,1,.5-1.75,17.81,17.81,0,0,0,3-3.08,7.05,7.05,0,0,0,1-5.94,3.49,3.49,0,0,0-5.71-1.75,8.46,8.46,0,0,0-2.43,4.07c-.27.91-.35,1.88-.55,2.81a1.52,1.52,0,0,1-1.53.9,3.56,3.56,0,0,1-.47-.05A33.28,33.28,0,0,1,834.36,195c-1.37-1.1-2.69-2.26-4-3.4a43.27,43.27,0,0,0-8.18-5.83,12.46,12.46,0,0,0-6.45-1.55,19.36,19.36,0,0,0-13.38,5.54,4.4,4.4,0,0,0-.87,1.66,1,1,0,0,0,.29.8,1.11,1.11,0,0,0,.87.17,5.25,5.25,0,0,0,1.3-.59c1.24-.72,2.43-1.55,3.72-2.17a12.25,12.25,0,0,1,11.12-.06,39.85,39.85,0,0,1,10.36,6.85,49.06,49.06,0,0,0,8.13,5.91,12.68,12.68,0,0,0,4.89,1.9c1.42.21,2.84.43,4.25.72a1.66,1.66,0,0,1,1.32,1.23c.13.46.25.93.37,1.39a92.38,92.38,0,0,0,5.65,15.78A219.51,219.51,0,0,0,865.13,245c3.68,6.17,7.72,12.14,11.71,18.13a52.18,52.18,0,0,0,4.49,5.6,16.11,16.11,0,0,0,5.9,4,7.39,7.39,0,0,0,3.29.5A2.12,2.12,0,0,0,892.49,271ZM850.12,198.2a1.16,1.16,0,0,1-.32-.8,3.93,3.93,0,0,1,1.28-2.84.91.91,0,0,1,.82-.23,2.9,2.9,0,0,1,.72.74,3,3,0,0,1-1.69,3.2A.92.92,0,0,1,850.12,198.2Z"/><path d="M256.71,162.32a7.26,7.26,0,0,0-2.83-2.5c-3.85-2.29-7.73-4.54-11.53-6.9-6.38-4-12.71-8-19.07-12-1.62-1-3.25-2-4.88-3a1.23,1.23,0,0,1-.28-1.29q1.6-2.08,3.24-4.15a1.19,1.19,0,0,1,1.69-.16c1,.82,1.94,1.65,2.92,2.46a.91.91,0,0,0,1.25-.26c.1-.28.26-.66.15-.88a11.14,11.14,0,0,0-4.51-4.83,1.62,1.62,0,0,0-1.36,0,10.88,10.88,0,0,0-2.33,1.64c-1.39,1.32-2.68,2.74-4,4.11a1.7,1.7,0,0,1-2.18.33c-3.55-2.16-7.19-4.19-10.62-6.54-11-7.51-22.42-14.2-33.78-21.07-.95-.58-1.95-1.09-3-1.58a1.55,1.55,0,0,0-2.06,1.34,3.7,3.7,0,0,0,.5,2.3c2.1,3.77,4.18,7.55,6.3,11.31q1.41,2.5,2.92,5c2.68,4.35,5.62,8.55,7.64,13.29a17.14,17.14,0,0,0,1.17,2.09c2.64,4.38,5.33,8.74,7.94,13.13a41.75,41.75,0,0,1,3.53,6.44c-.42.62-.82,1.3-1.3,1.91-1.4,1.75-2.86,3.44-4.23,5.21a2.23,2.23,0,0,0,0,2.69,14.37,14.37,0,0,0,3.48,3.93,1.43,1.43,0,0,0,.86.37,2.5,2.5,0,0,0,1.25-.46c.17-.13.16-.62.09-.91a8.3,8.3,0,0,0-1.9-2.72c-1.37-1.71-1.36-2.09,0-3.69.52-.61,1.05-1.21,1.58-1.81.22-.24.45-.46.67-.68a1.24,1.24,0,0,1,2,.1,98,98,0,0,1,6.24,10.78,34.22,34.22,0,0,0,1.73,3.42q6.36,10.45,12.78,20.85a17.62,17.62,0,0,0,1.47,1.88,4.9,4.9,0,0,0,.74.61,1.85,1.85,0,0,0,1.81,0,1.08,1.08,0,0,0,.41-1.26,23.43,23.43,0,0,0-3.08-7c-1.74-2.49-3.28-5.11-5-7.65q-7.42-11.21-14-22.91c-.53-1-1.33-1.83-1.11-3.36.52-.68,1.24-1.52,1.84-2.45a5.83,5.83,0,0,1,4.41-2.56c.64-.08,1.26-.21,1.9-.26a2.53,2.53,0,0,1,2.76,1.44,22.16,22.16,0,0,0,2.85,5,5.48,5.48,0,0,0,5.12,2,2.06,2.06,0,0,0,1.23-.63,13.37,13.37,0,0,0,1.32-2,3.25,3.25,0,0,0,.15-2.79,6.6,6.6,0,0,0-1.83-2.77,12.84,12.84,0,0,0-3.61-2.33c-1.15-.5-2.47-.65-3.64-1.65-.09-.63-.25-1.41-.29-2.19-.22-4.55-.73-4,3.2-7.26a4.66,4.66,0,0,1,.76-.37c3.07,1.78,6,3.42,8.85,5.16q5.13,3.1,10.18,6.34a75.61,75.61,0,0,0,7.39,4.43,30.47,30.47,0,0,1,3.28,2c1.33.89,2.61,1.84,3.93,2.75a30.81,30.81,0,0,0,6.71,3.67,2,2,0,0,0,1.35,0A2.29,2.29,0,0,0,256.71,162.32Zm-44.19-6.48c.14-.38.39-.47.78-.37a6.29,6.29,0,0,1,3.47,2.39,1,1,0,0,1,.17.42c0,.16.06.32.11.47a2.34,2.34,0,0,1-.87,1.12,1.5,1.5,0,0,1-.45.17,2,2,0,0,1-1.35-.15,4.83,4.83,0,0,1-2-3.63C212.35,156.13,212.46,156,212.52,155.84Zm-2.05-16.22a12,12,0,0,1-1.24,2,6.44,6.44,0,0,0-1.47,4.45c0,.32,0,.64,0,1,.09,3.78-.06,4.13-3.82,4.42a8.51,8.51,0,0,0-2.29.64,5.13,5.13,0,0,0-2.92,2.33,13.89,13.89,0,0,1-1.81,2.21,1.1,1.1,0,0,1-1.29,0c-.29-.37-.6-.74-.86-1.14-3.16-5-6.22-10-9.12-15.21-4.46-7.94-9.11-15.78-13.67-23.66a15.65,15.65,0,0,1-1-2.15c-.07-.19.09-.47.2-.73h0l.08-.14-.08.15h0c-.14.19-.31.21-.51,0,0,0,.13-.2.15-.19a2.42,2.42,0,0,1,.36.18l.09-.15-.06.14a18.9,18.9,0,0,1,4.79,2.52l.65.42c10.92,7,21.77,14,32.64,21a4,4,0,0,1,1,1A1.09,1.09,0,0,1,210.47,139.62Z"/><path d="M139.79,290.23a4.36,4.36,0,0,0-.49-1.33c-1.61-3.13-3.25-6.24-4.85-9.37q-5-9.81-10-19.66c-1.29-2.56-2.51-5.17-3.76-7.76a1,1,0,0,1,.3-1.29,22.7,22.7,0,0,1,6-2.85.93.93,0,0,1,.82.32c.62.91,1.16,1.89,1.78,2.81.12.17.51.16.78.18,0,0,.17-.28.16-.43,0-1.63-.84-3-1.31-4.57a1.84,1.84,0,0,0-2-.85c-.75.28-1.47.62-2.2.92-1.48.61-2.94,1.25-4.44,1.82a1.81,1.81,0,0,1-2.45-.84c-.69-1.26-1.34-2.55-2-3.83-2.07-4.15-4-8.34-6.2-12.45-3.63-6.93-7.19-13.91-11-20.72-1.73-3.06-3.74-6-5-9.31a.65.65,0,0,0-.27-.37,4.42,4.42,0,0,0-1.28-.52,1,1,0,0,0-1.09.76,5,5,0,0,0-.58,1.8,41.52,41.52,0,0,0,.07,4.32c.53,8.93,1.26,17.86,1.6,26.81.17,4.31.55,8.62.71,12.93a97.44,97.44,0,0,0,.52,10.53,1.62,1.62,0,0,1-1.23,1.81c-1.8.63-3.63,1.2-5.45,1.82a1.76,1.76,0,0,0-1.09,2.33c.63,1.28,1.36,2.51,2.07,3.76a.51.51,0,0,0,.38.21c.33,0,.51-.21.45-.59a21.45,21.45,0,0,1-.38-2.36c0-.41.24-1.08.54-1.19,1.34-.48,2.73-.82,4.12-1.18a1.14,1.14,0,0,1,1.06.75q.21,3.11.4,6.21c.3,4.62.79,9.25.83,13.88,0,6.24.67,12.45,1,18.67a.73.73,0,0,0,.13.45c.21.21.47.5.7.49a1.13,1.13,0,0,0,.74-.49,4.3,4.3,0,0,0,.59-2.76q-.18-4.8-.37-9.58c-.16-4-.28-8-.49-12-.16-2.87-.43-5.74-.7-9.23,0-.66,0-1.94,0-3.22-.19-4.94,0-4.2,3.87-5.87.29-.12.6-.2.9-.32a6.8,6.8,0,0,1,4.23-.18c1.76.44,2.21.9,2.17,2.57,0,1.12-.14,2.24-.09,3.35a13.55,13.55,0,0,0,3.55,8.69,2.18,2.18,0,0,0,2.21.63,5.21,5.21,0,0,0,4-5.76,11.8,11.8,0,0,0-3.32-6.76c-.78-.8-1.64-1.53-2.41-2.33a1.08,1.08,0,0,1-.3-.87,30.32,30.32,0,0,1,1.44-4,2.47,2.47,0,0,1,4-.18q2.6,4.59,5.13,9.21c1.16,2.11,2.41,4.17,3.38,6.35,2.47,5.56,5.5,10.83,8.31,16.21.89,1.7,2.07,3.26,2,5.3,0,.13.15.27.26.38.33.34.64.72,1.2.65a3,3,0,0,0,2.1-1A1.26,1.26,0,0,0,139.79,290.23ZM114.9,265.15a4.3,4.3,0,0,1,.3,3.21,1.71,1.71,0,0,1-2.62.94,6.32,6.32,0,0,1-1.49-1.78,6.69,6.69,0,0,1-.38-5c.06-.18.48-.24.75-.36A6.09,6.09,0,0,1,114.9,265.15ZM113.52,251a6.55,6.55,0,0,0-3.88,4.56,8.16,8.16,0,0,1-.33.9,1.35,1.35,0,0,1-1.55.77c-.75-.27-1.49-.55-2.23-.84s-1.47-.61-2-.85c-2-.07-3.52,1-5.21,1.36a1.46,1.46,0,0,1-1.74-1.19c-.1-.63-.22-1.26-.26-1.89-.4-5.89-.76-11.77-1.19-17.65-.31-4.45-.71-8.9-1.07-13.34-.3-3.82-.61-7.63-.88-11.44-.07-1.11,0-2.23,0-3.34,0-.41.24-.61.59-.55a.58.58,0,0,1,.35.2c1.85,3.52,3.81,7,5.48,10.6S103.2,225.41,105,229c1.48,3,2.88,6,4.33,9.05,1.24,2.59,2.49,5.16,3.73,7.75l1.92,4A6.29,6.29,0,0,1,113.52,251Z"/><path d="M636.72,145.69a40.47,40.47,0,0,0-8.35-9.16,22.34,22.34,0,0,0-14.51-5.38,35.75,35.75,0,0,0-10,1.14,23.44,23.44,0,0,0-11.72,7.06A30.6,30.6,0,0,0,585.73,151a47.88,47.88,0,0,0-1.86,12.26,24.59,24.59,0,0,0,1.23,8,52,52,0,0,0,2.07,5.36,10.64,10.64,0,0,0,1.55,2.39,41.59,41.59,0,0,0,2.88,3.2c5.44,5.52,12,8.37,19.8,7.87,1.91-.15,3.82-.26,5.73-.45a17.43,17.43,0,0,0,6.4-1.86c6.25-3.29,11.11-7.93,14-14.52a35.81,35.81,0,0,0,3-15.37A23.27,23.27,0,0,0,636.72,145.69Zm-.28,15.05a36.12,36.12,0,0,1-8.63,18.88,30,30,0,0,1-4.32,3.76,5.27,5.27,0,0,1-1.73.74A40.53,40.53,0,0,1,609.5,186a24.33,24.33,0,0,1-11-2.76c-3.53-1.79-5.94-4.72-7.91-8.08s-2.22-6.94-2.36-11.34a31.56,31.56,0,0,1,5-16.53,30.91,30.91,0,0,1,6.86-7.91,20.6,20.6,0,0,1,16.18-4.25,15.64,15.64,0,0,1,5.37,2,36.56,36.56,0,0,1,8,6,25.7,25.7,0,0,1,6.94,13.41A13.39,13.39,0,0,1,636.44,160.74Z"/><path d="M1082.11,201.45a24.67,24.67,0,0,0-1.43-9.28,13.42,13.42,0,0,0-2.17-4.24,44.39,44.39,0,0,0-7.38-7.5,24.86,24.86,0,0,0-16.09-5.27,38.33,38.33,0,0,0-12.71,2.18c-1.2.44-2.39.92-3.54,1.47-8.11,3.9-14.8,13.3-15.46,22.3-.84,3.54-.19,7.06.68,10.43a26.68,26.68,0,0,0,6.19,11.24A33.29,33.29,0,0,0,1049,233.52a14.79,14.79,0,0,0,6.65-.08c1.55-.41,3.09-.82,4.64-1.21a26.35,26.35,0,0,0,7.37-3.38,36.1,36.1,0,0,0,9.91-9.64,20.8,20.8,0,0,0,3.2-5.86C1082,209.57,1083.1,205.67,1082.11,201.45Zm-2.73,3.86c0,.16,0,.32-.05.48-.62,8-4.51,14.28-10.81,18.9-5.93,4.33-12.61,6.77-20.19,5.73a22.56,22.56,0,0,1-8.12-2.65,28.47,28.47,0,0,1-11.9-12.71,10.76,10.76,0,0,1-1-3.66c-.23-2.38-.59-4.74-.84-7.12a23.44,23.44,0,0,1,.71-8.54,6.9,6.9,0,0,1,.45-1.35c2.4-5,5.65-9.25,10.48-12.13a12.93,12.93,0,0,1,2.6-1.17c1.67-.55,3.36-1,5.06-1.45a15,15,0,0,1,2.83-.42c1.27-.07,2.55,0,3.18,0a23,23,0,0,1,10.08.8A24.67,24.67,0,0,1,1073.1,187C1077.88,192.07,1080.32,198.15,1079.38,205.31Z"/><path d="M361,57.78a39.67,39.67,0,0,0-2.22-6.31,34.25,34.25,0,0,0-7.29-9.39,6.53,6.53,0,0,0-1.18-.82,32.05,32.05,0,0,0-15.23-4.68c-5,0-7.73.47-10.46,1.7A27.2,27.2,0,0,0,310.2,52.86a9.24,9.24,0,0,0-.86,3.7c0,2.08,0,4.15,0,6.22A21.49,21.49,0,0,0,310,67.5c1.39,6.14,4.73,11.09,9.05,15.48a15.54,15.54,0,0,0,6.49,3.94c5.24,1.62,10.57,2.34,16,1a24.74,24.74,0,0,0,13.69-8.21,28.36,28.36,0,0,0,5.7-12A19.4,19.4,0,0,0,361,57.78Zm-4.53,8a23.81,23.81,0,0,1-5.13,10.66,16.76,16.76,0,0,1-4.83,3.87c-4.22,2.36-8.58,4.26-13.44,4-3.23.24-6.13-.73-9.06-1.47a8.42,8.42,0,0,1-3.29-1.91,25.33,25.33,0,0,1-6.25-7.79,29.08,29.08,0,0,1-3.36-15.23,12.71,12.71,0,0,1,1.14-4.62,34.14,34.14,0,0,1,6.56-9.36A15.7,15.7,0,0,1,323.24,41a19.67,19.67,0,0,1,19.25.13c1.12.61,2.24,1.21,3.35,1.84a14.61,14.61,0,0,1,4.67,4c.65.9,1.4,1.74,2.11,2.6A18.78,18.78,0,0,1,356.51,65.78Z"/></g></g></svg>