<svg xmlns="http://www.w3.org/2000/svg" xmlns:xlink="http://www.w3.org/1999/xlink" viewBox="0 0 595.86 272.28"><defs><linearGradient id="White_Black" x1="5.08" y1="132.36" x2="588.99" y2="132.36" gradientUnits="userSpaceOnUse"><stop offset="0" stop-color="#fff"/><stop offset="1"/></linearGradient><linearGradient id="linear-gradient" x1="-2371.88" y1="-5080.33" x2="-2371.88" y2="-5573.51" gradientTransform="matrix(0.57, 0.82, -0.82, 0.57, -2740.83, 5191.74)" gradientUnits="userSpaceOnUse"><stop offset="0.02"/><stop offset="0.29" stop-color="#eee"/><stop offset="0.52" stop-color="#fff"/><stop offset="0.72" stop-color="#ececec"/><stop offset="1" stop-color="#171717"/></linearGradient></defs><title>labirinto</title><g id="Layer_2" data-name="Layer 2"><g id="Layer_5" data-name="Layer 5"><path d="M82.28,264.22c19.23-102,106.51-179,211.28-179s192,77,211.27,179h83.6C570.38,115.55,446.8.5,297,.5S23.69,115.55,5.64,264.22Z" style="stroke-miterlimit:10;stroke:url(#White_Black)"/><path d="M561.89,261.48a13.25,13.25,0,0,1,2-.74l.31-.07c3-.91,10.21-2.32,12.31-2.76,4.35-.9,5.93-1.59,6.08-5.07s-2.55-3.59-5.52-4c-1.37-.18-3.86.48-5.71.73-3.06.42-6.85,1.05-10,.25a9.89,9.89,0,0,1-2.52-5.34,7.05,7.05,0,0,1,2-5.79,63.25,63.25,0,0,1,10.06-3.31c1.84-.49,4.12-.84,5.24-1.54,2.42-1.51,4.32-2.6,2.32-5.29s-3.63-3-7.9-2.2c-2.06.38-8.72,1.85-11.67,2l-.29.06a16.26,16.26,0,0,1-2.32.07c-7.72-1.5-12-5.14-15.27-12.25a41.32,41.32,0,0,1,2-13.42,11.18,11.18,0,0,0,5.61,1.37c.14.85-.07,1.57.57,2.3a5.11,5.11,0,0,0,3.3,2,15.64,15.64,0,0,0,7.12-.82l.12-.05a14.74,14.74,0,0,0,1.38-.68,10.1,10.1,0,0,0,3.9-4,2.09,2.09,0,0,0,.19-1.2,4.62,4.62,0,0,0-.57-1.87,3.69,3.69,0,0,0-.25-.34,30.39,30.39,0,0,0,2.78-2.78l-1.05-.54a28,28,0,0,1-2.61,2.61,25.16,25.16,0,0,0-8.51-.89,13.63,13.63,0,0,0,4.06-6.08,40,40,0,0,1,4.09-.33l0-1a39.44,39.44,0,0,0-4.35.35c-.1-.11-.1-.26-.23-.35-3.09-2.33-5.84-2.32-9.5-1.42a11.65,11.65,0,0,0-1.12.42l-.11,0c-2.5,1.33-4.44,2.7-5.31,5.47-.23.74.24,1.1.44,1.74a.93.93,0,0,0,.22.27,5.68,5.68,0,0,0,1.8,1.26c-.88,1-1.75,2.06-2.68,3A33.42,33.42,0,0,1,533,189.91c-2.19-8.21-2.43-15.74.68-23.73a15,15,0,0,1,1.18-1.88s.18-.19.19-.21a85.22,85.22,0,0,1,7.52-8.53c2.8-2.78,3.46-3.71,2-6.34s-3.52-1.7-6-.9c-1.17.37-2.54,1.68-3.91,2.71-2.26,1.7-5,3.8-8,4.56-2.31-.55-4.06-1-5.54-3.05a8.41,8.41,0,0,1-1.3-6.89,43.43,43.43,0,0,1,6.82-6.12c1.3-1,2.93-2.06,3.59-3.05,1.4-2.14,2.35-3.68-.1-5.29s-3.82-1.72-7.22.07c-1.64.87-6.6,4-9,4.85,0,0-.17.12-.2.12-.74.13-1.16.63-2,.64-8.18.17-14.21-3.35-19.93-9A42.34,42.34,0,0,1,487,113.73c1.59-.6,3.13-1.3,4.73-1.88a3.69,3.69,0,0,0,1,1.41c.12.1.18.25.37.29,3.57.68,6.13-.47,8.58-3.09s2.87-4.87,1.1-7.86c-.07-.12-.23-.15-.32-.24a25.65,25.65,0,0,0,1.2-3.16l-1-.15a24.09,24.09,0,0,1-1.11,3,7.87,7.87,0,0,0-1.81,0,23.52,23.52,0,0,0-5.22,1.73,16.06,16.06,0,0,0,1-5.29,4.5,4.5,0,0,0-.26-1.22,31.87,31.87,0,0,1,3.12-1.49l-.35-.87a33.7,33.7,0,0,0-3.32,1.59c-.1-.07-.19-.2-.32-.24-3.36-1.07-6-.22-8.42,2.3s-3.13,5.05-1.54,8.27c.17.33.52.32.79.48a4.38,4.38,0,0,0,1.36.42,29,29,0,0,0-.61,4.83,51.41,51.41,0,0,1-11.07-4.77c-4.82-4.37-7.32-8.78-7.28-15.37a15.6,15.6,0,0,1,.37-1.83,2.5,2.5,0,0,1,.09-.25,96.15,96.15,0,0,1,3.42-10.16c1.39-3.61,1.35-4.68-.84-6.62s-3.62-.69-5.58.91c-.91.74-1.49,2.33-2.25,3.69-1.24,2.24-2.71,5-4.88,6.74-2.25,0-3.64-.09-5.5-1.65a9.83,9.83,0,0,1-3.2-6.39,39.1,39.1,0,0,1,3.42-8.27c.72-1.47,1.69-3,1.85-4.21.34-2.6.43-4.43-2.36-5.18S448.1,59,446,61.93c-1,1.44-3.76,5.95-5.48,7.65a1,1,0,0,1-.12.19c-.62.38-.58.93-1.34,1.27-7.6,3.41-11.59,1.48-18.27-2.75A74.73,74.73,0,0,1,411.59,55c1.21-1.3,2.4-2.62,3.57-3.93.69.51,1.17,1.22,2.11,1.28a4.14,4.14,0,0,0,3.42-1,13.38,13.38,0,0,0,3.45-5.83.45.45,0,0,0,0-.11,13.66,13.66,0,0,0,.29-1.5,11.6,11.6,0,0,0-.8-5.72,2.93,2.93,0,0,0-.83-1,5.51,5.51,0,0,0-1.83-1,3.1,3.1,0,0,0-.42-.08,31.39,31.39,0,0,0-.51-4L419,32.4a29.27,29.27,0,0,1,.48,3.73,17.64,17.64,0,0,0-5.73,5.41A18.11,18.11,0,0,0,411.21,34a30.33,30.33,0,0,1,2.25-3l-.79-.77a31.44,31.44,0,0,0-2.39,3.24c-.15,0-.27-.13-.43-.11-3.74.37-5.36,2.24-6.86,5.55a10,10,0,0,0-.34,1.1.36.36,0,0,0,0,.11c-.42,3-.29,5.49,1.38,8.05.45.69,1.11.75,1.76,1.11a.89.89,0,0,0,.36.07,5,5,0,0,0,2.14-.26c.47,1.83,1.19,3.54,1.83,5.31-4.25,1.3-8,.93-12.28-.07-6.95-4.94-11-9.88-13.8-18a14.74,14.74,0,0,1-.28-2.36s0-.27,0-.3a113.3,113.3,0,0,1,.41-12.1c.27-4.36-.14-5.81-3.29-7s-4.14.87-5.42,3.55c-.59,1.24-.59,3.42-.85,5.32a53.37,53.37,0,0,1-2.13,10.32c-1.58,1.66-3,2.57-5.32,2.15s-3.4-1.79-4.36-3.89a52.39,52.39,0,0,1,1.33-10.31c.37-1.85,1.07-3.89.91-5.24-.34-2.91-.63-5.1-4-4.88s-4.3,1.44-5.49,5.57c-.58,2-2.24,8.46-3.46,11.12,0,0-.06.24-.08.28a15.62,15.62,0,0,1-1,2c-5,6.36-10.37,8.79-18.43,9.3a30.29,30.29,0,0,1-11-7.29,52.74,52.74,0,0,0,3.65-4.39,5.08,5.08,0,0,0,2,.91c.15,0,.29.13.47.06,4.07-1.42,5.81-4.05,6.38-8.29.54-4.07-.61-6.87-4.29-8.79-.14-.08-.32,0-.47-.05A31.84,31.84,0,0,0,328.25,8l-1.07.49a33.73,33.73,0,0,1,1,3.8,10.85,10.85,0,0,0-2.81,2.49,44.58,44.58,0,0,0-2.65,3.91,28,28,0,0,0-1.89-5.12,8,8,0,0,0-1.71-2.14A36.08,36.08,0,0,1,321,7.87l-.92-.69a35.69,35.69,0,0,0-2,3.75c-.15,0-.31-.09-.46,0-4,1-5.87,3.69-6.45,7.68-.61,4.16.32,7.11,3.84,9.31.53.33,1-.06,1.47-.07s.73-.29,1.16-.41a27.06,27.06,0,0,0,2.35,5,32.37,32.37,0,0,1-12.94,4.5C299.35,35,294,31.71,290.24,24.6a13,13,0,0,1-.59-2.1s0-.26,0-.28c-.67-2.73-1.06-9.15-1.22-11.14-.33-4.13-.89-5.44-4.06-6.18s-3.87,1.32-4.82,4c-.44,1.25-.2,3.31-.24,5.14a46.28,46.28,0,0,1-1,10.05c-1.45,1.87-2.88,3.06-5.3,3.14a5.76,5.76,0,0,1-5.29-2.7,53.34,53.34,0,0,1-.53-9.95c0-1.8.32-3.82-.08-5.07-.87-2.7-1.52-4.73-4.68-4s-3.9,2-4.34,6.17c-.21,2-.69,8.44-1.41,11.18a1.49,1.49,0,0,1,0,.28,13.19,13.19,0,0,1-.61,2.11c-4.1,7.25-9.36,11.27-17,14.46-4.51,0-8.66-.37-12.63-2.62a39.59,39.59,0,0,0,2.12-4.64c.83.22,1.56.7,2.45.45a4,4,0,0,0,2.88-2,12.54,12.54,0,0,0,1.16-6.5s0-.09,0-.12a14.15,14.15,0,0,0-.29-1.47,11.53,11.53,0,0,0-2.87-5,2.88,2.88,0,0,0-1.15-.65,5.59,5.59,0,0,0-2.07-.29,2.83,2.83,0,0,0-.42.07,34.72,34.72,0,0,0-2-3.52l-.88.67a28,28,0,0,1,1.84,3.3,17.62,17.62,0,0,0-3.36,7,18,18,0,0,0-5.1-6.1,28.23,28.23,0,0,1,.92-3.62l-1-.45a32.41,32.41,0,0,0-1,3.85c-.15,0-.3,0-.44.05-3.35,1.66-4.15,4-4.32,7.58a8.77,8.77,0,0,0,.09,1.15.37.37,0,0,0,0,.11c.71,2.92,1.73,5.22,4.17,7,.66.48,1.28.3,2,.41a.81.81,0,0,0,.35-.06,4.86,4.86,0,0,0,1.89-1,29.71,29.71,0,0,0,3.47,4A48.43,48.43,0,0,1,214,47c-7.31,1.68-13,1.48-18.8-3.67-.58-.51-.69-1.1-1.16-1.65,0,0-.08-.21-.1-.23a85.28,85.28,0,0,1-4.38-9.36c-1.52-3.59-2.46-4.71-5.57-4.56s-3.24,2.13-3.3,4.9c0,1.28.79,3.1,1.29,4.79A47,47,0,0,1,184,46.76a6.83,6.83,0,0,1-3.8,4.76c-2.1.95-3.59.57-5.55-.39a38.43,38.43,0,0,1-3.54-8.75c-.52-1.63-.83-3.52-1.6-4.53-1.65-2.16-2.83-3.94-5.58-2.4s-3,3-2.09,7a99.63,99.63,0,0,1,2.09,11,2.61,2.61,0,0,1,.06.27,14.57,14.57,0,0,1,.08,2.2c-1.34,7.91-4.64,13.89-9.89,19.91-3.77,2.2-7.12,3.67-11.56,3.22a27.49,27.49,0,0,0,.79-4.94,5.7,5.7,0,0,0,2-.17c.16,0,.36,0,.51-.17,2.65-2.93,2.75-5.67,1-9.25-1.66-3.43-4.11-5.19-8-5.07a1.84,1.84,0,0,0-.41.16,34.67,34.67,0,0,0-2.93-2.76l-.64.84a33.68,33.68,0,0,1,2.75,2.59,6.36,6.36,0,0,0-.79,1.66,23,23,0,0,0-.54,5.7,22.07,22.07,0,0,0-5.26-3.73,6.57,6.57,0,0,0-1.45-.41,28.75,28.75,0,0,1-.19-3.6l-1.11-.15a29,29,0,0,0,.21,3.84c-.12.06-.3,0-.41.16-2.81,2.68-3,5.47-1.39,8.94s4.06,5.58,8,5.84c.41,0,.58-.28.88-.44a4.15,4.15,0,0,0,1.08-1,15.12,15.12,0,0,0,4.46,2.78,69,69,0,0,1-7.19,13.68c-7,6-9.85,7.65-18.77,4.31-.9-.33-1-.77-1.71-1.16a1.14,1.14,0,0,1-.15-.17c-2-1.56-5.81-5.93-7.07-7.29-2.61-2.82-3.92-3.67-6.84-2.64s-2.49,3-1.68,5.61c.37,1.24,1.72,2.74,2.74,4.22a41.28,41.28,0,0,1,4.92,8.59,7,7,0,0,1-2.18,5.91c-1.75,1.59-3.31,1.7-5.54,1.64-2.53-1.81-4.54-4.87-6.21-7.21-1-1.41-1.91-3.11-3-3.83-2.31-1.54-4-2.94-6.22-.6s-2,3.87.15,7.48A104.36,104.36,0,0,1,88,118.48s.13.21.14.25a17.89,17.89,0,0,1,.77,2.1c1.34,8.39-.24,15.51-3.75,23.19-3,3.74-5.89,6.8-10.63,8.16a31.67,31.67,0,0,0-.9-4.93,5,5,0,0,0,2.33-1,3.43,3.43,0,0,0,1.28-3c-.23-2.17-1.56-3.9-3-5.52l-.09-.08a11,11,0,0,0-1.18-1,13,13,0,0,0-5.55-2.23,3.54,3.54,0,0,0-1.38.15,6.31,6.31,0,0,0-2,.95c-.12.08-.21.2-.32.29a38,38,0,0,0-3.88-1.65l-.33,1a32.61,32.61,0,0,1,3.65,1.57,15.32,15.32,0,0,0,1.53,7.36,21.79,21.79,0,0,0-8.17-1.83,27.32,27.32,0,0,1-1.48-3.37l-1.16.24a28.47,28.47,0,0,0,1.58,3.57c-.1.12-.27.15-.35.29-1.83,3.25-1,5.49,1.08,8.38a8.93,8.93,0,0,0,.79.84l.08.08c2.44,1.87,4.77,3.09,7.87,3.05.83,0,1.27-.52,1.94-.86a.81.81,0,0,0,.27-.25,5.09,5.09,0,0,0,1-1.85,30.94,30.94,0,0,0,5.22,1,63.52,63.52,0,0,1-3.14,15c-5,7.89-7.8,10.47-17,12.46-.92.2-1.32-.17-2.13-.11,0,0-.21-.07-.23-.07-2.64-.22-8.2-2.14-10-2.66-3.83-1.1-5.51-1.11-7.77,1.15s-1.07,3.73,1,5.66c1,.9,2.94,1.5,4.57,2.24a43.62,43.62,0,0,1,8.63,4.77,8.37,8.37,0,0,1,1,6.72,9.9,9.9,0,0,1-3.47,5.72,35,35,0,0,1-8.44-1.09c-1.54-.49-3.35-1.43-4.65-1.49-2.83-.11-5.22-.33-6.19,2.71s0,4.28,3.6,5.88a98.65,98.65,0,0,1,9.43,4.43s.19.07.22.09a11,11,0,0,1,1.59,1.1c4.88,5.42,7.14,11.72,5.09,19-.6,2.95-5.72,8.23-7.32,9.87-2.82,2.89-3.91,2.51-6.79,4.21-.79-1.64-2.28-2.65-3.42-3.91,3-.16,7.84.56,9.32-2.66,2-4.33-2.66-6.46-5.83-8.13a1.87,1.87,0,0,0-.22-.07c-3.59-.9-8.41-1.93-10.53,1.76s1.79,5.76,3.92,8.1a24.81,24.81,0,0,0-9.16,2,30.48,30.48,0,0,1-3.19-2.58l-1.05.76a33.9,33.9,0,0,0,3.38,2.73c0,.15-.21.27-.21.44,0,4.37,2.16,6.5,6.25,7.7,4.26,1.24,8,.8,11-2.45.82-.88.32-1.66.15-2.49,3.23-2.61,3.65-.89,7.08-5,2.08-2.5,6.26-6.37,8.75-11.54,2.11-4.37,4.94-12.06-1.61-16.27-1.29-.84-2.26-1.84-3.71-2.29-1-.32-1.86-.89-2.84-1.29l-.1,0c-.78-.66-1.69-1-1.54-2.21s1.34-2.12,2-3.11c.09,0,0,0,0,.08.65,1.61-.15,2.55,1.7,3.7,3.5,2.18,7.33,1.26,10.76-1.09A7.92,7.92,0,0,0,53.69,210a9.5,9.5,0,0,1,3.87-2.65c.8-.21.14,0,.46,0s0,0,.08,0,0,0,0,0a9.69,9.69,0,0,1,2.09,4.39c.1.39.28,1,.43,1.42,1.51,4.21,4.12,6.9,8.32,8.1,2.22.63,2.76-.58,4.65-1,0,0-.06-.12,0-.08-.35,1.05-.14,2.24-1.09,3s-2.1.42-3.22.32l-.13,0A19.61,19.61,0,0,1,66,222.23a12.54,12.54,0,0,0-4.36-1.32c-7.41-.84-10.07,5.07-11.29,9.86-1.45,5.65,1.3,9.69,2.73,12.37,2.36,4.41,3.69,3.24,6,6.4-.8.4-1.9.67-1.92,1.84-.07,4.34,2.3,6.26,6.49,7.47,4,1.17,7.87.71,11.09-2.3a1.44,1.44,0,0,0,.23-.42,48,48,0,0,0,4.8-.18c0-.36-.07-.72-.11-1.08-1.5.13-3,.19-4.51.17-1-2.67-2.86-4.37-4.94-6.16,3.57-.59,8.3,0,10.09-3.83s-2.65-5.71-5.61-6.88a.7.7,0,0,0-.2-.08c-4.1-.53-8.45-1.35-11,2.61-1.91,2.94,1.54,5.3,3.43,7.16-2.19.27-4.49.19-6.58,1.07-2.32-2.71-3.85-2.35-6.17-6.06-1.32-2.11-4.68-6.71-2.62-10.92,3.47-7.08,6.66-9.07,15.13-7.95.85.11,1.39.34,2.18.45l.26.09c2.8.49,8.73,3,10.63,3.67,3.93,1.49,5.51,1.58,7.9-.7s1-3.76-1.06-5.75c-1-.92-2.94-1.61-4.64-2.37a45.51,45.51,0,0,1-9-5,5.14,5.14,0,0,1-.52-5.6,6.56,6.56,0,0,1,4.27-3.61,33.55,33.55,0,0,1,8,3.89c1.41.88,2.92,2.17,4.2,2.47,2.77.66,5,1.34,6.38-1.64s.52-4.33-2.77-6.7A100.6,100.6,0,0,1,84,196.86l-.21-.15c-.44-.55-1-.76-1.37-1.41-4.07-6.46-4.71-12.3-2-19.51a19.23,19.23,0,0,1,10.21-6.85A40.09,40.09,0,0,0,92,174.1c-.83.28-1.74.33-2.33,1.07a3.81,3.81,0,0,0-1,3.38,12.35,12.35,0,0,0,3.28,5.89.76.76,0,0,0,.09.09c.39.33.79.72,1.21,1a13.07,13.07,0,0,0,5.64,2.29,3.34,3.34,0,0,0,1.38-.15,6.09,6.09,0,0,0,1.94-1,2.89,2.89,0,0,0,.32-.29,39.4,39.4,0,0,0,3.92,1.62c.1-.34.21-.68.32-1a34.1,34.1,0,0,1-3.69-1.53,16,16,0,0,0-1.79-7.59,21.61,21.61,0,0,0,8.31,2,27.6,27.6,0,0,1,1.55,3.36l1.15-.25a29.56,29.56,0,0,0-1.65-3.57c.1-.11.27-.14.34-.28,1.8-3.36.89-5.62-1.3-8.54a11,11,0,0,0-.82-.86l-.09-.08a14.73,14.73,0,0,0-8.27-3.49c-.87-.05-1.31.4-2,.71a.82.82,0,0,0-.27.25,4.23,4.23,0,0,0-.93,1.84,18.07,18.07,0,0,0-5.67-1.25A47.86,47.86,0,0,1,93.45,153c5.6-6.87,8-8.34,16.5-5.19.85.32,1,.82,1.71,1.17,0,0,.14.16.16.17,2.07,1.54,5.9,5.86,7.19,7.19,2.68,2.76,4,3.56,6.89,2.37s2.29-3.1,1.31-5.72c-.45-1.21-1.89-2.7-3-4.13a47.89,47.89,0,0,1-5.51-8.37,6.14,6.14,0,0,1,1.61-5.69,5.14,5.14,0,0,1,5-1.68,43.19,43.19,0,0,1,5.81,7.73c1,1.48,1.79,3.3,2.8,4.09,2.17,1.72,3.79,3.25,6.11,1s2-3.81,0-7.41a104.24,104.24,0,0,1-5.14-10.13s-.12-.21-.13-.25a13.38,13.38,0,0,1-.7-2.11c-.86-8.33,1.21-14.68,5.86-21.6,3.48-2.43,6.66-4.18,11-3.94a34.47,34.47,0,0,0-.63,5.16,5,5,0,0,0-2,.15c-.16,0-.37,0-.51.17-2.58,3-2.64,5.74-.89,9.3,1.68,3.41,4.14,5.17,8,5.06a1.84,1.84,0,0,0,.41-.16,33.19,33.19,0,0,0,2.93,2.75l.63-.84a37.28,37.28,0,0,1-2.75-2.58,6.18,6.18,0,0,0,.78-1.66,20.41,20.41,0,0,0,.48-5.64,24.87,24.87,0,0,0,5.31,3.66,6.49,6.49,0,0,0,1.44.41,27.06,27.06,0,0,1,.2,3.6l1.11.15a28.74,28.74,0,0,0-.22-3.83c.13-.07.3-.06.41-.16,2.8-2.7,3-5.42,1.34-8.89s-4.16-5.6-8.18-5.84c-.42,0-.59.28-.89.43a3.92,3.92,0,0,0-1.09,1,19.81,19.81,0,0,0-4.6-3A55.28,55.28,0,0,1,158.67,87c7.39-4.14,10-4.6,16.42,1.23.64.59.65,1.08,1.15,1.66,0,0,.08.2.09.22,1.4,2.14,3.54,7.45,4.3,9.13,1.57,3.47,2.61,4.51,5.64,4.24s3.11-2.25,3-5c0-1.27-.92-3.07-1.48-4.74a50.47,50.47,0,0,1-2.45-9.46c.43-2.19,1.27-3.77,3.29-4.75s3.31-.59,5,.67a47.56,47.56,0,0,1,3.08,9c.45,1.66.67,3.6,1.36,4.66,1.5,2.28,2.59,4.1,5.4,2.7s3.07-2.87,2.33-6.82c-.35-1.91-1.61-8.1-1.73-10.84,0,0,0-.23,0-.27a11.61,11.61,0,0,1,0-2.2c1.77-8,5.26-12.79,12.16-17.21,4.11-.51,7.92-.44,11.63,1.59a35.48,35.48,0,0,0-2.2,4.67c-.83-.23-1.55-.7-2.45-.45a4,4,0,0,0-2.89,2.06,12.38,12.38,0,0,0-1.18,6.49s0,.08,0,.12a14.34,14.34,0,0,0,.29,1.48,11.32,11.32,0,0,0,2.85,5,2.84,2.84,0,0,0,1.14.65,5.59,5.59,0,0,0,2.07.29,2.83,2.83,0,0,0,.42-.07,33.67,33.67,0,0,0,2,3.52l.87-.67a31.23,31.23,0,0,1-1.84-3.3,17.39,17.39,0,0,0,3.35-7,18.5,18.5,0,0,0,5.09,6.09,30,30,0,0,1-.92,3.62l1,.45a30.59,30.59,0,0,0,1-3.85c.15,0,.3,0,.44,0,3.35-1.66,4.14-4,4.32-7.57a10.94,10.94,0,0,0-.09-1.14.5.5,0,0,0,0-.12c-.69-2.92-1.7-5.22-4.14-7-.66-.49-1.28-.31-2-.43a1,1,0,0,0-.35.07,4.93,4.93,0,0,0-1.88,1,37.65,37.65,0,0,0-3.36-4.09A34.06,34.06,0,0,1,240,52.15c8.43,0,12.16,1.53,16.43,8.93.43.74.31,1.31.61,2,0,0,0,.25,0,.27.73,2.65,1.23,8.91,1.45,10.85.46,4,1.17,5.28,4.29,5.92s3.79-1.42,4.59-4.14c.37-1.25.06-3.29,0-5.1a44.38,44.38,0,0,1,.55-10c1.26-1.85,2.47-3,4.79-3.06s3.53,1.13,4.8,2.94a46.41,46.41,0,0,1,.32,10c-.07,1.8-.44,3.84-.07,5.1.78,2.73,1.37,4.8,4.54,4.2s3.9-1.89,4.41-6c.25-2,.79-8.41,1.64-11.09,0,0,0-.24,0-.28a13,13,0,0,1,.71-2.1c4.54-7.5,8.24-9.44,16.85-10.8a28.07,28.07,0,0,1,11.26,7.09c-1.19,1.45-2.31,3-3.37,4.52a4.84,4.84,0,0,0-1.95-.9c-.15,0-.29-.13-.47-.07-4,1.51-5.68,4.16-6.17,8.4-.48,4.07.65,6.9,4.34,8.83.14.08.32,0,.46,0a33.8,33.8,0,0,0,1.06,4.07l1.07-.49a31.88,31.88,0,0,1-1-3.81A10.6,10.6,0,0,0,314,75a35.81,35.81,0,0,0,2.53-3.94,33.9,33.9,0,0,0,2,5.17,8.9,8.9,0,0,0,1.72,2.16,35,35,0,0,1-1.9,3.51l.92.69a35.61,35.61,0,0,0,2-3.75c.15,0,.31.09.46,0,4-1.1,5.86-3.67,6.34-7.73.5-4.23-.46-7.21-4.13-9.42-.55-.33-1,0-1.47.06s-.72.29-1.16.4a31,31,0,0,0-2.49-5.12A26,26,0,0,1,330.8,53c7.44,2.91,11.65,7,14.14,14.59a13.34,13.34,0,0,1,.24,2.25,2.83,2.83,0,0,1,0,.29c.23,2.92-.41,9.67-.56,11.74-.3,4.28.12,5.72,3.26,6.9s4.12-.89,5.42-3.54c.6-1.23.63-3.39.89-5.26a53.25,53.25,0,0,1,2.22-10.23c1.58-1.65,3-2.61,5.32-2.22S365,69.23,366,71.31a51.35,51.35,0,0,1-1.33,10.27c-.37,1.83-1.06,3.87-.91,5.21.33,2.91.62,5.09,3.94,4.89s4.31-1.4,5.47-5.5c.56-2,2.18-8.36,3.37-11a2.68,2.68,0,0,1,.07-.27c.43-.68.41-1.31,1-2,5.47-6.83,8.47-8.19,17.1-6a36.64,36.64,0,0,1,8.59,10.28,18.17,18.17,0,0,0-4,3.41c-.7-.51-1.19-1.2-2.13-1.28a4.37,4.37,0,0,0-3.53.91,12.88,12.88,0,0,0-3.64,5.64l0,.11a14.72,14.72,0,0,0-.3,1.47,11.08,11.08,0,0,0,.76,5.62,2.77,2.77,0,0,0,.83,1A5.41,5.41,0,0,0,393,95a3.1,3.1,0,0,0,.42.08,32.66,32.66,0,0,0,.51,3.94l1.07-.32a28.63,28.63,0,0,1-.47-3.69,18.78,18.78,0,0,0,5.82-5.3,16.75,16.75,0,0,0,2.42,7.35,29.05,29.05,0,0,1-2.23,3l.79.77a32.36,32.36,0,0,0,2.37-3.24c.15,0,.26.13.42.11,3.71-.37,5.37-2.2,6.91-5.46a8.49,8.49,0,0,0,.35-1.08l0-.1c.45-2.88.4-5.29-1.19-7.78-.43-.67-1.08-.7-1.7-1a.88.88,0,0,0-.36-.06,5.65,5.65,0,0,0-2.12.26c-.39-1.62-1-3.18-1.4-4.79,4.41-1.19,7.69-.2,11.76,1.61,5.35,6.27,8.59,12.43,8.95,20.73a16.77,16.77,0,0,1-.33,2.1s-.08.22-.08.25a101.68,101.68,0,0,1-3.18,10.1c-1.23,3.66-1.12,4.88,1.23,6.67s3.69.39,5.48-1.46c.83-.86,1.35-2.61,2-4.07,1.08-2.41,2.4-5.4,4.35-7.46,1.85-.84,3.27-1.09,5,.06s2.26,2.62,2.5,4.66a40.69,40.69,0,0,1-4,7.85c-.82,1.36-2,2.77-2.21,3.9-.55,2.44-.78,4.22,1.92,5s3.87.41,6.05-2.55c1.05-1.43,4.08-6.14,5.79-7.92l.14-.2c.49-.36.79-1.06,1.36-1.32,5.71-2.57,10.56-2.4,16.54-.87a33.45,33.45,0,0,1,4,11.45c-1.61.6-3.21,1.21-4.85,1.73a3.87,3.87,0,0,0-1-1.41c-.12-.1-.19-.25-.38-.3a8.23,8.23,0,0,0-8.67,2.59c-2.39,2.48-2.86,4.77-1.1,7.73.06.12.23.15.32.24a23.64,23.64,0,0,0-1.18,3.13l1,.15a23.66,23.66,0,0,1,1.11-2.94,7.77,7.77,0,0,0,1.8,0,30.06,30.06,0,0,0,5.24-1.59,15.7,15.7,0,0,0-1,5.1,5.23,5.23,0,0,0,.26,1.2,31.41,31.41,0,0,1-3.11,1.45c.11.29.23.58.35.86a31.13,31.13,0,0,0,3.31-1.55,1.57,1.57,0,0,0,.32.24,7.63,7.63,0,0,0,8.4-2.11c2.47-2.47,3.16-4.65,1.61-7.75-.16-.32-.51-.3-.78-.46a4.56,4.56,0,0,0-1.36-.41,28.11,28.11,0,0,0,.71-4.74c4.44,1.65,7.41,4.14,10.7,7.5,4.18,7.25,6,14.3,3.21,22.4a20,20,0,0,1-1.11,1.94l-.18.21a109.18,109.18,0,0,1-6.87,8.87c-2.51,3-3.14,4-1.58,6.51s3.48,1.46,5.86.49c1.1-.46,2.35-1.83,3.57-2.95,2-1.85,4.52-4.16,7.28-5.25,2.17.4,3.84.77,5.11,2.74a7.23,7.23,0,0,1,.57,6.44,50.45,50.45,0,0,1-7.2,6.24c-1.37,1-3.1,2.11-3.8,3.1-1.51,2.13-2.66,3.82-.28,5.56s3.77,1.53,7.1-.24c1.6-.85,6.54-4,8.95-4.91,0,0,.18-.12.21-.13.73-.18,1.07-.66,1.9-.72,8.32-.66,11.85,3.45,15.69,10.3a38.18,38.18,0,0,1-2.4,14.74c-2,.13-4,.2-6,.31-.14-.83.12-1.55-.59-2.21a4.87,4.87,0,0,0-3.42-1.61,18,18,0,0,0-7.25,1.39l-.12,0c-.44.23-1,.48-1.4.75a11.1,11.1,0,0,0-4,4.17,2.22,2.22,0,0,0-.2,1.2,4.46,4.46,0,0,0,.56,1.88c.06.12.18.23.25.34a30,30,0,0,0-2.8,2.84l1,.53a28.82,28.82,0,0,1,2.64-2.66,22.78,22.78,0,0,0,8.63.41,16.24,16.24,0,0,0-4.21,6.54,35.13,35.13,0,0,1-4.09.38c0,.34,0,.68,0,1a42.1,42.1,0,0,0,4.35-.4c.1.11.09.26.22.36,3.14,2.36,5.9,2.22,9.56,1.17.39-.11.76-.31,1.14-.46l.11-.05c2.62-1.52,4.59-3.13,5.51-6.08.24-.8-.21-1.24-.4-1.94a.75.75,0,0,0-.21-.29,5.27,5.27,0,0,0-1.78-1.32c1.14-1.56,2.11-3.21,3.1-4.87a20.22,20.22,0,0,1,8.19,8.86c.19,8.79-1.19,11.84-7.56,17.8a21.14,21.14,0,0,1-1.89,1.29,2.19,2.19,0,0,1-.27.13c-2.49,1.64-9,4.91-10.8,5.84-3.72,1.91-5.21,2.71-4.29,5.94s3.58,2.53,6.49,2.11c1.35-.2,3.42-1.32,5.19-2.09,2.92-1.26,6.63-2.79,10-3.17,1.84.22,3.67.64,4.16,2.62s-1.63,1.95-3.06,1.8c-3.47-1.17-7.7-3.31-10.82-4.59-1.89-.78-3.75-1.66-5.11-1.71-2.94-.11-5.07-.11-5.09,3.24s1.23,4.41,5.27,6c1.95.77,8.4,3.22,11,4.61l.28.12a14.53,14.53,0,0,1,2,1.23M26.55,243.94c-2.14-1.83-6.25-4.13-4.6-7.43s6-2.21,8.86-1.16,7,2.87,5.15,6.59c-1.43,2.92-6.49,1.88-9.27,2A.23.23,0,0,1,26.55,243.94Zm3.95,8.33c-2.62,2.73-5.83,2.54-9.38,1.84l-.13,0c-3.19-1.33-5.36-2.61-5.29-6.33,0-.09.06-.08.06-.15a34.6,34.6,0,0,0,15,2.48C30.56,250.9,31.23,251.51,30.5,252.27Zm-13.87-5.59a26.85,26.85,0,0,1,9-1.54l.4,0A31.78,31.78,0,0,1,30.14,249,31.72,31.72,0,0,1,16.63,246.68ZM45.2,218c3,3.88,4,7.41,3,12.21A28.21,28.21,0,0,0,43,216.53,7.44,7.44,0,0,1,45.2,218Zm19.56,23.07c1.72-3.49,6.08-2.65,9-1.94s6.83,2.14,5.21,5.6-6.73,2.74-10,3l-.12-.05C66.92,246.2,63.4,243.8,64.76,241.06Zm8.9,14.88c0,.05,0,.08-.09.14-2.93,2.52-5.72,2.49-9.39,1.79l-.13,0c-3-1.18-5.8-2.55-5.56-6.13.06-1,1-1,1.51-1.63A35.1,35.1,0,0,0,73.66,255.94Zm-5.35-7.09.27.22a17.75,17.75,0,0,1,5.23,5.78,34.09,34.09,0,0,1-12.46-5.25A45.16,45.16,0,0,1,68.31,248.85Zm-16-21.43c2.5-3.53,4.84-5.16,9.2-5.71a6.43,6.43,0,0,1,2.64.61A19.8,19.8,0,0,0,52.29,227.42Zm524.82,22.44c2.43.23,4.27.32,4.23,3s-1.54,3.17-4.74,3.81c-1.5.3-6.9,1.3-9,1.89-.31-.29.07-.35,0-.71-.4-2.46-1.89-4.19-3.61-6a3.94,3.94,0,0,1-.5-.5,70,70,0,0,0,8.09-.76A29.71,29.71,0,0,1,577.11,249.86Zm-5.84-22.43c3.13-.54,4.61-.5,6.08,1.56s.18,2.85-1.81,4a25.43,25.43,0,0,1-5,1.49c-2.22.57-5.41,1.39-7.75,2.17a3.51,3.51,0,0,1,.26-.6c.84-2.3,1.27-4.26.25-6.51-.15-.33-.47-.2-.4-.57C564.9,228.75,569.8,227.69,571.27,227.43Zm-18,2.12a16.42,16.42,0,0,1-2.75-.41c-4.55-1.4-7-3-8.72-7.51C545,225.37,548.86,227.46,553.24,229.55Zm10-29.23a4,4,0,0,1,.43.56c0,.05.08.06.07.16-.2,3-1.94,4.19-4.43,5.51l-.11,0a13.93,13.93,0,0,1-7.16.65c-.9-.18-1.22-.73-1.71-1.3s-.28-1.1-.33-1.77A34.89,34.89,0,0,0,563.26,200.32Zm-8.38-1.27c1.21-.05,5.55-.27,7.22.63a30.42,30.42,0,0,1-11.64,3.47,23.88,23.88,0,0,1,3.55-4.06Zm-10-2c-.26-.27-.69-.3-.73-.79-.27-3.25,2-4.58,4.67-5.93l.11,0a16.9,16.9,0,0,1,3.75-1,10.51,10.51,0,0,1,2,.06l.07,0,.15,0,.09,0a4.63,4.63,0,0,1,1.94,1.21,2.63,2.63,0,0,1,.31.57,35.06,35.06,0,0,0-11.47,6.3C545.5,197.37,545.16,197.38,544.89,197.1Zm12.49-4.83a16.07,16.07,0,0,1-4.24,5.7h0a57.62,57.62,0,0,1-6-.15A33.68,33.68,0,0,1,557.38,192.27Zm-11.21,6.37a36.2,36.2,0,0,0,5.88.43,21.54,21.54,0,0,0-3.15,4.09,18.26,18.26,0,0,1-5.5-.85C544.38,201.13,545.23,199.85,546.17,198.64ZM530.36,184.9a22.24,22.24,0,0,1-.42-15.07c.3-1,1.07-1.32,1.54-2.12A48.31,48.31,0,0,0,530.36,184.9Zm8.77-35.79c2-.71,3.38-1.26,4.56.68s.57,2.75-1.64,4.62c-1,.88-4.59,4.32-5.54,6-.38-.14-.13-.36-.34-.67-1.48-2.16-3.41-3-5.93-3.6a5.39,5.39,0,0,1-.68-.12c1.77-1.33,4.16-3.12,5.82-4.33A19.76,19.76,0,0,1,539.13,149.11ZM523.84,132c2.5-1.29,3.68-1.37,5.49-.12s1.22,2.32,0,4a19.6,19.6,0,0,1-3.45,2.91c-1.55,1.22-3.83,2.85-5.44,4.22a4.79,4.79,0,0,1,0-.65,10,10,0,0,0-2.47-6.25c-.24-.26-.49-.1-.57-.45C519.05,135,522.67,132.63,523.84,132Zm-14.35,6.49c-.73.37-1.47.93-2.31.69a29,29,0,0,1-11.95-6.65C499.78,135.39,504.13,137.71,509.49,138.52Zm-7.73-35.18c.07.11.23.09.29.22,1.11,2.63.32,4.43-1.6,6.46s-4.05,3.22-6.88,2.49c-.61-.15-.53-.81-.83-1.23A33.73,33.73,0,0,0,501.76,103.34Zm-7.61,1.79c1.39-.64,2.87-1.4,4.27-1.88a7.52,7.52,0,0,1,2.39-.25,31.94,31.94,0,0,1-8.13,7.25,26.74,26.74,0,0,1,1.19-5Zm-8.06,1.46c-.25-.11-.6-.11-.76-.41-1.41-2.57-.74-4.62,1.19-6.73s3.94-3.06,6.79-2.51c.16,0,.18.17.31.23a26.12,26.12,0,0,0-6.84,9.52C486.54,106.63,486.33,106.7,486.09,106.59ZM494.16,98a4.26,4.26,0,0,1,.19,1.3,28.86,28.86,0,0,1-1.38,5.09l-.1.26a30.78,30.78,0,0,1-5,2A25.07,25.07,0,0,1,494.16,98Zm-6.61,9.77a24.81,24.81,0,0,0,4.81-1.64,20.7,20.7,0,0,0-.85,4.74,46.71,46.71,0,0,0-4.6,1.52A25.69,25.69,0,0,1,487.55,107.72Zm-17.16-2.53c-2.88-2.71-4.59-5.36-4.91-9.34-.06-.72.42-1.2.58-1.85A29,29,0,0,0,470.39,105.19ZM465.74,75c1.5-1.35,2.51-2.13,4.2-.72s1.65,2.36.49,4.95a45.41,45.41,0,0,0-2.6,7.25c-.37,0-.24-.32-.52-.54-1.94-1.51-3.92-1.79-6.37-1.72a4.5,4.5,0,0,1-.63.07c1-1.74,2.33-4.1,3.27-5.73C464.32,77.27,464.89,75.77,465.74,75ZM447.22,62.38c1.52-2.21,2.46-2.83,4.56-2.22s2.09,1.86,1.75,3.92a17.53,17.53,0,0,1-1.77,4c-.86,1.74-2.12,4.12-3,6a5.51,5.51,0,0,1-.28-.61,11.15,11.15,0,0,0-4.46-5.23c-.31-.18-.46,0-.66-.26C444.49,66.75,446.5,63.42,447.22,62.38Zm-9.11,11c-.49.57-.88,1.41-1.67,1.57-4.4.89-7.64.05-11.29-2.48C429.57,74.21,433.52,74.76,438.11,73.42Zm-17.55-36a3.42,3.42,0,0,1,.7.12c.06,0,.1,0,.17.06,2.09,2.19,2.16,4.36,1.72,7.26a1,1,0,0,1,0,.12,12.16,12.16,0,0,1-3.57,5.79c-.67.55-1.26.37-2,.29S416.49,50.41,416,50A34.93,34.93,0,0,0,420.56,37.39Zm-5.94,5.08c.66-.91,3-4.27,4.74-4.74a30.81,30.81,0,0,1-3.95,11.13,29.48,29.48,0,0,1-1.26-5.74S414,43.39,414.62,42.47Zm-7.41,5.66c-.39,0-.7.22-1.1-.11-2.67-2.16-2.69-4.79-2.21-8l0-.12a13.89,13.89,0,0,1,1.45-3.37,7.63,7.63,0,0,1,1.27-1.38l.06,0a.32.32,0,0,1,.12-.08.18.18,0,0,1,.07-.05,3.81,3.81,0,0,1,2.15-.43,3,3,0,0,1,.64.21,31,31,0,0,0-1.55,13.09C407.79,47.91,407.6,48.16,407.21,48.13Zm3.36-12.68a21.28,21.28,0,0,1,2.18,7.45s0,0,0,0a34.71,34.71,0,0,1-3.61,4.24A29.56,29.56,0,0,1,410.57,35.45Zm-1.29,13a26.32,26.32,0,0,0,3.73-4A27.39,27.39,0,0,0,414.52,50c-1.14,1.23-2.35,2.4-3.55,3.57A35.31,35.31,0,0,1,409.28,48.49Zm-16.82,3.86c-4.41-2.48-7.06-5.17-8.76-10a11.51,11.51,0,0,1-.18-2.82A38.12,38.12,0,0,0,392.46,52.35Zm-15.9-34c.93-2.18,1.63-3.59,4-2.73s2.65,2.2,2.42,5.4c-.1,1.5-.57,6.65-.46,8.75-.38.15-.3-.2-.67-.28-2.56-.55-4.55.28-6.81,1.56a4.67,4.67,0,0,1-.6.38c.54-2.42,1-5.69,1.27-8C376,21.69,376,19.62,376.56,18.39ZM356.81,17c.85-3.05,1.59-4.23,4.12-4.33s2.78,1.37,2.95,3.71c.1,1.32-.52,3.27-.88,5-.45,2.21-1.11,5.36-1.39,7.77a3.91,3.91,0,0,1-.45-.54c-1.75-1.9-3.38-3.26-6-3.58-.38,0-.43.29-.73,0C355.21,23.23,356.4,18.46,356.81,17Zm-6.29,16.66a9.39,9.39,0,0,1-1.14,2.56c-3.3,3.66-6.5,4.73-11.35,4.83A28.23,28.23,0,0,0,350.52,33.69ZM329.36,13.47c.2.07.34-.07.54.06,2.88,1.89,3.14,4.35,2.93,7.63a7.52,7.52,0,0,1-.46,2.06,9.81,9.81,0,0,1-2.43,3.86,3.15,3.15,0,0,1-2.27.77c-.74,0-1.22-.48-1.8-.86A33.65,33.65,0,0,0,329.36,13.47Zm-1.13.3A31.9,31.9,0,0,1,325.12,26a33.12,33.12,0,0,1-2-5.65A22.91,22.91,0,0,1,328.23,13.77ZM315.49,26.56c-3.06-1.65-3.55-4.24-3.22-7.54a10.14,10.14,0,0,1,3.26-6.5,1,1,0,0,1,.5-.22,2.6,2.6,0,0,1,1-.14,2.34,2.34,0,0,1,.53.08,35.79,35.79,0,0,0-.33,14C316.67,26.3,316.12,26.9,315.49,26.56Zm3.13-13.82a9.84,9.84,0,0,1,1.89,3,41.5,41.5,0,0,1,1.17,4.19l.09.35a38.45,38.45,0,0,1-3.51,5.07A33.71,33.71,0,0,1,318.62,12.74Zm0,14A30.2,30.2,0,0,0,322.22,22a25.44,25.44,0,0,0,2.21,5.27,50,50,0,0,1-3.55,4.28A28.17,28.17,0,0,1,318.63,26.69ZM301,36.93c-4.69-1-7.65-2.71-10.33-6.74a7.43,7.43,0,0,1-.65-2.57A29.27,29.27,0,0,0,301,36.93ZM280.54,9c.67-2.19,1.19-3.58,3.61-3.07s2.82,1.74,3,4.79c.07,1.43.32,6.16.7,8.09-.34.19-.33-.14-.71-.15-2.59-.11-4.47.94-6.55,2.48a5.89,5.89,0,0,1-.55.44c.21-2.34.26-5.45.31-7.64C280.35,12.24,280.15,10.28,280.54,9ZM259.4,11.35c.3-3,.82-4.3,3.23-4.77s2.89.88,3.5,3.07c.34,1.23.08,3.15.06,4.87,0,2.17-.11,5.26,0,7.59a4.42,4.42,0,0,1-.53-.44c-2.05-1.51-3.89-2.52-6.44-2.37-.37,0-.37.35-.71.16C258.94,17.53,259.27,12.78,259.4,11.35Zm-3.28,17a12.17,12.17,0,0,1-.82,2.79c-2.68,4.31-5.71,6.06-10.4,7.69A38.16,38.16,0,0,0,256.12,28.36ZM228.67,18.17a4.13,4.13,0,0,1,.7-.14c.06,0,.09,0,.18,0,2.72,1.29,3.62,3.24,4.3,6.08a.43.43,0,0,1,0,.12,11.12,11.12,0,0,1-1.3,6.48c-.45.74-1.08.76-1.79.94s-1.23-.22-1.86-.45A31.61,31.61,0,0,0,228.67,18.17Zm-3.92,7.59a21.1,21.1,0,0,1,3-7A30.25,30.25,0,0,1,228,30.4a35.2,35.2,0,0,1-3.23-4.63Zm-4.65,7.11c-.37.11-.56.45-1,.29-3.23-1.09-4.19-3.55-4.91-6.71,0,0,0-.1,0-.13a13.47,13.47,0,0,1,.1-3.65,7.78,7.78,0,0,1,.67-1.73s0,0,0-.06a.83.83,0,0,0,.08-.12l0-.06a3.66,3.66,0,0,1,1.84-1.15,2.49,2.49,0,0,1,.67,0,32.69,32.69,0,0,0,3.27,12.75C220.56,32.46,220.47,32.76,220.1,32.87Zm-1.43-13A21.75,21.75,0,0,1,223.39,26h0a36.23,36.23,0,0,1-1.85,5.24A30.82,30.82,0,0,1,218.67,19.85Zm3.47,12.62a27.26,27.26,0,0,0,2.07-5,25.78,25.78,0,0,0,3.35,4.36,41.06,41.06,0,0,1-2.05,4.6A29.92,29.92,0,0,1,222.14,32.47ZM208.57,49.72c-4.33,1.16-7.51.94-11.33-1.52-.69-.45-.87-1.43-1.3-2.1A21.35,21.35,0,0,0,208.57,49.72ZM181.72,32.25c0-2.2.1-3.56,2.45-3.72s3.15.91,4.17,3.62a60.5,60.5,0,0,0,3,6.88c-.26.28-.35,0-.7.09-2.4.71-3.86,2.21-5.35,4.21a5.36,5.36,0,0,1-.38.55c-.52-2.18-1.35-5-1.95-7A20.89,20.89,0,0,1,181.72,32.25Zm-18.85,9.48c-.71-2.91-.62-4.22,1.49-5.32s2.95.06,4.2,1.85c.7,1,1,2.79,1.53,4.37.63,2,1.51,4.85,2.34,6.93a4.75,4.75,0,0,1-.63-.23c-2.36-.74-4.37-1.06-6.66-.08-.33.14-.22.45-.59.38C164.32,47.7,163.2,43.1,162.87,41.73Zm2.18,16.91a12.27,12.27,0,0,1,.19,2.63c-.87,4.82-3,8.06-6.57,11.37A45.43,45.43,0,0,0,165.05,58.64Zm-25.7,2c.15,0,.22-.15.38-.14,3.15.27,4.93,2,6.22,4.78s1.43,5.18-.83,7.42c-.49.48-1.18,0-1.75.09A30.06,30.06,0,0,0,139.35,60.66Zm-1.67,7.84a41.58,41.58,0,0,1,0-4.87,6.54,6.54,0,0,1,.83-2.29,28.42,28.42,0,0,1,3.7,11,31.94,31.94,0,0,1-4.55-3.49C137.69,68.74,137.68,68.6,137.68,68.5Zm-2.25,8.23c-.24.17-.41.47-.78.46-3.26-.08-5.17-1.87-6.56-4.7s-1.58-5.07.41-7.57c.11-.14.27-.06.39-.16a34.37,34.37,0,0,0,7,11.39C135.68,76.34,135.67,76.56,135.43,76.73Zm-5.45-12a5.79,5.79,0,0,1,1.5.51,32.84,32.84,0,0,1,4.77,4l.25.24a31.15,31.15,0,0,1-.25,5.63A33,33,0,0,1,130,64.69ZM137.31,76a23.81,23.81,0,0,0,.54-5.33,23.78,23.78,0,0,0,4.48,3,32.18,32.18,0,0,1-.71,5.08A21.1,21.1,0,0,1,137.31,76Zm-7.53,22.69c-3.53,2.84-6.57,4.29-11.1,3-.81-.23-1.25-1.1-1.91-1.57A19.15,19.15,0,0,0,129.78,98.72Zm-31-7c-.71-2.1-1-3.42,1.24-4.25s3.34.06,5.18,2.25a68.37,68.37,0,0,0,5,5.43c-.17.34-.35.12-.65.33a11,11,0,0,0-3.91,5.7,5.24,5.24,0,0,1-.2.64c-1.17-1.92-2.84-4.33-4-6.06A21.92,21.92,0,0,1,98.77,91.72ZM83.38,107.21c-1.57-2.63-1.94-3.94-.21-5.66s2.9-.81,4.69.51c1,.75,1.88,2.35,2.88,3.71,1.26,1.7,3,4.22,4.46,6a4,4,0,0,1-.69,0c-2.56.08-4.65.44-6.57,2.16-.27.25-.08.52-.46.57C86.65,112.66,84.12,108.44,83.38,107.21ZM90.74,123a10.5,10.5,0,0,1,1,2.46c.65,5.11-.47,9.15-3,13.59A45.63,45.63,0,0,0,90.74,123ZM65,136.53a3.38,3.38,0,0,1,.5-.5c.05,0,.06-.09.16-.1,3-.54,5.07.43,7.46,2.26l.09.08c1.46,1.66,2.74,3.32,2.86,5.57,0,.82-.49,1.13-1,1.64a3.53,3.53,0,0,1-1.83.68A30.81,30.81,0,0,0,65,136.53Zm1.37,8a17.93,17.93,0,0,1-1.82-7,29.32,29.32,0,0,1,7.4,8.55c-1.89-.41-3.73-1-5.58-1.57Zm.49,8.29c-.25.3-.23.67-.73.83-3.32,1-5.7-.31-8.32-2.38l-.1-.08a13.59,13.59,0,0,1-2.2-2.91,7.16,7.16,0,0,1-.51-1.74s0,0,0-.07a.61.61,0,0,1,0-.14v-.07a3.36,3.36,0,0,1,.85-1.95,3.09,3.09,0,0,1,.55-.4,33,33,0,0,0,10.77,8C67,152.22,67.1,152.49,66.85,152.79Zm-9.34-9.26a25.46,25.46,0,0,1,7.89,2.09h0a30.87,30.87,0,0,1,1.71,5.1A31.14,31.14,0,0,1,57.51,143.53Zm10.84,7.77A20,20,0,0,0,67,146.15a39.14,39.14,0,0,0,5.46,1.11,29.07,29.07,0,0,1,1,4.88A24.57,24.57,0,0,1,68.35,151.3ZM68,174.45a22.31,22.31,0,0,1-9.75,7.76c-.75.32-1.72-.15-2.48-.32C60.49,180.35,64.26,177.68,68,174.45ZM34.9,184c-1.73-1.46-2.49-2.49-.8-4.25s3.17-1.61,6-.7c1.32.42,5.42,1.76,7.25,2.14,0,.37-.28.27-.46.59a10.61,10.61,0,0,0-1,6.94,4.8,4.8,0,0,1,.12.66c-2-1.1-4.77-2.35-6.73-3.24C37.74,185.37,35.88,184.78,34.9,184Zm1.76,27.64c-.14.36.13.43-.2.67-1.62-.9-5.69-2.56-6.95-3.11-2.69-1.16-3.62-2.16-2.84-4.45s2.44-2.18,4.67-2a24.64,24.64,0,0,1,4.44,1.43,31.08,31.08,0,0,0,6.33,1.18c-.15.15-.46.32-.61.44A13.5,13.5,0,0,0,36.66,211.59ZM52.06,210c-3.37,2.12-6.32,3.06-9.88,1.21-.68-.35-.43-.71-.94-1.11.14.1.16.21.28.31a8.44,8.44,0,0,0,3,1.86,5.65,5.65,0,0,0,3.85-.54c.63-.28,1.36-.72,1.93-1,1.06-.55,2-1.12,3-1.69C53,209.24,52.41,209.74,52.06,210Zm17.36,10.3a11.82,11.82,0,0,1-7.66-7.65c-.16-.4-.25-.88-.39-1.31.5,1,.85,1.8,1.32,2.84.26.56.47,1.23.83,1.87a8.15,8.15,0,0,0,3.09,3.05,10.54,10.54,0,0,0,4,1.18c.18,0,.31,0,.49,0C70.44,220.13,70.18,220.52,69.42,220.25Zm16.48,2.29c1.7,1.54,2.64,2.58.85,4.35s-3.2,1.54-6.07.35c-1.34-.56-5.7-2.34-7.6-2.85,0-.37.3-.25.5-.53,1.38-2,1.47-3.87,1.15-6.25a4.38,4.38,0,0,1-.12-.61c2.08,1.07,4.86,2.35,6.86,3.24A19.61,19.61,0,0,1,85.9,222.54ZM71.5,208.41c-1.28,2.53-.85,4.52.62,7a5.07,5.07,0,0,1,.69,1.08c.15.68.79,1.24,0,1.89a2.64,2.64,0,0,1-2.48.8,8.69,8.69,0,0,1-5.86-3.58,17.24,17.24,0,0,1-.84-1.84c-1.55-2.71-2.08-5.94-5.15-7.15s-5.72,1.71-8.51,3c-.36.16-1.25.76-1.87,1a5.12,5.12,0,0,1-5.57-1,2,2,0,0,1-.68-2.16c.15-.92,1-1.07,1.62-1.51a4.38,4.38,0,0,1,1.09-.34,10.94,10.94,0,0,0,4.66-6.72c.87-2.95.42-5.23-1.14-8.07a4.91,4.91,0,0,1-.55-1c-.11-.68-.66-1.3,0-2a2.62,2.62,0,0,1,2.23-1.14,6.8,6.8,0,0,1,5.65,3c.41.59.8,1.64,1,2,1.76,2.92,2.37,6.42,5.6,7.87s6.42-.45,9.79-.83c.44-.05,1.46-.34,2.13-.36a6.73,6.73,0,0,1,5.5,2.39,2,2,0,0,1,.4,2.24c-.26.87-1.09.76-1.71,1a4.37,4.37,0,0,1-1.08.1C74.35,204.85,72.78,205.89,71.5,208.41Zm-21.87-23c-.17,0-.27.08-.45.06.69,0,.78-.41,1.57-.24,4.14.94,6.22,3.48,7.84,7.41.17.4.36,1.11.53,1.56-.57-1.07-1-2.07-1.58-3.19a21.43,21.43,0,0,0-1-2,8,8,0,0,0-3.17-3A8.22,8.22,0,0,0,49.63,185.44Zm24.23,11.93c-.71.06-1.53.25-2.19.35-1.21.2-2.31.43-3.48.65.45-.12,1.16-.41,1.56-.49,3.89-.87,7.09-.89,10.28,1.51.6.46.35.79.78,1.27-.13-.12-.13-.24-.23-.35A8.34,8.34,0,0,0,77.9,198,7.89,7.89,0,0,0,73.86,197.37ZM92,204.45c2.42,1.78,3.3,2.85,2.2,5.09s-2.65,1.8-4.83,1.19a19.52,19.52,0,0,1-4-2.38A51.63,51.63,0,0,0,79.42,205a3.7,3.7,0,0,1,.62-.26c2.26-1.06,4.11-2.06,5.4-4.22.18-.31-.08-.46.25-.64C87.17,201.07,90.87,203.62,92,204.45ZM80,194.24a7.68,7.68,0,0,1-1.86-1.87c-2.35-4.21-2.44-7.59-.73-12.07A26.16,26.16,0,0,0,80,194.24Zm21.29-8.52a4.81,4.81,0,0,1-.5.51c-.05,0-.05.08-.15.1-3.1.55-5.16-.49-7.59-2.37l-.1-.08a11.12,11.12,0,0,1-3.15-6c-.11-.88.38-1.26.87-1.83s1.18-.55,1.85-.72A33.53,33.53,0,0,0,101.29,185.72ZM100,178.14c.47,1,2.25,4.66,1.69,6.43a29.33,29.33,0,0,1-7.81-9.11,34.34,34.34,0,0,1,5.79,2S99.5,177.13,100,178.14Zm-1.25-9.44c.25-.3.18-.68.71-.8,3.5-.81,6,.7,8.7,2.86l.09.09a14.2,14.2,0,0,1,2.31,3,7.59,7.59,0,0,1,.57,1.79s0,0,0,.06,0,.11,0,.15v.08a3.29,3.29,0,0,1-.8,2,3.15,3.15,0,0,1-.55.41,40.5,40.5,0,0,0-11.29-8.68C98.59,169.28,98.46,169,98.71,168.7Zm9.91,9.93a23.8,23.8,0,0,1-8.1-2.39,0,0,0,0,1,0,0,37.3,37.3,0,0,1-2-5.42A38.69,38.69,0,0,1,108.62,178.63Zm-11.39-8.51a26.91,26.91,0,0,0,1.68,5.48,27.7,27.7,0,0,0-5.66-1.53c-.59-1.73-1.1-3.47-1.52-5.25A28.2,28.2,0,0,1,97.23,170.12Zm-1-22.5c3.06-3.63,5.77-4.22,10.25-3a9.42,9.42,0,0,1,1.93,1C103.77,145.12,100.2,145.16,96.18,147.62Zm16.26.53-.08-.08a27.18,27.18,0,0,1-2.31-2.37,8.65,8.65,0,0,0-3.32-2.07c-8.11-3.38-11.15,1.48-13.65,7.81-2.62,6.59-2.24,10-2.62,16.29-5.26,2.6-7.62,3-11.53,8.35-3.81,5.23-6.31,10.64-1.63,16.86a11.13,11.13,0,0,0,3.14,2.8,28.23,28.23,0,0,1,2.53,1.8l.09.07c.64.8,1.51,1.39,1.21,2.55s-1.55,1.61-2.35,2.38c-.09-.06,0,0,0-.07-.43-1.67.44-2.54-1.18-3.95-3.06-2.67-7.16-2.74-11.17-1.85a7.37,7.37,0,0,0-1.7.56,12.33,12.33,0,0,1-4.78,1.54c-.89.06-.16,0-.51,0s0,0-.09,0h0a11.61,11.61,0,0,1-2.3-4.93c-.13-.42-.41-1.24-.57-1.67-1.52-4.19-4.22-7.24-8.53-7.92-2.27-.37-2.49,1-4.28,1.6,0,0,.07.11,0,.07.28-1.12.12-2.47.95-3.35s1.88-.63,3-.67l.11,0c1,.18,2.05.47,3.08.74,1.45.37,2.76,1,4.3.63,7.79-2,10.43-6.9,12.71-13.32,2.37-6.7,2.8-10.33,3.67-16.63,5.4-2.33,7.88-3.91,11.78-9.14,3.79-5.07,7.55-11.93,6.34-19.08a10.54,10.54,0,0,0-1.84-3.93,27,27,0,0,1-1.67-3,.75.75,0,0,1-.06-.13c-.3-1.1-.89-2.19-.22-3.26s2-1.06,3.06-1.57c0,.09-.06,0-.06.07-.24,1.88-1.29,2.64-.37,4.7,1.74,3.88,5.28,5.79,9.51,6.52a8.13,8.13,0,0,0,1.73.21c1.45-.3,4.1.59,4.9,1s.12.11.44.29,0,0,.07,0l0,0a16.5,16.5,0,0,1,.13,6.23c0,.49-.07,1.51-.06,2,0,4.56,1.35,8.66,4.67,11.51,1.75,1.5,2.31.33,4.12.61,0,0,0-.14.06-.05-.64.87-.94,2.14-2,2.59S113.32,148.63,112.44,148.15ZM97.46,122c.69.23,1.48.36,2.12.52,1.19.29,2.24.56,3.38.89-.45-.06-1.16-.08-1.57-.17-4-.81-6.85-2.22-8.83-5.8-.37-.68,0-1-.24-1.64a4.28,4.28,0,0,1,.07.48A9.14,9.14,0,0,0,94,119.56,7.75,7.75,0,0,0,97.46,122Zm17.15,23.46c.14.09.25.06.39.17-.56-.38-.83,0-1.39-.59-2.93-3.11-4-6.37-4.26-10.73,0-.45,0-1.31.05-1.82.14,1.33.24,2.6.37,4,.07.74.13,1.73.24,2.48a7.37,7.37,0,0,0,1.64,3.88A13.92,13.92,0,0,0,114.61,145.42Zm11.64,8c.83,2.07,1.24,3.41-1,4.36s-3.35.05-5.27-2.06c-.91-1-3.74-4.17-5.11-5.35.14-.34.32-.12.6-.34,1.9-1.53,2.69-3.44,3.32-5.8,0-.16.07-.48.14-.64,1.27,1.87,3.09,4.19,4.39,5.87A22.6,22.6,0,0,1,126.25,153.43Zm-6.57-19.52c-2,2-2.35,4.16-2,7.1a9,9,0,0,1,.19,1.35c-.1.68.17,1.55-.66,1.93a1.85,1.85,0,0,1-2.26-.06,9.25,9.25,0,0,1-3.8-5.42c-.17-.7-.16-1.92-.23-2.41-.56-3.79.25-7.74-2-10.88s-5.73-2.93-9.12-4.2c-.44-.16-1.43-.22-2.06-.49a7.29,7.29,0,0,1-4.17-4.6,2.54,2.54,0,0,1,.45-2.51c.56-.75,1.31-.27,2-.32a6,6,0,0,1,1,.16c2.87,0,4.77.17,7-1.81s2.71-4.3,2.7-7.36a7.7,7.7,0,0,1-.05-1.37c.19-.68,0-1.56.86-1.89a2.06,2.06,0,0,1,2.37.12,8.31,8.31,0,0,1,3.42,5.94c.09.73,0,1.82,0,2.31.16,3.73-.71,7.48,1.46,10.58s5.52,2.94,8.84,4.23a17.65,17.65,0,0,1,2,.66,7.68,7.68,0,0,1,3.92,5,2.37,2.37,0,0,1-.48,2.4c-.58.73-1.28.16-1.94.12a4.79,4.79,0,0,1-1-.4C123.25,131.58,121.7,131.9,119.68,133.91Zm-9.51-33.79c-.15-.09-.27-.07-.41-.18.57.4.84,0,1.41.6,3,3.18,3.6,6.7,3.33,11.08,0,.45-.19,1.22-.25,1.71,0-1.28,0-2.46.06-3.79,0-.71.08-1.59,0-2.37a9.22,9.22,0,0,0-1.32-4.26A8.54,8.54,0,0,0,110.17,100.12Zm15.68,23.72c-.66-.29-1.42-.47-2-.68-1.14-.38-2.15-.64-3.26-1a14.21,14.21,0,0,1,1.53.19c4,1.1,6.65,2.82,8.43,6.52.34.71,0,1,.2,1.63a3.62,3.62,0,0,1-.06-.46,10.9,10.9,0,0,0-1.49-3.64A8.22,8.22,0,0,0,125.85,123.84Zm13.42,15.6c1.49,2.64,1.88,4,.08,5.65s-2.92.64-4.6-.81c-1-.82-1.77-2.52-2.69-3.95-1.16-1.8-2.8-4.41-4.2-6.24a5,5,0,0,1,.66.08c2.45.15,4.46,0,6.42-1.5.28-.22.08-.49.46-.51C136.2,134,138.58,138.2,139.27,139.44Zm-6.91-15.89a8,8,0,0,1-.87-2.42c-.1-5,1.41-8.7,4.25-12.73A38.45,38.45,0,0,0,132.36,123.55Zm22.18-4.5c-.14,0-.21.15-.37.14-3.16-.26-4.95-2-6.26-4.78s-1.5-5.18.73-7.45c.48-.5,1.18,0,1.74-.1A31.61,31.61,0,0,0,154.54,119.05Zm1.59-7.8a37.14,37.14,0,0,1,0,4.83,6.4,6.4,0,0,1-.82,2.29,29.69,29.69,0,0,1-3.83-11,35.78,35.78,0,0,1,4.58,3.56C156.11,111,156.12,111.15,156.13,111.25Zm2.12-8.24c.24-.17.42-.46.8-.45,3.28.06,5.25,1.87,6.67,4.7s1.61,5-.35,7.53c-.11.14-.28,0-.4.15a33,33,0,0,0-7.15-11.35C158,103.4,158,103.19,158.25,103Zm5.63,12a5.6,5.6,0,0,1-1.49-.51,39.49,39.49,0,0,1-4.85-4l-.25-.23a32.43,32.43,0,0,1,.15-5.66A31.55,31.55,0,0,1,163.88,115Zm-7.52-11.26a23.32,23.32,0,0,0-.45,5.34,26.4,26.4,0,0,0-4.52-3.13,36.78,36.78,0,0,1,.53-5.23A39.42,39.42,0,0,1,156.36,103.76Zm6.44-20.43c3.85-2.13,6.58-2.67,10.25.08.66.49.9,1.45,1.36,2.12C170.59,83,167.28,82.5,162.8,83.33Zm14.41,6.1s0-.07-.05-.1c-.53-.94-.86-1.93-1.34-2.9-.67-1.38-.95-2.74-2.2-3.81-6.31-5.42-10.54-1.79-14.85,3s-5,8.45-7.56,13.65c-5.3.75-7.73.74-12.34,4.78s-9,10.39-8.36,17.41a11.3,11.3,0,0,0,1.67,4c.49.91,1.14,2.1,1.57,3.1l.06.13c.27,1,.84,2.12.16,3.12s-2,.84-3,1.24c-.05-.09.05,0,.06-.06.28-1.84,1.26-2.42.43-4.5-1.59-3.91-4.88-6.22-9.07-7.33a6.07,6.07,0,0,0-1.71-.23,10.31,10.31,0,0,1-4.76-1c-.77-.4-.13-.12-.43-.3s0,0-.07,0,0,0,0,0a13.25,13.25,0,0,1,.07-6.07c.08-.48.21-1.4.26-1.87.49-4.53-.31-9-3.67-11.85-1.78-1.53-2.44-.37-4.28-.71,0,0,0,.15-.06.06.73-.86,1.17-2.12,2.28-2.53s1.83.36,2.75.85l.08.08A23.48,23.48,0,0,1,115,99.73c1,1.12,1.63,2.4,3.22,3,8.09,2.81,11.94-2.23,16-7.73s5.51-9.12,8.06-14.78c5.38-.25,7.94-.45,12.87-3.87s10.05-8.38,11.11-15.11a12.39,12.39,0,0,0-.51-4.38c-.23-1-.51-2.28-.64-3.35,0,0,0-.11,0-.13,0-1.1-.2-2.27.74-3.06s2.16-.34,3.26-.47c0,.1-.05,0-.07,0-.79,1.69-1.92,2-1.71,4.24.4,4.2,2.94,7.43,6.65,9.64a7.77,7.77,0,0,0,1.52.77,10.4,10.4,0,0,1,4.16,2.55c.61.63.08.15.32.41s0,0,.05.07,0,0,0,0a15,15,0,0,1-1.67,5.69c-.19.43-.49,1.26-.63,1.7-1.36,4.27-1.44,8.63.68,12.38,1.12,2,2,1.13,3.55,2,0,0,0-.13.08,0-.87.62-1.54,1.76-2.68,1.83S177.84,90.19,177.21,89.43ZM171.4,60.19c.56.48,1.23.87,1.77,1.25,1,.7,1.87,1.28,2.82,2-.4-.22-1-.46-1.4-.69C171.1,60.5,169,58,168.37,53.94c-.13-.77.24-.94.26-1.62a3.17,3.17,0,0,1-.07.46,10.94,10.94,0,0,0,.45,3.84A8.3,8.3,0,0,0,171.4,60.19Zm8.78,27.32c.09.13.2.15.3.3-.4-.55-.72-.31-1.08-1-1.88-3.82-1.73-7.34-.55-11.48.12-.42.42-1.1.58-1.55-.27,1.22-.56,2.32-.85,3.59-.15.67-.4,1.5-.53,2.25a10.37,10.37,0,0,0,.24,4.51A10.52,10.52,0,0,0,180.18,87.51Zm8.17,11.2c.14,2.18.05,3.52-2.26,3.78s-3.15-.81-4.26-3.4c-.52-1.22-2.1-5.14-3-6.7.23-.28.32,0,.65-.11,2.28-.82,3.59-2.44,4.91-4.47a4.88,4.88,0,0,1,.34-.58c.52,2.18,1.48,5,2.15,7C187.44,95.75,188.28,97.47,188.35,98.71Zm0-20.17c-2.56,1.23-3.46,3.16-4.11,6a5.88,5.88,0,0,1-.24,1.21c-.33.58-.33,1.49-1.23,1.57a1.82,1.82,0,0,1-2.05-.84A9.12,9.12,0,0,1,179,79.92c.09-.71.44-1.72.53-2.19.63-3.63,2.45-6.93,1.34-10.49s-4.37-4.58-7.08-6.87a17.42,17.42,0,0,1-1.72-1.22,8.29,8.29,0,0,1-2.35-6,2.42,2.42,0,0,1,1.15-2.19c.75-.56,1.28.15,1.92.33a4.32,4.32,0,0,1,.88.6c2.47,1.3,4.28,1.91,6.89.74s3.78-3.16,4.72-6a5.92,5.92,0,0,1,.33-1.21c.37-.57.42-1.46,1.35-1.5a2.07,2.07,0,0,1,2.17.92,8.18,8.18,0,0,1,1.42,6.54c-.14.71-.59,1.67-.72,2.14-1,3.58-2.9,7-1.83,10.56s4.31,4.58,6.89,7c.33.32,1.15.8,1.65,1.33a8.13,8.13,0,0,1,2,6.32,2.28,2.28,0,0,1-1.19,2.07c-.78.52-1.24-.24-1.86-.47a3.72,3.72,0,0,1-.8-.74C192.51,77.91,190.91,77.32,188.35,78.54Zm1.49-34.7c-.1-.14-.22-.16-.32-.32.4.56.78.33,1.12,1.07,1.81,3.86,1.34,7.32-.21,11.32-.16.41-.54,1.08-.75,1.52.38-1.2.78-2.28,1.19-3.52.22-.66.56-1.45.74-2.18a9.15,9.15,0,0,0,.07-4.41A9.25,9.25,0,0,0,189.84,43.84Zm7.24,27.68c-.53-.51-1.19-1-1.7-1.37-.94-.78-1.77-1.42-2.7-2.15a11.38,11.38,0,0,1,1.34.75c3.42,2.52,5.4,5.16,5.78,9.36.07.8-.29.91-.32,1.6,0-.18.07-.28.08-.45a12.13,12.13,0,0,0-.19-4.07A8.62,8.62,0,0,0,197.08,71.52Zm7.73,18.88c.56,2.92.45,4.24-1.71,5.26s-2.94-.21-4-2.1a21.44,21.44,0,0,1-1.29-4.49c-.53-2-1.26-4.89-2.05-7a4.53,4.53,0,0,1,.6.26c2.26.87,4.2,1.33,6.49.54.34-.12.24-.42.59-.33C203.58,84.47,204.54,89,204.81,90.4Zm-1.52-16.86a10.9,10.9,0,0,1-.11-2.61c1.18-4.68,3.61-7.51,7.73-9.94A30.38,30.38,0,0,0,203.29,73.54Zm22.2,6.27a3.13,3.13,0,0,1-.69.14c-.06,0-.09,0-.18,0-2.72-1.28-3.61-3.24-4.27-6.08a.5.5,0,0,1,0-.12,11,11,0,0,1,1.33-6.48c.45-.73,1.08-.76,1.8-.94s1.22.22,1.85.45A31.27,31.27,0,0,0,225.49,79.81Zm3.71-6.74c-.32,1.21-1.23,4.88-2.72,6a27.5,27.5,0,0,1-.24-11.5,36.18,36.18,0,0,1,3.18,4.66C229.32,72.65,229.51,71.85,229.2,73.07Zm4.86-7.95c.37-.11.56-.45,1.05-.28,3.23,1.09,4.17,3.56,4.87,6.73a.5.5,0,0,1,0,.12,14.24,14.24,0,0,1-.1,3.64,7.78,7.78,0,0,1-.67,1.73s0,0,0,.06l-.08.12-.05.06a3.68,3.68,0,0,1-1.84,1.15,3,3,0,0,1-.67,0,32.53,32.53,0,0,0-3.25-12.75C233.6,65.53,233.68,65.23,234.06,65.12Zm1.41,13a22,22,0,0,1-4.7-6.16s0,0,0,0a36,36,0,0,1,1.86-5.25A31,31,0,0,1,235.47,78.14ZM232,65.54a26.25,26.25,0,0,0-2,5,25.63,25.63,0,0,0-3.31-4.37,37.3,37.3,0,0,1,2.09-4.65A38.84,38.84,0,0,1,232,65.54Zm13.46-14.89c4.54-.09,7.68,1,10.38,4.81a8,8,0,0,1,.64,2.56A19.44,19.44,0,0,0,245.47,50.65ZM258.2,63a.43.43,0,0,1,0-.12c-.23-1.11-.3-2.28-.42-3.39a12.37,12.37,0,0,0-.95-4.5c-3.75-7.17-9.91-6.27-15.91-4.12-6.25,2.24-8,5.14-12.35,9-5.34-1.51-7.13-2.89-13.49-1.27-6.17,1.58-11.92,4.32-12.79,12.23a16.86,16.86,0,0,0,.29,4.54c.17,1.1.31,2.35.44,3.48a.69.69,0,0,1,0,.13c-.06,1,.16,2.17-.78,2.88s-2.12.17-3.2.23c0-.11.06,0,.08,0,.85-1.69,1.85-1.75,1.78-4-.15-4.3-2.52-7.72-6.16-10.23a7.29,7.29,0,0,0-1.47-.89,10.61,10.61,0,0,1-4.09-2.54c-.59-.63-.08-.15-.31-.41s0,0-.05-.07,0,0,0,0A14.39,14.39,0,0,1,190.65,58c.22-.43.62-1.23.8-1.65,1.77-4.11,2.3-8.47.13-12.23-1.15-2-2.13-1.24-3.76-2.12,0,0,0,.13-.07,0,.95-.58,1.7-1.67,2.89-1.68s1.63,1,2.3,1.77a.88.88,0,0,1,.06.1,29.85,29.85,0,0,1,1.36,2.93c.58,1.37.85,2.81,2.08,3.82,6.24,5.15,11.21,2.74,16.95-.49,6-3.38,8-6,12.33-10.35,5.56,2,7.7,3.22,14.48,2.55,6.59-.65,12.6-1.78,16-9.09a14.1,14.1,0,0,0,1.17-4.76c.09-1.14.24-2.33.43-3.46,0,0,0-.1,0-.13.39-1,.52-2.22,1.68-2.65s2.21.42,3.32.67c0,.11-.05,0-.08,0-1.32,1.41-2.5,1.22-3,3.49a13.19,13.19,0,0,0,3.46,11.94A10.84,10.84,0,0,0,264.44,38c1.34.77,2.91,3.26,3.3,4.11s0,.18.18.53,0,0,0,.08,0,0,0,0a14.86,14.86,0,0,1-3.35,5c-.32.35-.9,1-1.19,1.4-2.78,3.71-4.2,7.85-3.34,12.21.46,2.31,1.65,1.89,2.93,3.26,0,0,.08-.12.09,0-1.07.31-2.08,1.21-3.24.87S258.58,64,258.2,63Zm3.69-30.79c.39.67.92,1.32,1.32,1.9.75,1.06,1.45,2,2.16,3-.33-.36-.88-.86-1.16-1.21-2.73-3.43-4-6.7-3.3-11,.13-.81.54-.8.77-1.48-.05.19-.16.27-.21.43a11.22,11.22,0,0,0-.85,4A9.21,9.21,0,0,0,261.89,32.17Zm-.25,29.91c.05.17.16.23.21.41-.24-.67-.63-.6-.74-1.43-.57-4.32.61-7.59,3.17-11.21.26-.37.78-.9,1.09-1.28-.67,1.08-1.32,2-2,3.16-.38.59-.9,1.29-1.27,2a9.88,9.88,0,0,0-1.21,4.44A12,12,0,0,0,261.64,62.08Zm4.68,13.81c-.55,2.19-1.06,3.57-3.43,3.15s-2.88-1.63-3.18-4.6c-.15-1.39-.5-6-.89-7.88.33-.21.32.11.69.11,2.53,0,4.32-1.15,6.27-2.74a5.7,5.7,0,0,1,.52-.46c-.13,2.31,0,5.36,0,7.52A22.12,22.12,0,0,1,266.32,75.89Zm6.45-19.16c-2.94.05-4.28,1.6-6,4a5.12,5.12,0,0,1-.64,1c-.54.44-.83,1.36-1.76,1.13a2,2,0,0,1-1.76-1.6,9.3,9.3,0,0,1,.37-6.85c.31-.66,1-1.49,1.24-1.92,1.79-3.34,4.61-5.87,4.61-9.75S266,36.47,264,33.28a19.7,19.7,0,0,1-1.29-1.85,8.58,8.58,0,0,1-.37-6.82,2.37,2.37,0,0,1,1.82-1.71c.93-.29,1.2.58,1.75,1a4.62,4.62,0,0,1,.61,1c1.82,2.4,3.47,3.64,6.49,3.55s4.66-1.65,6.56-4a4.89,4.89,0,0,1,.68-1c.56-.42.89-1.31,1.82-1a2.19,2.19,0,0,1,1.8,1.68,8.82,8.82,0,0,1-.63,6.87c-.35.65-1.13,1.48-1.39,1.9-2,3.28-5,5.82-5.06,9.75s2.86,6.29,4.63,9.63c.23.44.94,1.24,1.25,1.9a8.58,8.58,0,0,1,.26,6.84,2.36,2.36,0,0,1-1.88,1.66c-.94.25-1.15-.66-1.67-1.1a5.09,5.09,0,0,1-.61-1C277.07,58.23,275.72,56.69,272.77,56.73Zm12-33.46c-.06-.16-.17-.24-.21-.42.22.68.64.63.74,1.47.52,4.38-.95,7.63-3.7,11.12-.28.36-.87.89-1.2,1.26.74-1.07,1.47-2,2.25-3.12.42-.59,1-1.25,1.4-1.93a9.61,9.61,0,0,0,1.42-4.39A10.72,10.72,0,0,0,284.8,23.27Zm-1.17,30.1c-.37-.68-.89-1.36-1.27-1.95-.71-1.11-1.36-2.07-2-3.14.32.37.84.9,1.1,1.26,2.55,3.56,3.83,6.88,3.06,11.16-.15.82-.59.8-.83,1.47.05-.18.16-.26.23-.42a10.22,10.22,0,0,0,.94-4A9.66,9.66,0,0,0,283.63,53.37Zm2,20.94c-.35,3-.88,4.25-3.3,4.65s-2.84-1-3.38-3.21c-.31-1.24,0-3.18.08-4.9.09-2.17.23-5.25.1-7.58a3.8,3.8,0,0,1,.52.46c2,1.58,3.74,2.68,6.28,2.67.36,0,.36-.33.69-.12C286.22,68.19,285.78,72.89,285.62,74.31Zm3.61-16.77a8.14,8.14,0,0,1,.68-2.56c2.74-3.94,5.93-5.24,10.58-5.79A24.4,24.4,0,0,0,289.23,57.54Zm20.82,18.72c-.19-.07-.34.08-.53-.05-2.89-1.91-3.18-4.38-3-7.68a8,8,0,0,1,.43-2.07,9.66,9.66,0,0,1,2.32-3.91,3,3,0,0,1,2.22-.79c.74,0,1.22.48,1.8.85A35.68,35.68,0,0,0,310.05,76.26Zm1.13-.3a33.54,33.54,0,0,1,2.89-12.34,36.05,36.05,0,0,1,2.1,5.7A20.93,20.93,0,0,1,311.18,76Zm12.37-12.88c3.13,1.65,3.75,4.28,3.46,7.63a10,10,0,0,1-3.17,6.55c-.16.17-.32.15-.5.22a2.78,2.78,0,0,1-1,.13,2.43,2.43,0,0,1-.53-.08,33.63,33.63,0,0,0,0-14.09C322.37,63.32,322.9,62.74,323.55,63.08ZM320.76,77a9.92,9.92,0,0,1-1.91-3c-.49-1.27-.91-2.87-1.31-4.24l-.1-.35a34.65,34.65,0,0,1,3.36-5.11A32,32,0,0,1,320.76,77Zm-.39-14.1A27.06,27.06,0,0,0,317,67.66a26.89,26.89,0,0,0-2.25-5.33c1-1.52,2.16-2.95,3.33-4.36A33.94,33.94,0,0,1,320.37,62.92Zm16-9.45c4.58,1.58,7.13,3.65,9,8.19a9.66,9.66,0,0,1,.25,2.75A27.06,27.06,0,0,0,336.34,53.47Zm10,16.4a.57.57,0,0,1,0-.13c0-1.19.07-2.48.17-3.64a13.44,13.44,0,0,0-.21-4.78c-2.16-7.91-7.66-9.27-14.34-9.4s-8.53,1.91-13.82,4.12c-4.53-3.49-6.42-6.11-12.9-7.4s-12.41-1.18-16.3,5.88a12.45,12.45,0,0,0-1,4.46c-.15,1.11-.34,2.36-.6,3.48,0,0,0,.1,0,.13-.42,1-.56,2.21-1.73,2.58s-2.16-.53-3.24-.83c0-.12.05,0,.08,0,1.36-1.38,2.5-1.11,3.09-3.39,1.11-4.3-.43-8.53-3.18-12.13a8.59,8.59,0,0,0-1.18-1.4c-1.32-.81-2.85-3.32-3.24-4.18s0-.19-.17-.54,0,0,0-.09,0,0,0,0a14,14,0,0,1,3.64-4.94c.34-.35,1-1,1.29-1.37,3-3.57,4.74-7.67,3.89-12.1-.45-2.35-1.66-2-3-3.46,0,0-.07.11-.08,0,1.11-.27,2.18-1.14,3.36-.73s1.27,1.59,1.65,2.62c0,0,0,.09,0,.13a30.87,30.87,0,0,1,.36,3.44,10.62,10.62,0,0,0,.9,4.52c3.72,7.39,9.37,7.81,16.21,7.36s9.2-2.19,14.71-4.66c4.62,3.61,6.26,6,12.73,7.82s12.15,2.4,16.88-4.34a12.85,12.85,0,0,0,1.77-4.48c.29-1.13.67-2.34,1.07-3.44l0-.13c.57-1,.91-2.17,2.16-2.39s2.11.83,3.17,1.28c0,.12,0,0-.08,0-1.58,1.23-2.72.77-3.63,3-1.72,4.26-.9,8.82,1.34,13a9.51,9.51,0,0,0,1,1.61c1.19,1.07,2.28,3.91,2.52,4.86s0,.19.09.58,0,0,0,.1,0,0,0,0a14.28,14.28,0,0,1-4.28,4.48c-.39.3-1.12.86-1.48,1.2-3.5,3.28-5.65,7.37-5.48,12,.09,2.44,1.28,2.33,2.35,4,0,0,.1-.11.09,0-1.14.12-2.3.88-3.4.28S346.54,71,346.34,69.87Zm9.19-31.06c.27.76.7,1.54,1,2.2.55,1.25,1.07,2.32,1.59,3.53-.26-.44-.71-1-.92-1.46-2.06-4.09-2.81-7.68-1.38-12,.27-.82.69-.72,1-1.37-.08.18-.21.24-.29.4A11.42,11.42,0,0,0,355,34.07,10.24,10.24,0,0,0,355.53,38.81ZM350,69.67c0,.17.13.27.14.47-.11-.73-.52-.78-.51-1.63.1-4.51,1.93-7.75,5.18-11,.33-.33,1-.77,1.36-1.1-.89,1-1.74,1.84-2.66,2.85a23.92,23.92,0,0,0-1.62,1.79,10.66,10.66,0,0,0-2,4.34A11.83,11.83,0,0,0,350,69.67Zm2.23,15.27c-.94,2.16-1.66,3.55-4.06,2.72s-2.64-2.17-2.38-5.32c.12-1.47.6-6.45.57-8.49.37-.16.3.18.67.25,2.56.48,4.54-.37,6.79-1.67a4.07,4.07,0,0,1,.6-.38c-.56,2.38-1,5.59-1.33,7.84C352.88,81.68,352.81,83.72,352.27,84.94Zm9.63-18.62c-3-.5-4.58.81-6.67,2.9a4.67,4.67,0,0,1-.77.93c-.6.36-1,1.25-1.9.82a2.24,2.24,0,0,1-1.51-2,9.49,9.49,0,0,1,1.59-7c.44-.62,1.29-1.34,1.61-1.74,2.44-3.11,5.68-5.22,6.36-9.21s-1.72-7-3.05-10.68c-.17-.48-.74-1.41-1-2.15a9.23,9.23,0,0,1,.81-7.12,2.4,2.4,0,0,1,2.13-1.43c1-.13,1.09.82,1.55,1.34a4.56,4.56,0,0,1,.44,1.12c1.3,2.68,2.48,4.44,5.43,5s4.6-.72,6.69-2.81a4.74,4.74,0,0,1,.77-.89c.61-.34,1-1.24,1.9-.79a2.48,2.48,0,0,1,1.54,2.1,8.88,8.88,0,0,1-1.52,6.95c-.46.62-1.3,1.28-1.62,1.68-2.5,3.06-5.69,5.12-6.38,9.11s1.67,7,2.9,10.77c.16.49.71,1.42.92,2.15a9.15,9.15,0,0,1-.89,7,2.32,2.32,0,0,1-2.09,1.37c-1,.12-1.09-.83-1.55-1.35a5.21,5.21,0,0,1-.42-1.11C365.93,68.56,364.86,66.82,361.9,66.32ZM379,34a3.5,3.5,0,0,1-.14-.49c.12.74.52.82.53,1.69,0,4.53-1.87,7.63-5.17,10.77-.33.32-1,.76-1.34,1.08.87-1,1.71-1.8,2.64-2.79.5-.53,1.15-1.1,1.65-1.73a9.84,9.84,0,0,0,2.05-4.25A12.28,12.28,0,0,0,379,34Zm-5.86,30.71c-.26-.76-.66-1.54-.93-2.21-.5-1.25-1-2.33-1.47-3.54.24.44.69,1.06.88,1.47,1.88,4.1,2.6,7.62,1.16,11.85-.28.81-.68.7-1,1.34.08-.18.2-.23.29-.39a11.77,11.77,0,0,0,1.56-3.84A10,10,0,0,0,373.09,64.75Zm-1.3,21.52c-.84,3-1.59,4.2-4.11,4.29s-2.76-1.38-2.94-3.72c-.09-1.31.53-3.25.89-5,.45-2.2,1.11-5.34,1.37-7.74a4.6,4.6,0,0,1,.45.54c1.72,1.91,3.34,3.31,5.9,3.66.37,0,.42-.28.72,0C373.34,80.15,372.18,84.85,371.79,86.27Zm6-16.34c.37-.76.4-1.85,1-2.47,3.24-3.47,6.51-3.88,11.05-3.18A19.11,19.11,0,0,0,377.83,69.93Zm15.61,23.85a3.4,3.4,0,0,1-.7-.11c-.06,0-.1,0-.17-.06-2.08-2.15-2.15-4.28-1.68-7.13l0-.12a11.56,11.56,0,0,1,3.78-5.56,2.5,2.5,0,0,1,2.06-.25c.74.08,1.06.62,1.57,1.06A30.84,30.84,0,0,0,393.44,93.78Zm6.05-5c-.68.89-3.1,4.15-4.84,4.62a26.94,26.94,0,0,1,4.24-10.77A26.72,26.72,0,0,1,400,88.2S400.17,87.94,399.49,88.83ZM407,83.39c.39,0,.7-.22,1.09.09,2.59,2.08,2.52,4.62,2,7.72,0,0,0,.09,0,.12a13.5,13.5,0,0,1-1.49,3.3A8.23,8.23,0,0,1,407.32,96l-.06,0-.12.08-.07,0a3.91,3.91,0,0,1-2.15.43,2.74,2.74,0,0,1-.63-.21,31.4,31.4,0,0,0,1.83-12.67C406.46,83.61,406.66,83.37,407,83.39ZM403.4,95.67a19.89,19.89,0,0,1-2-7.25h0a35.83,35.83,0,0,1,3.73-4.06A29.86,29.86,0,0,1,403.4,95.67ZM405,83a25.48,25.48,0,0,0-3.84,3.79,25.81,25.81,0,0,0-1.35-5.27,30,30,0,0,1,3.71-3.42C404.05,79.78,404.61,81.36,405,83ZM421,83c3.31,3.74,5.74,7,6.26,12.13.09.91-.47,1.7-.62,2.58C425.94,92.09,423.85,87.8,421,83Zm5,19.61s0-.08,0-.12a19.73,19.73,0,0,1,1-3,10.87,10.87,0,0,0,1.19-4.18c-.16-7.25-5.53-12.87-10.8-16.27-5.49-3.53-7.59-2.8-13.25-2.42-3.68-4.47-4.47-7.53-10-11.16-5.34-3.53-11.39-5.12-16.14,1.43a12.75,12.75,0,0,0-1.57,4.31,33.17,33.17,0,0,1-1,3.35,1,1,0,0,1,0,.13c-.56,1-.89,2.14-2.12,2.35s-2.09-.87-3.13-1.33c0-.11,0,0,.08,0,1.56-1.19,2.65-.73,3.56-2.94,1.73-4.17.85-8.67-1.14-12.85a8,8,0,0,0-.94-1.62c-1.17-1.1-2.23-4-2.46-4.93s0-.2-.08-.59,0,0,0-.1,0,0,0,0a14.1,14.1,0,0,1,4.26-4.41c.39-.3,1.09-.85,1.46-1.18,3.59-3.21,5.77-7.15,5.51-11.8-.14-2.46-1.32-2.45-2.42-4.17,0,0-.09.1-.09,0,1.15-.09,2.32-.85,3.42-.21s1,2,1.24,3.08a.65.65,0,0,1,0,.14c0,1.2,0,2.55-.09,3.73a16.6,16.6,0,0,0,.19,4.88c1.87,8.17,7.59,10.46,13.89,12.43,6.57,2.06,8.3,1.18,14.11.45,3.41,5.42,5.32,9.27,10.24,14.31,4.77,4.9,8.18,8.33,16,6.07,1.55-.45,1.87-1.82,2.67-3a25.63,25.63,0,0,1,1.64-2.38l.07-.09c.8-.58,1.37-1.38,2.48-1.07s1.7,1.51,2.49,2.28c-.05.09,0-.06-.07-.05-1.65.48-2.48-.67-3.88,1.07-2.64,3.3-2.76,7.53-1.55,11.69a13.76,13.76,0,0,0,.43,1.76,12.68,12.68,0,0,1,.91,5.14c0,.93-.05.17-.08.55s0,0,0,.09,0,0,0,0a11.66,11.66,0,0,1-4.68,2c-.39.1-1.12.31-1.51.46-3.77,1.44-6.73,3.86-7.66,7.71-.5,2,.58,2.5,1.11,4.17,0,0,.1,0,.07.05-1-.25-2.22,0-3-.82S425.92,103.63,426,102.59Zm15.41-22.68c.07.74.28,1.62.39,2.31.19,1.3.36,2.47.51,3.72-.12-.46-.32-1.23-.41-1.65-.9-4.11-1-7.45,1.36-10.91.45-.66.72-.28,1.21-.73-.12.13-.25.11-.36.21A7.44,7.44,0,0,0,442,75.58,9.12,9.12,0,0,0,441.41,79.91Zm-12.23,23.6c0,.15.05.28,0,.44.08-.62-.29-.83-.05-1.51,1.23-3.6,3.6-5.42,7.1-6.93.36-.15,1-.29,1.39-.43-1,.51-1.88.92-2.9,1.43-.55.27-1.22.5-1.81.84a7.71,7.71,0,0,0-2.83,2.87A8.85,8.85,0,0,0,429.18,103.51Zm-1.59,13.68c-1.37,1.55-2.32,2.45-4.13,1.14s-1.75-2.38-.83-5c.43-1.25,2-5.48,2.43-7.26.36,0,.22.26.52.43,2,1.18,4,1.1,6.27.68.16,0,.44-.17.61-.12-1,1.85-2.13,4.45-2.94,6.25A18,18,0,0,1,427.59,117.19Zm12.71-11.77c-2.24-1.44-3.92-1-6.38,0a3.38,3.38,0,0,1-.92.34c-.63,0-1.27.4-1.87-.18a2.18,2.18,0,0,1-.82-2.1,6.93,6.93,0,0,1,3.05-5c.53-.35,1.41-.61,1.78-.84,2.83-1.81,6-2,7.62-5.21s.31-6.81,0-10.39c0-.47-.33-1.57-.38-2.25a7.11,7.11,0,0,1,2.2-5.83c.84-.74,1.35-.55,2.19-.32s.78,1.08,1.05,1.68a7.34,7.34,0,0,1,.2,1.13c.47,3.13,1.49,5.83,3.83,7.7s4,1.81,6.89,1.78a3.39,3.39,0,0,1,1-.16c.66.12,1.39-.25,2,.4a2.63,2.63,0,0,1,.78,2.39,5.88,5.88,0,0,1-3.4,4.33,14.2,14.2,0,0,1-1.89.46c-3.05,1-6.33,1-8,4s-.27,5.89-.23,9.14a17.26,17.26,0,0,1,.16,1.86,7.24,7.24,0,0,1-2.71,5,2,2,0,0,1-2.09.5c-.82-.2-.66-1-.89-1.55a3.91,3.91,0,0,1,0-1.06C443,108.58,442.54,106.86,440.3,105.42Zm23.28-16.87a3.68,3.68,0,0,1,0-.47c-.11.62.31,1,0,1.61-1.55,3.39-4.05,4.59-7.64,5.38-.37.08-1,.07-1.47.12,1-.28,2-.49,3.08-.76.59-.15,1.33-.29,1.94-.51a6,6,0,0,0,2.94-2.22A7.57,7.57,0,0,0,463.58,88.55Zm-13.42,19.61c0-.64-.11-1.33-.16-1.91-.08-1.08-.19-2-.28-3.08.1.4.29,1,.34,1.38.53,3.68,0,6.41-2.33,9.22-.45.54-.76.4-1.23.79.12-.11.24-.13.35-.23a11.07,11.07,0,0,0,2.36-2.56A7.09,7.09,0,0,0,450.16,108.16Zm-7,16.62c-1.65,2.11-2.59,2.59-4.61,2s-1.93-1.84-1.4-3.76a19.37,19.37,0,0,1,2.13-3.74c1-1.62,2.42-3.88,3.29-5.72a4.82,4.82,0,0,1,.22.57c.89,2,1.85,3.64,3.84,4.67.29.15.43-.1.6.19C446.07,120.28,443.89,123.79,443.12,124.78Zm9.6-11.36c.43-.45.93-1.33,1.57-1.4,3.57-.4,6.62.37,10.06,1C460.32,112.86,456.68,112.36,452.72,113.42ZM457,135.84c-.07-.11-.23-.08-.29-.22-1.1-2.6-.37-4.36,1.6-6.34s4.2-2.94,7-2.07c.6.18.55.82.85,1.25A27.57,27.57,0,0,0,457,135.84Zm7.64-1.57c-1.41.53-2.9,1.21-4.3,1.66a7.82,7.82,0,0,1-2.39.25,26.13,26.13,0,0,1,8.23-6.73,24.49,24.49,0,0,1-1.25,4.7Zm8.1-1.1c.24.11.6.1.75.39,1.37,2.47.67,4.31-1.26,6.3s-4,2.91-6.76,2.31c-.16,0-.19-.16-.31-.22a26.65,26.65,0,0,0,6.88-8.88A2.82,2.82,0,0,1,472.7,133.17Zm-8.12,8a3.63,3.63,0,0,1-.19-1.27,22,22,0,0,1,1.4-4.78l.09-.25a35.3,35.3,0,0,1,5-1.73A25.55,25.55,0,0,1,464.58,141.18Zm6.67-9.08a27.14,27.14,0,0,0-4.84,1.34,18.62,18.62,0,0,0,.9-4.5c1.57-.38,3.12-.78,4.65-1.3A26.9,26.9,0,0,1,471.25,132.1Zm16.36,7.68c2.54,4.59,3.94,8.61,2.89,13.84-.19.94-.95,1.22-1.41,1.95C490.13,149.93,489.33,145.18,487.61,139.78Zm-1,20.2a.76.76,0,0,1,.08-.11,30.12,30.12,0,0,1,2.14-2.67c1-1.07,2-1.62,2.5-3,2.44-7.26-2.07-14.55-6.42-19.32S478.05,129,473,126.1c-1.3-4.25-1-8.39-4.79-11.73s-9.52-3.59-14.6-3.05c-1,.11-1.85,1.78-2.57,2.64-.51.61-1.2,1.68-1.76,2.35l-.08.1c-.73.61-1.33,1.47-2.39,1.27s-1.48-1.3-2.2-2c.06-.08,0,0,.06,0,1.59-.48,2.4.13,3.74-1.34a11.19,11.19,0,0,0,2.64-10,5.87,5.87,0,0,0-.34-1.48,9.59,9.59,0,0,1-.93-4.48c0-.81.05-.17.09-.49s0,0,0-.08,0,0,0,0a9.74,9.74,0,0,1,4.92-1.57c.41,0,1.22-.16,1.6-.25,3.69-.82,7.07-2.13,8.2-5.85.6-2-.58-2.87-1-4.57,0,0-.11,0-.08-.07,1.05.43,2.31.37,3.06,1.35s.41,2.11.31,3.24a.56.56,0,0,1,0,.12,8.27,8.27,0,0,1-1.1,2.48,5.49,5.49,0,0,0-1.22,3c0,6.15,4.58,10,9.21,12.51a68.32,68.32,0,0,0,12.19,5.36c1.33,5.8,1.79,9.9,5.43,15.27a27.9,27.9,0,0,0,16.22,11.46c1.35.32,2.66-1,3.83-1.64.84-.48,1.9-1.06,2.8-1.48l.1-.06c1.05-.24,2-.75,3-.1S518.46,139,519,140c-.09.06,0-.06-.06-.06-1.86-.18-2.42-1.36-4.49-.43-3.93,1.77-5.81,5.35-6.19,9.74a12.93,12.93,0,0,0-.14,1.88c.33,1.52-.52,4.34-.91,5.2s-.13.15-.31.49,0,0-.05.08,0,0,0,0a13.14,13.14,0,0,1-5.58-.12c-.44-.07-1.29-.19-1.71-.22-4.14-.23-8.19.48-10.62,3.81-1.28,1.77-.35,2.73-.5,4.54,0,0,.11,0,0,.08-.89-.65-2.16-.83-2.61-2S486.14,161,486.62,160Zm23.85-14.46c-.21.71-.31,1.54-.46,2.21-.27,1.26-.49,2.4-.78,3.62,0-.49.09-1.28.15-1.71.57-4.25,1.81-7.21,5.59-9.25.72-.39.93,0,1.6-.21-.17.07-.3,0-.46.07a8,8,0,0,0-3.42,1.58A8.21,8.21,0,0,0,510.47,145.52Zm-21,16.66c-.08.13-.07.29-.16.43.32-.57,0-1,.52-1.53,2.67-2.88,5.89-3.35,9.78-3.23.4,0,1.12.16,1.56.2-1.18,0-2.27,0-3.49.07-.66,0-1.49,0-2.19,0a9.12,9.12,0,0,0-3.89,1.37A6.17,6.17,0,0,0,489.43,162.18Zm-6.94,12.41c-1.87.87-3.18,1.55-4.43-.32s-.63-2.71,1.32-4.79a53.52,53.52,0,0,0,5.07-6.32c.37.1.13.34.35.62,1.53,1.92,3.39,2.58,5.79,3a4.62,4.62,0,0,1,.65.08c-1.64,1.45-3.78,3.5-5.29,4.85A18.53,18.53,0,0,1,482.49,174.59Zm17.35-5.44c-1.67-2.41-3.71-2.7-6.5-3.21a3.6,3.6,0,0,1-1.08-.11c-.6-.32-1.43-.21-1.79-1a2.37,2.37,0,0,1,.06-2.46,6.93,6.93,0,0,1,5-3.12c.64-.1,1.65,0,2.11,0,3.52-.46,6.87.78,9.82-1.59s2.81-6.15,3.75-9.69c.12-.46.22-1.48.45-2.16a6.71,6.71,0,0,1,4.58-4.37,2.5,2.5,0,0,1,2.43.48c.78.5.37,1.22.41,1.88a5.22,5.22,0,0,1-.3,1.07c-.61,3.16-.41,5.85,1.47,8.35s4,2.86,7,3.59a5.92,5.92,0,0,1,1.15.25c.61.35,1.55.23,1.91,1.07a2.23,2.23,0,0,1-.15,2.5,7.72,7.72,0,0,1-5.41,3c-.68.08-1.72-.13-2.19-.1-3.64.22-7.18-1.1-10.22,1.24s-2.79,6.15-4.12,9.57c-.17.44-.34,1.37-.64,2a8.21,8.21,0,0,1-5,4.21,2,2,0,0,1-2.25-.47c-.71-.56-.22-1.28-.21-1.93a4.87,4.87,0,0,1,.39-1.08C501.41,174.19,501.52,171.57,499.84,169.15ZM531.29,161c.08-.14.08-.3.19-.44-.38.57-.05,1-.63,1.54-3.06,2.79-6.26,3.2-10.38,2.79-.42,0-1.18-.23-1.64-.31,1.24,0,2.39.13,3.67.18.69,0,1.54.12,2.28.1a8.19,8.19,0,0,0,4.05-1.33A6.7,6.7,0,0,0,531.29,161Zm-22.77,15.52c.29-.68.47-1.43.68-2.07.41-1.2.73-2.31,1.1-3.49-.08.48-.17,1.28-.28,1.7-1.08,4.09-2.83,6.82-6.47,8.83-.69.38-.88,0-1.51.25.16-.07.27,0,.43-.08a10.78,10.78,0,0,0,3.44-1.64A9.08,9.08,0,0,0,508.52,176.54ZM494.46,190c-2.42,1.3-3.64,1.72-5.42.37s-1-2.54.24-4.2a22,22,0,0,1,3.65-3c1.64-1.23,4-3,5.67-4.37a4.72,4.72,0,0,1,0,.65c0,2.43.29,4.46,1.77,6.38.22.28.46.12.5.48C499.21,187.05,495.6,189.4,494.46,190Zm14.19-6.82c.67-.35,1.51-1,2.28-.73,4.27,1.56,6.79,4.34,9.41,7.9C516.66,187,513.7,184.08,508.65,183.19Zm-10,32.45a3.37,3.37,0,0,1-.43-.55c0-.05-.08-.05-.07-.15.23-3,2-4.36,4.53-5.78l.11,0a16.15,16.15,0,0,1,7.34-1.34c.92.09,1.24.58,1.76,1.14s.28,1.09.33,1.75A44.06,44.06,0,0,0,498.67,215.64Zm8.53.76c-1.23.16-5.63.79-7.36-.16a38.32,38.32,0,0,1,11.94-4.48,28.86,28.86,0,0,1-3.7,4.53S508.42,216.25,507.2,216.4Zm10.09,1.46c.26.29.69.31.72.84.21,3.47-2.06,5.06-4.89,6.64l-.11,0a17.07,17.07,0,0,1-3.8,1.14,10,10,0,0,1-2,0l-.08,0-.15,0h-.09a4.19,4.19,0,0,1-1.93-1.2,2.42,2.42,0,0,1-.31-.57,34.7,34.7,0,0,0,11.76-7.3C516.68,217.6,517,217.57,517.29,217.86Zm-12.77,5.8a19.83,19.83,0,0,1,4.41-6.25h0a48.11,48.11,0,0,1,6.12-.24A33,33,0,0,1,504.52,223.66Zm11.53-7.46a35,35,0,0,0-6,0,26.34,26.34,0,0,0,3.3-4.56c1.88,0,3.76.08,5.65,0A37.2,37.2,0,0,1,516.05,216.2Zm13.73,9.54c.31,4.42-.11,7.77-3.5,10.89-.61.56-1.58.54-2.3.89C527.24,234.05,528.77,230.34,529.78,225.74ZM519.7,240.56l.12-.07a27.81,27.81,0,0,1,3.22-1.55c1.34-.56,3-.74,4-1.58,5.37-4.24,4.68-11.21,2.74-16.62-2-5.64-4.85-6.75-8.85-10.22,1.3-5.58,3.3-9.61,2-15.8a18.27,18.27,0,0,0-12.2-13.31c-1.24-.4-2.78,1.14-3.88,1.84-.79.5-1.85,1.18-2.72,1.61,0,0-.08.06-.11.06-1,.28-1.95.78-2.87.07s-.9-2-1.31-3c.09-.05,0,.06.05.07,1.8.27,2.17,1.4,4.2.44,3.85-1.81,6.13-5.25,7.12-9.5a7.37,7.37,0,0,0,.31-1.73,11.82,11.82,0,0,1,1-5.22c.41-.85.13-.14.31-.47s0,0,.05-.08,0,0,0,0a12.63,12.63,0,0,1,5.82.28c.46.09,1.34.26,1.79.33,4.35.62,8.51.1,11.25-3.3,1.45-1.79.48-2.75.73-4.64,0,0-.13,0,0-.08.92.71,2.21,1,2.62,2.22s-.39,2.11-.93,3.13c0,0-.06.07-.08.1a16.6,16.6,0,0,1-2.25,2.47,8.67,8.67,0,0,0-2.79,3.23c-3,7-.26,14.51,2.73,20.49,3.12,6.22,5.26,8.5,10.14,12.56-1,5.9-2.49,8.54-1.86,15.36.62,6.63,2.21,11.12,10.34,12.5a10.57,10.57,0,0,0,4.78,0,29.19,29.19,0,0,1,3.64-.67l.13,0c1.13,0,2.4-.22,3.23.69s.33,2.1.45,3.2c-.11,0,0-.06,0-.08-1.82-.83-2.1-1.92-4.47-1.71a14.92,14.92,0,0,0-10.95,6.6,9,9,0,0,0-1,1.53,13.61,13.61,0,0,1-3,4.33c-.69.63-.15.09-.44.32s0,0-.08.06,0,0,0,0a15.15,15.15,0,0,1-5.88-1.82c-.43-.21-1.3-.6-1.73-.77-4.23-1.67-8.95-2.3-12.8-.17-2,1.12-1.26,2.1-2.12,3.72,0,0,.14,0,0,.08-.74-.81-2.1-1.25-2.21-2.47S518.88,241.21,519.7,240.56Zm31.44-4.89a22.17,22.17,0,0,0-1.49,1.71c-.85,1-1.56,1.85-2.37,2.8.27-.41.59-1,.87-1.4a15.25,15.25,0,0,1,10.08-6.2c.82-.13,1,.24,1.73.24-.2,0-.32-.06-.5-.06a13.39,13.39,0,0,0-4.3.52A10.63,10.63,0,0,0,551.14,235.67ZM522,243.25c-.13.1-.16.23-.32.33.57-.41.36-.81,1.1-1.16,3.93-1.83,7.69-1.2,11.76.34.41.15,1.11.54,1.56.73-1.24-.38-2.36-.8-3.64-1.21a21.74,21.74,0,0,0-2.32-.68,12.43,12.43,0,0,0-4.66-.21A8,8,0,0,0,522,243.25Zm-12.18,9.44c-2.33.42-4.15.9-4.93-1.53s.6-3.11,3.38-4.46c1.31-.63,6.16-3.11,7.94-4.18.38.2,0,.3.19.63,1.08,2.32,3,3.31,5.33,4.33a4.27,4.27,0,0,1,.67.27c-2.39.73-5.44,2-7.58,2.92A31.33,31.33,0,0,1,509.81,252.69ZM530.63,251c-.65-2.61-2.94-3.1-5.41-3.71A5.27,5.27,0,0,1,524,247c-.58-.32-1.62-.17-1.75-1.1a1.83,1.83,0,0,1,.91-2.1,8.35,8.35,0,0,1,6.63-1.25c.71.14,1.77.6,2.25.72,3.67.93,7,3.06,10.72,1.91s5.19-4.72,7.9-7.33c.35-.34.89-1.18,1.47-1.67a10.63,10.63,0,0,1,6.84-2.43,2.52,2.52,0,0,1,2.29,1.21c.59.78-.18,1.24-.44,1.85a5.39,5.39,0,0,1-.8.83c-1.92,2.28-2.86,4.32-2.38,7.12a10.75,10.75,0,0,0,3.45,6.36,3.52,3.52,0,0,1,.84.58c.41.59,1.25.84,1.13,1.8a2.24,2.24,0,0,1-1.51,1.91,5.68,5.68,0,0,1-5.4,0c-.56-.3-1.13-.89-1.56-1.09-3.24-1.53-5.54-3.12-9.19-2s-5.94,4.3-9.6,5.79a9.19,9.19,0,0,1-2.26.74,13.22,13.22,0,0,1-8.05-2.3c-1.13-.75-1.36-1.11-1.51-2.12s1-.6,1.5-.78a6.05,6.05,0,0,1,1.21.06C528.85,253.79,531.29,253.56,530.63,251Zm31.76,5.32c.14,0,.25-.18.4-.23-.57.26-.72.68-1.39.84-3.51.85-5.87-.26-8.88-2.2-.31-.2-.87-.6-1.22-.81a22.13,22.13,0,0,1,2.78,1.43c.51.3,1.08.74,1.61,1a6.24,6.24,0,0,0,3.34,1A10.7,10.7,0,0,0,562.39,256.28Zm-28,3.56a10.23,10.23,0,0,0,2.38-.82,25.33,25.33,0,0,0,3.42-2c-.47.32-.8.9-1.29,1.15-4.83,2.46-8.85,1.81-13.53-.39-.89-.42-.76-.75-1.48-1.21.2.11.25.24.43.35a21.55,21.55,0,0,0,4.47,2.4A12.11,12.11,0,0,0,534.4,259.84Zm-23.65-5.3c-3-1.15-4.19-2-4.12-4.54s1.52-2.57,3.88-2.41a21.53,21.53,0,0,1,4.92,1.62c2.27.84,5.68,2.33,8.09,3.44-.13.08-.41.1-.56.17-2.11,1-3.73,1.92-4.17,4.3-.07.34.29.43,0,.69C516.94,256.88,512.15,255.08,510.75,254.54ZM532.64,264c-2-.89-4.14-1.81-6.1-2.69-1.4-.63-2.61-1.2-4-1.84l-.12-.06c-.92-.6-2.14-1.07-2.32-2.26s1.06-1.64,1.67-2.44c.14.06-.07,0,0,.06,1.43,1.76.66,2.49,3.13,3.78,4.65,2.44,10,3.4,14.89.35a7.06,7.06,0,0,0,1.45-1.29,35.34,35.34,0,0,1,3.86-4.07c.78-.66.17-.1.49-.36s0,0,.08-.05l0,0a9.63,9.63,0,0,1,5,1.79c.36.23,1,.66,1.29.87,3.22,2,5.94,3.37,9.66,2.25,2-.59,2.06-1.94,3.21-3.35,0,0-.1-.07,0-.09.34,1.1,1.5,1.91,1.26,3.16s-1.56,1.53-2.61,2l-.14,0c-1,.24-2.18.59-3.1.77a12.65,12.65,0,0,0-3.38,1C547.65,262.53,542.77,265.43,532.64,264Z" style="fill:url(#linear-gradient)"/><polygon points="110.33 202.32 30.76 159.6 33.75 159 110.04 199.96 110.33 202.32" style="fill:#c7a315"/><rect x="29.27" y="176.9" width="85.61" height="2.41" transform="translate(92.83 -12.91) rotate(28.23)" style="fill:#ede6a1;stroke:#c7a315;stroke-miterlimit:10;stroke-width:0.5px"/><polygon points="110.36 197.3 34.93 156.8 37.43 156.88 109.78 195.72 110.36 197.3" style="fill:#c7a315"/><rect x="24.43" y="180.72" width="90.31" height="4.07" transform="translate(94.73 -11.17) rotate(28.23)" style="fill:#f7f3cb"/><polygon points="588.82 248.49 497.26 248.49 498.72 247.38 587.3 247.38 588.82 248.49" style="fill:#c7a315"/><rect x="492.12" y="257.06" width="101.76" height="4.32" style="fill:#f7f3cb"/><polygon points="593.89 257.06 492.12 257.06 494.77 255 592.35 255 593.89 257.06" style="fill:#c7a315"/><rect x="494.77" y="252.35" width="96.47" height="2.55" style="fill:#ede6a1;stroke:#c7a315;stroke-miterlimit:10;stroke-width:0.5px"/><polygon points="591.3 252.21 494.77 252.21 497.3 251.18 589.82 251.18 591.3 252.21" style="fill:#c7a315"/><rect x="497.3" y="248.62" width="91.42" height="2.55" style="fill:#ede6a1;stroke:#c7a315;stroke-miterlimit:10;stroke-width:0.5px"/><rect x="498.72" y="243.52" width="88.58" height="3.86" style="fill:#ede6a1;stroke:#c7a315;stroke-miterlimit:10;stroke-width:0.5px"/><polygon points="593.89 261.38 492.12 261.38 490.28 264.57 595.74 264.57 593.89 261.38" style="fill:#c7a315"/><rect x="490.28" y="264.57" width="105.46" height="7.38" style="fill:#d6aecf;stroke:#7a6fb9;stroke-miterlimit:10;stroke-width:0.25px"/><polygon points="86.21 261.12 4.62 261.12 5.88 260.04 84.95 260.04 86.21 261.12" style="fill:#c7a315"/><rect y="268.51" width="90.83" height="3.78" style="fill:#f7f3cb"/><polygon points="90.83 268.5 0 268.5 2.36 266.7 89.46 266.7 90.83 268.5" style="fill:#c7a315"/><rect x="2.36" y="264.39" width="86.1" height="2.23" style="fill:#ede6a1;stroke:#c7a315;stroke-miterlimit:10;stroke-width:0.5px"/><polygon points="88.47 264.38 2.36 264.38 4.62 263.36 87.2 263.36 88.47 264.38" style="fill:#c7a315"/><rect x="4.62" y="261.12" width="81.6" height="2.23" style="fill:#ede6a1;stroke:#c7a315;stroke-miterlimit:10;stroke-width:0.5px"/><rect x="5.88" y="256.66" width="79.07" height="3.38" style="fill:#ede6a1;stroke:#c7a315;stroke-miterlimit:10;stroke-width:0.5px"/></g></g></svg>