<svg xmlns="http://www.w3.org/2000/svg" viewBox="0 0 243.15 192.91"><title>parede</title><g id="Layer_2" data-name="Layer 2"><g id="Layer_6" data-name="Layer 6"><path d="M160,189.74c-7.12-6.33-11.75-6.32-18.74-4l-3.53.86c-2.2.54-4.54,0-5.65-1-1.28-1.25-1.52-3.62-.65-6.48,1.66-5.52,7.1-11.81,14.27-13.16l6.32-1.17c15.21-2.81,22.9-4.25,27.55-8.84,4.49-4.74,5.81-12.47,8.32-27.74q.48-3,1.05-6.34c1.21-7.19,7.39-12.75,12.87-14.52,2.85-.93,5.22-.73,6.5.53,1.1,1.09,1.64,3.41,1.14,5.63,0,0-.79,3.52-.8,3.54-2.16,7-2.08,11.66,4.39,18.65l2.36-2.18c-5.39-5.82-5.77-8.83-3.82-15.18,4-7.21,11.71-14.45,18.53-20.83,4.13-3.87,7.7-7.21,9.84-10a12.65,12.65,0,0,0-1.49-17.12c-4-3.61-11.23-5.35-18.77,1.59-3.63,3.35-16.19,14.72-26.15,21.36l-.27.18a54.17,54.17,0,0,1-5,3c-14.56,7.47-36.23,8.15-51.89-7.13A52,52,0,0,1,126.09,56.2a70.41,70.41,0,0,1,3-16.14c4.62-.16,9.81-1.91,15-4-3.55,9.62-6,18.91-.31,24.38,7.63,7.33,19.21,2.53,26.75-5l.21-.22c7.59-7.74,11.84-19,5.34-25.71-6.28-6.49-16.31-3.18-26.36.84,3.12-8.13,6-16.3,4-22a49.88,49.88,0,0,1,9.71-4.06l-.92-3.08A52.83,52.83,0,0,0,152.23,5.5a10.88,10.88,0,0,0-.86-.94c-7.91-7.51-19-3-26.57,4.8a37.67,37.67,0,0,0-3.65,4.43,37.58,37.58,0,0,0-4.19-5c-7.7-7.65-18.9-11.94-26.65-4.28a10.71,10.71,0,0,0-.85,1A53.72,53.72,0,0,0,79,1.37l-.86,3.1A49.8,49.8,0,0,1,88,8.34c-1.86,5.77,1.14,13.89,4.41,22C82.25,26.47,72.16,23.35,66,30c-6.36,6.85-1.9,18,5.84,25.6l.22.21c7.68,7.41,19.35,12,26.84,4.5,5.58-5.58,3-14.82-.78-24.37,5.28,2,10.5,3.61,15.11,3.68a70.7,70.7,0,0,1,3.34,16.08A52,52,0,0,1,106.92,89c-15.36,15.58-37,15.32-51.75,8.14a54.66,54.66,0,0,1-5.06-2.88l-.28-.18C39.74,87.62,27,76.5,23.27,73.22,15.6,66.42,8.35,68.31,4.47,72A12.66,12.66,0,0,0,3.32,89.14c2.19,2.75,5.82,6,10,9.8,7,6.25,14.82,13.34,18.93,20.47,2.08,6.31,1.75,9.32-3.52,15.25l2.4,2.14c6.33-7.12,6.32-11.75,4-18.73,0,0-.86-3.53-.86-3.53-.54-2.21,0-4.55,1-5.65,1.26-1.29,3.62-1.53,6.49-.66,5.51,1.67,11.8,7.1,13.15,14.27.42,2.24.81,4.34,1.17,6.32C59,144,60.43,151.74,65,156.39c4.74,4.5,12.45,5.79,27.72,8.3l6.34,1.05c7.19,1.21,12.75,7.39,14.52,12.88.93,2.84.73,5.21-.53,6.49-1.09,1.1-3.41,1.64-5.63,1.15l-3.54-.8c-7-2.17-11.66-2.08-18.65,4.38l2.18,2.36c5.82-5.38,8.83-5.77,15.18-3.82,7.71,3,13.15.88,16.32-3.32,2.11-2.79,1.76-7.21.08-11.37-3.17-7.86-12.91-16.45-30.76-17-1.84-.06-3.6-.08-5.26-.11-7.42-.12-13.28-.22-15.72-2.53h0c-2.36-2.4-2.57-8.26-2.84-15.67-.06-1.66-.12-3.42-.21-5.26-.86-17.83-9.64-27.41-17.56-30.42-4.19-1.6-8.33-1.45-11.36.3a1.71,1.71,0,0,0-.23.13c2.12-4.14,2.7-7.37,4.74-8.35s4.7-.3,8.3,2l.28.18a68.26,68.26,0,0,1,7.46,5.75C59,105.4,62,108,66,109.71c20.1,8.88,33.78-5.35,43.45-18.75a55.33,55.33,0,0,0,10.33-35.57,73.47,73.47,0,0,0-3.23-16,12.07,12.07,0,0,0,4.14-1.55,11.78,11.78,0,0,0,5.12,2.08A73.92,73.92,0,0,0,122.88,56a55.43,55.43,0,0,0,11,35.36c9.94,13.2,23.89,27.17,43.81,17.9,3.93-1.83,6.89-4.44,10-7.21a69.57,69.57,0,0,1,7.35-5.89l.27-.18c3.57-2.34,6.27-3,8.27-2.13s2.7,4.16,4.9,8.26l-.23-.13c-3.07-1.69-7.21-1.76-11.37-.08-7.86,3.17-16.45,12.91-17,30.76-.06,1.84-.09,3.6-.11,5.26-.12,7.42-.22,13.28-2.54,15.72h0c-2.4,2.37-8.26,2.57-15.68,2.84-1.66.06-3.41.12-5.25.21-17.84.86-27.41,9.64-30.43,17.56-1.59,4.19-1.86,8.61.3,11.37,3.25,4.13,8.74,6.16,16.39,3,6.31-2.08,9.32-1.75,15.25,3.52ZM148.5,34.6c10.41-4.23,20.25-8.22,25.6-2.69,5.12,5.29,1.08,14.8-5.52,21.42s-16.18,10.79-22.24,5c-4.76-4.58-1.55-14.1,2.13-23.69ZM88.15,159.94c16.3.47,25.08,8,27.87,14.95a13.31,13.31,0,0,1,1,3.84c-.09-.36-.19-.73-.32-1.11a23.07,23.07,0,0,0-5.8-9.08,21.29,21.29,0,0,0-11.24-6l-6.36-1c-3.71-.61-7-1.15-9.86-1.68C84.9,159.86,86.49,159.89,88.15,159.94Zm-42.9-54c7,2.65,14.7,11.29,15.49,27.57.08,1.66.14,3.24.19,4.75-.58-2.87-1.18-6.13-1.86-9.82q-.55-3-1.18-6.33a21.35,21.35,0,0,0-6.19-11.13,23.25,23.25,0,0,0-9.19-5.63c-.38-.11-.75-.21-1.12-.29A13.15,13.15,0,0,1,45.25,105.89ZM30.5,109.65a16.41,16.41,0,0,0-.07,2.11c-4.38-5.33-10-10.42-15.19-15.06C11.14,93,7.6,89.83,5.58,87.29a9.33,9.33,0,0,1,.85-12.81c3-2.88,8.42-4,14.45,1.3C23.71,78.29,31.79,85.33,40,91.46a7.42,7.42,0,0,0-1.85.6C34.07,94,31.57,99.77,30.5,109.65ZM67,106.93a29.12,29.12,0,0,1-6.21-3.9c11.32,3.41,24.87,3.18,36.88-3.21C89.77,107.59,79.75,112.54,67,106.93ZM96.38,58.16C90.43,64.1,80.63,60,74,53.62S63.1,37.71,68.11,32.31c5.24-5.63,15.15-1.83,25.65,2.2h0C97.65,44,101.05,53.49,96.38,58.16ZM96.24,32l-.36-.89c-3.2-7.82-6.49-15.85-5.28-21,10.31,6.36,17.13,16,21.2,26.36C107.25,36.13,101.86,34.16,96.24,32Zm19,4.4C111,25,103.51,14.23,92,7.25L92.31,7c4.1-4,12.27-5.39,21.89,4.05l.23.23a33.06,33.06,0,0,1,4.67,5.81c-3.53,6.44-4.6,13.51-.83,18.4A9.61,9.61,0,0,1,115.21,36.42Zm5.92-15.54c2,4.68,2.34,9.35-.25,12.49C118.65,30.15,119.08,25.51,121.13,20.88Zm2.16,14.75c4.37-4.82,3.46-12-.11-18.56a33.81,33.81,0,0,1,4.19-5.32l.23-.24C137,1.89,145.23,3.07,149.41,7l.27.27c-11.33,7.21-18.56,18.12-22.6,29.61A9.09,9.09,0,0,1,123.29,35.63Zm27.89-25.46c1.31,5.12-1.82,13.22-4.87,21.09l-.34.9c-5.58,2.25-10.94,4.33-15.47,4.78C134.36,26.54,141,16.74,151.18,10.17Zm25.43,96.32c-12.59,5.86-22.7,1.1-30.8-6.52,12.14,6.17,25.69,6.13,36.94,2.5A29,29,0,0,1,176.61,106.49Zm28.6-15.43a7.2,7.2,0,0,0-1.87-.56c8.1-6.29,16-13.49,18.82-16,5.93-5.47,11.34-4.4,14.43-1.59a9.36,9.36,0,0,1,1.09,12.8c-2,2.58-5.45,5.83-9.47,9.6-5.07,4.74-10.62,9.93-14.9,15.35a15,15,0,0,0-.11-2.12C212,98.64,209.33,92.94,205.21,91.06Zm-21.78,41.83c.47-16.29,8-25.08,14.95-27.87a13.63,13.63,0,0,1,3.85-1c-.37.09-.74.2-1.12.32a23.07,23.07,0,0,0-9.08,5.8,21.39,21.39,0,0,0-6,11.25c-.38,2.25-.73,4.36-1.05,6.35-.61,3.71-1.15,7-1.68,9.86C183.35,136.14,183.38,134.55,183.43,132.89ZM129,175.39c2.65-7,11.29-14.7,27.57-15.49,1.66-.08,3.25-.14,4.76-.19-2.87.58-6.13,1.18-9.83,1.86l-6.33,1.18A21.35,21.35,0,0,0,134,168.94a23.1,23.1,0,0,0-5.62,9.19c-.12.38-.22.75-.3,1.12A13.22,13.22,0,0,1,129,175.39Z" style="fill:#c1272d;stroke:aqua;stroke-miterlimit:10"/></g></g></svg>