<svg xmlns="http://www.w3.org/2000/svg" xmlns:xlink="http://www.w3.org/1999/xlink" viewBox="0 0 113.69 876.14"><defs><linearGradient id="White_Black" x1="9.49" y1="453.09" x2="105.03" y2="453.09" gradientUnits="userSpaceOnUse"><stop offset="0" stop-color="#fff"/><stop offset="1"/></linearGradient><linearGradient id="linear-gradient" x1="6458.79" y1="1658.63" x2="6458.79" y2="1564.87" gradientTransform="translate(-1554.52 6889.39) rotate(-90)" gradientUnits="userSpaceOnUse"><stop offset="0.02"/><stop offset="0.29" stop-color="#eee"/><stop offset="0.52" stop-color="#fff"/><stop offset="0.72" stop-color="#ececec"/><stop offset="1" stop-color="#171717"/></linearGradient></defs><title>temple-column</title><g id="Layer_2" data-name="Layer 2"><g id="Layer_1-2" data-name="Layer 1"><rect x="9.61" y="30.73" width="95.29" height="844.73" style="stroke-miterlimit:10;stroke-width:0.25px;stroke:url(#White_Black)"/><path d="M35,5.13a22.94,22.94,0,0,1-2.58.68l-.14,0A115.5,115.5,0,0,1,16.9,7.54c-4.69.24-6.45,3.18-6.54,5.62a5.79,5.79,0,0,0,5.12,6,44,44,0,0,0,6.42,0c4.27-.18,9.11-.39,12.74.62,2.68,1.39,3.73,2.46,3.73,6s-1,4.65-3.73,6c-3.63,1-8.47.81-12.74.62a45.47,45.47,0,0,0-6.42,0,5.8,5.8,0,0,0-5.12,6c.09,2.45,1.85,5.39,6.54,5.62a119,119,0,0,1,15.35,1.7l.14,0c1,.22,1.87.45,2.58.68,7.1,2.37,14.27,9.23,14.3,19.24a24,24,0,0,1-7.06,13.56,33.91,33.91,0,0,0-5.64-3.75,5.32,5.32,0,0,0,1-3.16,5.44,5.44,0,0,0-2.14-4.25c-2-1.82-5.17-2.7-8.2-2.72h-.14a17.51,17.51,0,0,0-1.92.11,10.46,10.46,0,0,0-6.75,2.94,5.5,5.5,0,0,0-1,1.4,6.23,6.23,0,0,0-.64,2.72,5.63,5.63,0,0,0,0,.58,24.14,24.14,0,0,0-4.72,2l.71,1.29a23.75,23.75,0,0,1,4.44-1.87c1.23,2.45,4.73,4.13,8.34,5.7-3.63,1.58-7.17,3.26-8.41,5.73a23.67,23.67,0,0,1-4.43-1.87l-.71,1.29a24.14,24.14,0,0,0,4.72,2,5.63,5.63,0,0,0,0,.58c.07,4.6,4.36,6.82,8.92,7.11.49,0,1,.06,1.46.06h.14c3.83,0,7.91-1.42,9.51-4.37a5.09,5.09,0,0,0,.71-2.6c0-.17,0-.33,0-.49a4.94,4.94,0,0,0-1-2.68,34,34,0,0,0,5.7-3.79,24,24,0,0,1,7.11,13.61c0,10-7.19,16.87-14.3,19.24-.71.23-1.58.46-2.57.68l-.15,0A119,119,0,0,1,17,116.41c-4.68.23-6.45,3.17-6.54,5.62a5.8,5.8,0,0,0,5.12,6A45.47,45.47,0,0,0,22,128c4.27-.19,9.11-.39,12.74.62,2.68,1.38,3.73,2.46,3.73,6s-1,4.64-3.73,6c-3.63,1-8.47.8-12.74.62a44,44,0,0,0-6.42,0,5.79,5.79,0,0,0-5.12,6c.09,2.44,1.86,5.38,6.54,5.62a115.5,115.5,0,0,1,15.35,1.7l.15,0a23.3,23.3,0,0,1,2.57.68c7.11,2.36,14.27,9.22,14.3,19.23a24,24,0,0,1-6.88,13.39A34.41,34.41,0,0,0,36.72,184a4.82,4.82,0,0,0,.79-2.55,5.39,5.39,0,0,0,.05-.71c0-4.45-5.49-6.9-10.66-6.94-5,0-10,2.15-10.08,7.14a5.49,5.49,0,0,0,0,.58,24.82,24.82,0,0,0-4.72,2l.71,1.28A23.75,23.75,0,0,1,17.28,183a6.37,6.37,0,0,0,1.52,1.89,21.42,21.42,0,0,0,6.62,4c-2.79,1.24-5.45,2.58-7,4.42a5.73,5.73,0,0,0-1.11,1.49,22.49,22.49,0,0,1-4.44-1.87l-.71,1.29a24.82,24.82,0,0,0,4.72,2,5.35,5.35,0,0,0,0,.58c.08,5,5.11,7.17,10.08,7.14,5.17,0,10.66-2.49,10.66-6.95a5.19,5.19,0,0,0-.16-1.32,4.88,4.88,0,0,0-.72-1.91,33.9,33.9,0,0,0,5.74-3.87,24,24,0,0,1,6.85,13.36c0,10-7.19,16.87-14.3,19.24a25.31,25.31,0,0,1-2.58.68l-.14,0a117.23,117.23,0,0,1-15.35,1.7c-4.68.23-6.45,3.17-6.54,5.62a5.79,5.79,0,0,0,5.12,6,44,44,0,0,0,6.42,0c4.27-.18,9.11-.39,12.74.62,2.68,1.39,3.73,2.46,3.73,6s-1,4.64-3.73,6c-3.63,1-8.47.8-12.74.62a44,44,0,0,0-6.42,0,5.79,5.79,0,0,0-5.12,6c.09,2.44,1.86,5.38,6.54,5.62A115.5,115.5,0,0,1,32.28,263l.14,0a22.94,22.94,0,0,1,2.58.68C42.11,266.11,49.27,273,49.3,283a24,24,0,0,1-7,13.56,33.76,33.76,0,0,0-5.65-3.74,5.36,5.36,0,0,0,1-3.16,5.45,5.45,0,0,0-2.15-4.25c-2-1.82-5.17-2.7-8.2-2.72h-.14a15.34,15.34,0,0,0-1.92.11,10.46,10.46,0,0,0-6.75,2.94,5.62,5.62,0,0,0-.95,1.39,6.42,6.42,0,0,0-.64,2.73,5.63,5.63,0,0,0,0,.58,24.14,24.14,0,0,0-4.72,2l.71,1.29a22.49,22.49,0,0,1,4.44-1.87c1.23,2.45,4.74,4.13,8.34,5.7-3.63,1.57-7.17,3.26-8.4,5.73a23.16,23.16,0,0,1-4.44-1.88l-.71,1.29a24.82,24.82,0,0,0,4.72,2,5.35,5.35,0,0,0,0,.58c.07,4.6,4.36,6.81,8.93,7.1a14.08,14.08,0,0,0,1.45.07h.14c3.84,0,7.91-1.43,9.51-4.37a5,5,0,0,0,.71-2.61,3.85,3.85,0,0,0,0-.48,4.91,4.91,0,0,0-1-2.68,34.22,34.22,0,0,0,5.7-3.79,23.93,23.93,0,0,1,7.11,13.61c0,10-7.19,16.87-14.29,19.23a23.53,23.53,0,0,1-2.58.68l-.15,0A115.5,115.5,0,0,1,17,333.74c-4.68.24-6.45,3.18-6.53,5.62a5.78,5.78,0,0,0,5.11,6,42.63,42.63,0,0,0,6.42,0c4.27-.18,9.11-.39,12.74.63,2.68,1.38,3.73,2.46,3.73,6s-1.05,4.64-3.73,6c-3.63,1-8.47.81-12.74.62a45.47,45.47,0,0,0-6.42,0,5.79,5.79,0,0,0-5.11,6C10.54,367,12.31,370,17,370.2a119,119,0,0,1,15.35,1.7l.15,0c1,.22,1.86.45,2.58.68,7.1,2.37,14.26,9.23,14.29,19.24a24,24,0,0,1-7,13.47,34.61,34.61,0,0,0-5.72-3.84,4.92,4.92,0,0,0,.87-2.64,5.49,5.49,0,0,0,0-.58c0-4.46-5.5-6.91-10.67-6.95-5,0-10,2.16-10.08,7.14a5.35,5.35,0,0,0,0,.58,25.09,25.09,0,0,0-4.72,2l.71,1.29a23.16,23.16,0,0,1,4.44-1.88,8.49,8.49,0,0,0,3.16,3.11,30.78,30.78,0,0,0,5.15,2.72,26.65,26.65,0,0,0-6,3.37,7.32,7.32,0,0,0-2.24,2.48,22.49,22.49,0,0,1-4.44-1.87l-.71,1.29a24.14,24.14,0,0,0,4.72,2,5.63,5.63,0,0,0,0,.58c.08,5,5.11,7.18,10.08,7.14,5.17,0,10.66-2.49,10.67-6.94a5.13,5.13,0,0,0-.34-1.86,5.22,5.22,0,0,0-.63-1.33,33.11,33.11,0,0,0,5.73-3.84,23.91,23.91,0,0,1,6.92,13.44c0,10-7.19,16.87-14.29,19.23a22.94,22.94,0,0,1-2.58.68l-.14,0a115.61,115.61,0,0,1-15.36,1.7c-4.68.24-6.44,3.18-6.53,5.62a5.79,5.79,0,0,0,5.12,6,43.87,43.87,0,0,0,6.41,0c4.27-.18,9.11-.39,12.74.62,2.68,1.39,3.73,2.46,3.73,6s-1,4.64-3.73,6c-3.63,1-8.47.8-12.74.62a43.87,43.87,0,0,0-6.41,0,5.79,5.79,0,0,0-5.12,6c.09,2.45,1.85,5.39,6.53,5.62a117.34,117.34,0,0,1,15.36,1.7l.14,0a25.31,25.31,0,0,1,2.58.68c7.1,2.37,14.27,9.23,14.29,19.24A24,24,0,0,1,42.26,514a33.91,33.91,0,0,0-5.64-3.75,5.32,5.32,0,0,0,1-3.16,5.47,5.47,0,0,0-2.14-4.25c-2-1.82-5.17-2.7-8.2-2.72h-.14a17.69,17.69,0,0,0-1.93.11,10.51,10.51,0,0,0-6.75,2.94,5.5,5.5,0,0,0-.95,1.4,6.19,6.19,0,0,0-.63,2.72,2.82,2.82,0,0,0,0,.58,23.88,23.88,0,0,0-4.72,2l.7,1.29a23.1,23.1,0,0,1,4.44-1.87c1.23,2.45,4.74,4.13,8.35,5.7-3.63,1.58-7.17,3.26-8.41,5.73a23.75,23.75,0,0,1-4.44-1.87l-.71,1.28a25.09,25.09,0,0,0,4.72,2,5.49,5.49,0,0,0,0,.58c.08,4.6,4.37,6.82,8.93,7.1a14.13,14.13,0,0,0,1.46.07h.14c3.83,0,7.91-1.43,9.5-4.37a5,5,0,0,0,.72-2.6c0-.17,0-.33,0-.49a5,5,0,0,0-1-2.68,33.22,33.22,0,0,0,5.7-3.79,23.91,23.91,0,0,1,7.11,13.61c0,10-7.19,16.87-14.29,19.24-.71.23-1.58.46-2.58.68l-.14,0A119.13,119.13,0,0,1,17,551.23c-4.68.23-6.44,3.17-6.53,5.62a5.8,5.8,0,0,0,5.12,6,45.33,45.33,0,0,0,6.41,0c4.27-.19,9.12-.39,12.75.62,2.68,1.38,3.72,2.46,3.72,6s-1,4.64-3.72,6c-3.63,1-8.48.81-12.75.63a43.87,43.87,0,0,0-6.41,0,5.79,5.79,0,0,0-5.12,6c.09,2.44,1.85,5.38,6.53,5.62a115.61,115.61,0,0,1,15.36,1.7l.14,0a22.94,22.94,0,0,1,2.58.68c7.1,2.36,14.27,9.22,14.29,19.23a24,24,0,0,1-6.87,13.39,33.81,33.81,0,0,0-5.73-3.87,4.82,4.82,0,0,0,.79-2.55,5.39,5.39,0,0,0,0-.71c0-4.45-5.5-6.9-10.67-6.94-5,0-10,2.15-10.07,7.14a3.75,3.75,0,0,0,0,.58,24.39,24.39,0,0,0-4.72,2l.71,1.29a23.75,23.75,0,0,1,4.44-1.87,6.41,6.41,0,0,0,1.53,1.89c1.57,1.64,4,2.87,6.61,4-2.79,1.25-5.45,2.59-7,4.42a6.19,6.19,0,0,0-1.11,1.5,22.49,22.49,0,0,1-4.44-1.87l-.7,1.29a23.88,23.88,0,0,0,4.72,2,2.82,2.82,0,0,0,0,.58c.08,5,5.11,7.18,10.08,7.14,5.17,0,10.66-2.48,10.66-6.94a5.68,5.68,0,0,0-.16-1.32,4.89,4.89,0,0,0-.73-1.91,34,34,0,0,0,5.75-3.87,24,24,0,0,1,6.84,13.36c0,10-7.19,16.87-14.29,19.24-.71.23-1.58.46-2.58.68l-.14,0A119.13,119.13,0,0,1,17,659.7c-4.68.23-6.44,3.17-6.53,5.62a5.8,5.8,0,0,0,5.12,6,45.33,45.33,0,0,0,6.41,0c4.27-.19,9.11-.39,12.74.62,2.68,1.38,3.73,2.46,3.73,6s-1,4.64-3.73,6c-3.63,1-8.47.8-12.74.62a43.87,43.87,0,0,0-6.41,0,5.79,5.79,0,0,0-5.12,6c.09,2.44,1.85,5.38,6.53,5.62a115.61,115.61,0,0,1,15.36,1.7l.14,0a22.94,22.94,0,0,1,2.58.68c7.1,2.36,14.27,9.22,14.29,19.23a23.87,23.87,0,0,1-7.05,13.56,33.26,33.26,0,0,0-5.64-3.74,5.35,5.35,0,0,0,1-3.16,5.47,5.47,0,0,0-2.14-4.25c-2-1.82-5.17-2.7-8.2-2.73h-.14a15.51,15.51,0,0,0-1.93.12,10.45,10.45,0,0,0-6.74,2.93,5.45,5.45,0,0,0-1,1.4,6.26,6.26,0,0,0-.63,2.72,3.82,3.82,0,0,0,0,.59,24.14,24.14,0,0,0-4.72,2l.71,1.29a22.41,22.41,0,0,1,4.43-1.87c1.23,2.45,4.74,4.13,8.35,5.7-3.63,1.57-7.17,3.26-8.41,5.72a22.49,22.49,0,0,1-4.44-1.87l-.71,1.29a25.09,25.09,0,0,0,4.72,2,3.66,3.66,0,0,0,0,.58c.07,4.6,4.36,6.81,8.92,7.1.49,0,1,.07,1.46.07h.14c3.83,0,7.91-1.43,9.51-4.37a5.1,5.1,0,0,0,.71-2.61c0-.16,0-.32,0-.48a5,5,0,0,0-1-2.68,34.05,34.05,0,0,0,5.7-3.8,24,24,0,0,1,7.11,13.62c0,10-7.2,16.87-14.3,19.23a22.94,22.94,0,0,1-2.58.68l-.14,0A115.67,115.67,0,0,1,17,768.56c-4.69.24-6.45,3.18-6.54,5.62a5.79,5.79,0,0,0,5.12,6,43.87,43.87,0,0,0,6.41,0c4.28-.18,9.12-.39,12.75.62,2.68,1.39,3.73,2.47,3.73,6s-1,4.65-3.73,6c-3.63,1-8.47.81-12.75.62a45.34,45.34,0,0,0-6.41,0,5.8,5.8,0,0,0-5.12,6c.09,2.45,1.85,5.39,6.54,5.62a119.2,119.2,0,0,1,15.35,1.7l.14,0c1,.22,1.87.45,2.58.68,7.1,2.37,14.27,9.23,14.3,19.24a23.72,23.72,0,0,1-7.52,14,32.09,32.09,0,0,1-6.24,4.19,21.93,21.93,0,0,0-6.11-3.64c4.27-1.93,8.09-4.1,8.06-7.71-.05-4.84-5.33-7.09-10.21-7.13h-.14c-5,0-10,2.21-10.11,6.49-.11,4.13,4.18,6.35,8.72,8.34-3.66,1.59-7.23,3.28-8.48,5.76A23.67,23.67,0,0,1,13,845.07l-.71,1.29a24.14,24.14,0,0,0,4.72,2,3.76,3.76,0,0,0,0,.58c.08,5,5.11,7.17,10.08,7.14,5.17,0,10.66-2.49,10.66-6.94a5.32,5.32,0,0,0-1-3.16,33.91,33.91,0,0,0,6.2-4.21,25.38,25.38,0,0,0,8-14.93c1.13-7.47,1.22-16.5-8.19-20a18.72,18.72,0,0,0-5.56-1,31.13,31.13,0,0,1-4.28-.52l-.15,0c-1.9-.41-3-1.07-3.34-2s.5-2.22,1.13-4.25l0,.11a6.1,6.1,0,0,0,3.61,3.74c3.56,1.56,9.49,1.24,15.49-4.31.61-.57,1.2-1.12,1.75-1.65,2.46-2.33,4.41-4.18,6-4.21h0c1.54,0,3.49,1.88,5.95,4.21.55.53,1.13,1.08,1.75,1.65,6,5.55,11.93,5.87,15.48,4.31a6.1,6.1,0,0,0,3.62-3.73l0-.12c.63,2,1.48,3.27,1.12,4.25s-1.43,1.6-3.33,2l-.15,0a31.13,31.13,0,0,1-4.28.52,18.78,18.78,0,0,0-5.57,1c-9.41,3.54-9.31,12.57-8.18,20a25.33,25.33,0,0,0,8,14.93A33.57,33.57,0,0,0,78,846a5.33,5.33,0,0,0-1,3.16c0,4.45,5.5,6.9,10.67,6.94,5,0,10-2.15,10.08-7.14a5.63,5.63,0,0,0,0-.58,24.14,24.14,0,0,0,4.72-2l-.71-1.29a23.75,23.75,0,0,1-4.44,1.87c-1.24-2.48-4.82-4.17-8.47-5.76,4.53-2,8.83-4.21,8.71-8.34-.11-4.28-5.14-6.49-10.1-6.49h-.14c-4.88,0-10.16,2.29-10.21,7.13,0,3.61,3.78,5.78,8.06,7.71A22.14,22.14,0,0,0,79,844.83a32.09,32.09,0,0,1-6.24-4.19,23.79,23.79,0,0,1-7.51-14c0-10,7.19-16.87,14.29-19.24.72-.23,1.58-.46,2.58-.68l.15,0A119,119,0,0,1,97.58,805c4.68-.23,6.45-3.17,6.53-5.62a5.79,5.79,0,0,0-5.11-6,45.47,45.47,0,0,0-6.42,0c-4.27.19-9.11.39-12.74-.62-2.68-1.38-3.73-2.46-3.73-6s1-4.64,3.73-6c3.63-1,8.47-.8,12.74-.62a44,44,0,0,0,6.42,0,5.78,5.78,0,0,0,5.11-6c-.08-2.44-1.85-5.38-6.53-5.62a115.5,115.5,0,0,1-15.35-1.7l-.15,0a23.53,23.53,0,0,1-2.58-.68c-7.1-2.36-14.26-9.22-14.29-19.23a24,24,0,0,1,7.05-13.56,33.35,33.35,0,0,0,5.65,3.74,5.36,5.36,0,0,0-1,3.16A5.45,5.45,0,0,0,79,744.51c2,1.82,5.17,2.7,8.2,2.73h.14a15.35,15.35,0,0,0,1.92-.12A10.48,10.48,0,0,0,96,744.19a5.68,5.68,0,0,0,.95-1.4,6.41,6.41,0,0,0,.64-2.72,5.35,5.35,0,0,0,0-.58,24.82,24.82,0,0,0,4.72-2l-.71-1.29a22.49,22.49,0,0,1-4.44,1.87c-1.23-2.45-4.74-4.13-8.35-5.7,3.63-1.57,7.18-3.26,8.41-5.72a22.49,22.49,0,0,1,4.44,1.87l.71-1.29a24.82,24.82,0,0,0-4.72-2,5.35,5.35,0,0,0,0-.58c-.08-4.6-4.36-6.81-8.93-7.1-.48,0-1-.07-1.46-.07h-.13c-3.84,0-7.91,1.43-9.51,4.37a5,5,0,0,0-.72,2.61,3.87,3.87,0,0,0,0,.48,4.91,4.91,0,0,0,1,2.68,33.65,33.65,0,0,0-5.7,3.8,24,24,0,0,1-7.11-13.62c0-10,7.19-16.87,14.29-19.23a22.94,22.94,0,0,1,2.58-.68l.15,0a115.5,115.5,0,0,1,15.35-1.7c4.68-.24,6.44-3.18,6.53-5.62a5.78,5.78,0,0,0-5.12-6,43.86,43.86,0,0,0-6.41,0c-4.27.18-9.11.39-12.74-.62-2.68-1.39-3.73-2.46-3.73-6s1-4.65,3.73-6c3.63-1,8.47-.81,12.74-.62a45.32,45.32,0,0,0,6.41,0,5.79,5.79,0,0,0,5.12-6c-.09-2.45-1.85-5.39-6.53-5.62A119,119,0,0,1,82.17,658L82,658c-1-.22-1.87-.45-2.58-.68-7.1-2.37-14.27-9.23-14.29-19.24A24.09,24.09,0,0,1,72,624.66a33.23,33.23,0,0,0,5.73,3.87,4.94,4.94,0,0,0-.79,2.55,5.52,5.52,0,0,0,0,.71c0,4.46,5.5,6.9,10.67,6.94,5,0,10-2.15,10.08-7.14a5.63,5.63,0,0,0,0-.58,24.14,24.14,0,0,0,4.72-2l-.71-1.29a22.49,22.49,0,0,1-4.44,1.87,6.49,6.49,0,0,0-1.52-1.89,21.6,21.6,0,0,0-6.62-4c2.79-1.24,5.45-2.58,7-4.42a6,6,0,0,0,1.11-1.5,23.75,23.75,0,0,1,4.44,1.87l.71-1.29a24.14,24.14,0,0,0-4.72-2,5.63,5.63,0,0,0,0-.58c-.08-5-5.11-7.17-10.08-7.14-5.17,0-10.67,2.49-10.67,6.94a5.61,5.61,0,0,0,.16,1.32,5.1,5.1,0,0,0,.73,1.92A33.46,33.46,0,0,0,72,622.69a23.88,23.88,0,0,1-6.85-13.36c0-10,7.19-16.87,14.29-19.23a23.53,23.53,0,0,1,2.58-.68l.15,0a115.5,115.5,0,0,1,15.35-1.7c4.68-.24,6.45-3.18,6.53-5.62a5.78,5.78,0,0,0-5.12-6,43.86,43.86,0,0,0-6.41,0c-4.27.18-9.11.39-12.74-.63-2.68-1.38-3.73-2.46-3.73-6s1-4.65,3.73-6c3.63-1,8.47-.81,12.74-.62a45.32,45.32,0,0,0,6.41,0,5.79,5.79,0,0,0,5.12-6c-.08-2.45-1.85-5.39-6.53-5.62a119,119,0,0,1-15.35-1.7l-.15,0c-1-.22-1.86-.45-2.58-.68-7.1-2.37-14.26-9.23-14.29-19.24a24,24,0,0,1,7-13.56,34,34,0,0,0,5.65,3.75,5.31,5.31,0,0,0-1,3.16A5.48,5.48,0,0,0,79,527.18c2,1.82,5.18,2.69,8.21,2.72h.13a17.69,17.69,0,0,0,1.93-.11A10.48,10.48,0,0,0,96,526.85a5.5,5.5,0,0,0,.95-1.4,6.37,6.37,0,0,0,.64-2.72,5.49,5.49,0,0,0,0-.58,25.09,25.09,0,0,0,4.72-2l-.71-1.28a23.75,23.75,0,0,1-4.44,1.87c-1.23-2.45-4.74-4.13-8.35-5.7,3.63-1.58,7.17-3.26,8.41-5.73a22.49,22.49,0,0,1,4.44,1.87l.71-1.29a24.14,24.14,0,0,0-4.72-2,5.63,5.63,0,0,0,0-.58c-.08-4.6-4.36-6.82-8.93-7.11-.48,0-1-.06-1.46-.06h-.13c-3.84,0-7.91,1.42-9.51,4.36a5.06,5.06,0,0,0-.72,2.61,3.64,3.64,0,0,0,0,.48,4.94,4.94,0,0,0,1,2.69,33,33,0,0,0-5.7,3.79,24,24,0,0,1-7.11-13.61c0-10,7.19-16.87,14.29-19.24a25.31,25.31,0,0,1,2.58-.68l.14,0a117.34,117.34,0,0,1,15.36-1.7c4.68-.24,6.44-3.17,6.53-5.62a5.79,5.79,0,0,0-5.12-6,43.87,43.87,0,0,0-6.41,0c-4.27.18-9.11.39-12.74-.62-2.68-1.39-3.73-2.46-3.73-6s1-4.64,3.73-6c3.63-1,8.47-.8,12.74-.62a43.87,43.87,0,0,0,6.41,0,5.79,5.79,0,0,0,5.12-6c-.09-2.44-1.85-5.38-6.53-5.62a115.61,115.61,0,0,1-15.36-1.7l-.14,0a22.94,22.94,0,0,1-2.58-.68c-7.1-2.36-14.27-9.23-14.29-19.23a24,24,0,0,1,7-13.48,33,33,0,0,0,5.72,3.84,5,5,0,0,0-.87,2.65,5.49,5.49,0,0,0,0,.58c0,4.45,5.49,6.9,10.66,6.94,5,0,10-2.15,10.08-7.14a3.76,3.76,0,0,0,0-.58,24.14,24.14,0,0,0,4.72-2l-.71-1.29a22.41,22.41,0,0,1-4.43,1.87A8.47,8.47,0,0,0,94,409a31.25,31.25,0,0,0-5.16-2.73,26.35,26.35,0,0,0,6-3.37,7.3,7.3,0,0,0,2.24-2.47,22.49,22.49,0,0,1,4.44,1.87l.71-1.29a25.09,25.09,0,0,0-4.72-2,5.35,5.35,0,0,0,0-.58c-.08-5-5.12-7.17-10.08-7.14-5.17,0-10.67,2.49-10.67,6.95a5.17,5.17,0,0,0,.34,1.86,4.91,4.91,0,0,0,.63,1.33,34.14,34.14,0,0,0-5.74,3.83,24,24,0,0,1-6.92-13.43c0-10,7.2-16.87,14.3-19.24a25.54,25.54,0,0,1,2.58-.67l.14,0a119.2,119.2,0,0,1,15.35-1.7c4.69-.23,6.45-3.17,6.54-5.62a5.8,5.8,0,0,0-5.12-6,45.34,45.34,0,0,0-6.41,0c-4.28.19-9.12.39-12.75-.62-2.68-1.38-3.73-2.46-3.73-6s1-4.64,3.73-6c3.63-1,8.47-.81,12.75-.63a42.5,42.5,0,0,0,6.41,0,5.79,5.79,0,0,0,5.12-6c-.09-2.44-1.85-5.38-6.54-5.62A115.67,115.67,0,0,1,82.18,332L82,332a22.94,22.94,0,0,1-2.58-.68c-7.1-2.36-14.27-9.22-14.3-19.23a23.93,23.93,0,0,1,7.06-13.56,33.26,33.26,0,0,0,5.64,3.74,5.35,5.35,0,0,0-1,3.16A5.48,5.48,0,0,0,79,309.7c2,1.82,5.17,2.69,8.2,2.72h.14a15.35,15.35,0,0,0,1.92-.12A10.4,10.4,0,0,0,96,309.37a5.72,5.72,0,0,0,1-1.4,6.37,6.37,0,0,0,.63-2.72,5.35,5.35,0,0,0,0-.58,24.82,24.82,0,0,0,4.72-2l-.71-1.29a22.49,22.49,0,0,1-4.44,1.87c-1.23-2.45-4.73-4.13-8.34-5.7,3.63-1.57,7.17-3.26,8.41-5.72a22.41,22.41,0,0,1,4.43,1.87l.71-1.29a24.14,24.14,0,0,0-4.72-2,3.76,3.76,0,0,0,0-.58c-.07-4.61-4.36-6.82-8.92-7.11-.49,0-1-.06-1.46-.06h-.14c-3.83,0-7.91,1.42-9.51,4.36a5.1,5.1,0,0,0-.71,2.61c0,.16,0,.32,0,.48a5,5,0,0,0,1,2.68,34.05,34.05,0,0,0-5.7,3.8A24,24,0,0,1,65.1,283c0-10,7.19-16.87,14.3-19.23a23.3,23.3,0,0,1,2.57-.68l.15,0a115.5,115.5,0,0,1,15.35-1.7c4.68-.24,6.45-3.18,6.54-5.62a5.79,5.79,0,0,0-5.12-6,44,44,0,0,0-6.42,0c-4.27.18-9.11.39-12.74-.62-2.68-1.39-3.73-2.46-3.73-6s1-4.64,3.73-6c3.63-1,8.47-.8,12.74-.62a44,44,0,0,0,6.42,0,5.79,5.79,0,0,0,5.12-6c-.09-2.45-1.86-5.39-6.54-5.62a117.23,117.23,0,0,1-15.35-1.7l-.15,0a25.77,25.77,0,0,1-2.57-.68c-7.11-2.37-14.27-9.23-14.3-19.24A24,24,0,0,1,72,189.84a33.23,33.23,0,0,0,5.73,3.87,4.85,4.85,0,0,0-.79,2.55,5.52,5.52,0,0,0,0,.71c0,4.46,5.49,6.9,10.66,6.95,5,0,10-2.16,10.08-7.14a5.35,5.35,0,0,0,0-.58,24.82,24.82,0,0,0,4.72-2l-.71-1.29a22.24,22.24,0,0,1-4.44,1.87,6.49,6.49,0,0,0-1.52-1.89,21.6,21.6,0,0,0-6.62-4c2.8-1.24,5.45-2.58,7-4.42a5.77,5.77,0,0,0,1.11-1.5,23.75,23.75,0,0,1,4.44,1.87l.71-1.28a24.82,24.82,0,0,0-4.72-2,5.49,5.49,0,0,0,0-.58c-.08-5-5.11-7.17-10.08-7.14-5.17,0-10.66,2.49-10.66,6.94a5.08,5.08,0,0,0,.16,1.32,4.92,4.92,0,0,0,.72,1.92A33.86,33.86,0,0,0,72,187.87a24,24,0,0,1-6.85-13.36c0-10,7.2-16.87,14.3-19.23A22.94,22.94,0,0,1,82,154.6l.14,0a115.5,115.5,0,0,1,15.35-1.7c4.69-.24,6.45-3.18,6.54-5.62a5.79,5.79,0,0,0-5.12-6,44,44,0,0,0-6.42,0c-4.27.18-9.11.39-12.74-.62-2.68-1.39-3.73-2.46-3.73-6s1-4.65,3.73-6c3.63-1,8.47-.81,12.74-.62a45.47,45.47,0,0,0,6.42,0,5.8,5.8,0,0,0,5.12-6c-.09-2.45-1.85-5.39-6.54-5.62a119,119,0,0,1-15.35-1.7l-.14,0c-1-.22-1.87-.45-2.58-.68-7.1-2.37-14.27-9.23-14.3-19.24A24,24,0,0,1,72.19,81.2,33.91,33.91,0,0,0,77.83,85a5.32,5.32,0,0,0-1,3.16A5.44,5.44,0,0,0,79,92.36c2,1.82,5.17,2.7,8.2,2.72h.14A17.51,17.51,0,0,0,89.21,95,10.46,10.46,0,0,0,96,92a5.5,5.5,0,0,0,1-1.4,6.23,6.23,0,0,0,.64-2.72,5.63,5.63,0,0,0,0-.58,24.14,24.14,0,0,0,4.72-2l-.71-1.29a23.75,23.75,0,0,1-4.44,1.87c-1.23-2.45-4.73-4.13-8.34-5.7,3.63-1.58,7.17-3.26,8.4-5.73a23.48,23.48,0,0,1,4.44,1.87l.71-1.29a24.14,24.14,0,0,0-4.72-2,5.63,5.63,0,0,0,0-.58c-.07-4.6-4.36-6.82-8.93-7.11-.48,0-1-.06-1.45-.06h-.14c-3.83,0-7.91,1.42-9.51,4.37a5.09,5.09,0,0,0-.71,2.6c0,.17,0,.33,0,.49a4.94,4.94,0,0,0,1,2.68,34,34,0,0,0-5.7,3.79,24,24,0,0,1-7.11-13.61c0-10,7.19-16.87,14.3-19.24.71-.23,1.57-.46,2.57-.68l.15,0A119,119,0,0,1,97.44,44c4.68-.23,6.45-3.17,6.54-5.62a5.8,5.8,0,0,0-5.12-6,45.47,45.47,0,0,0-6.42,0c-4.27.19-9.11.39-12.74-.62C77,30.42,76,29.34,76,25.77s1-4.64,3.73-6c3.63-1,8.47-.8,12.74-.62a44,44,0,0,0,6.42,0,5.79,5.79,0,0,0,5.12-6c-.09-2.44-1.86-5.38-6.54-5.62a115.5,115.5,0,0,1-15.35-1.7l-.15,0a22.72,22.72,0,0,1-2.57-.68M27.7,840.38c-4.72-2-9.18-4-9.08-7.5s4.48-5.1,8.76-5.06,8.71,1.82,8.75,5.67c0,3-4.11,5-8.42,6.89Zm8.5,8.75c0,3.37-4.68,5.43-9.2,5.47h-.15c-6.17,0-8.41-3.06-8.45-5.69v-.18a25.92,25.92,0,0,0,16.91-2.1A4,4,0,0,1,36.2,849.13Zm-17.34-1.81c1.25-2.06,4.9-3.63,8.45-5.16l.4-.18a27.92,27.92,0,0,1,6.51,3.53A24.3,24.3,0,0,1,18.86,847.32Zm23.31-39.16c5.95,2.24,7.63,7.07,7.74,12.15a22.34,22.34,0,0,0-11-12.86A13.26,13.26,0,0,1,42.17,808.16Zm36.36,25.2c0-3.85,4.56-5.64,8.75-5.67S96,829.38,96,832.75s-4.36,5.45-9.08,7.5h0C82.63,838.38,78.5,836.38,78.53,833.36ZM96.25,848.6v.17c0,2.64-2.28,5.7-8.44,5.7h-.15c-4.53,0-9.21-2.1-9.21-5.48a4,4,0,0,1,.89-2.49A25.94,25.94,0,0,0,96.25,848.6Zm-9.31-6.75.41.18c3.55,1.53,7.19,3.1,8.45,5.16a24.33,24.33,0,0,1-15.37-1.82A28.51,28.51,0,0,1,86.94,841.85ZM64.75,820.18c.1-5.08,1.79-9.91,7.74-12.15a13.18,13.18,0,0,1,3.27-.71A22.29,22.29,0,0,0,64.75,820.18ZM15.63,17.81a4.28,4.28,0,0,1-3.83-4.46c.07-1.91,1.45-4,5.14-4.21,1.72-.08,6.62-.37,11.27-1a3,3,0,0,0-.41.79c-.71,2,.31,4.63,3.13,8.19a8.8,8.8,0,0,0,.65.72,66.49,66.49,0,0,0-9.78-.05A45.18,45.18,0,0,1,15.63,17.81ZM16.94,42.4c-3.69-.19-5.07-2.29-5.14-4.2a4.27,4.27,0,0,1,3.83-4.46,43.61,43.61,0,0,1,6.17,0,67.9,67.9,0,0,0,9.78,0,7.3,7.3,0,0,0-.65.71c-2.82,3.57-3.84,6.25-3.13,8.2a3.13,3.13,0,0,0,.41.79C23.56,42.77,18.66,42.49,16.94,42.4Zm21.77,3.9A13.26,13.26,0,0,1,42,47c5.95,2.24,7.63,7.07,7.74,12.15A22.3,22.3,0,0,0,38.71,46.3ZM18.53,72.66a3.58,3.58,0,0,1-.09-.93c0-.08,0-.16,0-.23.56-2.35,2.95-4.67,8.32-4.67h.15c3.23,0,6.54,1.09,8.17,2.92A4.37,4.37,0,0,1,36,72.34,3.67,3.67,0,0,1,35,74.71,25.88,25.88,0,0,0,18.53,72.66Zm9,6.56c-3.57-1.54-7-3-8.4-5.18A24.38,24.38,0,0,1,33.9,75.82a30,30,0,0,1-6.37,3.41Zm8.23,7.32A3.8,3.8,0,0,1,36,88c0,3.38-4.68,5.44-9.21,5.48h-.15A12.43,12.43,0,0,1,22,92.66a7.53,7.53,0,0,1-2-1.18L20,91.42l-.16-.14a.23.23,0,0,0-.07-.07,3.86,3.86,0,0,1-1.19-2.66,3.74,3.74,0,0,1,.08-.89A26,26,0,0,0,35.08,85.5,4.38,4.38,0,0,1,35.75,86.54ZM19.2,86.28c1.4-2.18,4.83-3.67,8.42-5.23h0a29.81,29.81,0,0,1,6.3,3.36A24.53,24.53,0,0,1,19.2,86.28Zm16.31-2.47a21.79,21.79,0,0,0-6-3.59,21.83,21.83,0,0,0,6.06-3.62,32.43,32.43,0,0,1,5.51,3.58A32.19,32.19,0,0,1,35.51,83.81Zm14.32,17.31c-.11,5.08-1.79,9.91-7.74,12.15a13.26,13.26,0,0,1-3.28.71A22.3,22.3,0,0,0,49.83,101.12Zm-34.1,25.42a4.27,4.27,0,0,1-3.83-4.46c.07-1.91,1.45-4,5.14-4.2,1.72-.09,6.62-.38,11.27-1a3.13,3.13,0,0,0-.41.79c-.71,2,.31,4.63,3.13,8.2a7.3,7.3,0,0,0,.65.71,67.9,67.9,0,0,0-9.78,0A43.61,43.61,0,0,1,15.73,126.54ZM17,151.4c-3.69-.19-5.07-2.3-5.14-4.21a4.27,4.27,0,0,1,3.83-4.45,43.35,43.35,0,0,1,6.17,0,66.49,66.49,0,0,0,9.78-.05,8.8,8.8,0,0,0-.65.72c-2.82,3.56-3.84,6.24-3.13,8.19a3,3,0,0,0,.41.79C23.66,151.77,18.76,151.48,17,151.4Zm21.77,3.89a13.28,13.28,0,0,1,3.28.72c5.95,2.24,7.63,7.06,7.74,12.15A22.32,22.32,0,0,0,38.81,155.29Zm-20.25,26a3,3,0,0,1,0-.52c.09-3.37,4.49-5.09,8.76-5.06s8.61,1.79,8.74,5.55a4.14,4.14,0,0,1-.87,2.2A26,26,0,0,0,18.56,181.24Zm8.6,6.63A45.55,45.55,0,0,1,21.23,185,7,7,0,0,1,19,182.65a24.46,24.46,0,0,1,15.09,1.88,28.38,28.38,0,0,1-6.52,3.52Zm8.58,7.42a3.13,3.13,0,0,1,.24,1.25c0,3.85-4.56,5.64-8.75,5.67s-8.67-1.69-8.76-5.05a3.33,3.33,0,0,1,0-.55,26,26,0,0,0,16.75-2.14A4.61,4.61,0,0,1,35.74,195.29Zm-16.8-.09a5.91,5.91,0,0,1,1.22-1.52A33.65,33.65,0,0,1,27.23,190l.4-.17a28.21,28.21,0,0,1,6.52,3.52A24.41,24.41,0,0,1,18.94,195.2Zm16.83-2.63a20.48,20.48,0,0,0-6-3.69,20.66,20.66,0,0,0,6-3.68,32.15,32.15,0,0,1,5.56,3.69A32.78,32.78,0,0,1,35.77,192.57Zm14,17.15c-.1,5.08-1.79,9.91-7.74,12.15a13.26,13.26,0,0,1-3.28.71A22.3,22.3,0,0,0,49.76,209.72Zm-34.1,25.42a4.27,4.27,0,0,1-3.83-4.45c.07-1.92,1.45-4,5.14-4.21,1.72-.09,6.62-.37,11.27-1a3.12,3.12,0,0,0-.41.79c-.71,1.94.31,4.62,3.13,8.19a7.3,7.3,0,0,0,.65.71,69.38,69.38,0,0,0-9.78,0A43.61,43.61,0,0,1,15.66,235.14ZM17,259.74c-3.69-.19-5.07-2.3-5.14-4.21a4.27,4.27,0,0,1,3.83-4.45,42.14,42.14,0,0,1,6.17,0,69.38,69.38,0,0,0,9.78,0,7.3,7.3,0,0,0-.65.71c-2.82,3.56-3.84,6.24-3.13,8.19a3.29,3.29,0,0,0,.41.79C23.59,260.11,18.69,259.82,17,259.74Zm21.77,3.89a13.28,13.28,0,0,1,3.28.72c5.95,2.24,7.64,7.06,7.74,12.15A22.32,22.32,0,0,0,38.74,263.63ZM18.56,290a3.62,3.62,0,0,1-.09-.94c0-.08,0-.15,0-.23.56-2.34,2.95-4.66,8.32-4.66H27c3.23,0,6.54,1.08,8.17,2.91a4.4,4.4,0,0,1,.86,2.6,3.69,3.69,0,0,1-.91,2.37A25.88,25.88,0,0,0,18.56,290Zm9,6.56c-3.57-1.55-7-3-8.4-5.19a24.46,24.46,0,0,1,14.78,1.78,29.3,29.3,0,0,1-6.37,3.42Zm8.23,7.32a3.8,3.8,0,0,1,.28,1.43c0,3.38-4.68,5.44-9.21,5.47H26.7A12.44,12.44,0,0,1,22,310a7.55,7.55,0,0,1-2-1.19l-.06-.05-.16-.15-.07-.07a3.84,3.84,0,0,1-1.19-2.65,3.69,3.69,0,0,1,.08-.89,26,26,0,0,0,16.46-2.16A4.38,4.38,0,0,1,35.78,303.88Zm-16.55-.27c1.4-2.17,4.83-3.66,8.42-5.22h0a30.75,30.75,0,0,1,6.3,3.36A24.46,24.46,0,0,1,19.23,303.61Zm16.31-2.47a21.54,21.54,0,0,0-6-3.58,22.28,22.28,0,0,0,6.07-3.62,32.13,32.13,0,0,1,5.5,3.58A32.15,32.15,0,0,1,35.54,301.14Zm14.32,17.31c-.1,5.09-1.79,9.92-7.74,12.15a13.28,13.28,0,0,1-3.28.72A22.32,22.32,0,0,0,49.86,318.45Zm-34.1,25.43a4.28,4.28,0,0,1-3.83-4.46c.07-1.91,1.45-4,5.14-4.21,1.72-.08,6.62-.37,11.27-1a3.49,3.49,0,0,0-.41.79c-.71,1.95.31,4.63,3.13,8.19a7.41,7.41,0,0,0,.65.72,66.49,66.49,0,0,0-9.78-.05A45.18,45.18,0,0,1,15.76,343.88Zm1.31,24.85c-3.69-.18-5.07-2.29-5.14-4.2a4.28,4.28,0,0,1,3.83-4.46,43.61,43.61,0,0,1,6.17,0,66.49,66.49,0,0,0,9.78,0,7.3,7.3,0,0,0-.65.71c-2.82,3.57-3.84,6.25-3.13,8.2a3.49,3.49,0,0,0,.41.79C23.69,369.11,18.79,368.82,17.07,368.73Zm21.77,3.9a12.84,12.84,0,0,1,3.28.72c6,2.23,7.64,7.06,7.74,12.14A22.33,22.33,0,0,0,38.84,372.63ZM18.61,398.72a3.66,3.66,0,0,1,0-.66c.09-3.37,4.49-5.1,8.76-5.06a15.07,15.07,0,0,1,2.6.25,9.79,9.79,0,0,1,5,2.44,4.45,4.45,0,0,1,1.16,2.75,4,4,0,0,1-.89,2.45A25.93,25.93,0,0,0,18.61,398.72Zm.48,1.4a24.47,24.47,0,0,1,15,1.89,27.92,27.92,0,0,1-6.51,3.52C23.9,403.93,20.39,402.39,19.09,400.12ZM36,414c0,3.85-4.57,5.64-8.75,5.68-3.39,0-6.86-1.06-8.19-3.18a4.1,4.1,0,0,1-.3-.59,3.67,3.67,0,0,1-.28-1.29,3.87,3.87,0,0,1,.05-.69,26,26,0,0,0,16.69-2.12A3.56,3.56,0,0,1,36,414Zm-17-1.47a8.59,8.59,0,0,1,3.23-2.87c1.5-.83,3.26-1.59,5-2.34l.4-.17a28.12,28.12,0,0,1,6.48,3.53A24.47,24.47,0,0,1,19,412.55ZM35.69,410a21.32,21.32,0,0,0-6-3.67,21.57,21.57,0,0,0,6.06-3.66,32.26,32.26,0,0,1,5.56,3.67A31.82,31.82,0,0,1,35.69,410ZM49.78,427.2c-.11,5.09-1.79,9.91-7.74,12.15a13.28,13.28,0,0,1-3.28.72A22.36,22.36,0,0,0,49.78,427.2ZM15.67,452.62a4.28,4.28,0,0,1-3.83-4.45c.07-1.91,1.46-4,5.14-4.21,1.73-.08,6.62-.37,11.27-1a3.29,3.29,0,0,0-.41.79c-.71,1.95.32,4.63,3.13,8.19a6.31,6.31,0,0,0,.66.71,69.52,69.52,0,0,0-9.79,0A42.15,42.15,0,0,1,15.67,452.62ZM17,477.22c-3.68-.19-5.07-2.29-5.14-4.21a4.28,4.28,0,0,1,3.83-4.45,43.62,43.62,0,0,1,6.17,0,69.52,69.52,0,0,0,9.79-.05,6.31,6.31,0,0,0-.66.71c-2.81,3.57-3.84,6.25-3.13,8.19a3.12,3.12,0,0,0,.41.79C23.6,477.59,18.71,477.31,17,477.22Zm21.78,3.9a13.26,13.26,0,0,1,3.28.71c6,2.24,7.63,7.07,7.74,12.15A22.34,22.34,0,0,0,38.76,481.12ZM18.57,507.48a4.76,4.76,0,0,1-.09-.94c0-.07,0-.15,0-.23.55-2.34,2.95-4.66,8.32-4.66H27c3.23,0,6.54,1.08,8.17,2.91a4.4,4.4,0,0,1,.86,2.6,3.62,3.62,0,0,1-.92,2.37A25.86,25.86,0,0,0,18.57,507.48Zm9,6.56c-3.57-1.55-7-3-8.4-5.18a24.27,24.27,0,0,1,14.77,1.78,29.64,29.64,0,0,1-6.36,3.41Zm8.23,7.32a4,4,0,0,1,.27,1.43c0,3.38-4.68,5.44-9.2,5.47h-.15a12.44,12.44,0,0,1-4.68-.79,7.63,7.63,0,0,1-2-1.18l-.07-.06-.15-.15-.07-.06a3.87,3.87,0,0,1-1.2-2.66,5.17,5.17,0,0,1,.08-.89,26,26,0,0,0,16.47-2.16A4.71,4.71,0,0,1,35.8,521.36Zm-16.56-.26c1.4-2.18,4.84-3.67,8.43-5.23h0A30.43,30.43,0,0,1,34,519.22,24.44,24.44,0,0,1,19.24,521.1Zm16.32-2.48a21.93,21.93,0,0,0-6-3.58,22,22,0,0,0,6.06-3.62A32.22,32.22,0,0,1,41.13,515,32,32,0,0,1,35.56,518.62Zm14.32,17.32c-.11,5.08-1.79,9.91-7.74,12.14a12.84,12.84,0,0,1-3.28.72A22.37,22.37,0,0,0,49.88,535.94ZM15.77,561.36a4.29,4.29,0,0,1-3.83-4.46c.07-1.91,1.46-4,5.14-4.2,1.73-.09,6.63-.38,11.27-1a3.49,3.49,0,0,0-.41.79c-.71,1.95.32,4.63,3.13,8.2a6.31,6.31,0,0,0,.66.71,66.63,66.63,0,0,0-9.79,0A43.62,43.62,0,0,1,15.77,561.36Zm1.31,24.86C13.4,586,12,583.92,11.94,582a4.29,4.29,0,0,1,3.83-4.46,45.19,45.19,0,0,1,6.17,0,66.63,66.63,0,0,0,9.79-.05,6.4,6.4,0,0,0-.66.72c-2.81,3.56-3.84,6.24-3.13,8.19a3.49,3.49,0,0,0,.41.79C23.71,586.59,18.81,586.3,17.08,586.22Zm21.78,3.89a13.28,13.28,0,0,1,3.28.72c6,2.23,7.63,7.06,7.74,12.15A22.36,22.36,0,0,0,38.86,590.11ZM18.61,616.06a4.41,4.41,0,0,1,0-.52c.1-3.37,4.49-5.1,8.77-5.06s8.6,1.79,8.74,5.55a4.07,4.07,0,0,1-.88,2.2A25.89,25.89,0,0,0,18.61,616.06Zm8.6,6.63a45.55,45.55,0,0,1-5.93-2.88A7,7,0,0,1,19,617.47a24.36,24.36,0,0,1,15.08,1.88,28.3,28.3,0,0,1-6.51,3.52Zm8.58,7.41a3.36,3.36,0,0,1,.24,1.26c0,3.85-4.57,5.64-8.75,5.67s-8.67-1.69-8.76-5.06a3.25,3.25,0,0,1,0-.54,26,26,0,0,0,16.74-2.14A5,5,0,0,1,35.79,630.1ZM19,630a5.79,5.79,0,0,1,1.23-1.52,33.55,33.55,0,0,1,7.06-3.68l.41-.17a28.13,28.13,0,0,1,6.51,3.52A24.39,24.39,0,0,1,19,630Zm16.83-2.63a20.42,20.42,0,0,0-6-3.69,20.6,20.6,0,0,0,6-3.68,31.92,31.92,0,0,1,5.56,3.68A31.48,31.48,0,0,1,35.81,627.39Zm14,17.15c-.11,5.08-1.79,9.91-7.74,12.15a13.26,13.26,0,0,1-3.28.71A22.34,22.34,0,0,0,49.81,644.54ZM15.7,670a4.28,4.28,0,0,1-3.83-4.46c.07-1.91,1.46-4,5.14-4.2,1.73-.09,6.63-.37,11.27-1a3.49,3.49,0,0,0-.41.79c-.71,1.95.32,4.63,3.13,8.2a6.31,6.31,0,0,0,.66.71,68,68,0,0,0-9.79,0A43.62,43.62,0,0,1,15.7,670ZM17,694.56c-3.68-.19-5.07-2.3-5.14-4.21a4.29,4.29,0,0,1,3.83-4.46,45.19,45.19,0,0,1,6.17,0,66.63,66.63,0,0,0,9.79,0,7.4,7.4,0,0,0-.66.72c-2.81,3.56-3.84,6.24-3.13,8.19a3.29,3.29,0,0,0,.41.79C23.64,694.93,18.74,694.64,17,694.56Zm21.78,3.89a13.28,13.28,0,0,1,3.28.72c6,2.24,7.63,7.06,7.74,12.15A22.36,22.36,0,0,0,38.79,698.45ZM18.6,724.81a4,4,0,0,1-.08-.93,1.77,1.77,0,0,1,0-.23c.56-2.34,2.95-4.66,8.32-4.66H27c3.23,0,6.54,1.08,8.17,2.91a4.4,4.4,0,0,1,.86,2.59,3.65,3.65,0,0,1-.92,2.38A25.93,25.93,0,0,0,18.6,724.81Zm9,6.57c-3.57-1.55-7-3-8.4-5.19A24.46,24.46,0,0,1,34,728a30,30,0,0,1-6.37,3.42Zm8.23,7.32a3.75,3.75,0,0,1,.27,1.43c0,3.38-4.68,5.43-9.2,5.47h-.15a12.48,12.48,0,0,1-4.68-.79,7.36,7.36,0,0,1-2-1.18l-.06,0-.16-.15-.07-.07a3.8,3.8,0,0,1-1.19-2.65,3.69,3.69,0,0,1,.08-.89,26.08,26.08,0,0,0,16.46-2.16A4.49,4.49,0,0,1,35.83,738.7Zm-16.56-.27c1.4-2.17,4.84-3.66,8.43-5.22h0A30,30,0,0,1,34,736.56,24.44,24.44,0,0,1,19.27,738.43ZM35.59,736a21.94,21.94,0,0,0-6-3.59,22,22,0,0,0,6.06-3.61,32.22,32.22,0,0,1,5.51,3.58A32.54,32.54,0,0,1,35.59,736Zm14.32,17.31c-.11,5.09-1.79,9.91-7.74,12.15a13.28,13.28,0,0,1-3.28.72A22.36,22.36,0,0,0,49.91,753.27ZM15.8,778.7A4.28,4.28,0,0,1,12,774.24c.06-1.91,1.45-4,5.13-4.21,1.73-.08,6.63-.37,11.27-1a3.29,3.29,0,0,0-.41.79c-.71,1.95.32,4.63,3.13,8.19a8.93,8.93,0,0,0,.66.72,66.63,66.63,0,0,0-9.79-.05A45.19,45.19,0,0,1,15.8,778.7ZM28,803.77a3.49,3.49,0,0,0,.41.79c-4.64-.63-9.54-.92-11.27-1-3.68-.18-5.07-2.29-5.13-4.2a4.26,4.26,0,0,1,3.82-4.46,43.62,43.62,0,0,1,6.17,0,66.63,66.63,0,0,0,9.79,0,7.4,7.4,0,0,0-.66.71C28.29,799.14,27.26,801.82,28,803.77Zm20.64-6.29c-5.47,5.07-10.77,5.41-13.89,4a5.83,5.83,0,0,1-1.54-.95l.45.27a10.72,10.72,0,0,0,4.81,1.1A9.71,9.71,0,0,0,44,800.29l2.41-1.69c1.4-1,2.64-1.86,3.76-2.61Zm31.33,3.91c-3.13,1.37-8.42,1-13.9-4l-1.58-1.49c1.11.75,2.35,1.62,3.75,2.61l2.42,1.69a9.78,9.78,0,0,0,5.58,1.65A10.56,10.56,0,0,0,81,800.7c.16-.08.31-.17.46-.26A6.17,6.17,0,0,1,79.94,801.39Zm18.91-6.63a4.27,4.27,0,0,1,3.83,4.46c-.07,1.91-1.46,4-5.14,4.2-1.73.09-6.62.37-11.27,1a3.49,3.49,0,0,0,.41-.79c.71-1.95-.31-4.63-3.13-8.2a7.3,7.3,0,0,0-.65-.71,67.9,67.9,0,0,0,9.78,0A43.61,43.61,0,0,1,98.85,794.76Zm-24.21-8c0,4.36,1.7,5.86,4.68,7.4l1.42.88a2.91,2.91,0,0,1,1.47,2.17c0,.82-.69,1.66-1.91,2.29a9,9,0,0,1-8.86-.44L69,797.4c-5.79-4.07-8.74-6.12-11.73-6.17s-5.92,2.1-11.71,6.17l-2.41,1.69a9,9,0,0,1-8.87.44c-1.21-.63-1.91-1.47-1.9-2.29a2.94,2.94,0,0,1,1.47-2.18l1.41-.87c3-1.54,4.69-3,4.69-7.39s-1.7-5.86-4.69-7.41l-1.41-.87a2.94,2.94,0,0,1-1.47-2.18c0-.82.69-1.65,1.9-2.29a9,9,0,0,1,8.87.45c.86.59,1.66,1.16,2.41,1.69,5.79,4.07,8.72,6.12,11.71,6.16s5.94-2.09,11.73-6.16c.75-.53,1.55-1.1,2.41-1.69a9,9,0,0,1,8.86-.45c1.22.64,1.91,1.47,1.91,2.29a2.94,2.94,0,0,1-1.47,2.18l-1.42.87C76.34,780.94,74.64,782.44,74.64,786.79Zm-41-14-.45.26a5.83,5.83,0,0,1,1.54-1c3.12-1.37,8.42-1,13.89,4.05.56.51,1.08,1,1.59,1.49-1.12-.75-2.36-1.63-3.76-2.61L44,773.29a9.79,9.79,0,0,0-5.59-1.65A10.6,10.6,0,0,0,33.63,772.75Zm37,.67-2.42,1.7c-1.4,1-2.64,1.86-3.75,2.61L66,776.24c5.48-5.07,10.77-5.41,13.9-4a6.48,6.48,0,0,1,1.54.95c-.15-.09-.3-.18-.46-.26a10.56,10.56,0,0,0-4.81-1.11A9.78,9.78,0,0,0,70.63,773.42Zm26.91-3.26c3.68.19,5.07,2.3,5.14,4.21a4.28,4.28,0,0,1-3.83,4.46,45.18,45.18,0,0,1-6.17,0,66.49,66.49,0,0,0-9.78.05,8.8,8.8,0,0,0,.65-.72c2.82-3.56,3.84-6.24,3.13-8.19a3.29,3.29,0,0,0-.41-.79C90.92,769.79,95.81,770.08,97.54,770.16Zm-21.78-3.89a13.2,13.2,0,0,1-3.27-.72c-5.95-2.24-7.64-7.06-7.74-12.15A22.31,22.31,0,0,0,75.76,766.27ZM96,739.91a3.58,3.58,0,0,1,.09.93,1.79,1.79,0,0,1,0,.23c-.55,2.34-2.94,4.66-8.31,4.66h-.15c-3.23,0-6.54-1.08-8.17-2.91a4.33,4.33,0,0,1-.86-2.59,3.69,3.69,0,0,1,.91-2.38A26,26,0,0,0,96,739.91Zm-9-6.57c3.57,1.55,7,3,8.4,5.19a24.45,24.45,0,0,1-14.78-1.78,29.89,29.89,0,0,1,6.36-3.42ZM78.73,726a3.76,3.76,0,0,1-.28-1.43c0-3.38,4.68-5.43,9.21-5.47h.15a12.43,12.43,0,0,1,4.67.79,7.06,7.06,0,0,1,2,1.18l.07,0,.15.15.07.07a3.81,3.81,0,0,1,1.2,2.65,3.69,3.69,0,0,1-.08.89,26.06,26.06,0,0,0-16.46,2.16A4.18,4.18,0,0,1,78.73,726Zm16.55.27c-1.4,2.17-4.83,3.66-8.42,5.22h0a30,30,0,0,1-6.29-3.36A24.46,24.46,0,0,1,95.28,726.29ZM79,728.76a22.09,22.09,0,0,0,6,3.59A22,22,0,0,0,78.9,736a32.22,32.22,0,0,1-5.51-3.58A32.54,32.54,0,0,1,79,728.76ZM64.65,711.45c.1-5.09,1.79-9.91,7.74-12.15a13.2,13.2,0,0,1,3.27-.72A22.31,22.31,0,0,0,64.65,711.45Zm17.21-15-.14,0a32.87,32.87,0,0,1-4.28.51,19.45,19.45,0,0,0-5.57,1c-9.41,3.54-9.32,12.57-8.18,20.05a25.44,25.44,0,0,0,7.46,14.42,25.46,25.46,0,0,0-7.4,14.36c-1.13,7.48-1.23,16.51,8.18,20a19.45,19.45,0,0,0,5.57,1,32.67,32.67,0,0,1,4.28.51l.15,0c1.9.42,3,1.08,3.33,2s-.49,2.21-1.12,4.25l0-.12a6.12,6.12,0,0,0-3.62-3.74C76.94,769.16,71,769.47,65,775l-1.75,1.65c-2.46,2.34-4.41,4.19-5.95,4.21h0c-1.54,0-3.49-1.87-6-4.21L49.61,775c-6-5.54-11.93-5.86-15.49-4.31a6.13,6.13,0,0,0-3.61,3.74l0,.12c-.63-2-1.48-3.28-1.13-4.25s1.44-1.6,3.34-2l.15,0a32.67,32.67,0,0,1,4.28-.51,19.38,19.38,0,0,0,5.56-1c9.41-3.54,9.32-12.57,8.19-20a25.57,25.57,0,0,0-7.46-14.42A25.58,25.58,0,0,0,50.81,718c1.13-7.48,1.22-16.51-8.19-20.05a19.44,19.44,0,0,0-5.56-1,32.67,32.67,0,0,1-4.28-.51l-.15,0c-1.9-.42-3-1.08-3.34-2s.49-2.21,1.13-4.25l0,.12A6.1,6.1,0,0,0,34.06,694c3.56,1.55,9.49,1.24,15.48-4.31l1.76-1.65c2.46-2.34,4.4-4.19,5.94-4.21h0c1.54,0,3.48,1.87,6,4.21L65,689.7c6,5.55,11.93,5.86,15.48,4.31a6.14,6.14,0,0,0,3.62-3.74l0-.12c.63,2,1.48,3.28,1.12,4.25S83.77,696,81.86,696.42ZM43.93,691.3l2.41-1.7c1.4-1,2.64-1.86,3.76-2.61-.51.48-1,1-1.59,1.49-5.47,5.07-10.77,5.41-13.89,4a6.1,6.1,0,0,1-1.54-.95l.45.26A10.6,10.6,0,0,0,38.34,693,9.79,9.79,0,0,0,43.93,691.3Zm37,.67c.16-.08.31-.17.46-.26a6.17,6.17,0,0,1-1.54.95c-3.13,1.37-8.42,1-13.9-4l-1.58-1.49c1.11.75,2.35,1.63,3.75,2.61l2.42,1.7a9.78,9.78,0,0,0,5.58,1.65A10.56,10.56,0,0,0,80.92,692ZM98.75,686a4.27,4.27,0,0,1,3.83,4.45c-.07,1.91-1.46,4-5.14,4.21-1.73.08-6.62.37-11.27,1a3.29,3.29,0,0,0,.41-.79c.71-1.95-.31-4.63-3.13-8.19a8.8,8.8,0,0,0-.65-.72,66.49,66.49,0,0,0,9.78,0A43.35,43.35,0,0,1,98.75,686Zm-24.17-8.1c0,4.36,1.69,5.85,4.68,7.4l1.42.87a2.94,2.94,0,0,1,1.47,2.18c0,.82-.7,1.65-1.91,2.29a9,9,0,0,1-8.87-.45L69,688.53c-5.79-4.07-8.72-6.12-11.71-6.16s-5.93,2.09-11.72,6.16l-2.41,1.69a9,9,0,0,1-8.87.45c-1.21-.64-1.91-1.47-1.91-2.29a3,3,0,0,1,1.48-2.18l1.41-.87c3-1.55,4.69-3.05,4.69-7.4s-1.7-5.86-4.69-7.4l-1.41-.87a3,3,0,0,1-1.48-2.18c0-.82.7-1.66,1.91-2.29a9,9,0,0,1,8.87.44l2.41,1.69c5.79,4.07,8.74,6.12,11.72,6.17s5.92-2.1,11.71-6.17l2.41-1.69a9,9,0,0,1,8.87-.44c1.21.63,1.91,1.47,1.91,2.29a2.94,2.94,0,0,1-1.47,2.18l-1.42.87C76.27,672.07,74.58,673.57,74.58,677.93ZM33.53,664l-.45.26a5.83,5.83,0,0,1,1.54-.95c3.12-1.37,8.42-1,13.89,4l1.59,1.49c-1.12-.75-2.36-1.62-3.76-2.61l-2.41-1.69a9.79,9.79,0,0,0-5.59-1.65A10.6,10.6,0,0,0,33.53,664Zm37,.41-2.42,1.69c-1.4,1-2.64,1.86-3.75,2.61l1.58-1.49c5.48-5.07,10.77-5.41,13.9-4a6.17,6.17,0,0,1,1.54.95l-.46-.27a10.69,10.69,0,0,0-4.81-1.1A9.71,9.71,0,0,0,70.53,664.43Zm26.91-3.26c3.68.18,5.07,2.29,5.14,4.2a4.27,4.27,0,0,1-3.83,4.46,43.61,43.61,0,0,1-6.17,0,67.9,67.9,0,0,0-9.78.05,7.3,7.3,0,0,0,.65-.71c2.82-3.57,3.84-6.25,3.13-8.2a3.49,3.49,0,0,0-.41-.79C90.82,660.79,95.71,661.08,97.44,661.17Zm-21.78-3.9a13.18,13.18,0,0,1-3.27-.71c-6-2.24-7.64-7.07-7.74-12.15A22.29,22.29,0,0,0,75.66,657.27Zm20.26-25.94c0,.17,0,.34,0,.51-.09,3.37-4.49,5.1-8.76,5.06s-8.61-1.78-8.75-5.54a4,4,0,0,1,.88-2.2A26,26,0,0,0,95.92,631.33Zm-8.6-6.64a45.55,45.55,0,0,1,5.93,2.88,7,7,0,0,1,2.23,2.34A24.43,24.43,0,0,1,80.4,628a28.13,28.13,0,0,1,6.51-3.52Zm-8.58-7.41A3.18,3.18,0,0,1,78.5,616c0-3.84,4.56-5.63,8.74-5.67S95.92,612,96,615.41a4.63,4.63,0,0,1,0,.54,26,26,0,0,0-16.74,2.14A4.32,4.32,0,0,1,78.74,617.28Zm16.8.08a5.6,5.6,0,0,1-1.23,1.52,33.09,33.09,0,0,1-7.06,3.68l-.41.18a28.13,28.13,0,0,1-6.51-3.53A24.48,24.48,0,0,1,95.54,617.36ZM78.71,620a20.69,20.69,0,0,0,6,3.69,20.53,20.53,0,0,0-6,3.68,32.34,32.34,0,0,1-5.56-3.69A31.81,31.81,0,0,1,78.71,620Zm-14-17.16c.1-5.08,1.79-9.91,7.73-12.14a12.93,12.93,0,0,1,3.28-.72A22.32,22.32,0,0,0,64.72,602.84ZM81.89,588l-.14,0a32.87,32.87,0,0,1-4.28.51,19.45,19.45,0,0,0-5.57,1c-9.41,3.54-9.31,12.57-8.18,20a25.54,25.54,0,0,0,7.21,14.18,25.51,25.51,0,0,0-7.24,14.21c-1.14,7.47-1.23,16.5,8.18,20a18.78,18.78,0,0,0,5.57,1,31.31,31.31,0,0,1,4.28.52l.14,0c1.91.41,3,1.07,3.34,2s-.49,2.21-1.12,4.24l0-.11a6.12,6.12,0,0,0-3.62-3.74c-3.55-1.56-9.49-1.24-15.48,4.31-.62.57-1.2,1.12-1.75,1.65-2.47,2.33-4.41,4.18-6,4.21h0c-1.54,0-3.48-1.88-5.94-4.21-.55-.53-1.14-1.08-1.76-1.65-6-5.55-11.92-5.87-15.48-4.31a6.08,6.08,0,0,0-3.61,3.74l0,.11c-.64-2-1.48-3.27-1.13-4.25s1.44-1.6,3.34-2l.15,0a31.13,31.13,0,0,1,4.28-.52,18.77,18.77,0,0,0,5.56-1c9.41-3.54,9.32-12.57,8.19-20a25.57,25.57,0,0,0-7.21-14.18,25.61,25.61,0,0,0,7.24-14.21c1.13-7.48,1.22-16.51-8.19-20a19.44,19.44,0,0,0-5.56-1,32.67,32.67,0,0,1-4.28-.51l-.15,0c-1.9-.42-3-1.08-3.34-2s.5-2.22,1.13-4.25l0,.12a6.1,6.1,0,0,0,3.61,3.74c3.56,1.55,9.49,1.23,15.48-4.31l1.76-1.65c2.46-2.34,4.4-4.19,5.94-4.21h0c1.54,0,3.48,1.87,5.95,4.21L65,581.23c6,5.54,11.93,5.86,15.48,4.31a6.14,6.14,0,0,0,3.62-3.74l0-.12c.63,2,1.48,3.28,1.12,4.25S83.8,587.53,81.89,588ZM44,583l2.41-1.7c1.4-1,2.64-1.86,3.75-2.61-.5.48-1,1-1.58,1.49-5.47,5.07-10.77,5.41-13.89,4.05a6.35,6.35,0,0,1-1.55-1c.15.09.3.18.46.26a10.6,10.6,0,0,0,4.81,1.11A9.79,9.79,0,0,0,44,583Zm37,.41.46-.26a6.48,6.48,0,0,1-1.54.95c-3.13,1.36-8.42,1-13.9-4l-1.58-1.49c1.11.75,2.35,1.62,3.75,2.61.76.53,1.56,1.1,2.42,1.69a9.69,9.69,0,0,0,5.58,1.66A10.6,10.6,0,0,0,81,583.37Zm17.83-6a4.28,4.28,0,0,1,3.83,4.46c-.07,1.91-1.46,4-5.14,4.2-1.73.09-6.62.38-11.27,1a3.49,3.49,0,0,0,.41-.79c.71-1.95-.31-4.63-3.13-8.2a7.31,7.31,0,0,0-.66-.71,66.63,66.63,0,0,0,9.79.05A45.18,45.18,0,0,1,98.82,577.42Zm-24.21-8c0,4.35,1.69,5.85,4.68,7.39l1.42.88a2.94,2.94,0,0,1,1.47,2.18c0,.82-.69,1.65-1.91,2.29a9,9,0,0,1-8.87-.45L69,580.06c-5.79-4.07-8.74-6.12-11.73-6.17s-5.92,2.1-11.71,6.17l-2.41,1.69a9,9,0,0,1-8.87.45c-1.21-.64-1.91-1.47-1.9-2.29a2.94,2.94,0,0,1,1.47-2.18l1.41-.88c3-1.54,4.69-3,4.69-7.39s-1.7-5.86-4.69-7.4l-1.41-.88A2.91,2.91,0,0,1,32.38,559c0-.82.69-1.66,1.9-2.3a9,9,0,0,1,8.87.45l2.41,1.69c5.79,4.07,8.72,6.12,11.71,6.17s5.94-2.1,11.73-6.17l2.4-1.69a9,9,0,0,1,8.87-.45c1.22.64,1.91,1.47,1.91,2.3a2.93,2.93,0,0,1-1.47,2.17l-1.42.88C76.3,563.6,74.61,565.1,74.61,569.46Zm-41-14.05-.46.26a6.35,6.35,0,0,1,1.55-.95c3.12-1.36,8.42-1,13.89,4,.56.51,1.08,1,1.58,1.49-1.11-.75-2.35-1.62-3.75-2.61L44,556a9.71,9.71,0,0,0-5.59-1.65A10.72,10.72,0,0,0,33.6,555.41Zm37,.68-2.42,1.69c-1.4,1-2.64,1.86-3.75,2.61L66,558.9c5.48-5.07,10.77-5.41,13.9-4a6.17,6.17,0,0,1,1.54.95c-.15-.1-.3-.18-.46-.27a10.72,10.72,0,0,0-4.81-1.1A9.68,9.68,0,0,0,70.6,556.09Zm26.91-3.26c3.68.18,5.07,2.29,5.14,4.2a4.28,4.28,0,0,1-3.83,4.46,43.61,43.61,0,0,1-6.17,0,66.63,66.63,0,0,0-9.79,0,6.31,6.31,0,0,0,.66-.71c2.82-3.57,3.84-6.25,3.13-8.2a3.49,3.49,0,0,0-.41-.79C90.89,552.45,95.78,552.74,97.51,552.83Zm-21.78-3.9a12.93,12.93,0,0,1-3.28-.72c-5.94-2.23-7.63-7.06-7.73-12.14A22.29,22.29,0,0,0,75.73,548.93Zm20.19-26.36a3.58,3.58,0,0,1,.09.93,1.64,1.64,0,0,1,0,.23c-.55,2.34-2.94,4.67-8.31,4.67h-.15c-3.23,0-6.54-1.09-8.17-2.92a4.33,4.33,0,0,1-.86-2.59,3.66,3.66,0,0,1,.91-2.38A25.88,25.88,0,0,0,95.92,522.57Zm-9-6.57c3.57,1.55,7,3,8.4,5.19a24.37,24.37,0,0,1-14.78-1.78A29.45,29.45,0,0,1,86.91,516Zm-8.23-7.31a3.85,3.85,0,0,1-.28-1.44c0-3.37,4.68-5.43,9.21-5.47h.15a12.43,12.43,0,0,1,4.67.79,7.31,7.31,0,0,1,2,1.18l.07.06.15.14.07.07a3.79,3.79,0,0,1,1.12,3.55,26,26,0,0,0-16.46,2.16A4.38,4.38,0,0,1,78.7,508.69Zm16.55.26c-1.4,2.17-4.83,3.67-8.42,5.22h0a30,30,0,0,1-6.29-3.36A24.46,24.46,0,0,1,95.25,509Zm-16.32,2.47a22.09,22.09,0,0,0,6,3.59,22.21,22.21,0,0,0-6.06,3.61,32.18,32.18,0,0,1-5.51-3.57A32,32,0,0,1,78.93,511.42ZM64.61,494.11c.11-5.08,1.8-9.91,7.74-12.15a13.36,13.36,0,0,1,3.28-.71A22.34,22.34,0,0,0,64.61,494.11Zm17.22-15-.14,0a29.74,29.74,0,0,1-4.28.51,19.12,19.12,0,0,0-5.57,1c-9.41,3.53-9.32,12.57-8.19,20a25.5,25.5,0,0,0,7.47,14.42,25.5,25.5,0,0,0-7.4,14.37c-1.13,7.47-1.23,16.5,8.18,20a18.78,18.78,0,0,0,5.57,1,32.87,32.87,0,0,1,4.28.51l.14,0c1.91.41,3,1.07,3.34,2s-.49,2.22-1.12,4.25l0-.12a6.17,6.17,0,0,0-3.62-3.74c-3.55-1.55-9.49-1.23-15.48,4.32-.62.57-1.2,1.12-1.75,1.65-2.47,2.33-4.41,4.18-5.95,4.21h0c-1.54,0-3.48-1.88-5.94-4.21-.55-.53-1.14-1.08-1.76-1.65-6-5.55-11.92-5.87-15.48-4.32a6.12,6.12,0,0,0-3.61,3.74l0,.12c-.63-2-1.48-3.27-1.13-4.25s1.44-1.6,3.34-2l.15,0a32.67,32.67,0,0,1,4.28-.51,18.77,18.77,0,0,0,5.56-1c9.41-3.54,9.32-12.57,8.19-20A25.57,25.57,0,0,0,43.38,515a25.58,25.58,0,0,0,7.4-14.36c1.13-7.47,1.22-16.5-8.19-20a19.12,19.12,0,0,0-5.57-1,29.74,29.74,0,0,1-4.28-.51l-.14,0c-1.91-.41-3-1.07-3.34-2s.49-2.21,1.12-4.24a.49.49,0,0,0,0,.11A6.08,6.08,0,0,0,34,476.67c3.56,1.56,9.49,1.24,15.48-4.31.62-.57,1.2-1.13,1.76-1.65,2.46-2.34,4.4-4.18,5.94-4.21h0c1.54,0,3.48,1.87,6,4.21.55.52,1.13,1.08,1.75,1.65,6,5.55,11.93,5.87,15.48,4.31A6.12,6.12,0,0,0,84,472.93l0-.11c.63,2,1.48,3.27,1.12,4.24S83.74,478.67,81.83,479.08ZM43.9,474l2.41-1.69c1.4-1,2.64-1.86,3.75-2.61l-1.58,1.49c-5.47,5.06-10.77,5.41-13.89,4a6.06,6.06,0,0,1-1.55-.95c.15.09.3.18.46.26a10.6,10.6,0,0,0,4.81,1.11A9.79,9.79,0,0,0,43.9,474Zm37,.67c.16-.08.31-.17.46-.26a6.17,6.17,0,0,1-1.54.95c-3.13,1.37-8.42,1-13.9-4l-1.58-1.49c1.11.75,2.35,1.62,3.75,2.61l2.42,1.69a9.76,9.76,0,0,0,5.58,1.65A10.6,10.6,0,0,0,80.89,474.63Zm17.83-5.94a4.27,4.27,0,0,1,3.83,4.46c-.07,1.91-1.46,4-5.14,4.2-1.73.09-6.62.37-11.27,1a3.36,3.36,0,0,0,.41-.8c.71-1.94-.31-4.62-3.13-8.19a6.31,6.31,0,0,0-.66-.71,69.52,69.52,0,0,0,9.79,0A43.61,43.61,0,0,1,98.72,468.69Zm-24.17-8.1c0,4.36,1.69,5.85,4.68,7.4l1.41.87A3,3,0,0,1,82.12,471c0,.82-.7,1.66-1.91,2.29a9.06,9.06,0,0,1-8.87-.44l-2.41-1.69c-5.79-4.07-8.72-6.12-11.71-6.17s-5.93,2.1-11.72,6.17l-2.41,1.69a9.06,9.06,0,0,1-8.87.44c-1.21-.63-1.91-1.47-1.91-2.29a3,3,0,0,1,1.48-2.18L35.2,468c3-1.55,4.69-3,4.69-7.4s-1.7-5.85-4.69-7.4l-1.41-.87a3,3,0,0,1-1.48-2.18c0-.82.7-1.66,1.91-2.29a9,9,0,0,1,8.87.45L45.5,450c5.79,4.07,8.73,6.11,11.72,6.16s5.92-2.09,11.71-6.16l2.41-1.69a9,9,0,0,1,8.87-.45c1.21.63,1.91,1.47,1.91,2.29a3,3,0,0,1-1.48,2.18l-1.41.87C76.24,454.74,74.55,456.24,74.55,460.59Zm-41-13.91c-.16.08-.31.17-.46.26a6.06,6.06,0,0,1,1.55-.95c3.12-1.37,8.42-1,13.89,4,.56.52,1.08,1,1.58,1.5-1.11-.75-2.35-1.63-3.75-2.61l-2.41-1.7a9.79,9.79,0,0,0-5.59-1.65A10.6,10.6,0,0,0,33.5,446.68Zm37,.41-2.42,1.69c-1.4,1-2.64,1.86-3.75,2.61l1.58-1.49c5.48-5.06,10.77-5.41,13.9-4a6.17,6.17,0,0,1,1.54.95c-.15-.09-.3-.18-.46-.26a10.6,10.6,0,0,0-4.81-1.11A9.76,9.76,0,0,0,70.5,447.09Zm26.91-3.26c3.68.19,5.07,2.3,5.14,4.21a4.27,4.27,0,0,1-3.83,4.45,43.61,43.61,0,0,1-6.17,0,69.52,69.52,0,0,0-9.79,0,6.31,6.31,0,0,0,.66-.71c2.82-3.56,3.84-6.25,3.13-8.19a3.29,3.29,0,0,0-.41-.79C90.79,443.46,95.68,443.74,97.41,443.83Zm-21.78-3.89a13.86,13.86,0,0,1-3.28-.72c-5.94-2.24-7.63-7.07-7.74-12.15A22.39,22.39,0,0,0,75.63,439.94Zm20.24-26.09a4.68,4.68,0,0,1,0,.66c-.09,3.36-4.49,5.09-8.77,5.06a16.11,16.11,0,0,1-2.59-.25,9.79,9.79,0,0,1-5-2.45,4.38,4.38,0,0,1-1.16-2.75,4,4,0,0,1,.88-2.44A26.09,26.09,0,0,0,95.87,413.85Zm-.49-1.4a24.48,24.48,0,0,1-15-1.89A27.76,27.76,0,0,1,86.89,407C90.58,408.64,94.09,410.17,95.38,412.45Zm-16.9-13.91c0-3.85,4.56-5.64,8.75-5.67,3.39,0,6.85,1.05,8.19,3.18a4.68,4.68,0,0,1,.3.59,3.67,3.67,0,0,1,.27,1.29,4,4,0,0,1,0,.69,25.87,25.87,0,0,0-16.69,2.12A3.58,3.58,0,0,1,78.48,398.54Zm17,1.48a8.75,8.75,0,0,1-3.23,2.87c-1.5.82-3.26,1.58-5,2.33l-.4.18a27.75,27.75,0,0,1-6.48-3.54A24.38,24.38,0,0,1,95.45,400ZM78.79,402.6a21.26,21.26,0,0,0,6,3.67,21.66,21.66,0,0,0-6,3.66,31.69,31.69,0,0,1-5.56-3.67A32.4,32.4,0,0,1,78.79,402.6ZM64.7,385.36c.11-5.08,1.79-9.91,7.74-12.14a12.84,12.84,0,0,1,3.28-.72A22.33,22.33,0,0,0,64.7,385.36Zm17.18-14.9-.15,0a32.67,32.67,0,0,1-4.28.51,18.72,18.72,0,0,0-5.56,1c-9.41,3.54-9.32,12.57-8.19,20A25.57,25.57,0,0,0,71,406.26a25.51,25.51,0,0,0-7.33,14.29c-1.13,7.47-1.22,16.51,8.19,20a19.12,19.12,0,0,0,5.57,1,31.22,31.22,0,0,1,4.28.51l.14,0c1.91.42,3,1.08,3.34,2s-.49,2.21-1.12,4.24l0-.11a6.14,6.14,0,0,0-3.62-3.74c-3.55-1.55-9.49-1.24-15.48,4.31l-1.75,1.65c-2.47,2.34-4.41,4.19-6,4.21h0c-1.54,0-3.48-1.87-5.94-4.21-.56-.52-1.14-1.08-1.76-1.65-6-5.55-11.92-5.86-15.48-4.31a6.1,6.1,0,0,0-3.61,3.74.76.76,0,0,0,0,.11c-.63-2-1.48-3.27-1.12-4.24s1.43-1.6,3.34-2l.14,0a31.22,31.22,0,0,1,4.28-.51,19.12,19.12,0,0,0,5.57-1c9.41-3.53,9.32-12.57,8.19-20A25.57,25.57,0,0,0,43.5,406.3,25.54,25.54,0,0,0,50.82,392c1.13-7.47,1.22-16.5-8.18-20a18.78,18.78,0,0,0-5.57-1,32.67,32.67,0,0,1-4.28-.51l-.15,0c-1.9-.41-3-1.07-3.33-2s.49-2.22,1.12-4.25l0,.12a6.14,6.14,0,0,0,3.62,3.74c3.55,1.55,9.48,1.23,15.48-4.32.62-.57,1.2-1.12,1.75-1.65,2.46-2.33,4.41-4.18,5.95-4.21h0c1.54,0,3.49,1.88,6,4.21.55.53,1.13,1.08,1.75,1.65,6,5.55,11.93,5.87,15.48,4.32a6.14,6.14,0,0,0,3.62-3.74l0-.12c.63,2,1.48,3.27,1.13,4.25S83.78,370.05,81.88,370.46Zm-37.9-5c.86-.59,1.66-1.16,2.41-1.69,1.41-1,2.65-1.86,3.76-2.61-.5.48-1,1-1.59,1.49-5.47,5.07-10.76,5.41-13.89,4a6.48,6.48,0,0,1-1.54-.95l.46.26a10.65,10.65,0,0,0,4.8,1.1A9.71,9.71,0,0,0,44,365.47Zm37,.42a5.06,5.06,0,0,0,.46-.27,6.17,6.17,0,0,1-1.54.95c-3.13,1.37-8.42,1-13.89-4-.56-.52-1.09-1-1.59-1.49,1.11.75,2.35,1.62,3.76,2.61l2.41,1.69A9.71,9.71,0,0,0,76.17,367,10.65,10.65,0,0,0,81,365.89Zm17.83-5.95a4.28,4.28,0,0,1,3.83,4.46c-.07,1.91-1.45,4-5.14,4.2-1.72.09-6.62.38-11.27,1a3.53,3.53,0,0,0,.42-.79c.7-1.95-.32-4.63-3.14-8.2a6.22,6.22,0,0,0-.65-.71,66.49,66.49,0,0,0,9.78,0A43.61,43.61,0,0,1,98.8,359.94Zm-24.21-8c0,4.36,1.7,5.86,4.69,7.4l1.41.88a2.93,2.93,0,0,1,1.47,2.17c0,.83-.69,1.66-1.9,2.3a9,9,0,0,1-8.87-.45L69,362.58c-5.79-4.07-8.74-6.12-11.73-6.17s-5.92,2.1-11.71,6.17l-2.41,1.69a9,9,0,0,1-8.86.45c-1.22-.64-1.91-1.47-1.91-2.3a2.93,2.93,0,0,1,1.47-2.17l1.42-.88c3-1.54,4.68-3,4.68-7.39s-1.7-5.86-4.68-7.4l-1.42-.88a2.94,2.94,0,0,1-1.47-2.18c0-.82.69-1.65,1.91-2.29a9,9,0,0,1,8.86.45l2.41,1.69c5.79,4.07,8.73,6.12,11.71,6.17s5.94-2.1,11.73-6.17l2.41-1.69a9,9,0,0,1,8.87-.45c1.21.64,1.91,1.47,1.9,2.29a2.94,2.94,0,0,1-1.47,2.18l-1.41.88C76.29,346.12,74.59,347.62,74.59,352Zm-41-14c-.16.08-.31.17-.46.26a6.48,6.48,0,0,1,1.54-.95c3.13-1.36,8.42-1,13.89,4.05.56.51,1.09,1,1.59,1.49-1.11-.75-2.35-1.62-3.76-2.61-.75-.53-1.55-1.1-2.41-1.69a9.73,9.73,0,0,0-5.59-1.66A10.52,10.52,0,0,0,33.59,337.93Zm37,.68-2.41,1.69c-1.41,1-2.65,1.86-3.76,2.61.5-.48,1-1,1.59-1.49,5.47-5.07,10.76-5.41,13.89-4.05a6.48,6.48,0,0,1,1.54.95c-.14-.09-.3-.17-.46-.26a10.52,10.52,0,0,0-4.8-1.1A9.71,9.71,0,0,0,70.58,338.61Zm26.91-3.26c3.69.18,5.07,2.29,5.14,4.2A4.28,4.28,0,0,1,98.8,344a45.18,45.18,0,0,1-6.17,0,66.49,66.49,0,0,0-9.78.05,7.19,7.19,0,0,0,.65-.71c2.82-3.57,3.84-6.25,3.14-8.2a3.53,3.53,0,0,0-.42-.79C90.87,335,95.77,335.26,97.49,335.35Zm-21.77-3.9a12.84,12.84,0,0,1-3.28-.72c-6-2.23-7.63-7.06-7.74-12.14A22.33,22.33,0,0,0,75.72,331.45Zm20.19-26.36A4.08,4.08,0,0,1,96,306c0,.08,0,.16,0,.23-.56,2.34-3,4.66-8.32,4.66h-.15c-3.23,0-6.54-1.08-8.17-2.91a4.4,4.4,0,0,1-.86-2.59A3.65,3.65,0,0,1,79.4,303,25.93,25.93,0,0,0,95.91,305.09Zm-9-6.57c3.57,1.55,7,3,8.4,5.19a24.38,24.38,0,0,1-14.78-1.78,29.54,29.54,0,0,1,6.37-3.41Zm-8.23-7.32a3.76,3.76,0,0,1-.28-1.43c0-3.38,4.69-5.43,9.21-5.47h.15a12.43,12.43,0,0,1,4.67.79,7.27,7.27,0,0,1,2,1.18l.06.06a1.07,1.07,0,0,1,.16.14l.07.07a3.8,3.8,0,0,1,1.11,3.55,25.93,25.93,0,0,0-16.46,2.16A4.43,4.43,0,0,1,78.68,291.2Zm16.55.27c-1.39,2.17-4.83,3.66-8.42,5.22h0a30.06,30.06,0,0,1-6.3-3.36A24.46,24.46,0,0,1,95.23,291.47Zm-16.31,2.47a21.79,21.79,0,0,0,6,3.59,21.81,21.81,0,0,0-6.06,3.61,31.8,31.8,0,0,1-5.51-3.57A31.62,31.62,0,0,1,78.92,293.94ZM64.6,276.63c.11-5.09,1.79-9.91,7.74-12.15a13.75,13.75,0,0,1,3.28-.72A22.35,22.35,0,0,0,64.6,276.63Zm17.22-15-.15,0a31,31,0,0,1-4.28.51,19,19,0,0,0-5.56,1c-9.41,3.53-9.32,12.56-8.19,20a25.57,25.57,0,0,0,7.46,14.42,25.58,25.58,0,0,0-7.4,14.36c-1.13,7.48-1.22,16.51,8.19,20.05a19.38,19.38,0,0,0,5.56,1,32.67,32.67,0,0,1,4.28.51l.15,0c1.9.42,3,1.08,3.34,2s-.5,2.22-1.13,4.25l0-.12a6.12,6.12,0,0,0-3.62-3.74C76.89,334.34,71,334.66,65,340.2l-1.75,1.65c-2.46,2.34-4.41,4.19-6,4.21h0c-1.54,0-3.49-1.87-5.95-4.21-.55-.52-1.13-1.07-1.75-1.64-6-5.55-11.93-5.87-15.48-4.32a6.12,6.12,0,0,0-3.62,3.74l0,.12c-.63-2-1.48-3.27-1.12-4.25s1.43-1.6,3.33-2l.15,0a32.67,32.67,0,0,1,4.28-.51,19.45,19.45,0,0,0,5.57-1c9.4-3.54,9.31-12.57,8.18-20.05a25.57,25.57,0,0,0-7.46-14.42,25.52,25.52,0,0,0,7.4-14.36c1.13-7.47,1.22-16.51-8.19-20a19,19,0,0,0-5.56-1,31,31,0,0,1-4.28-.51l-.15,0c-1.9-.42-3-1.08-3.34-2s.5-2.21,1.13-4.24l0,.11A6.12,6.12,0,0,0,34,259.19c3.55,1.55,9.48,1.24,15.48-4.31.62-.57,1.2-1.13,1.75-1.65,2.46-2.34,4.41-4.19,6-4.21h0c1.54,0,3.49,1.87,5.95,4.21l1.75,1.65c6,5.55,11.93,5.86,15.48,4.31A6.12,6.12,0,0,0,84,255.45l0-.11c.63,2,1.48,3.27,1.13,4.24S83.72,261.18,81.82,261.6Zm-37.94-5.12c.86-.6,1.66-1.16,2.41-1.7,1.41-1,2.65-1.86,3.76-2.61l-1.59,1.5c-5.47,5.06-10.76,5.41-13.89,4a6.17,6.17,0,0,1-1.54-.95c.15.09.3.18.46.26a10.52,10.52,0,0,0,4.8,1.11A9.79,9.79,0,0,0,43.88,256.48Zm37,.67a5,5,0,0,0,.46-.26,6.17,6.17,0,0,1-1.54.95c-3.13,1.37-8.42,1-13.89-4l-1.59-1.49c1.11.75,2.35,1.62,3.76,2.61l2.41,1.69a9.79,9.79,0,0,0,5.59,1.65A10.52,10.52,0,0,0,80.87,257.15Zm17.83-5.94a4.27,4.27,0,0,1,3.83,4.45c-.07,1.91-1.45,4-5.14,4.21-1.72.09-6.62.37-11.27,1a3.33,3.33,0,0,0,.42-.79c.7-1.95-.32-4.63-3.14-8.19a6.22,6.22,0,0,0-.65-.71,69.38,69.38,0,0,0,9.78,0A43.61,43.61,0,0,1,98.7,251.21Zm-24.17-8.1c0,4.36,1.7,5.85,4.69,7.4l1.41.87a2.94,2.94,0,0,1,1.47,2.18c0,.82-.69,1.66-1.91,2.29a9,9,0,0,1-8.86-.45c-.86-.59-1.66-1.16-2.41-1.69-5.79-4.07-8.72-6.11-11.71-6.16s-5.94,2.09-11.73,6.16c-.75.53-1.55,1.1-2.41,1.69a9,9,0,0,1-8.86.45c-1.22-.63-1.91-1.47-1.91-2.29a2.94,2.94,0,0,1,1.47-2.18l1.41-.87c3-1.55,4.69-3,4.69-7.4s-1.7-5.85-4.69-7.4l-1.41-.87a2.94,2.94,0,0,1-1.47-2.18c0-.82.69-1.66,1.91-2.29a9,9,0,0,1,8.86.44l2.41,1.69c5.79,4.07,8.74,6.12,11.73,6.17s5.92-2.1,11.71-6.17l2.41-1.69a9,9,0,0,1,8.86-.44c1.22.63,1.91,1.47,1.91,2.29a2.94,2.94,0,0,1-1.47,2.18l-1.41.87C76.23,237.26,74.53,238.75,74.53,243.11Zm-41-13.91c-.16.08-.31.17-.46.26a6.17,6.17,0,0,1,1.54-1c3.13-1.37,8.42-1,13.89,4L50.05,234c-1.11-.75-2.35-1.62-3.76-2.61l-2.41-1.69a9.79,9.79,0,0,0-5.59-1.65A10.52,10.52,0,0,0,33.49,229.2Zm37,.41-2.41,1.69c-1.41,1-2.65,1.86-3.76,2.61l1.59-1.49c5.47-5.06,10.76-5.41,13.89-4a6.17,6.17,0,0,1,1.54,1,5,5,0,0,0-.46-.26,10.52,10.52,0,0,0-4.8-1.11A9.79,9.79,0,0,0,70.48,229.61Zm26.91-3.26c3.69.19,5.07,2.29,5.14,4.2A4.27,4.27,0,0,1,98.7,235a43.61,43.61,0,0,1-6.17,0,69.38,69.38,0,0,0-9.78,0,6.22,6.22,0,0,0,.65-.71c2.82-3.57,3.84-6.25,3.14-8.19a3.39,3.39,0,0,0-.42-.8C90.77,226,95.67,226.26,97.39,226.35Zm-21.77-3.9a13.26,13.26,0,0,1-3.28-.71c-6-2.24-7.63-7.07-7.74-12.15A22.3,22.3,0,0,0,75.62,222.45Zm20.25-25.94a3,3,0,0,1,0,.52c-.09,3.36-4.49,5.09-8.76,5.05s-8.61-1.78-8.74-5.54a4.07,4.07,0,0,1,.87-2.2A26,26,0,0,0,95.87,196.51Zm-8.6-6.64a48.28,48.28,0,0,1,5.93,2.88,7,7,0,0,1,2.24,2.35,24.55,24.55,0,0,1-15.09-1.88,28.21,28.21,0,0,1,6.52-3.52Zm-8.58-7.41a3.18,3.18,0,0,1-.24-1.26c0-3.84,4.56-5.63,8.75-5.67s8.67,1.69,8.76,5.06a3.33,3.33,0,0,1,0,.55,25.92,25.92,0,0,0-16.75,2.14A5.46,5.46,0,0,1,78.69,182.46Zm16.8.09a6.09,6.09,0,0,1-1.22,1.52,33.65,33.65,0,0,1-7.07,3.67l-.4.18a28.6,28.6,0,0,1-6.52-3.52A24.41,24.41,0,0,1,95.49,182.55Zm-16.83,2.63a20.69,20.69,0,0,0,6,3.69,20.47,20.47,0,0,0-6,3.68,32.43,32.43,0,0,1-5.57-3.69A32.78,32.78,0,0,1,78.66,185.18ZM64.67,168c.11-5.09,1.79-9.91,7.74-12.15a13.28,13.28,0,0,1,3.28-.72A22.32,22.32,0,0,0,64.67,168Zm17.18-14.9-.15,0a32.67,32.67,0,0,1-4.28.51,19,19,0,0,0-5.56,1c-9.41,3.53-9.32,12.56-8.19,20a25.61,25.61,0,0,0,7.21,14.18,25.51,25.51,0,0,0-7.24,14.21c-1.13,7.47-1.22,16.5,8.19,20a19,19,0,0,0,5.56,1,29.58,29.58,0,0,1,4.28.51l.15,0c1.9.41,3,1.07,3.34,2s-.5,2.21-1.13,4.24l0-.11A6.09,6.09,0,0,0,80.38,227c-3.55-1.56-9.48-1.24-15.48,4.31-.62.57-1.2,1.13-1.75,1.65-2.46,2.34-4.41,4.18-5.95,4.21h0c-1.54,0-3.49-1.87-6-4.21-.55-.52-1.13-1.08-1.75-1.65-6-5.55-11.93-5.87-15.48-4.31a6.09,6.09,0,0,0-3.62,3.74l0,.11c-.63-2-1.48-3.27-1.13-4.24s1.44-1.61,3.34-2l.15,0a29.58,29.58,0,0,1,4.28-.51,19,19,0,0,0,5.56-1c9.41-3.54,9.32-12.57,8.19-20a25.61,25.61,0,0,0-7.21-14.18,25.55,25.55,0,0,0,7.24-14.21c1.13-7.48,1.22-16.51-8.18-20.05a19.45,19.45,0,0,0-5.57-1,32.67,32.67,0,0,1-4.28-.51l-.15,0c-1.9-.42-3-1.08-3.34-2s.5-2.21,1.13-4.25l0,.12a6.12,6.12,0,0,0,3.62,3.74c3.55,1.55,9.48,1.24,15.48-4.31l1.75-1.65c2.46-2.34,4.41-4.19,5.95-4.21h0c1.54,0,3.49,1.87,6,4.21l1.75,1.65c6,5.55,11.93,5.86,15.48,4.31A6.12,6.12,0,0,0,84,147l0-.12c.63,2,1.48,3.28,1.13,4.25S83.75,152.71,81.85,153.13Zm-37.9-5,2.41-1.7c1.41-1,2.65-1.86,3.76-2.61-.5.48-1,1-1.59,1.49-5.47,5.07-10.76,5.42-13.89,4.05a6.17,6.17,0,0,1-1.54-1,5,5,0,0,0,.46.26,10.52,10.52,0,0,0,4.8,1.11A9.79,9.79,0,0,0,44,148.14Zm37,.41a5,5,0,0,0,.46-.26,6.17,6.17,0,0,1-1.54,1c-3.13,1.36-8.42,1-13.89-4.05-.56-.51-1.09-1-1.59-1.49,1.11.75,2.35,1.63,3.76,2.61l2.41,1.7a9.79,9.79,0,0,0,5.59,1.65A10.52,10.52,0,0,0,80.94,148.55Zm17.83-6a4.28,4.28,0,0,1,3.83,4.46c-.07,1.91-1.45,4-5.14,4.21-1.72.08-6.62.37-11.27,1a3,3,0,0,0,.41-.79c.71-1.95-.31-4.63-3.13-8.19a8.8,8.8,0,0,0-.65-.72,66.49,66.49,0,0,0,9.78.05A45.18,45.18,0,0,1,98.77,142.6Zm-24.21-8c0,4.35,1.7,5.85,4.69,7.4l1.41.87a2.94,2.94,0,0,1,1.47,2.18c0,.82-.69,1.65-1.9,2.29a9,9,0,0,1-8.87-.45c-.86-.59-1.66-1.16-2.41-1.69-5.79-4.07-8.74-6.11-11.73-6.16s-5.92,2.09-11.71,6.16c-.75.53-1.55,1.1-2.41,1.69a9,9,0,0,1-8.86.45c-1.22-.64-1.91-1.47-1.91-2.29a2.94,2.94,0,0,1,1.47-2.18s1.4-.87,1.42-.87c3-1.55,4.68-3,4.68-7.4s-1.7-5.86-4.68-7.4l-1.42-.87a2.94,2.94,0,0,1-1.47-2.18c0-.82.69-1.66,1.91-2.29a9,9,0,0,1,8.86.44L45.51,124c5.79,4.07,8.73,6.12,11.71,6.17S63.16,128.1,69,124l2.41-1.69a9,9,0,0,1,8.87-.44c1.21.63,1.9,1.47,1.9,2.29a2.94,2.94,0,0,1-1.47,2.18l-1.41.87C76.26,128.78,74.56,130.28,74.56,134.64Zm-41-14-.46.27a6.17,6.17,0,0,1,1.54-1c3.13-1.37,8.42-1,13.89,4l1.59,1.49c-1.11-.75-2.35-1.62-3.76-2.61L44,121.14a9.71,9.71,0,0,0-5.59-1.65A10.65,10.65,0,0,0,33.56,120.59Zm37,.68L68.14,123c-1.41,1-2.65,1.86-3.76,2.61L66,124.08c5.47-5.06,10.76-5.41,13.89-4a6.17,6.17,0,0,1,1.54.95,5,5,0,0,0-.46-.26,10.52,10.52,0,0,0-4.8-1.11A9.79,9.79,0,0,0,70.55,121.27ZM97.46,118c3.69.19,5.07,2.29,5.14,4.2a4.27,4.27,0,0,1-3.83,4.46,43.61,43.61,0,0,1-6.17,0,67.9,67.9,0,0,0-9.78,0,7.3,7.3,0,0,0,.65-.71c2.82-3.57,3.84-6.25,3.13-8.2a3.13,3.13,0,0,0-.41-.79C90.84,117.64,95.74,117.92,97.46,118Zm-21.77-3.9a13.26,13.26,0,0,1-3.28-.71c-6-2.24-7.63-7.07-7.74-12.15A22.3,22.3,0,0,0,75.69,114.11ZM95.87,87.75a3.58,3.58,0,0,1,.09.93c0,.08,0,.16,0,.23-.56,2.35-3,4.67-8.32,4.67h-.15c-3.23,0-6.54-1.08-8.17-2.92a4.37,4.37,0,0,1-.86-2.59,3.67,3.67,0,0,1,.91-2.37A25.88,25.88,0,0,0,95.87,87.75Zm-9-6.56c3.57,1.54,7,3,8.4,5.18A24.38,24.38,0,0,1,80.5,84.59a30,30,0,0,1,6.37-3.41Zm-8.23-7.32a3.8,3.8,0,0,1-.28-1.43c0-3.38,4.68-5.44,9.21-5.48h.15a12.43,12.43,0,0,1,4.67.79,7.53,7.53,0,0,1,2,1.18l.06.06.16.14a.23.23,0,0,0,.07.07,3.86,3.86,0,0,1,1.19,2.66,3.74,3.74,0,0,1-.08.89,26,26,0,0,0-16.46,2.16A4.38,4.38,0,0,1,78.65,73.87Zm16.55.26c-1.4,2.18-4.83,3.67-8.42,5.23h0A29.81,29.81,0,0,1,80.47,76,24.53,24.53,0,0,1,95.2,74.13ZM78.89,76.6a21.79,21.79,0,0,0,6,3.59,21.83,21.83,0,0,0-6.06,3.62,32.43,32.43,0,0,1-5.51-3.58A32.19,32.19,0,0,1,78.89,76.6ZM64.57,59.29c.11-5.08,1.79-9.91,7.74-12.15a13.26,13.26,0,0,1,3.28-.71A22.3,22.3,0,0,0,64.57,59.29Zm17.22-15-.15,0a31.13,31.13,0,0,1-4.28.52,18.78,18.78,0,0,0-5.57,1c-9.4,3.54-9.31,12.57-8.18,20a25.53,25.53,0,0,0,7.46,14.42,25.56,25.56,0,0,0-7.4,14.37c-1.13,7.47-1.22,16.5,8.19,20a18.66,18.66,0,0,0,5.56,1,31.13,31.13,0,0,1,4.28.52l.15,0c1.9.41,3,1.07,3.34,2s-.5,2.22-1.13,4.25l0-.11a6.09,6.09,0,0,0-3.62-3.74c-3.55-1.56-9.48-1.24-15.48,4.31-.62.57-1.2,1.12-1.75,1.65-2.46,2.33-4.41,4.18-6,4.21h0c-1.54,0-3.49-1.87-5.95-4.21-.55-.53-1.13-1.08-1.75-1.65-6-5.55-11.93-5.87-15.48-4.31a6.09,6.09,0,0,0-3.62,3.74l0,.11c-.63-2-1.48-3.27-1.13-4.24s1.44-1.61,3.34-2l.15,0A31.13,31.13,0,0,1,37,115.6a18.78,18.78,0,0,0,5.57-1c9.4-3.54,9.31-12.57,8.18-20a25.53,25.53,0,0,0-7.46-14.42,25.56,25.56,0,0,0,7.4-14.37c1.13-7.47,1.22-16.5-8.19-20a18.66,18.66,0,0,0-5.56-1,31.13,31.13,0,0,1-4.28-.52l-.15,0c-1.9-.41-3-1.07-3.34-2S29.71,40,30.34,38l0,.11A6.09,6.09,0,0,0,34,41.85c3.55,1.56,9.48,1.24,15.48-4.31.62-.57,1.2-1.12,1.75-1.65,2.46-2.33,4.41-4.18,6-4.21h0c1.54,0,3.49,1.88,5.95,4.21.55.53,1.13,1.08,1.75,1.65,6,5.55,11.93,5.87,15.48,4.31A6.09,6.09,0,0,0,84,38.11L84,38c.63,2,1.48,3.27,1.13,4.24S83.69,43.85,81.79,44.26ZM43.85,39.14l2.41-1.69c1.41-1,2.65-1.86,3.76-2.61l-1.59,1.49c-5.47,5.07-10.76,5.41-13.89,4A6.17,6.17,0,0,1,33,39.42a5,5,0,0,0,.46.26,10.52,10.52,0,0,0,4.8,1.11A9.79,9.79,0,0,0,43.85,39.14Zm37,.68.46-.27a6.17,6.17,0,0,1-1.54,1c-3.13,1.37-8.42,1-13.89-4L64.28,35c1.11.75,2.35,1.62,3.76,2.61l2.41,1.69A9.71,9.71,0,0,0,76,40.92,10.65,10.65,0,0,0,80.84,39.82Zm17.83-6a4.27,4.27,0,0,1,3.83,4.46c-.07,1.91-1.45,4-5.14,4.2-1.72.09-6.62.38-11.27,1a3.13,3.13,0,0,0,.41-.79c.71-2-.31-4.63-3.13-8.2a7.3,7.3,0,0,0-.65-.71,67.9,67.9,0,0,0,9.78,0A43.61,43.61,0,0,1,98.67,33.87ZM74.5,25.78c0,4.35,1.7,5.85,4.68,7.39L80.6,34a2.94,2.94,0,0,1,1.47,2.18c0,.82-.69,1.66-1.91,2.29a9,9,0,0,1-8.86-.44l-2.41-1.69c-5.79-4.07-8.73-6.12-11.71-6.17s-5.94,2.1-11.73,6.17L43,38.07a9,9,0,0,1-8.87.44c-1.21-.63-1.9-1.47-1.9-2.29A2.94,2.94,0,0,1,33.74,34l1.41-.87c3-1.54,4.69-3,4.69-7.4s-1.7-5.85-4.69-7.4l-1.41-.87a2.94,2.94,0,0,1-1.47-2.18c0-.82.69-1.65,1.9-2.29a9,9,0,0,1,8.87.45c.86.59,1.66,1.16,2.41,1.69,5.79,4.07,8.74,6.11,11.73,6.16s5.92-2.09,11.71-6.16c.75-.53,1.55-1.1,2.41-1.69A9,9,0,0,1,80.16,13c1.22.64,1.91,1.47,1.91,2.29A2.94,2.94,0,0,1,80.6,17.5s-1.4.87-1.42.87C76.2,19.92,74.5,21.42,74.5,25.78Zm-41-13.92a5,5,0,0,0-.46.26,6.17,6.17,0,0,1,1.54-.95c3.13-1.36,8.42-1,13.89,4.05.56.51,1.09,1,1.59,1.49-1.11-.75-2.35-1.63-3.76-2.61l-2.41-1.7a9.79,9.79,0,0,0-5.59-1.65A10.52,10.52,0,0,0,33.46,11.86Zm37,.41L68,14c-1.41,1-2.65,1.86-3.76,2.61.5-.48,1-1,1.59-1.49C71.34,10,76.63,9.67,79.76,11a6.17,6.17,0,0,1,1.54,1,5,5,0,0,0-.46-.26A10.52,10.52,0,0,0,76,10.62,9.79,9.79,0,0,0,70.45,12.27ZM97.36,9c3.69.19,5.07,2.3,5.14,4.21a4.27,4.27,0,0,1-3.83,4.45,43.35,43.35,0,0,1-6.17,0,66.49,66.49,0,0,0-9.78.05,8.8,8.8,0,0,0,.65-.72c2.82-3.56,3.84-6.24,3.13-8.19A3,3,0,0,0,86.09,8C90.74,8.64,95.64,8.93,97.36,9ZM71.79,5.78a19.45,19.45,0,0,0,5.57,1,32.67,32.67,0,0,1,4.28.51l.15,0c1.9.42,3,1.08,3.34,2s-.5,2.21-1.13,4.25l0-.12a6.12,6.12,0,0,0-3.62-3.74C76.8,8.14,70.87,8.45,64.87,14l-1.75,1.65c-2.46,2.34-4.41,4.19-5.95,4.21h0c-1.54,0-3.49-1.87-6-4.21L49.47,14C43.47,8.45,37.54,8.14,34,9.69a6.12,6.12,0,0,0-3.62,3.74l0,.12c-.63-2-1.48-3.28-1.13-4.25s1.44-1.6,3.34-2l.15,0A32.67,32.67,0,0,1,37,6.74a19,19,0,0,0,5.56-1Z" style="fill:url(#linear-gradient)"/><polygon points="108.58 765.36 5.55 765.36 8.23 763.14 105.9 763.04 108.58 765.36" style="fill:#c7a315"/><polygon points="105.9 763.04 8.28 763.04 8.23 760.29 105.9 760.29 105.9 763.04" style="fill:#ede6a1;stroke:#ede6a1;stroke-miterlimit:10;stroke-width:0.25px"/><polygon points="106.03 760.16 8.13 760.17 9.58 759.03 104.84 759.03 106.03 760.16" style="fill:#c7a315"/><rect x="5.55" y="765.36" width="103.03" height="4.64" style="fill:#f7f3cb"/><polygon points="106.36 25.26 7.55 25.26 9.23 26.45 104.72 26.45 106.36 25.26" style="fill:#c7a315"/><rect x="2.13" y="11.37" width="109.7" height="4.65" style="fill:#f7f3cb"/><polygon points="111.83 16.02 2.13 16.02 4.98 18.24 109.04 18.24 111.83 16.02" style="fill:#c7a315"/><rect x="4.98" y="18.35" width="103.99" height="2.75" style="fill:#ede6a1;stroke:#ede6a1;stroke-miterlimit:10;stroke-width:0.25px"/><polygon points="109.04 21.24 4.98 21.24 7.55 22.23 106.35 22.23 109.04 21.24" style="fill:#c7a315"/><rect x="7.7" y="22.36" width="98.55" height="2.75" style="fill:#ede6a1;stroke:#ede6a1;stroke-miterlimit:10;stroke-width:0.25px"/><rect x="9.23" y="26.45" width="95.49" height="4.16" style="fill:#ede6a1;stroke:#ede6a1;stroke-miterlimit:10;stroke-width:0.25px"/><polygon points="111.83 11.38 2.13 11.38 0 7.94 113.69 7.94 111.83 11.38" style="fill:#c7a315"/><rect width="113.69" height="7.94" style="fill:#d6aecf"/><polygon points="107.55 862.29 6.94 862.32 8.51 861.17 105.97 861.17 107.55 862.29" style="fill:#c7a315"/><rect x="1.4" y="871.5" width="111.71" height="4.64" style="fill:#f7f3cb"/><polygon points="113.11 871.5 1.4 871.5 4.2 869.28 110.33 869.28 113.11 871.5" style="fill:#c7a315"/><rect x="4.31" y="866.43" width="105.9" height="2.74" style="fill:#ede6a1;stroke:#ede6a1;stroke-miterlimit:10;stroke-width:0.25px"/><polygon points="110.33 866.29 4.2 866.29 7 865.28 107.55 865.28 110.33 866.29" style="fill:#c7a315"/><rect x="7.08" y="862.42" width="100.35" height="2.74" style="fill:#ede6a1;stroke:#ede6a1;stroke-miterlimit:10;stroke-width:0.25px"/><rect x="8.64" y="856.93" width="97.24" height="4.15" style="fill:#ede6a1;stroke:#ede6a1;stroke-miterlimit:10;stroke-width:0.25px"/></g></g></svg>