<svg xmlns="http://www.w3.org/2000/svg" xmlns:xlink="http://www.w3.org/1999/xlink" viewBox="0 0 1922.5 263.66"><defs><linearGradient id="linear-gradient" x1="0.5" y1="131.27" x2="1921.8" y2="131.27" gradientUnits="userSpaceOnUse"><stop offset="0" stop-color="#b8744c"/><stop offset="0.5" stop-color="#693723"/><stop offset="1" stop-color="#422627"/></linearGradient></defs><title>temple-base</title><g id="Layer_2" data-name="Layer 2"><g id="Layer_1-2" data-name="Layer 1"><polygon points="1919.8 261.27 0.5 261.27 2.5 1.28 1921.8 1.28 1919.8 261.27" style="stroke:#8c6239;stroke-miterlimit:10;fill:url(#linear-gradient)"/><path d="M583,1.28c-3.44,14-21.51,24.71-26.31,22.59-3.51-1.55,2.2-9-.77-22.59" style="fill:none;stroke:#4a87ff;stroke-miterlimit:10;stroke-width:4px"/><path d="M397.45,3.28c4.28,9.62,13,13.2,8.39,16-11.6,6.89-27.42-8-48.25-16.3" style="fill:none;stroke:#4a87ff;stroke-miterlimit:10;stroke-width:4px"/><path d="M1211.61,261.28c-1.21-13.93-17.32-22-13.3-31,4.24-9.47,25.5-10.13,25.08-12.33-.55-2.89-145.55,39.53-80.25-1.45,15.42-9.68-54-3.94-48.79-6.16,40.13-17.05,33.27-40,48.79-14.87,18.06,29.26,15-16.32,36.93-21.39,24.32-5.64-35.73-51.65-40.12-49.32-2.5,1.33,35.91,29.21,11.85,26.11-14.18-1.83,29,21.29-.91,12-6.59-2.06,21,21.39-9.57,13.78-7-1.76,4.1-8.34-17.33-9.8-20.77-1.4,10.88-21,7.75-19.94-13.68,4.72-15.5-28.28-20.06,9.79-1.17,9.73,4,16-.91,20.31-3.35,2.94-10.18,2.33-14.59.72-5.55-2,6-16.14,4.1-15.23-42.41,20.31-21.25,45.45-56.08,55.48-9.85,2.84-26.91,10.52-26.91,10.52l1.37,11.24,34.2,17s32-11.49,39.21-6.89c3.35,2.15,2.47,7.46,5.85,11.42" style="fill:none;stroke:#4a87ff;stroke-miterlimit:10;stroke-width:4px"/><path d="M1921,105.84c-6.56-1.15-11.6-.81-8.34,6,5.82,12.11-11.52-.9-10.88-1.72,29.83-39,14.58-26.93,10.67-25.38-39,15.51-13.75-49.81,9.1-51.15" style="fill:none;stroke:#4a87ff;stroke-miterlimit:10;stroke-width:4px"/><path d="M1752.76,261.27a46.86,46.86,0,0,0,4.6-12.59c1-5.52,2.29-12.15-2.61-15.5-3.37-2.31-9-2.63-12.77-.84-7.69,3.71-4.74,15.35-4.43,16.55,1.07,4.22,2.46,3.7,4.17,9.22a27.91,27.91,0,0,1,.79,3.16" style="fill:none;stroke:#d84aff;stroke-miterlimit:10"/><path d="M1794.83,261.35c-5.91-5.26-13.41-5.1-16.35-11.83-.74-1.69-.58-4.76-.26-10.89.6-11.65,2.27-13.12.78-17-2.73-7.06-15.64-10.89-15.64-10.89s-1.18,10.29,1,19.27c2.07,8.37,4,11,2.61,16.13-1.15,4.22-3.8,7.47-5.74,9.85a48.55,48.55,0,0,1-5.53,5.71" style="fill:none;stroke:#d84aff;stroke-miterlimit:10"/><path d="M1855.79,261.27a10,10,0,0,0-2.49-5.67c-1.28-1.39-6.15-3.51-15.9-7.75-6.11-2.66-6.27-2.58-7.3-3.36-1.93-1.45-4.46-4.09-7-15.5-1.86-8.22-3.39-11.31-3.39-11.31s-9.08,5.12-12.51,8.8c-6.07,6.51-9.11,9.77-8.61,13.62.89,6.81,10.87,7,13.82,15.92a20.41,20.41,0,0,1,.24,5.25" style="fill:none;stroke:#d84aff;stroke-miterlimit:10"/><path d="M1702.38,261.27c3.29-3.43,8.18-8.3,14.57-14,15.66-14.1,7.4-20,9.56-19.48,17.51,3.88-2.26-12.36-2.26-12.36s-27.93-14.57-29.2,3.77c-1.56,22.62-7.37,10.09-7.82,9.21-9.73-18.71-7.12,8.1-15.12-10.89-1.11-2.62,16.45-2.25,26.33-12.15a16.53,16.53,0,0,0,4.69-7.12c2.4-8.19-4.38-15.74-5.73-17.18a48.13,48.13,0,0,0-6.52-5.86l6.78-17.39s8.37-7.14,15.38-6.28c5.86.71,15.38,10.47,15.38,10.47s10.73,5.11,15.91,6.7c9.7,3,15.53,2.64,31.28,3.56,37.33,2.21,46.41,9.64,46.41,9.64s.82,2.84,4.69,8.38c7.8,11.15,15.37,11.27,20.86,20.32a40.67,40.67,0,0,1,5.47,13.62s10.69,0,17-19.07c2.41-7.34,5.21-9.84,12.25-6.28,5.16,2.61,8.59,1.4,13.3,0,7-2.09,8.2-9.35,10.17-9,3.23.56-15.13,30.79-1.57,29.33,8.75-1,15.9,11.61,15.9,11.61l-14.76,1.59s-2.13,14.13-3.22,14.45c-10.68,3.08-14.18-.06-19.3,1.88-4.94,1.88-6.6,6.68-7.35,12.59" style="fill:none;stroke:#d84aff;stroke-miterlimit:10"/><path d="M487.18,1.28l20,7,4.17,12.56,1,22.63S539.51,63.66,537.56,67c-1.57,2.73-20.58.48-36.5-7.54-4.39-2.22-3.16-16.1-28.15-26.81,0,0-.19-15.82-6.26-23.47-3.77-4.75-9-6.92-14.39-8.29" style="fill:none;stroke:#b900d4;stroke-miterlimit:10"/><path d="M575.23.93a11.61,11.61,0,0,1,3,10c-2.2,15.29-22,27.41-27.11,25.14-3.65-1.63,2.54-9.67-1-24.3A56.71,56.71,0,0,0,546.21,1.4" style="fill:none;stroke:#b900d4;stroke-miterlimit:10"/><path d="M519.11,96.45c3.71,36.48-76.44,62.54-37.06,55.09,3.75-.71,16.68,5.58,13,18.61-4.77,16.79,55.75-10.78,57.45-28.66,1.17-12.34-14.91-19-10.66-26.05,4.58-7.61,39.84-1.12,39.84-1.12s5.38,30.88-7.87,42.06c-12.24,10.32-24.31,6.74-38.45,20.1-6.06,5.72-13.83,15.8-9.73,21.22,2.06,2.72,25.48,13,18.06-1.49-5.49-10.76,16.74,15.68,17.15,21.21.85,11.54-8.79-10.12-7.88,10.05.43,9.68-15,8.14-14.82,11.54.18,2.92,4.12,5.63,7.87,6.33,3.92.73,7.38-.77,16.68-6,14.43-8,14.07-8.9,17.6-10,8-2.59,14.26.39,30.58,4.84,12.15,3.32,46.24,12.63,51,6.7,1.74-2.19-.46-7.87-1.86-7.07-14.45,8.25-55.59-50.25-84.77-32.38-17.07,10.45-16-36.26,18.06-30.15,17.16,3.08,15-3.56,21.31-11.54,6.61-8.3-1.31-13.6-2.78-38.71-.49-8.5.3-9.81,0-38.71-.13-13.47,8.34-16.75-3.24-19.36-1-.24,6.49-28.66-19,25.31-6.28,13.3-18.08,12.29-23.63,13.78-12.41,3.32-25.12,1.88-21.31-1.87,35.21-34.61,6-11.91.46-13.4-1.19-.31-10.65,15.27-17.14,4.1C525.58,86.85,519,95.27,519.11,96.45Z" style="fill:none;stroke:#b900d4;stroke-miterlimit:10"/><path d="M768.05,1.19c-2.42,5.88-8.19,11.27-17.77,7.42-1.92-.77-2.32-4.75-3.43-7.42" style="fill:none;stroke:#d84aff;stroke-miterlimit:10"/><path d="M703.73,1.19c1.42,3.11,17.32,3.37,17.36,4.44,0,1.24-11.13,2.24-23.16,4.09-14,2.17-21.19,3.33-29.19,7.08-6.26,2.93-12.69,5.95-15.75,11.91-2.9,5.66,1.86,4.39,1.86,10.42,0,8.19-18.09,10.46-17.61,11.17,3.35,5,12.22,1.94,12.22,7.81,0,1.34,14.46-8.94,15.07-12.79a10.26,10.26,0,0,0-1.35-5.07c-1.91-2.55,1.38-3.92.93-6.7-1.67-10.43,12.72-6,19.46-3a13.24,13.24,0,0,1,6.48,6c4.43,9.21-6.75,21.46-7.41,21.22s-11.28,7.17-11.58,7.07a19.52,19.52,0,0,1,6,11.54c.08.47.53,3.06.93,6.7.31,2.82.43,4.84.46,5.21.33,4.29,13,8.19,18.07,23.08,3,8.66,24.15-9.93,22.24-16.38-1.8-6-16-5.11-18.07-11.91-1.67-5.43,5.66-11.7,11.58-14.51,4.18-2,13.48-5,18.53-1.49,4.71,3.28,3,10.34,2.78,11.16-1.42,5.81-5.76,6.45-6,11.17-.28,5,4.43,5.57,4.63,10.42.25,6-2.78,10.42,5.56,17.5.69.58-33.36-11.54-14.36,11.91,4.12,5.09,9.83,8.69,23.62,14.89,11.79,5.29,13.47,4.48,13.9,4.09,1.38-1.24-2.53-4.18-3.24-8.56-3.24-20.1,21.1-.37,15.29-16.38-1.32-3.62-15.65-6.47-20.39-9.3-3.2-1.92-8.82-6.37-9.26-11.91-.59-7.44,12.92-13.37,14.36-33.13.46-6.38,17.21-9.93,17.6-13.65s-11.22.12-13.43-9.43c-2.85-12.3,8.87-12.77,8.8-15.63-.14-5.67-2.52-14.45-1.39-17.13,2.54-6,7-7.17,8.81-11.88" style="fill:none;stroke:#d84aff;stroke-miterlimit:10"/><path d="M2,72.13C28.72,75.7,38.72,34.54,44.27,47.32c4.5,10.33,79.35,30.35,92.19,17.12,14.19-14.63-9.12-49.92-20.84-49.13-6.77.45-6.14,12.69-20.85,18.61-11.27,4.54-22.9,1.89-24.55,1.49-4.62-1.11-8.34-7.82-15.75-8.56C44,25.8,72.94,13.12,77.54,1.28" style="fill:none;stroke:#b900d4;stroke-miterlimit:10"/><path d="M387.05,1.28c-.87,17,17,25.9,10.69,29.66C384.86,38.66,346.79,1.5,328.25,10.1c-8.37,3.88-11,16.26-6,23.45,5.94,8.57,37.84,31.28,55.57,25.31,10.67-3.6,39.4-33.49,35.23-13C411.72,52.25,401.45,70,401.45,70s-79.93,6.54-95-16c-5.64-8.46-10.35-28.59-13.9-20.85-6.49,14.15-25.44,4.57-34.28,5.59-3.24.37,16.6,11.31,15.29,11.54S258,67.24,259.69,66.67s7.57,10.15,23.16.75c2-1.22,8.22,1.56,8.8,3.35S285.63,81,264.78,81c-14.45,0-7.71,13.75-10.65,17.69-5.69,7.6-9.21,16-10.19,16-1.24,0,1.84-17.28,1.85-33.69,0-13-16.23-9.39-19.46-13.21-6.19-7.32-9.79-10.85-16.67-11.91-2.58-.4-5.09-.65-6-.74a177.38,177.38,0,0,0-19.45-.38S177.94,66.69,168,74.49c-6.87,5.38-18.45,13.86-38,8.19-38.45-11.17-24.56,11.91-38,26.06S54.24,75.22,27.31,76.56c-19.77,1-17,24-25.35,14.32" style="fill:none;stroke:#b900d4;stroke-miterlimit:10"/><path d="M225.19,261.27c-6.68-8.28-24.71-20.84-26.72-34.56-2-13.87-3.44-23.39,1.39-33.87,6-13,18.82-21.73,30.11-41.69,1.14-2,2.85-8.67,1.39-7.07-10.19,11.13-27.36-.25-22.24,7.07,8.34,11.91,0,21.59-28.26,28.66-8.31,2.08-21.92.33-18.53,6.7,9.73,18.27-4.48,17.08-8.34,13.77-21.31-18.24.48,22.55-2.31,23.45-3,1-6-11.32-17.61-19.35-31.75-22-.89-20.85,10.2-52.11,5.32-15,2.5-22.12,2.31-30.9-.46-21.59-11.12,2.61-17.14-13-.73-1.9-14.31,27.14-2.78,22,19.92-8.93,1.57,22.38-.46,24.94C116,168.16,95.43,180,86.82,175.72c-6.75-3.34,1.51-12.31,8.34-20.51,4.2-5.05,3.24-25.28-1.06-17.56-10.29,18.51-26.19,14.15-29,8.29-1.2-2.47-8.8-18.55-8.8-18.55s-7.66,19.11-4.64,34.55c2.71,13.85,20.22,13.76,29.65,32.76,1.82,3.65,7.28,15.13,2.32,27.92-.86,2.21-8.44,20.83-25.48,21.58-8.46.38-19.09-3.65-20.85-9.67-3-10.17,21.06-20.24,17.61-26.06-3-5.05-22.08.79-27.8-5.95-3.22-3.8,1-8.1,3.71-17.5C40,153.3,8.43,173.57,26.6,153.3c9.26-10.34,8.5-37,7.41-37.14s-7.34,9-11.58,19c-6.49,15.26-17.57.44-17.14,4.84,3.7,38.34,10.38,15,13,33.13,1.6,11.21-2.37,21.5-5.56,29.78C7.77,215.68,4,216.52,3.9,223.36,3.82,233,11.31,239.91,24.74,252c2.22,2,5.44,5.36,9.05,9.25" style="fill:none;stroke:#b900d4;stroke-miterlimit:10"/><path d="M437.62,261.27a33.72,33.72,0,0,1-.51-3.77c-1.3-18.46-4.05-24.49-.92-26.09,1.88-1,6.15-.46,17.14,7.45,1.89.71,9.73-18.61,9.73-18.61l36.13-9.68,2.32-16s-14.37-10.2-19.92-11.54c-25.92-6.23-55,.64-88,3-3.23.23-10.51.67-15.29-3-2.57-2-5.17-5.68-4.17-9.3,1.7-6.12,12.11-6.28,13.44-12.28.57-2.59,3.24-16.75-2.78-7.45-6.24,9.64-8,1.33-12.51,2.23-25.94,5.3,4.87-19.65,5.54-19,1.53,1.52,9.71,10.37,24.57.37,11.07-7.44,17.61-16.37,26.87-10.42,4.83,3.11-4.77-8.64-4.17-13.4,6.49-51.36-6.49-19.59-8.8-18.24-2.62,1.54.43,15-2.32,18.61s-2.31,11-6.95,10.11c-1.71-.31-9.34-6.56-9.72-6.76-8.62-4.48-37.61-1.07-43.09-11.91-6-11.91-6.56,4.78-14.82,6-4.66.66-3.92-20.55-17.6-6.56-7.88,8,2.24,17.39-3.25,19.27-8.31,2.85-17-7.55-19.45-3C291.65,135,288.47,116,283.31,119c-1.59.93-18.06,5.27-5.55,6.33,22.87,1.93-13.35,14-10.66,17.12C282.39,160,252,145,239.31,154c-3.34,2.38-11.19,10-6.95,8.93,17.6-4.46,11.5,8.18,13,8.57,8.49,2.22,11.39-.47,19.45.74,11.54,1.73,22.63,9.77,21.31,14.89-1,4.1-10,6.13-15.75,7.44-11.8,2.69-21.5-9.42-26.4-5.58-3.33,2.61,41.69,14.89.92,19.73a2.14,2.14,0,0,0-.59.1c0,.11,3.52,0,7.34-.06,5.82-.08,4.13,12.85,7.3,15.26,12.86,9.78,16.59,17.33,16.68,16.76,3.13-18.43-7.29-37.85,2.43-29.46,5.79,5,9,4.67,11.06,4.2,14.63-3.29,4.29-56.3,30.83-12,30.11,50.25,27.08-1.19,56.06,0,14.39.59,21.63,1.34,29.18,5.21,12.63,6.46,21.46,19.25,17.6,23.45-1.64,1.79-5.24,1.65-9.26,1.49-17.34-.69-24.08-16.2-30.11-13.4-3.65,1.69,15.75,13.77-22.7,14.14-12.6.12,36.9,6.71,38,8.56,4.55,7.74.32,2.52,14.82,11.54,2.19,1.36,5.76,3.64,8.05,6.77" style="fill:none;stroke:#b900d4;stroke-miterlimit:10"/><path d="M1258.55,261.28a39.4,39.4,0,0,0-11.66-7.32c-8.31-3.44,4.54,7.52,22.15-17.16,1-1.38,5.29-10.5,2.4-16-6.49-12.28-15.1-3.36-31.5-21.21-14.36-15.64-28.62,0-32.89-4.84s15.77-9.66,15.75-23.08c0-11.21-18.58-24.23-23.16-38.34-4.14-12.75-3.7-21.88-6.49-32.75-3.24-12.66-7.41,20.84-30.58-7.82-3.6-4.47-7.28-6-8.8-9.31-4.58-10.12,7.28-17.23,3.71-23.07-4.6-7.53-31-6.71-51,.37-15.15,5.37-34.27,17.06-32,26.43,1.08,4.41,7,8.85,16.67,16,5.2,3.87,8.94,6,9.27,9.68.29,3.31-2.5,3.57-5.1,9.3-3.34,7.39-2.25,14.78-1.85,17.5.42,2.89,1.14,5.17.93,5.21-.57.11-1.19-17.31-14.83-27.92-7.17-5.57-9.5-2.7-24.09-10-8.58-4.32-21.92-11.22-27.33-23.07-2.51-5.52,1.66-7.48-2.32-14.15-12.81-21.46-40.76-21.63-22.23-38.34.56-.5-32.43-18.61-32.89-8.93-.12,2.4,22.65,10.79,7.41,14.14-12.44,2.75-24.68,6.18-29.28,4.23C894.35,17.6,956.3,58.11,961.06,63c5.33,5.5,19.92,1.86,21.77,10.8,1.45,7,11.7,7.87,18.07,13.4,8,7-.37,24,4.17,29.4,8.34,9.87,25.95,3.63,27.33,7.45,2.47,6.79,4.17,11.87-5.56,21.21-5.61,5.39,7.05,28.29,5.56,28.29-1.9,0-15.75-10.05-11.12-12.28,6.91-3.34-1.39-7-.92-9.31,6.48-32-18.54,11.91-19-13.77,0-2.58-6.57,3.86-11.58,4.47-.72.08-1.33-.44-1.17-1,1.16-4.13-4.62-22.56-8.1-28.4-.79-1.34-2.34-2.87-20.38-7.44-19.69-5-21-4-28.26-7.08-5.43-2.32-18.84-8-20.38-17.12-.56-3.29.79-5-.93-8.56-.2-.43-3.62-7.29-11.11-8.56-5.61-1-10.29,1.77-16.22,5.21-5.34,3.11-8.73,6.38-14.82,12.28-6.55,6.34-5.17,6-7.41,7.45-6.33,4.07-13.41-.75-26.87,5.21-5,2.23-10.35.57-10.66-.37-.71-2.15,22.78-4.46,32.89-18.24,1-1.41,7.08-9.65,2.78-15.63-3.37-4.71-11.74-6.07-17.14-6-11,.23-9.27,3.49-18.91,5.18-17.22,3-19.07.19-19.08-1.46,0-2.6,16.49-5,26.41-8.93,15.26-6,9.55-12.65,22.24-31.27,7.15-10.49,16-11.93,25.9-16.69" style="fill:none;stroke:#d84aff;stroke-miterlimit:10"/><path d="M1309.56,1.28c9.68,15.32,17.64,27.59,30.9,7.76,16.68-24.94,20.39,33.87,12.51,51.74-1.68,3.82-11.58-42.06-37.06-14.15-18.49,20.27-41-18.72-51.88-20.1-22.31-2.8-51.28,2.92-55.59,15.26-2.62,7.5,2.29,25.23,11.58,22.34,14.36-4.47,13,23.82,36.13,4.09,4.57-3.89.7,17.5,1.39,20.1.6,2.24,2.62,11-5.56,25.69-8.31,14.88-14.74,13.6-17.6,22.33-2.54,7.74,3.68,18,16.21,38.34,11.1,18,16.65,26.95,24.09,33.5,12.27,10.8,22,13.31,22.24,21.59.93,34.61-5.68,8.28-13,12.28-7.64,4.19-13.49,8.52-16.68,13a7.22,7.22,0,0,0-.86,6.19" style="fill:none;stroke:#d84aff;stroke-miterlimit:10"/><path d="M685.28,261.27a44.68,44.68,0,0,1,15-5.88c17.1-2.79,43.86,11.27,36.13,1.49-18.53-23.45,25-9.76,19.92-20.1-12-24.57,20.44.05,34.28,4.09,14.51,4.24,53.7,15.4,45.86.75-27.83-52.06,57.45,19.73,86.17-7.45,21.45-20.29,49.44-15.34,66.24-7.44,8.2,3.85,13.32,10.27,16.22,8.93,3.44-1.58,1.91-13.22-6-21.59-11.06-11.65-23-8.7-34.75-17.86-9.86-7.69-39.38-11.91-5.09-27.92,16-7.49,6.19-23.14,6-25.68-.93-13.4-7-14.89-13.9,8.93-9.27,31.77-19.18,11.88-20.38,15.26-3.38,9.45,10.17,16.56,5.09,26.06-.86,1.61-2.43,2.93-5.56,5.58-10.43,8.82-24.72,15.53-27.33,13.4-.71-.58.14-2.75,1.85-7.07,2.1-5.28,3.35-7.17,4.17-9.31,2.15-5.61-.54-8.09-.92-14.89-.7-12.46,9.16-23.52,4.17-20.84-8.34,4.47-19.92-37.7-27.34,3-.54,3,10.2-1.49,10.2,11.54,0,1.08-1.85,4.86,1,8.21,7.3,8.54-10.76,9.28-6.59,14.12,5.93,6.89-11.29,7.16-14.36,6.33-1.74-.47-2.34-2.46-3.71-16.38-.87-8.83-1.31-13.25-1.39-16.75-.19-8.23-.33-14.18.93-20.47,3.34-16.76,14.6-25.89,12.5-27.17-1.59-1-6.91,5-23.62,16-7.45,4.9-11.62,7.16-11.12,10.05.74,4.27,10.63,3.78,13.9,10.05,1.07,2.06.4,5.71-.93,13-1,5.57-1.52,8.36-2.78,10-3.4,4.56-8.35,4-17.6,7.82-6.48,2.67-12.35,7.11-24.09,16-7.43,5.63-12.18,9.81-13,9.31-1-.63,5.78-7.33,9.73-18.61.68-2,3.08-9.2.92-10.05s-5.94,5.51-15.28,7.44c-1.69.35-6.16,1.27-7.88-.37-2.17-2.07,1.23-7,2.78-9.31,3.84-5.61,6.69-5.72,8.34-9.3.9-2,.77-3.52-2.32-13-4.74-14.59-6.21-16.37-8.34-17.87C787.11,139.59,779.67,139,779,140c-.56.85,3.77,2.58,7.87,7.82,1.92,2.44,3.81,4.92,3.71,8.19-.09,3-1.8,7-4.63,7.44s-4-3.35-10.19-6.7c-6.43-3.48-14.25-4.33-14.83-3.35-.32.55,1.59,1.63,4.63,3.72a149.23,149.23,0,0,1,12.51,10c10.56,9.31,2.57,43.24-11.58,45-6.23.79-11.94-4.86-21.31-14.14-19.59-19.41-44.93-67.75-37.17-29.41,1.73,8.52-23,10.6-31.85,2.24C640.49,137,658.32,175.56,665.5,185c6.49,8.56,24.09,13.77,37.52,5.21,5.65-3.6,6.44,6.43,11.12,22a15.22,15.22,0,0,1,.93,7.07c-2,14.7-14.45,33.58-48.18,35.74a49.3,49.3,0,0,0-11.32,1.91c-1.38.42-15.68-1.31-19.13,4.34" style="fill:none;stroke:#d84aff;stroke-miterlimit:10"/><path d="M1208,261.28c-3.91-4.82-7.28-8.91-5.16-13.71,4.3-9.72,25.9-10.39,25.48-12.65-.56-3-147.88,40.57-81.54-1.49,15.67-9.93-54.89-4-49.56-6.33,40.76-17.49,33.8-41.06,49.56-15.26,18.35,30,15.29-16.75,37.53-22,24.71-5.79-36.3-53-40.77-50.62-2.54,1.36,36.49,30,12.05,26.8-14.41-1.88,29.48,21.85-.93,12.28-6.69-2.11,21.31,22-9.73,14.15-7.15-1.81,4.17-8.57-17.6-10.05-21.1-1.45,11.05-21.58,7.87-20.48-13.9,4.84-15.75-29-20.38,10-1.18,10,4.07,16.4-.93,20.85-3.39,3-10.34,2.4-14.82.74-5.64-2.08,6.1-16.57,4.17-15.63-43.08,20.84-21.59,46.65-57,56.95-10,2.91-27.33,10.79-27.33,10.79l1.39,11.54,8,4" style="fill:none;stroke:#d84aff;stroke-miterlimit:10"/><path d="M1921.8,22.15c-7,4.14-14.46,6.44-13.93,8.3,9.26,32.76-13.29,2.86-14.83,6-2.52,5.07,8.29,9.08,10.66,18.24,3.75,14.52-17.16,28.76-20.39,30.89a65.64,65.64,0,0,1-35.2,10c-1.33,0-11.94-.2-12.51-2.6-.7-3,15-3.94,24.55-14.15,6.55-7,9.56-15.17,7.88-23.08-3.25-15.26,9.45-29.38,5.56-30.15-2-.38-12.79,17.46-13.44,18.24-4.75,5.72-2.47,11.18-3.24,16-1.92,12-22.69,20.49-36.13,23.08-12.94,2.49-.47,36.85-30.12,0-13.52-16.81-2.3,26.49-12,30-4.86,1.73-27.45-26.23-28.26-27-5.56-5.21,18.86-16.72,30.11-18.23,13.43-1.81,37.68,5,43.55.37,2.32-1.84,22.23-37.22,7.87-20.47-5.08,5.92,5.19-28.66,1.39-29.41-2.34-.46-1.46,18.76-9.26,13.77-8.88-5.67,5.12,13.41,1.39,18.61-2.64,3.68-9,5.9-12.51,4.47-1.51-.62-2.84-2.07-3.71-8.19-1.83-13,2.29-20-1.85-22.7-1.88-1.23-5,2-8.34,2.6-14.68,2.53-36.13,16.92-46.3,2.1C1742,13.25,1731.48,50,1733.64,54c17.89,33.3,9.33-19.27,39-12.35,10.76,2.52,20.27-7.26,22.23-5.21.53.55.64,1.71-1.39,4.47-10.32,14-41.41,22.16-53.73,39.45C1730,94,1734.51,109.76,1736,115c1.54,5.34,19.86,12.19,17.6,25.68-3.24,19.36,62.54-43.55,32.89,11.17-15,27.65,57.48-44.36,74.13-39.46,7.77,2.29-60.36,45.28,13.43,22.34,21.37-6.65,36.31-7.65,47-2.48" style="fill:none;stroke:#d84aff;stroke-miterlimit:10"/><path d="M1915.39,1.46c-2.76,6.43,1.49,8.35,6.34,9.13" style="fill:none;stroke:#e7a623;stroke-miterlimit:10"/><path d="M1921.09,93.49c-27.31,7.15-16.5-34.09.71-48.85" style="fill:none;stroke:#d84aff;stroke-miterlimit:10"/><path d="M1920.79,124.33c-3.71-1.76-8.56-5.77-8.2-6.21,3.2-3.9,6-7.34,8.39-10.37" style="fill:none;stroke:#d84aff;stroke-miterlimit:10"/><path d="M1383.53,1.28c-1.37,2.47-1,4.58-.91,8.53.14,9.55-5.08,10.13-5.56,10-.22,0,3.42,13.92,5.1,14.88,0,0,5.11-8.91,9.26-10.79,4.83-2.19.07-22.83,4.89-22.67,24.75.81,43.69,10.93,24.76,14.85-6.46,1.34,8,22,9.73,28.66a47.51,47.51,0,0,1-2.32,30.15l11.12-4.83s8.19-19.07,7.88-22c-.93-8.65-4.85-8.68-7-19-1.21-5.92-3.43-16.79,3.7-21.21,4.55-2.83,11-1.88,16.22-1.12,4.71.69,11.35,1.66,13.9,5.95,2.08,3.52.26,7.29,0,7.82-1.62,3.22-4.13,3.3-6.49,6-3.78,4.25-1.85,16-1.85,16l-4.64,13.77,15.29-12.65s-.29-10,3.25-16.75c2.43-4.69,6.27-7.52,9.26-9.68C1505,5.85,1528.55.87,1528.55.87" style="fill:none;stroke:#d84aff;stroke-miterlimit:10"/><path d="M1655.71,261.72l7.64-16s-16.11-30.31-14.82-52.11a55.54,55.54,0,0,1,18.07-36.1c15-13.58,28-10.84,39.37-24.94,5.21-6.48,7.39-30.92,7.39-30.92s5.88-40.15,5.12-40.18-12.07,32-12.07,32-21.18,18.1-36.11,20.5c-6.52,1-9.69.63-19.45,2.6-12.54,2.53-22,4.55-24.56,10.42-1.55,3.56-.43,8.2,2.78,11.17,6.36,5.86,17.11,1.69,20.85,6.33s-2.83,13-7.41,17.12c-1.21,1.08-11.57,10.1-23.63,8.56-9.84-1.25-12-8.42-22.7-8.93-7.26-.35-10.63,2.72-12,1.49-4.09-3.57,20.36-32.14,34.28-48.39,3-3.56,9.2-10.69,6.48-17.5-1.77-4.44-6.59-6.93-8.33-7.81-13.16-6.62-27.15,1-31.51-3.72-2.7-2.92,2.2-6.38,6.49-22.34,2.28-8.48,0-18.26,0-18.26l-9.26-8.93-18.53,27.17-13.9,13s4.57,5.1,13.92,11.56c9.5,6.55,9.65,8.94,14.37,9.68,7.85,1.22,12.94-4.55,16.67-2.61,3.22,1.68,3.72,8.2.47,13-6,8.87-19.94,5-38,16.38-6.94,4.37-10.62,8.57-10.66,13a9.75,9.75,0,0,0,1.39,4.84c5.46,10,12.58,19.72,15.29,23.83,5.08,7.66,9.83,14.85,8.34,23.45-1.59,9.18-9.5,15.2-11.58,16.75-12,8.86-27.18,8.45-50.5,7.81-12.87-.35-14.37-1.7-14.82-2.6-2.61-5.28,22.29-12.22,28.26-30.15,2.61-7.85,1.85-18.59-4.63-21.59-7-3.27-16.91,4.39-25.95,0a12.94,12.94,0,0,1-6-6c-3.37-7.31,13-30.89,13-30.89l1.85-16.38-4.63-6.7-37.52,18.24s-12.76,2.65-13.9,5.58c-1.71,4.43,7.17,8.11,15.75,20.85,4.42,6.55,7.29,11,5.56,15.63-1.36,3.66-4.19,3.81-13.43,11.17-7.71,6.13-11.57,9.19-13,13.4-1.87,5.55,1.66,7,0,14.14-.73,3.13-2,8.57-7.42,11.91-8.83,5.43-21.62.94-23.16.37-5.91-2.15-14.84-7.47-13.9-12.65.73-4,6.57-4,17.14-10.8,4.17-2.66,9-10.3,17.61-16.75,14.82-11.16-28.73-2.6,4.17-16C1448,149,1418.25,118,1418.25,118l-13.42-35.76L1397,90.85s4.68,12.2,4.2,21.61a23.15,23.15,0,0,1-6,14.14c-1.2,1.33-.47.22-13,8.94-2.54,1.76-4.39,3.08-7,3s-5.43-1.57-6.49-3.72c-1.76-3.58-13.88-21.78,4.17-13.77,18.53,8.22.12-4.91-.92-6.33-6-8.19-11.8,2.28-15.29,8.19-2.9,4.91-5.17,8.85.93,19,13.43,22.34-5.56,5.21-1.86,19.73,14.12,55.28-8.34,3.35-19.45,14.52-2.41,2.42-33.4-24.85-5.56-15.26,16.21,5.58-8.21-9.28-11.12-11.17-9.44-6.14-16-4.58-17.61-8.19-1.85-4.19,6.18-8.18,19.46-21.59,7.31-7.38,12.47-12.67,16.22-20.47,5-10.49,5-20.23,3.7-20.47-1.1-.21-2.66,6.64-10.19,14.89-3,3.3-9,9.86-13.9,8.93-4.64-.89-5.1-7.92-7.41-7.82-3.06.14-.12,12.36-8.34,20.1s-19.78,3.31-27.79,11.54c-4.67,4.8-6.07,11.77-3.71,17.12,1.21,2.75,3.35,4.94,17.6,12.66,18.77,10.16,24,11.2,27.34,17.12.44.79,2.31,13.4,2.31,13.4l4.17,21.22,6.49,10.79s22,7.75,33.81,16.38c4.46,3.24,25.78,28,13.44,20.47-22.06-13.48-20.87-5.73-14.12,5.51" style="fill:none;stroke:#d84aff;stroke-miterlimit:10"/><path d="M1434.36,261.27c8.63-9.65,12.48-25.23,27.94-31.56,21.74-8.91,57.68,4.07,76.44,20.1a58.19,58.19,0,0,1,10.36,11.46" style="fill:none;stroke:#d84aff;stroke-miterlimit:10"/><path d="M1401.06,261.27c-.1-13.36,1-27.79,1.94-28.21,6-2.62,9.27,16.81,12.51,28.21" style="fill:none;stroke:#d84aff;stroke-miterlimit:10"/><path d="M1789.78,261.72a17.76,17.76,0,0,0-1.14-1.68c-6-7.86-15.17-6.59-18.47-14.08-.73-1.65-.57-4.63-.26-10.61.6-11.35,2.24-12.78.77-16.53-2.69-6.88-15.4-10.61-15.4-10.61s-1.15,10,1,18.77c2,8.15,3.94,10.69,2.57,15.72-1.13,4.11-3.74,7.27-5.65,9.59-3.14,3.81-7.89,8.08-9,7.55s3.44-5.83,5.13-14.7c1-5.38,2.26-11.83-2.56-15.1a14,14,0,0,0-12.58-.81c-7.57,3.61-4.66,15-4.36,16.12,1.06,4.11,2.42,3.6,4.11,9a25.65,25.65,0,0,1,1.2,6.94" style="fill:none;stroke:#4a87ff;stroke-miterlimit:10;stroke-width:4px"/><path d="M1846.11,261.73c.68-3.74,0-7.4-2.3-9.85-1.26-1.35-6.06-3.42-15.65-7.55-6-2.59-6.17-2.51-7.18-3.27-1.9-1.42-4.39-4-6.93-15.1-1.83-8-3.34-11-3.34-11s-8.94,5-12.32,8.57c-6,6.35-9,9.52-8.46,13.27.87,6.64,10.69,6.83,13.6,15.51.35,1,.3,3.79.11,9" style="fill:none;stroke:#4a87ff;stroke-miterlimit:10;stroke-width:4px"/><path d="M1690.2,261.73s6.83-6.81,19.41-18c15.41-13.74,7.28-19.45,9.41-19,17.24,3.78-2.23-12-2.23-12s-27.49-14.19-28.74,3.67c-1.54,22-7.25,9.83-7.69,9-9.58-18.23-7,7.89-14.89-10.61-1.09-2.56,16.19-2.2,25.92-11.84A16.17,16.17,0,0,0,1696,196c2.36-8-4.32-15.33-5.65-16.73a46.64,46.64,0,0,0-6.41-5.71l6.67-16.94s8.24-7,15.14-6.12c5.77.69,15.14,10.2,15.14,10.2s10.56,5,15.65,6.53c9.55,2.92,15.29,2.56,30.8,3.47,36.74,2.15,45.67,9.39,45.67,9.39s.81,2.77,4.62,8.16c7.68,10.86,15.13,11,20.53,19.79a39.46,39.46,0,0,1,5.39,13.27s10.52,0,16.68-18.57c2.37-7.16,5.13-9.59,12.06-6.12,5.08,2.54,8.45,1.36,13.08,0,6.92-2,8.08-9.11,10-8.78,3.19.54-14.88,30-1.54,28.57,8.62-.92,20.27,10.82,20.27,10.82l-18.73,2s-2.51,13.81-3.59,14.12c-10.5,3-14-.06-19,1.83-5.92,2.23-7,8.67-7.62,16.13" style="fill:none;stroke:#4a87ff;stroke-miterlimit:10;stroke-width:4px"/><path d="M514.87.93l2.73,8.15,1,22s26.68,19.66,24.76,23c-1.56,2.66-20.26.47-35.93-7.35-4.33-2.16-3.11-15.68-27.71-26.12,0,0-.14-11.4-4-19.32" style="fill:none;stroke:#4a87ff;stroke-miterlimit:10;stroke-width:4px"/><path d="M525.3,83.05c3.65,35.54-75.23,60.92-36.47,53.67,3.69-.69,16.41,5.44,12.76,18.13-4.7,16.36,54.87-10.5,56.54-27.92,1.16-12-14.67-18.5-10.48-25.38,4.51-7.42,39.21-1.09,39.21-1.09s5.29,30.08-7.75,41c-12,10-23.93,6.57-37.85,19.58-6,5.57-13.6,15.4-9.57,20.67,2,2.66,25.08,12.69,17.78-1.45-5.4-10.47,16.47,15.27,16.87,20.67.84,11.24-8.64-9.86-7.75,9.79.43,9.43-14.8,7.92-14.59,11.24.18,2.85,4.06,5.48,7.75,6.17,3.85.71,7.27-.75,16.42-5.81,14.2-7.84,13.84-8.67,17.32-9.79,7.9-2.52,14,.38,30.1,4.72,12,3.23,45.51,12.3,50.15,6.52,1.71-2.13-.45-7.66-1.82-6.89-14.23,8-54.72-48.95-83.44-31.54-16.8,10.18-15.72-35.32,17.78-29.37,16.88,3,14.72-3.47,21-11.24,6.5-8.09-1.29-13.25-2.73-37.72-.49-8.27.29-9.56,0-37.71-.14-13.11,8.21-16.31-3.19-18.85-1-.23,6.38-27.92-18.7,24.66-6.18,13-17.79,12-23.25,13.41-12.22,3.24-24.73,1.84-21-1.81,34.66-33.72,5.93-11.6.46-13.06-1.17-.31-10.49,14.87-16.87,4C531.67,73.7,525.19,81.9,525.3,83.05Z" style="fill:none;stroke:#4a87ff;stroke-miterlimit:10;stroke-width:4px"/><path d="M682.57,2.28c-4.79,1-5.85.61-10,2.53-6.16,2.86-12.5,5.8-15.5,11.61-2.86,5.51,1.82,4.28,1.82,10.15,0,8-17.8,10.18-17.32,10.88,3.29,4.83,12,1.89,12,7.6,0,1.32,14.24-8.7,14.84-12.45a10,10,0,0,0-1.33-4.94c-1.89-2.48,1.35-3.82.91-6.53-1.65-10.15,12.52-5.81,19.15-2.9a13,13,0,0,1,6.39,5.8c4.35,9-6.65,20.9-7.3,20.67s-11.1,7-11.4,6.89a18.91,18.91,0,0,1,5.93,11.24c.07.45.52,3,.91,6.53.31,2.74.43,4.71.46,5.07.31,4.18,12.76,8,17.78,22.48,2.92,8.44,23.77-9.67,21.89-16-1.77-5.89-15.74-5-17.79-11.6-1.64-5.3,5.58-11.41,11.4-14.15,4.12-1.93,13.27-4.88,18.24-1.45,4.63,3.2,2.94,10.08,2.74,10.88-1.4,5.66-5.67,6.28-5.93,10.88-.27,4.83,4.36,5.42,4.56,10.15.24,5.87-2.74,10.16,5.47,17,.68.57-32.83-11.24-14.13,11.6,4.06,5,9.67,8.47,23.25,14.5,11.6,5.16,13.25,4.37,13.68,4,1.36-1.2-2.5-4.07-3.19-8.34-3.19-19.58,20.76-.36,15-16-1.29-3.53-15.39-6.31-20.06-9.07-3.15-1.86-8.68-6.2-9.12-11.6-.58-7.24,12.72-13,14.14-32.27.45-6.21,16.94-9.68,17.32-13.3s-11,.12-13.22-9.18c-2.8-12,8.73-12.44,8.66-15.23-.13-5.52-2.48-13.08-1.36-15.68" style="fill:none;stroke:#4a87ff;stroke-miterlimit:10;stroke-width:4px"/><path d="M2.22,38.13C21.6,32.82,4.56,58.4,21,60.57c26.34,3.48,31.47-37.83,36.94-25.38,4.42,10.06,78.1,29.57,90.73,16.68,14-14.25-9-48.63-20.51-47.87-6.66.45-6,12.37-20.52,18.13C96.54,26.56,85.1,24,83.47,23.59,78.93,22.5,75.26,16,68,15.25c-7-.7,1-10,13.16-12.63" style="fill:none;stroke:#4a87ff;stroke-miterlimit:10;stroke-width:4px"/><path d="M334,3.28c-5.4,5.1-6.59,12.6-2.46,18.49,5.84,8.36,37.25,30.48,54.7,24.66,10.5-3.5,38.77-32.62,34.67-12.69-1.29,6.25-11.4,23.57-11.4,23.57S330.82,63.68,316,41.72c-5.55-8.24-10.18-27.86-13.67-20.31-6.39,13.78-25,4.45-33.75,5.44-3.19.36,16.34,11,15.05,11.24S268.27,54.59,270,54s7.46,9.88,22.8.73c2-1.19,8.09,1.52,8.66,3.26S295.5,68,275,68c-14.23,0-7.59,13.4-10.49,17.23-5.6,7.4-9.06,15.57-10,15.59-1.22,0,1.82-16.83,1.82-32.82,0-12.62-16-9.15-19.15-12.87C231,48,227.5,44.56,220.72,43.53c-2.54-.39-5-.63-5.93-.73a178,178,0,0,0-19.15-.36s-6.14,11.62-16,19.22c-6.77,5.23-18.16,13.5-37.39,8C104.45,58.76,118.12,81.24,104.9,95S67.74,62.37,41.24,63.67C21.78,64.63,21,87.77,12.8,78.34c-12-13.79,9.89,32,7.29,30.1-.68-.5-9.34-7.36-18.3-15.1" style="fill:none;stroke:#4a87ff;stroke-miterlimit:10;stroke-width:4px"/><path d="M158.53,261.27c1.36-1.06,2.75-2.17,4.19-3.34,25.54-20.66,55.71,6.52,74.32-6.89,8.45-6.08-24.6-22.44-27.35-41-2-13.52-3.38-22.78,1.36-33,5.88-12.63,18.54-21.16,29.64-40.61,1.12-2,2.81-8.45,1.37-6.89-10,10.85-26.93-.23-21.89,6.89,8.21,11.6,0,21-27.81,27.92-8.18,2-21.58.32-18.24,6.53,9.58,17.8-4.41,16.63-8.21,13.42-21-17.77.48,22-2.28,22.84-2.92.93-5.89-11-17.32-18.86-31.26-21.39-.88-20.31,10-50.76,5.24-14.63,2.46-21.54,2.28-30.1-.46-21-10.94,2.54-16.87-12.69-.72-1.85-14.09,26.44-2.74,21.4,19.61-8.71,1.54,21.79-.45,24.29C128.48,153,108.28,164.54,99.8,160.39c-6.65-3.25,1.49-12,8.21-20,4.13-4.92,3.19-24.63-1-17.1-10.14,18-25.79,13.78-28.6,8.06-1.18-2.39-8.67-18.07-8.67-18.07S62.17,131.93,65.14,147c2.67,13.49,19.91,13.4,29.19,31.91,1.78,3.56,7.16,14.74,2.28,27.19-.85,2.16-8.3,20.3-25.08,21-8.32.37-18.79-3.56-20.52-9.43-2.92-9.9,20.72-19.71,17.33-25.38-3-4.91-21.73.78-27.36-5.8-3.17-3.7,1-7.89,3.65-17,9.12-30.91-22-11.16-4.11-30.91,9.12-10.07,8.37-36,7.3-36.17s-7.22,8.76-11.4,18.49c-6.38,14.87-17.29.42-16.87,4.71,3.65,37.35,10.22,14.56,12.77,32.27,1.57,10.92-2.34,21-5.48,29-4.85,12.47-8.61,13.29-8.66,19.95-.07,9.36,7.29,16.12,20.52,27.92,5.22,4.65,16.54,17.62,25.24,26.54" style="fill:none;stroke:#4a87ff;stroke-miterlimit:10;stroke-width:4px"/><path d="M436.57,261.26c2-1.57,5.76-1.9,8.14-4.42,4.33-4.59.45-9-.12-16.9-1.27-18-4-23.85-.9-25.41,1.85-.94,6.05-.45,16.87,7.25,1.86.69,9.57-18.13,9.57-18.13l35.57-9.43L508,178.63s-14.14-9.94-19.61-11.24c-25.51-6.07-54.15.62-86.63,2.9-3.18.22-10.35.65-15.05-2.9-2.53-1.91-5.09-5.54-4.1-9.07,1.66-5.95,11.91-6.11,13.22-12,.56-2.52,3.19-16.32-2.74-7.25-6.13,9.38-7.92,1.29-12.31,2.17-25.53,5.16,4.79-19.14,5.46-18.49,1.5,1.48,9.55,10.1,24.18.36,10.89-7.25,17.33-16,26.45-10.15,4.75,3-4.7-8.42-4.11-13.06,6.39-50-6.39-19.08-8.66-17.76-2.58,1.49.42,14.64-2.28,18.13S419.53,111,415,110.16c-1.68-.31-9.2-6.4-9.58-6.59-8.47-4.37-37-1-42.4-11.6-5.93-11.61-6.46,4.65-14.59,5.8-4.59.65-3.86-20-17.33-6.39-7.75,7.84,2.21,16.94-3.19,18.78-8.18,2.77-16.76-7.36-19.15-3-7.3,13.41-10.42-5.1-15.5-2.18-1.57.9-17.79,5.14-5.48,6.17,22.52,1.88-13.13,13.68-10.48,16.68,15,17-14.88,2.43-27.36,11.24-3.29,2.31-11,9.75-6.84,8.7,17.33-4.35,11.32,8,12.77,8.34,8.36,2.16,11.21-.45,19.15.72,11.35,1.69,22.27,9.52,21,14.51-1,4-9.84,6-15.5,7.25-11.62,2.62-21.17-9.18-26-5.44-3.27,2.54,41,14.51.91,19.22a2.41,2.41,0,0,0-.59.1c0,.1,3.47,0,7.23-.06,5.73-.07,4.07,12.52,7.19,14.87,12.65,9.52,16.32,16.87,16.42,16.32,3.08-18-7.19-36.87,2.38-28.7,5.7,4.87,8.81,4.56,10.89,4.09,14.4-3.2,4.23-54.84,30.35-11.7,29.64,48.95,26.65-1.16,55.17,0,14.17.58,21.29,1.31,28.73,5.08,12.42,6.3,21.12,18.75,17.32,22.84-1.61,1.75-5.16,1.61-9.12,1.45-17.07-.66-23.7-15.78-29.63-13-3.59,1.65,15.5,13.42-22.35,13.78-12.4.12,36.32,6.54,37.39,8.34,4.49,7.53.33,2.46,14.59,11.24,3.27,2,9.66,6.06,10,12a10.57,10.57,0,0,1-2.28,6.89,24.63,24.63,0,0,1-6.8,5.4" style="fill:none;stroke:#4a87ff;stroke-miterlimit:10;stroke-width:4px"/><path d="M1347.81,2.28c3.39,13.26,2.71,35.6-1.76,45.65-1.66,3.72-11.4-41-36.48-13.78-18.2,19.74-40.31-18.25-51.07-19.58-22-2.73-50.47,2.84-54.72,14.86-2.57,7.31,2.26,24.57,11.4,21.76,14.14-4.35,12.77,23.21,35.57,4,4.5-3.79.68,17.05,1.37,19.58.59,2.18,2.58,10.74-5.47,25-8.18,14.5-14.52,13.25-17.33,21.76-2.5,7.54,3.62,17.58,16,37.34,10.92,17.51,16.38,26.26,23.71,32.64,12.08,10.53,21.67,13,21.88,21,.92,33.72-5.58,8.07-12.76,12-7.52,4.08-13.28,8.3-16.42,12.69-3.41,4.77,2,10.1-.45,11.6-3.56,2.15-5.48-6.89-19.61-12.69-8.17-3.35,4.47,7.33,21.8-16.72,1-1.35,5.21-10.22,2.37-15.55-6.39-12-14.87-3.28-31-20.67-14.14-15.23-28.17,0-32.37-4.72s15.53-9.4,15.5-22.48c0-10.92-18.29-23.6-22.8-37.35-4.07-12.41-3.64-21.31-6.38-31.9-3.19-12.33-7.3,20.3-30.1-7.62-3.55-4.35-7.16-5.79-8.66-9.06-4.51-9.87,7.16-16.8,3.65-22.49-4.53-7.32-30.5-6.53-50.16.37-14.92,5.23-33.73,16.62-31.46,25.74,1.07,4.3,6.94,8.63,16.41,15.59,5.12,3.77,8.8,5.81,9.12,9.43.29,3.22-2.46,3.48-5,9.07-3.29,7.19-2.22,14.39-1.83,17,.42,2.81,1.12,5,.92,5.08-.56.11-1.17-16.87-14.59-27.2-7.06-5.43-9.36-2.64-23.72-9.79-8.44-4.21-21.58-10.93-26.9-22.48-2.47-5.37,1.64-7.29-2.28-13.78-12.61-20.91-40.12-21.08-21.88-37.35.55-.49-31.92-18.13-32.38-8.7-.11,2.34,22.3,10.51,7.3,13.78-12.25,2.67-24.29,6-28.82,4.11C894.64,5.86,955.62,45.33,960.3,50.1c5.24,5.35,19.6,1.82,21.43,10.52,1.42,6.79,11.51,7.67,17.78,13.05,7.89,6.77-.37,23.42,4.1,28.65,8.22,9.61,25.55,3.54,26.91,7.25,2.42,6.62,4.1,11.57-5.48,20.67-5.52,5.25,6.94,27.55,5.48,27.56-1.87,0-15.51-9.79-10.95-12,6.81-3.25-1.36-6.85-.91-9.06,6.38-31.19-18.24,11.6-18.69-13.42-.05-2.52-6.47,3.76-11.4,4.35-.72.09-1.31-.42-1.15-1,1.14-4-4.55-22-8-27.67-.79-1.3-2.31-2.79-20.06-7.25-19.39-4.86-20.67-3.86-27.82-6.89-5.35-2.26-18.54-7.84-20.06-16.68-.55-3.2.77-4.84-.91-8.34-.21-.42-3.57-7.1-11-8.34-5.52-.92-10.12,1.73-16,5.08-5.26,3-8.59,6.22-14.59,12-6.44,6.17-5.08,5.84-7.29,7.25-6.22,4-13.2-.73-26.45,5.07-5,2.17-10.18.56-10.49-.36-.69-2.09,22.43-4.34,32.38-17.77,1-1.36,7-9.39,2.73-15.23-3.32-4.58-11.55-5.91-16.87-5.8-10.77.23-9.12,3.4-18.61,5.05-17,2.93-18.77.18-18.78-1.42,0-2.54,16.23-4.88,26-8.7,15-5.88,9.4-12.33,21.89-30.46,1.27-1.85,6.48-2.32,8.1-3.87" style="fill:none;stroke:#4a87ff;stroke-miterlimit:10;stroke-width:4px"/><path d="M1311.16,1.28c5.87,7.07,11.85,9.58,19.79,0" style="fill:none;stroke:#4a87ff;stroke-miterlimit:10;stroke-width:4px"/><path d="M665.3,261.27c9-7.18,23.87-21.06,38.29-23.38,16.84-2.72,43.17,11,35.56,1.45-18.24-22.85,24.6-9.51,19.61-19.58-11.86-23.94,20.12.05,33.74,4,14.29,4.13,52.85,15,45.14.73-27.39-50.71,56.54,19.22,84.81-7.25,21.12-19.77,48.67-14.95,65.21-7.26,8.06,3.76,13.1,10,16,8.71,3.39-1.55,1.89-12.88-5.92-21-10.89-11.36-22.64-8.49-34.2-17.41-9.71-7.49-38.76-11.6-5-27.19,15.81-7.31,6.1-22.54,5.93-25-.91-13.06-6.84-14.51-13.68,8.7-9.12,30.95-18.87,11.57-20.06,14.87-3.32,9.2,10,16.12,5,25.38-.84,1.57-2.39,2.86-5.47,5.44-10.26,8.59-24.33,15.13-26.9,13.05-.7-.56.13-2.68,1.83-6.89,2.06-5.14,3.29-7,4.1-9.06,2.11-5.47-.54-7.89-.91-14.51-.69-12.14,9-22.91,4.1-20.3-8.21,4.35-19.61-36.73-26.9,2.9-.54,2.9,10-1.45,10,11.24,0,1.06-1.82,4.73,1,8,7.2,8.31-10.59,9-6.48,13.75,5.84,6.71-11.11,7-14.14,6.17-1.71-.46-2.29-2.4-3.64-16-.86-8.6-1.29-12.9-1.37-16.31-.19-8-.33-13.82.91-20,3.29-16.33,14.37-25.21,12.31-26.47-1.56-.95-6.81,4.88-23.25,15.59-7.33,4.78-11.44,7-10.95,9.79.73,4.16,10.46,3.69,13.68,9.8,1.06,2,.4,5.56-.91,12.69-1,5.43-1.5,8.14-2.74,9.79-3.34,4.44-8.21,3.89-17.32,7.61-6.38,2.61-12.16,6.94-23.71,15.59-7.32,5.48-12,9.56-12.77,9.07-1-.61,5.69-7.13,9.58-18.13.67-1.9,3-9,.91-9.79s-5.85,5.38-15,7.25c-1.66.34-6,1.23-7.75-.36-2.14-2,1.21-6.86,2.73-9.07,3.78-5.46,6.59-5.57,8.21-9.06.89-1.91.76-3.43-2.28-12.69-4.66-14.21-6.12-16-8.2-17.41-5.24-3.66-12.57-4.25-13.23-3.26-.55.82,3.71,2.51,7.75,7.61,1.89,2.39,3.75,4.79,3.65,8-.08,2.88-1.77,6.86-4.56,7.25s-3.94-3.26-10-6.53c-6.33-3.39-14-4.22-14.59-3.26-.32.53,1.56,1.59,4.56,3.63A145.81,145.81,0,0,1,780.19,152c10.4,9.07,2.52,42.12-11.4,43.87-6.13.77-11.75-4.74-21-13.78-19.29-18.9-44.23-66-36.59-28.64,1.7,8.3-22.69,10.32-31.35,2.17-35.11-33-17.56,4.54-10.49,13.78,6.38,8.34,23.71,13.42,36.93,5.08,5.56-3.51,6.33,6.27,10.95,21.39a14.86,14.86,0,0,1,.91,6.89c-2,14.31-14.23,32.71-47.42,34.81a49.06,49.06,0,0,0-11.14,1.87c-1.36.4-14.65-2.75-18,2.75-2.52,4.09-2.57,9.3-1.83,9h0c.08.32,7.22-6.07,8.12-.72,1.46,8.61,5.24,1.08,7,3.07.47.54,3.24,1.59,2.2,8.35" style="fill:none;stroke:#4a87ff;stroke-miterlimit:10;stroke-width:4px"/><path d="M1903.35,1.28c-5.63,13,16.93,3.92,15.27,7.54-4.77,10.4-22.3,13.05-21.49,15.88,9.12,31.91-13.08,2.78-14.59,5.8-2.49,4.94,8.16,8.85,10.48,17.77,3.69,14.14-16.88,28-20.06,30.09a65,65,0,0,1-34.65,9.79c-1.31,0-11.75-.19-12.31-2.53-.7-2.88,14.75-3.84,24.16-13.78,6.45-6.81,9.41-14.78,7.75-22.48-3.19-14.87,9.31-28.63,5.48-29.38-2-.37-12.59,17-13.23,17.77-4.68,5.57-2.43,10.89-3.19,15.59-1.88,11.67-22.33,20-35.56,22.49-12.73,2.42-.46,35.89-29.64,0-13.31-16.38-2.27,25.8-11.86,29.19-4.78,1.68-27-25.55-27.81-26.29-5.47-5.08,18.56-16.3,29.64-17.77,13.22-1.76,37.08,4.87,42.86.36,2.29-1.79,21.88-36.26,7.75-19.94-5,5.77,5.11-27.92,1.37-28.65-2.31-.45-1.44,18.28-9.12,13.42-8.74-5.53,5,13.06,1.36,18.13-2.59,3.58-8.87,5.74-12.31,4.35-1.48-.6-2.8-2-3.64-8-1.81-12.65,2.25-19.5-1.83-22.12-1.85-1.19-4.94,2-8.21,2.54-14.44,2.46-35.56,16.48-45.56,2.05-10.53-15.19-20.89,20.57-18.77,24.48,17.61,32.45,9.19-18.77,38.34-12,10.6,2.45,20-7.07,21.89-5.08.52.53.63,1.66-1.37,4.35-10.16,13.66-40.76,21.6-52.89,38.44C1722,86.59,1726.49,102,1728,107s19.55,11.88,17.33,25c-3.19,18.86,61.56-42.43,32.37,10.88-14.74,26.94,56.57-43.21,73-38.44,7.65,2.23-59.4,44.11,13.22,21.76,31.79-9.79,46.56-10.73,57,6.35" style="fill:none;stroke:#4a87ff;stroke-miterlimit:10;stroke-width:4px"/><path d="M1465.2,1.82c2,3.42.57,7.62.31,8.13-1.59,3.14-4.06,3.22-6.38,5.81-3.73,4.14-1.83,15.59-1.83,15.59l-4.56,13.41,15-12.32s-.29-9.69,3.19-16.32c2.4-4.57,6.17-7.32,9.12-9.43a54.66,54.66,0,0,1,8-4.41" style="fill:none;stroke:#4a87ff;stroke-miterlimit:10;stroke-width:4px"/><path d="M1420.67,1.28c.46,2.06-1.77,3.13-7.6,4.32-6.35,1.31,7.85,21.47,9.58,27.92a45.88,45.88,0,0,1-2.28,29.37l10.94-4.71s8.06-18.57,7.75-21.39c-.91-8.44-4.77-8.46-6.84-18.5-.92-4.49-2.45-11.91.24-17" style="fill:none;stroke:#4a87ff;stroke-miterlimit:10;stroke-width:4px"/><path d="M1375.18,1.28c-.52,7.54-5,8-5.42,8-.22,0,3.36,13.56,5,14.5,0,0,5-8.68,9.12-10.51,2.3-1,2.44-6.55,2.51-11.94" style="fill:none;stroke:#4a87ff;stroke-miterlimit:10;stroke-width:4px"/><path d="M1617.2,261.27l22.46-8.18,11.88-24.63s-15.85-29.53-14.59-50.77a53.91,53.91,0,0,1,17.79-35.17c14.75-13.23,27.59-10.56,38.75-24.29,5.13-6.31,7.27-30.12,7.27-30.12s5.79-39.12,5-39.14-11.88,31.16-11.88,31.16-20.84,17.63-35.54,20c-6.42,1-9.53.61-19.15,2.53-12.33,2.47-21.64,4.43-24.16,10.16-1.53,3.46-.43,8,2.73,10.87,6.26,5.71,16.84,1.65,20.52,6.17s-2.78,12.68-7.29,16.68c-1.19,1.05-11.39,9.84-23.26,8.34-9.69-1.22-11.78-8.2-22.34-8.7-7.15-.34-10.46,2.65-11.86,1.45-4-3.48,20-31.31,33.75-47.14,3-3.47,9-10.41,6.38-17-1.74-4.33-6.49-6.76-8.21-7.62-13-6.44-26.71,1-31-3.63-2.67-2.84,2.16-6.2,6.38-21.75,2.24-8.27,0-17.79,0-17.79l-9.12-8.7L1553.48,50.4,1539.8,63.09a83.34,83.34,0,0,0,13.71,11.26c9.35,6.39,9.5,8.71,14.14,9.43,7.73,1.19,12.74-4.43,16.41-2.54,3.17,1.63,3.66,8,.46,12.69-5.89,8.64-19.62,4.87-37.39,16-6.84,4.26-10.45,8.35-10.49,12.69a9.31,9.31,0,0,0,1.37,4.71c5.37,9.72,12.37,19.21,15,23.21,5,7.47,9.67,14.47,8.2,22.84-1.57,8.95-9.35,14.82-11.4,16.32-11.78,8.64-26.75,8.23-49.7,7.61-12.67-.34-14.15-1.65-14.59-2.53-2.57-5.15,22-11.9,27.82-29.38,2.56-7.64,1.81-18.1-4.56-21-6.93-3.18-16.64,4.28-25.54,0a12.67,12.67,0,0,1-5.93-5.8c-3.32-7.12,12.77-30.09,12.77-30.09l1.83-16L1487.4,86l-36.94,17.77s-12.56,2.58-13.68,5.44c-1.68,4.31,7.06,7.9,15.51,20.31,4.34,6.38,7.17,10.68,5.47,15.23-1.34,3.56-4.13,3.71-13.22,10.87-7.59,6-11.39,9-12.77,13.06-1.83,5.41,1.63,6.78,0,13.78-.71,3-2,8.35-7.3,11.6-8.69,5.29-21.28.91-22.8.36-5.82-2.1-14.6-7.28-13.67-12.33.71-3.87,6.46-3.93,16.87-10.51,4.1-2.59,8.9-10,17.32-16.32,14.59-10.88-28.27-2.54,4.11-15.59,13.32-5.37-16-35.54-16-35.54l-13.2-34.83-7.76,8.34s4.61,11.89,4.14,21a22.51,22.51,0,0,1-5.93,13.78c-1.19,1.3-.46.22-12.77,8.71-2.49,1.72-4.32,3-6.84,2.9s-5.34-1.53-6.38-3.63c-1.74-3.49-13.67-21.22,4.1-13.42,18.24,8,.12-4.78-.91-6.16-5.93-8-11.61,2.22-15,8-2.85,4.79-5.09,8.61.92,18.49,13.22,21.76-5.48,5.08-1.83,19.22,13.89,53.85-8.21,3.26-19.15,14.14-2.37,2.36-32.87-24.2-5.47-14.87,16,5.44-8.08-9-10.94-10.87-9.29-6-15.76-4.46-17.33-8-1.82-4.09,6.08-8,19.15-21,7.19-7.19,12.27-12.34,16-20,5-10.21,4.92-19.7,3.65-19.94-1.09-.21-2.62,6.47-10,14.5-3,3.22-8.87,9.62-13.68,8.71-4.57-.87-5-7.72-7.3-7.62-3,.14-.12,12-8.21,19.58s-19.47,3.23-27.35,11.24c-4.6,4.67-6,11.47-3.65,16.68,1.19,2.68,3.29,4.81,17.32,12.33,18.48,9.9,23.64,10.91,26.91,16.68.43.77,2.28,13.06,2.28,13.06l4.1,20.66,6.38,10.52s21.62,7.55,33.29,16c4.39,3.16,25.37,27.29,13.22,19.95-43.77-26.47-1.16,23.35-1.61,23.47" style="fill:none;stroke:#4a87ff;stroke-miterlimit:10;stroke-width:4px"/><path d="M1394.78,261.72c-3.3-4.72-1.21-44.94.47-45.66,8.28-3.61,11.39,35.79,16.41,35.17,21.78-2.7,20.32-29.67,41.95-38.44,21.4-8.68,56.77,4,75.23,19.58,14.58,12.32,12.11,21,28.27,28.65" style="fill:none;stroke:#4a87ff;stroke-miterlimit:10;stroke-width:4px"/></g></g></svg>