<svg xmlns="http://www.w3.org/2000/svg" xmlns:xlink="http://www.w3.org/1999/xlink" viewBox="0 0 244.71 139.14"><defs><clipPath id="clip-path"><path d="M209.74,105.58a12.58,12.58,0,0,0,1.31,1.8l-49.23,26.78a14,14,0,0,1-1.32-1.79Z" style="fill:none"/></clipPath><clipPath id="clip-path-2"><path d="M209.74,105.58,160.5,132.37a18.14,18.14,0,0,1-2.23-6.27c-.77-4.34,3-6.94,8.2-10.55,2.05-1.41,4.33-3,6.6-4.83,3-2.47,3.13-5.36,2.19-7.25a5,5,0,0,0-1.66-1.93l49-26.65-49,26.65a5.61,5.61,0,0,0-2.43-.93,7.55,7.55,0,0,0-2.63.13c-7,1.46-12.32,1.93-15.89,1.43a12.9,12.9,0,0,1-1.4-.27,16.29,16.29,0,0,1-8.8-5.07l49.24-26.78a16.35,16.35,0,0,0,8.8,5.07,12.7,12.7,0,0,0,1.39.27c3.58.5,8.91,0,15.89-1.43a7.55,7.55,0,0,1,2.63-.13,5.21,5.21,0,0,1,4.1,2.86c.93,1.88.84,4.78-2.2,7.24-2.26,1.85-4.55,3.43-6.6,4.84-5.2,3.61-9,6.21-8.19,10.54A17.79,17.79,0,0,0,209.74,105.58Z" style="fill:none"/></clipPath><clipPath id="clip-path-3"><path d="M175.66,103.29l49.23-26.78c1,2,.94,5.19-2.29,7.82-2.28,1.86-4.58,3.45-6.6,4.85-5.1,3.52-8.77,6.07-8.06,10.11a15.17,15.17,0,0,0,3.85,8.24l-49.23,26.78a15.06,15.06,0,0,1-3.85-8.24c-.72-4,2.95-6.58,8.06-10.11,2-1.4,4.32-3,6.59-4.85C176.6,108.48,176.67,105.34,175.66,103.29Z" style="fill:none"/></clipPath><clipPath id="clip-path-4"><path d="M168.4,100.27l49.23-26.79a8.2,8.2,0,0,1,2.78-.14,5.77,5.77,0,0,1,4.48,3.17l-49.23,26.78a5.75,5.75,0,0,0-4.49-3.16A7.67,7.67,0,0,0,168.4,100.27Z" style="fill:none"/></clipPath><clipPath id="clip-path-5"><path d="M190.06,67.47a11.58,11.58,0,0,0,1.63,2.58L142.45,96.83a11.54,11.54,0,0,1-1.62-2.58c-1.77-3.85-1.28-8.36,1.45-13.38s5.83-10,8.78-14.77c7.18-11.6,14-22.57,14.59-32.71L214.89,6.6c-.63,10.15-7.41,21.12-14.6,32.72-2.94,4.75-6,9.67-8.77,14.77S188.29,63.61,190.06,67.47Z" style="fill:none"/></clipPath><clipPath id="clip-path-6"><path d="M166.12,33,215.36,6.19c-.54,10.59-7.42,21.69-14.69,33.43-2.94,4.75-6,9.66-8.76,14.76-2.66,4.87-3.15,9.22-1.46,12.92s5.12,6.1,10.08,7.35c.41.1.87.19,1.35.26,3.53.5,8.82,0,15.75-1.43L168.4,100.27c-6.94,1.45-12.22,1.92-15.75,1.42a12.18,12.18,0,0,1-1.36-.26c-5-1.25-8.45-3.79-10.07-7.35s-1.2-8,1.46-12.92c2.77-5.1,5.82-10,8.76-14.76C158.71,54.66,165.58,43.57,166.12,33Z" style="fill:none"/></clipPath><clipPath id="clip-path-7"><path d="M37.21,101.31a5.66,5.66,0,0,0-.23-3l45.59,24.8a5.66,5.66,0,0,1,.22,3,16.28,16.28,0,0,1-3.54,8.06l-45.59-24.8A16.2,16.2,0,0,0,37.21,101.31Z" style="fill:none"/></clipPath><clipPath id="clip-path-8"><path d="M36.52,97.33l45.58,24.8a5.77,5.77,0,0,1,.47,1L37,98.34A7,7,0,0,0,36.52,97.33Z" style="fill:none"/></clipPath><clipPath id="clip-path-9"><path d="M36.52,97.33a9.27,9.27,0,0,0-1.17-1.57l45.58,24.8a8.76,8.76,0,0,1,1.17,1.57L53.73,106.7,45.12,102,44,101.4,39.58,99,37.5,97.87A4.45,4.45,0,0,1,36.52,97.33Z" style="fill:none"/></clipPath><clipPath id="clip-path-10"><path d="M35,95.41l45.58,24.8c.12.12.23.23.33.35L35.35,95.76Z" style="fill:none"/></clipPath><clipPath id="clip-path-11"><path d="M54.56,59l45.58,24.8c1.48,3.85,1.52,7.36.1,10.46-1.7,3.72-5.31,6.36-10.42,7.65a12.9,12.9,0,0,1-1.4.27h0L42.79,77.38h.05a13.38,13.38,0,0,0,1.4-.27c5.11-1.29,8.72-3.93,10.41-7.65C56.07,66.37,56,62.86,54.56,59Z" style="fill:none"/></clipPath><clipPath id="clip-path-12"><path d="M50.87,52,96.46,76.74q1.19,2.06,2.32,4.14a23.66,23.66,0,0,1,1.36,2.92C85,75.53,74.25,59,54.56,59a25.22,25.22,0,0,0-1.36-2.92Q52.06,54,50.87,52Z" style="fill:none"/></clipPath><clipPath id="clip-path-13"><path d="M27.75,89.89l45.59,24.8,1.23.86a43,43,0,0,1,6,4.66L35,95.41a43,43,0,0,0-6-4.66Z" style="fill:none"/></clipPath><clipPath id="clip-path-14"><path d="M22.49,86l45.59,24.8c1.79,1.45,3.59,2.74,5.26,3.9L27.75,89.89C26.08,88.73,24.28,87.44,22.49,86Z" style="fill:none"/></clipPath><clipPath id="clip-path-15"><path d="M21.48,85.06l45.59,24.8a8.68,8.68,0,0,0,.93.86l.08.07L22.49,86l-.08-.07A8.68,8.68,0,0,1,21.48,85.06Z" style="fill:none"/></clipPath><clipPath id="clip-path-16"><path d="M21.48,85.06a6.91,6.91,0,0,1-.82-1l45.58,24.79a6.59,6.59,0,0,0,.83,1L42.38,96.43,31.93,90.75,25.2,87.09l-2.52-1.38A8.66,8.66,0,0,1,21.48,85.06Z" style="fill:none"/></clipPath><clipPath id="clip-path-17"><path d="M42.79,77.38l.09.05.29.16.39.21,44.82,24.38c-3.58.5-8.9,0-16-1.47a7.1,7.1,0,0,0-2.42-.09L24.33,75.82a7.11,7.11,0,0,1,2.42.09C33.89,77.4,39.21,77.88,42.79,77.38Z" style="fill:none"/></clipPath><clipPath id="clip-path-18"><path d="M24.33,75.82a.83.83,0,0,1,.13.07l.42.23.56.3,5.19,2.83,5.51,3,11.53,6.28,11.54,6.27,10.7,5.83h0a5.21,5.21,0,0,0-4.1,2.86,5.31,5.31,0,0,0,.44,5.33L20.66,84a5.31,5.31,0,0,1-.44-5.34,5.21,5.21,0,0,1,4.09-2.86Z" style="fill:none"/></clipPath><clipPath id="clip-path-19"><path d="M78.51,134.32l-45.59-24.8a15.1,15.1,0,0,0,3.85-8.24c.72-4-3-6.58-8-10.1-2-1.41-4.35-3-6.63-4.86-3.23-2.63-3.3-5.77-2.29-7.82a5.79,5.79,0,0,1,4.5-3.16,7.67,7.67,0,0,1,2.56.09l45.59,24.8a7.47,7.47,0,0,0-2.57-.09,5.77,5.77,0,0,0-4.49,3.16c-1,2-.94,5.19,2.29,7.82C70,113,72.28,114.56,74.32,116c5.08,3.52,8.75,6.06,8,10.1A15.17,15.17,0,0,1,78.51,134.32Z" style="fill:none"/></clipPath><clipPath id="clip-path-20"><path d="M44.43,41.31c-7.19-11.6-14-22.57-14.6-32.72l45.58,24.8C76,43.54,82.83,54.5,90,66.1c2.13,3.46,4.33,7,6.44,10.64L50.87,52C48.76,48.31,46.57,44.77,44.43,41.31Z" style="fill:none"/></clipPath><clipPath id="clip-path-21"><path d="M72.47,100.23,26.88,75.43c7.14,1.49,12.42,2,16,1.47a12.18,12.18,0,0,0,1.36-.26c5-1.25,8.45-3.79,10.07-7.35s1.2-8.05-1.46-12.92C50,51.27,47,46.36,44,41.61,36.77,29.87,29.9,18.77,29.37,8.42L75,33.22c.52,10.35,7.4,21.45,14.67,33.19,3,4.75,6,9.66,8.76,14.76,2.66,4.87,3.15,9.22,1.46,12.92s-5.12,6.1-10.08,7.35c-.41.1-.87.19-1.35.26C84.89,102.19,79.61,101.72,72.47,100.23Z" style="fill:none"/></clipPath></defs><title>tropa macaca</title><g id="Layer_2" data-name="Layer 2"><g id="Layer_7" data-name="Layer 7"><g style="opacity:0.8"><g style="isolation:isolate"><polygon points="122.75 128.67 171.99 101.89 211.05 107.38 161.82 134.16 122.75 128.67" style="fill:#80743c"/><g style="isolation:isolate"><g style="clip-path:url(#clip-path)"><g style="isolation:isolate"><path d="M160,131.38l49.23-26.78a13.76,13.76,0,0,0,1.86,2.78l-49.23,26.78a12.73,12.73,0,0,1-1.86-2.78" style="fill:#d3bb5b"/></g></g></g><polygon points="162.56 134.31 211.79 107.53 212.28 108.03 163.05 134.81 162.56 134.31" style="fill:#ab9b50"/><polygon points="122.56 27.33 171.8 0.55 171.99 101.89 122.75 128.67 122.56 27.33" style="fill:#928544"/><g style="isolation:isolate"><g style="clip-path:url(#clip-path-2)"><g style="isolation:isolate"><path d="M141,94.67l49.24-26.78A11.19,11.19,0,0,0,192,70.4L142.75,97.18A11.64,11.64,0,0,1,141,94.67" style="fill:#d3bb5b"/><path d="M142.75,97.18,192,70.4a12.94,12.94,0,0,0,1,1L143.73,98.16a12.94,12.94,0,0,1-1-1" style="fill:#cfb759"/><path d="M143.73,98.16,193,71.38c.25.22.52.45.8.66L144.54,98.82q-.42-.31-.81-.66" style="fill:#cab357"/><path d="M144.54,98.82,193.77,72c.25.19.51.38.78.55L145.31,99.38l-.77-.56" style="fill:#c5af55"/><path d="M145.31,99.38l49.24-26.79c.25.17.51.33.78.49L146.1,99.86c-.27-.15-.53-.32-.79-.48" style="fill:#c1ab53"/><path d="M146.1,99.86l49.23-26.78c.27.16.54.3.82.45l-49.23,26.78c-.28-.14-.56-.29-.82-.45" style="fill:#bca651"/><path d="M146.92,100.31l49.23-26.78c.28.14.57.28.87.41l-49.23,26.78c-.3-.13-.59-.27-.87-.41" style="fill:#b7a24f"/><path d="M147.79,100.72,197,73.94c.31.14.63.27.95.39l-49.23,26.78c-.33-.12-.64-.25-1-.39" style="fill:#b39e4d"/><path d="M148.74,101.11,198,74.33l1,.37-49.24,26.78c-.35-.12-.7-.24-1-.37" style="fill:#ae9a4b"/><path d="M149.77,101.48,199,74.7l1.16.34-49.23,26.78c-.4-.1-.79-.22-1.17-.34" style="fill:#a99649"/><path d="M150.94,101.82,200.17,75l.32.08.44.1L151.7,102l-.45-.1-.31-.08" style="fill:#a49247"/><path d="M151.7,102l49.23-26.78.74.14-49.23,26.78-.74-.14" style="fill:#a08d45"/><path d="M152.44,102.14l49.23-26.78.21,0,.76.09L153.4,102.26l-.75-.09-.21,0" style="fill:#9b8943"/><path d="M153.4,102.26l49.24-26.78c.41,0,.84.06,1.29.08L154.7,102.34c-.45,0-.88,0-1.3-.08" style="fill:#968541"/><path d="M154.7,102.34l49.23-26.78c.59,0,1.21,0,1.87,0l-49.23,26.78c-.66,0-1.28,0-1.87,0" style="fill:#92813f"/><path d="M156.57,102.35,205.8,75.57c.91,0,1.88-.08,2.92-.18l-49.23,26.79c-1,.09-2,.15-2.92.17" style="fill:#8d7d3d"/><path d="M159.49,102.18l49.23-26.79c1.59-.14,3.33-.38,5.21-.7L164.7,101.47c-1.89.32-3.62.56-5.21.71" style="fill:#88793b"/><path d="M164.7,101.47l49.23-26.78c1.22-.21,2.5-.45,3.84-.73l.4-.07-49.24,26.78-.39.07c-1.34.28-2.62.53-3.84.73" style="fill:#847439"/><path d="M168.93,100.67l49.24-26.78.67-.09-49.23,26.78-.68.09" style="fill:#88793b"/><path d="M169.61,100.58,218.84,73.8l.5,0-49.23,26.78-.5,0" style="fill:#8d7d3d"/><path d="M170.11,100.55l49.23-26.78h.42l-49.23,26.78h-.42" style="fill:#92813f"/><path d="M170.53,100.55l49.23-26.78c.13,0,.25,0,.37,0L170.9,100.58l-.37,0" style="fill:#968541"/><path d="M170.9,100.58,220.13,73.8l.27,0h.08l-49.23,26.78h-.08l-.27,0" style="fill:#9b8943"/><path d="M171.25,100.62l49.23-26.78.33.06-49.23,26.78-.33-.06" style="fill:#a08d45"/><path d="M171.58,100.68,220.81,73.9l.32.07-49.24,26.79-.31-.08" style="fill:#a49247"/><path d="M171.89,100.76,221.13,74l.29.09-49.23,26.78-.3-.08" style="fill:#a99649"/><path d="M172.19,100.84l49.23-26.78.28.1-49.23,26.78-.28-.1" style="fill:#ae9a4b"/><path d="M172.47,100.94,221.7,74.16l.27.11-49.23,26.78-.27-.11" style="fill:#b39e4d"/><path d="M172.74,101.05,222,74.27a2.1,2.1,0,0,1,.26.13L173,101.18l-.26-.13" style="fill:#b7a24f"/><path d="M173,101.18,222.23,74.4l.27.14-49.24,26.78-.26-.14" style="fill:#bca651"/><path d="M173.26,101.32,222.5,74.54l.26.16-49.23,26.79-.27-.17" style="fill:#c1ab53"/><path d="M173.53,101.49,222.76,74.7c.09.07.19.13.27.2L173.8,101.68l-.27-.19" style="fill:#c5af55"/><path d="M173.8,101.68,223,74.9l.31.25L174.1,101.93c-.09-.08-.19-.17-.3-.25" style="fill:#cab357"/><path d="M174.1,101.93l49.24-26.78a4.68,4.68,0,0,1,.38.39l-49.23,26.78a3.59,3.59,0,0,0-.39-.39" style="fill:#cfb759"/><path d="M174.49,102.32l49.23-26.78a4.8,4.8,0,0,1,.74,1.08L175.23,103.4a4.8,4.8,0,0,0-.74-1.08" style="fill:#d3bb5b"/><path d="M175.23,103.4l49.23-26.78,0,.07c.07.14.13.28.19.43L175.45,103.9a3.3,3.3,0,0,0-.19-.43l0-.07" style="fill:#cfb759"/><path d="M175.45,103.9l49.24-26.78q.06.16.12.36l-49.24,26.78a2.53,2.53,0,0,0-.12-.36" style="fill:#cab357"/><path d="M175.57,104.26l49.24-26.78c0,.1.05.2.08.3l-49.23,26.79-.09-.31" style="fill:#c5af55"/><path d="M175.66,104.57l49.23-26.79.06.29-49.24,26.78a2.33,2.33,0,0,0-.05-.28" style="fill:#c1ab53"/><path d="M175.71,104.85,225,78.07l0,.27-49.23,26.78a2.51,2.51,0,0,0,0-.27" style="fill:#bca651"/><path d="M175.75,105.12,225,78.34l0,.26-49.24,26.78a2.28,2.28,0,0,0,0-.26" style="fill:#b7a24f"/><path d="M175.77,105.38,225,78.6c0,.08,0,.16,0,.25l-49.24,26.78a2.09,2.09,0,0,0,0-.25" style="fill:#b39e4d"/><path d="M175.78,105.63,225,78.85v.25l-49.24,26.78a1,1,0,0,0,0-.25" style="fill:#ae9a4b"/><path d="M175.78,105.88,225,79.1c0,.08,0,.17,0,.25l-49.23,26.79a2.26,2.26,0,0,0,0-.26" style="fill:#a99649"/><path d="M175.77,106.14,225,79.35a1.15,1.15,0,0,1,0,.26l-49.23,26.78,0-.25" style="fill:#a49247"/><path d="M175.74,106.39,225,79.61a2,2,0,0,1,0,.26L175.7,106.66a2.51,2.51,0,0,0,0-.27" style="fill:#a08d45"/><path d="M175.7,106.66l49.23-26.79a2.33,2.33,0,0,1-.05.28l-49.24,26.78.06-.27" style="fill:#9b8943"/><path d="M175.64,106.93l49.24-26.78-.08.29-49.23,26.78c0-.1.05-.19.07-.29" style="fill:#968541"/><path d="M175.57,107.22,224.8,80.44l-.1.31-49.24,26.79.11-.32" style="fill:#92813f"/><path d="M175.46,107.54,224.7,80.75l-.14.35-49.24,26.78c.05-.11.1-.23.14-.34" style="fill:#8d7d3d"/><path d="M175.32,107.88,224.56,81.1c-.06.13-.12.26-.19.39l-49.23,26.78a3.39,3.39,0,0,0,.18-.39" style="fill:#88793b"/><path d="M175.14,108.27l49.23-26.78c-.08.16-.17.31-.27.47l-49.23,26.78c.1-.16.19-.31.27-.47" style="fill:#847439"/><path d="M174.87,108.74,224.1,82a6.14,6.14,0,0,1-.45.63l-49.24,26.79c.17-.22.32-.43.46-.64" style="fill:#7f7037"/><path d="M174.41,109.38l49.24-26.79a8.56,8.56,0,0,1-1.35,1.34c-2.26,1.85-4.55,3.43-6.6,4.84-2.88,2-5.32,3.69-6.79,5.54l-49.24,26.78c1.48-1.85,3.92-3.54,6.8-5.54,2.05-1.41,4.33-3,6.6-4.83a9.41,9.41,0,0,0,1.34-1.34" style="fill:#7a6c35"/><path d="M159.67,121.09l49.24-26.78a7.33,7.33,0,0,0-.54.74l-49.23,26.78c.16-.25.34-.49.53-.74" style="fill:#7f7037"/><path d="M159.14,121.83l49.23-26.78c-.1.17-.2.34-.29.52l-49.24,26.78a5.39,5.39,0,0,1,.3-.52" style="fill:#847439"/><path d="M158.84,122.35l49.24-26.78a3.11,3.11,0,0,0-.2.41l-49.24,26.78c.07-.14.13-.28.2-.41" style="fill:#88793b"/><path d="M158.64,122.76,207.88,96l-.15.36L158.5,123.12c0-.12.09-.24.14-.36" style="fill:#8d7d3d"/><path d="M158.5,123.12l49.23-26.78-.1.3L158.4,123.42c0-.1.06-.2.1-.3" style="fill:#92813f"/><path d="M158.4,123.42l49.23-26.78c0,.1,0,.2-.08.3l-49.23,26.79a2.81,2.81,0,0,1,.08-.31" style="fill:#968541"/><path d="M158.32,123.73l49.23-26.79a2.33,2.33,0,0,0-.05.28L158.26,124l.06-.27" style="fill:#9b8943"/><path d="M158.26,124,207.5,97.22c0,.09,0,.18-.05.27l-49.23,26.79c0-.1,0-.19,0-.28" style="fill:#a08d45"/><path d="M158.22,124.28l49.23-26.79a2.45,2.45,0,0,0,0,.27l-49.24,26.78,0-.26" style="fill:#a49247"/><path d="M158.19,124.54l49.24-26.78a2.45,2.45,0,0,0,0,.27l-49.23,26.79a2.53,2.53,0,0,1,0-.28" style="fill:#a99649"/><path d="M158.18,124.82,207.41,98v.29L158.17,125.1a2.53,2.53,0,0,1,0-.28" style="fill:#ae9a4b"/><path d="M158.17,125.1l49.24-26.78c0,.09,0,.19,0,.29l-49.23,26.78c0-.1,0-.19,0-.29" style="fill:#b39e4d"/><path d="M158.19,125.39l49.23-26.78,0,.33-49.23,26.78a1.84,1.84,0,0,1,0-.33" style="fill:#b7a24f"/><path d="M158.22,125.72l49.23-26.78c0,.11,0,.22.05.34l-49.23,26.78c0-.11,0-.23-.05-.34" style="fill:#bca651"/><path d="M158.27,126.06,207.5,99.28v0c.07.41.15.8.23,1.18l-49.23,26.78q-.13-.57-.24-1.17v0" style="fill:#c1ab53"/><path d="M158.51,127.27l49.23-26.78q.15.65.33,1.26l-49.23,26.79c-.12-.41-.23-.84-.33-1.27" style="fill:#c5af55"/><path d="M158.84,128.54l49.23-26.79c.14.45.28.88.44,1.3l-49.23,26.78c-.16-.42-.31-.85-.44-1.29" style="fill:#cab357"/><path d="M159.28,129.83l49.23-26.78a16.84,16.84,0,0,0,.68,1.55L160,131.38a14.51,14.51,0,0,1-.68-1.55" style="fill:#cfb759"/><path d="M160,131.38l49.23-26.78a13.76,13.76,0,0,0,1.86,2.78l-49.23,26.78a12.73,12.73,0,0,1-1.86-2.78" style="fill:#d3bb5b"/></g></g></g><g style="isolation:isolate"><g style="clip-path:url(#clip-path-3)"><g style="isolation:isolate"><path d="M175.66,103.29l49.23-26.78c.08.15.14.31.21.47l-49.24,26.79c-.06-.17-.13-.33-.2-.48" style="fill:#a0914b"/><path d="M175.86,103.77,225.1,77c.05.13.09.26.13.4L176,104.16c0-.13-.09-.27-.14-.39" style="fill:#9d8e49"/><path d="M176,104.16l49.23-26.78.09.34-49.23,26.79-.09-.35" style="fill:#998b47"/><path d="M176.09,104.51l49.23-26.79a1.8,1.8,0,0,1,.06.32l-49.23,26.78-.06-.31" style="fill:#958746"/><path d="M176.15,104.82,225.38,78a2.5,2.5,0,0,1,.05.29l-49.24,26.79c0-.1,0-.2,0-.3" style="fill:#928444"/><path d="M176.19,105.12l49.24-26.79a2.83,2.83,0,0,1,0,.29L176.22,105.4l0-.28" style="fill:#8e8142"/><path d="M176.22,105.4l49.23-26.78a2.53,2.53,0,0,1,0,.28l-49.23,26.78a2.62,2.62,0,0,0,0-.28" style="fill:#8a7d41"/><path d="M176.23,105.68,225.46,78.9a1.22,1.22,0,0,1,0,.27L176.23,106v-.28" style="fill:#877a3f"/><path d="M176.23,106l49.23-26.79c0,.09,0,.19,0,.28l-49.24,26.78a2.45,2.45,0,0,0,0-.27" style="fill:#83773d"/><path d="M176.21,106.23l49.24-26.78,0,.28-49.24,26.78a1.27,1.27,0,0,0,0-.28" style="fill:#7f743b"/><path d="M176.18,106.51l49.24-26.78c0,.1,0,.19,0,.29L176.14,106.8a2.89,2.89,0,0,0,0-.29" style="fill:#7c703a"/><path d="M176.14,106.8,225.37,80l-.06.3L176.08,107.1l.06-.3" style="fill:#786d38"/><path d="M176.08,107.1l49.23-26.78c0,.1-.05.21-.08.31L176,107.41l.09-.31" style="fill:#746a36"/><path d="M176,107.41l49.24-26.78c0,.11-.07.23-.11.34l-49.24,26.78c0-.11.08-.23.11-.34" style="fill:#716635"/><path d="M175.88,107.75,225.12,81l-.15.37-49.24,26.78a2.87,2.87,0,0,0,.15-.37" style="fill:#6d6333"/><path d="M175.73,108.12,225,81.34c-.06.14-.13.28-.2.42l-49.24,26.78a4,4,0,0,0,.2-.42" style="fill:#6a6031"/><path d="M175.53,108.54l49.24-26.78c-.09.17-.18.33-.29.5L175.25,109c.1-.17.2-.33.28-.5" style="fill:#665c30"/><path d="M175.25,109l49.23-26.78a7,7,0,0,1-.48.67l-49.24,26.79c.18-.23.34-.45.49-.68" style="fill:#62592e"/><path d="M174.76,109.72,224,82.93a9.25,9.25,0,0,1-1.4,1.4c-2.28,1.86-4.58,3.45-6.6,4.85-2.87,2-5.28,3.65-6.72,5.45l-49.23,26.78c1.44-1.8,3.85-3.47,6.72-5.45,2-1.4,4.32-3,6.59-4.85a9.21,9.21,0,0,0,1.4-1.39" style="fill:#5f562c"/><path d="M160.05,121.41l49.23-26.78a8.11,8.11,0,0,0-.52.72l-49.23,26.79a7,7,0,0,1,.52-.73" style="fill:#62592e"/><path d="M159.53,122.14l49.23-26.79c-.1.17-.2.33-.28.49l-49.24,26.78c.09-.16.18-.32.29-.48" style="fill:#665c30"/><path d="M159.24,122.62l49.24-26.78c-.07.13-.13.26-.19.39L159.06,123c.05-.13.12-.26.18-.39" style="fill:#6a6031"/><path d="M159.06,123l49.23-26.78c0,.11-.09.22-.13.33l-49.24,26.79a3.45,3.45,0,0,1,.14-.34" style="fill:#6d6333"/><path d="M158.92,123.35l49.24-26.79c0,.1-.07.2-.1.29l-49.23,26.79.09-.29" style="fill:#716635"/><path d="M158.83,123.64l49.23-26.79c0,.1-.05.19-.07.28l-49.24,26.78c0-.09.05-.18.08-.27" style="fill:#746a36"/><path d="M158.75,123.91,208,97.13l-.06.26L158.7,124.17c0-.09,0-.17.05-.26" style="fill:#786d38"/><path d="M158.7,124.17l49.23-26.78c0,.08,0,.17,0,.25l-49.23,26.78a2.17,2.17,0,0,1,0-.25" style="fill:#7c703a"/><path d="M158.66,124.42l49.23-26.78a2.11,2.11,0,0,0,0,.25l-49.24,26.78,0-.25" style="fill:#7f743b"/><path d="M158.63,124.67l49.24-26.78c0,.08,0,.16,0,.25l-49.23,26.78c0-.08,0-.17,0-.25" style="fill:#83773d"/><path d="M158.62,124.92l49.23-26.78v.26l-49.23,26.78v-.26" style="fill:#877a3f"/><path d="M158.62,125.18,207.85,98.4c0,.08,0,.17,0,.26l-49.23,26.78a2.26,2.26,0,0,1,0-.26" style="fill:#8a7d41"/><path d="M158.63,125.44l49.23-26.78,0,.29-49.23,26.79c0-.1,0-.2,0-.3" style="fill:#8e8142"/><path d="M158.66,125.74,207.89,99c0,.1,0,.2,0,.31L158.7,126c0-.1,0-.2,0-.3" style="fill:#928444"/><path d="M158.7,126l49.23-26.78v0c.07.38.14.76.23,1.12l-49.24,26.78c-.08-.36-.16-.74-.22-1.12v0" style="fill:#958746"/><path d="M158.93,127.19l49.24-26.78c.09.43.2.84.32,1.24l-49.23,26.78c-.12-.4-.23-.81-.33-1.24" style="fill:#998b47"/><path d="M159.26,128.43l49.23-26.78c.13.44.27.86.43,1.26L159.68,129.7c-.15-.41-.29-.83-.42-1.27" style="fill:#9d8e49"/><path d="M159.68,129.7l49.24-26.79a12.78,12.78,0,0,0,.65,1.5l-49.23,26.78a15.59,15.59,0,0,1-.66-1.49" style="fill:#a0914b"/><path d="M160.34,131.19l49.23-26.78a12.61,12.61,0,0,0,1.84,2.72l-49.23,26.78a12.37,12.37,0,0,1-1.84-2.72" style="fill:#a4954d"/><path d="M162.18,133.91l49.23-26.78c.12.14.25.27.38.4l-49.23,26.78c-.13-.13-.26-.26-.38-.4" style="fill:#a0914b"/></g></g></g><g style="isolation:isolate"><g style="clip-path:url(#clip-path-4)"><g style="isolation:isolate"><path d="M168.4,100.27l49.23-26.79.39-.07-49.23,26.78-.39.08" style="fill:#665c30"/><path d="M168.79,100.19,218,73.41c.26,0,.5-.08.73-.1L169.52,100.1l-.73.09" style="fill:#6a6031"/><path d="M169.52,100.1l49.23-26.79.54,0-49.24,26.78-.53,0" style="fill:#6d6333"/><path d="M170.05,100.06l49.24-26.78h.44L170.5,100.07h-.45" style="fill:#716635"/><path d="M170.5,100.07l49.23-26.79.39,0-49.23,26.78-.39,0" style="fill:#746a36"/><path d="M170.89,100.09l49.23-26.78.29,0,.09,0-49.24,26.78h-.09l-.28,0" style="fill:#786d38"/><path d="M171.26,100.14,220.5,73.36l.35.06L171.61,100.2l-.35-.06" style="fill:#7c703a"/><path d="M171.61,100.2l49.24-26.78.33.08L172,100.28l-.34-.08" style="fill:#7f743b"/><path d="M172,100.28,221.18,73.5l.31.09-49.23,26.79-.31-.1" style="fill:#83773d"/><path d="M172.26,100.38l49.23-26.79.31.11-49.24,26.78-.3-.1" style="fill:#877a3f"/><path d="M172.56,100.48,221.8,73.7l.29.12L172.85,100.6l-.29-.12" style="fill:#8a7d41"/><path d="M172.85,100.6l49.24-26.78.29.14-49.24,26.78-.29-.14" style="fill:#8e8142"/><path d="M173.14,100.74,222.38,74l.28.15-49.23,26.78-.29-.15" style="fill:#928444"/><path d="M173.43,100.89l49.23-26.78.29.18-49.23,26.78-.29-.18" style="fill:#958746"/><path d="M173.72,101.07,223,74.29l.3.22L174,101.29l-.3-.22" style="fill:#998b47"/><path d="M174,101.29l49.23-26.78.34.28-49.23,26.78-.34-.28" style="fill:#9d8e49"/><path d="M174.36,101.57l49.23-26.78a5.81,5.81,0,0,1,.43.43L174.79,102a5.81,5.81,0,0,0-.43-.43" style="fill:#a0914b"/><path d="M174.79,102,224,75.22a5.51,5.51,0,0,1,.84,1.22l-49.24,26.79a5.65,5.65,0,0,0-.83-1.23" style="fill:#a4954d"/><path d="M175.62,103.23l49.24-26.79,0,.07-49.23,26.78,0-.06" style="fill:#a0914b"/></g></g></g><g style="isolation:isolate"><g style="clip-path:url(#clip-path-5)"><g style="isolation:isolate"><path d="M165.65,33.39,214.89,6.6c0,.17,0,.35,0,.52L165.62,33.9l0-.51" style="fill:#a99649"/><path d="M165.62,33.9,214.85,7.12c0,.44-.08.88-.14,1.33L165.47,35.23c.06-.45.11-.89.15-1.33" style="fill:#a49247"/><path d="M165.47,35.23,214.71,8.45c-.07.48-.14,1-.23,1.47L165.24,36.7c.09-.49.17-1,.23-1.47" style="fill:#a08d45"/><path d="M165.24,36.7,214.48,9.92c-.11.56-.22,1.12-.36,1.68L164.89,38.38c.13-.56.25-1.12.35-1.68" style="fill:#9b8943"/><path d="M164.89,38.38,214.12,11.6c-.16.66-.33,1.33-.53,2L164.36,40.38c.19-.67.37-1.33.53-2" style="fill:#968541"/><path d="M164.36,40.38,213.59,13.6c-.24.81-.51,1.62-.8,2.44L163.55,42.82c.3-.82.57-1.63.81-2.44" style="fill:#92813f"/><path d="M163.55,42.82,212.79,16c-.4,1.09-.84,2.2-1.32,3.31L162.24,46.13c.48-1.11.92-2.22,1.31-3.31" style="fill:#8d7d3d"/><path d="M162.24,46.13l49.23-26.78Q210.36,21.9,209,24.5L159.76,51.29q1.37-2.61,2.48-5.16" style="fill:#88793b"/><path d="M159.76,51.29,209,24.5c-2.5,4.81-5.56,9.75-8.7,14.82-2.94,4.75-6,9.67-8.77,14.77l-.23.43L142.05,81.31c.08-.15.16-.29.23-.44,2.79-5.1,5.83-10,8.78-14.77,3.13-5.07,6.2-10,8.7-14.81" style="fill:#847439"/><path d="M142.05,81.31l49.24-26.79c-.29.55-.54,1.08-.77,1.61L141.28,82.92c.23-.53.49-1.07.77-1.61" style="fill:#88793b"/><path d="M141.28,82.92l49.24-26.79c-.19.43-.35.85-.51,1.27L140.78,84.18c.15-.42.32-.84.5-1.26" style="fill:#8d7d3d"/><path d="M140.78,84.18,190,57.4c-.12.36-.24.71-.34,1.06L140.43,85.25c.11-.36.22-.71.35-1.07" style="fill:#92813f"/><path d="M140.43,85.25l49.24-26.79c-.09.31-.17.61-.25.91L140.19,86.15q.1-.45.24-.9" style="fill:#968541"/><path d="M140.19,86.15l49.23-26.78c-.06.27-.12.54-.17.81L140,87c0-.27.11-.54.17-.81" style="fill:#9b8943"/><path d="M140,87l49.23-26.78c0,.25-.08.49-.11.73L139.91,87.7c0-.25.07-.49.11-.74" style="fill:#a08d45"/><path d="M139.91,87.7l49.23-26.79c0,.23-.06.46-.07.69L139.83,88.38c0-.23,0-.45.08-.68" style="fill:#a49247"/><path d="M139.83,88.38,189.07,61.6c0,.21,0,.42,0,.64L139.8,89c0-.21,0-.43,0-.64" style="fill:#a99649"/><path d="M139.8,89,189,62.24c0,.2,0,.41,0,.61L139.79,89.64c0-.21,0-.41,0-.62" style="fill:#ae9a4b"/><path d="M139.79,89.64,189,62.85l0,.6L139.82,90.23a5.68,5.68,0,0,1,0-.59" style="fill:#b39e4d"/><path d="M139.82,90.23l49.23-26.78c0,.2,0,.4,0,.6L139.87,90.83c0-.2,0-.4-.05-.6" style="fill:#b7a24f"/><path d="M139.87,90.83,189.1,64.05l.09.6L140,91.43q-.06-.3-.09-.6" style="fill:#bca651"/><path d="M140,91.43l49.23-26.78c0,.21.08.42.13.63L140.08,92.06q-.08-.32-.12-.63" style="fill:#c1ab53"/><path d="M140.08,92.06l49.24-26.78c.05.23.11.46.18.68L140.26,92.75l-.18-.69" style="fill:#c5af55"/><path d="M140.26,92.75,189.5,66c.08.27.17.54.26.8L140.53,93.54c-.1-.26-.19-.53-.27-.79" style="fill:#cab357"/><path d="M140.53,93.54l49.23-26.78c.1.24.19.47.3.71l.21.42L141,94.67c-.07-.14-.14-.28-.2-.42s-.21-.47-.3-.71" style="fill:#cfb759"/><path d="M141,94.67l49.24-26.78A11.19,11.19,0,0,0,192,70.4L142.75,97.18A11.64,11.64,0,0,1,141,94.67" style="fill:#d3bb5b"/></g></g></g><polygon points="122.56 27.33 171.8 0.55 214.89 6.6 165.65 33.38 122.56 27.33" style="fill:#a69347"/><path d="M175.66,103.29c1,2,.94,5.19-2.3,7.82-2.27,1.86-4.57,3.45-6.59,4.85-5.11,3.53-8.78,6.07-8.06,10.11a15.06,15.06,0,0,0,3.85,8.24l.49.51-40.74-5.73-.19-102.31,44,6.19c-.54,10.6-7.41,21.69-14.68,33.43-2.94,4.75-6,9.66-8.76,14.76-2.66,4.88-3.15,9.22-1.46,12.92s5.11,6.1,10.07,7.35a12.18,12.18,0,0,0,1.36.26c3.53.5,8.81,0,15.75-1.42a7.67,7.67,0,0,1,2.77-.14A5.75,5.75,0,0,1,175.66,103.29Zm-2.59,7.43c3-2.47,3.13-5.36,2.19-7.25a5.26,5.26,0,0,0-4.09-2.86,7.22,7.22,0,0,0-2.44.09c-7.17,1.5-12.51,2-16.08,1.47a12.9,12.9,0,0,1-1.4-.27c-5.12-1.29-8.73-3.93-10.42-7.65s-1.28-8.36,1.45-13.38,5.83-10,8.78-14.77c7.18-11.6,14-22.57,14.59-32.71l-43.09-6.06.19,101.34,39.07,5.49a16.12,16.12,0,0,1-3.55-8.06c-.77-4.34,3-6.94,8.2-10.55,2.05-1.41,4.33-3,6.6-4.83" style="fill:#7c703a"/><path d="M165.65,33.39C165,43.53,158.24,54.5,151.06,66.1c-2.95,4.75-6,9.67-8.78,14.77s-3.22,9.53-1.45,13.38,5.3,6.36,10.42,7.65a12.9,12.9,0,0,0,1.4.27c3.57.5,8.91,0,15.89-1.43a7.55,7.55,0,0,1,2.63-.13,5.26,5.26,0,0,1,4.09,2.86c.94,1.89.85,4.78-2.19,7.25-2.27,1.84-4.55,3.42-6.6,4.83-5.2,3.61-9,6.21-8.2,10.55a16.12,16.12,0,0,0,3.55,8.06l-39.07-5.49-.19-101.34Z" style="fill:#a08e45"/><polygon points="122.11 26.78 171.35 0 215.36 6.18 166.12 32.97 122.11 26.78" style="fill:#80743c"/><g style="isolation:isolate"><g style="clip-path:url(#clip-path-6)"><g style="isolation:isolate"><path d="M166.12,33,215.36,6.19c0,.27,0,.55-.06.82L166.07,33.79c0-.27,0-.55.05-.82" style="fill:#83773d"/><path d="M166.07,33.79,215.3,7q-.06.71-.15,1.41L165.92,35.21c.06-.47.11-1,.15-1.42" style="fill:#7f743b"/><path d="M165.92,35.21,215.15,8.42q-.1.78-.24,1.56L165.67,36.76c.1-.52.18-1,.25-1.55" style="fill:#7c703a"/><path d="M165.67,36.76,214.91,10c-.11.59-.23,1.17-.37,1.76L165.3,38.52c.14-.58.27-1.17.37-1.76" style="fill:#786d38"/><path d="M165.3,38.52l49.24-26.78c-.17.69-.35,1.37-.55,2.06L164.75,40.58c.21-.69.39-1.37.55-2.06" style="fill:#746a36"/><path d="M164.75,40.58,214,13.8c-.25.84-.53,1.69-.84,2.54L163.92,43.12c.3-.85.58-1.69.83-2.54" style="fill:#716635"/><path d="M163.92,43.12l49.23-26.78c-.4,1.12-.85,2.24-1.34,3.37L162.58,46.49c.49-1.13.94-2.25,1.34-3.37" style="fill:#6d6333"/><path d="M162.58,46.49l49.23-26.78q-1.12,2.57-2.49,5.18L160.09,51.68c.9-1.75,1.74-3.47,2.49-5.19" style="fill:#6a6031"/><path d="M160.09,51.68l49.23-26.79c-2.5,4.8-5.54,9.71-8.65,14.73-2.94,4.75-6,9.66-8.76,14.76l-.24.45L142.44,81.61c.07-.15.16-.3.24-.45,2.77-5.1,5.82-10,8.76-14.76,3.11-5,6.14-9.93,8.65-14.72" style="fill:#665c30"/><path d="M142.44,81.61l49.23-26.78c-.28.53-.53,1.05-.75,1.57L141.69,83.18c.22-.51.47-1,.75-1.57" style="fill:#6a6031"/><path d="M141.69,83.18,190.92,56.4c-.18.41-.34.83-.49,1.23L141.2,84.41c.14-.4.31-.81.49-1.23" style="fill:#6d6333"/><path d="M141.2,84.41l49.23-26.78c-.12.35-.24.69-.34,1L140.86,85.45c.1-.35.21-.69.34-1" style="fill:#716635"/><path d="M140.86,85.45l49.23-26.79c-.08.3-.16.59-.23.88L140.62,86.32q.1-.43.24-.87" style="fill:#746a36"/><path d="M140.62,86.32l49.24-26.78c-.06.26-.12.53-.17.78L140.46,87.11c0-.26.1-.52.16-.79" style="fill:#786d38"/><path d="M140.46,87.11l49.23-26.79c0,.24-.08.48-.11.72L140.35,87.82c0-.24.07-.47.11-.71" style="fill:#7c703a"/><path d="M140.35,87.82,189.58,61c0,.22-.05.44-.07.65L140.28,88.48c0-.22,0-.44.07-.66" style="fill:#7f743b"/><path d="M140.28,88.48l49.23-26.79c0,.21,0,.42,0,.62L140.24,89.09c0-.2,0-.41,0-.61" style="fill:#83773d"/><path d="M140.24,89.09l49.24-26.78c0,.2,0,.4,0,.59L140.24,89.69v-.6" style="fill:#877a3f"/><path d="M140.24,89.69,189.47,62.9c0,.2,0,.39,0,.58L140.26,90.26c0-.19,0-.38,0-.57" style="fill:#8a7d41"/><path d="M140.26,90.26,189.5,63.48c0,.19,0,.38.05.57L140.31,90.83c0-.19,0-.38-.05-.57" style="fill:#8e8142"/><path d="M140.31,90.83l49.24-26.78c0,.19,0,.39.08.58L140.4,91.41c0-.19-.06-.38-.09-.58" style="fill:#928444"/><path d="M140.4,91.41l49.23-26.78.12.6L140.52,92q-.08-.3-.12-.6" style="fill:#958746"/><path d="M140.52,92l49.23-26.78c.05.22.11.44.17.65L140.69,92.67c-.06-.22-.12-.44-.17-.66" style="fill:#998b47"/><path d="M140.69,92.67l49.23-26.79c.08.26.16.51.26.76L140.94,93.42c-.09-.25-.17-.5-.25-.75" style="fill:#9d8e49"/><path d="M140.94,93.42l49.24-26.78q.12.33.27.66c.07.13.13.27.2.41L141.42,94.49c-.07-.14-.14-.27-.2-.41s-.19-.44-.28-.66" style="fill:#a0914b"/><path d="M141.42,94.49l49.23-26.78a10.87,10.87,0,0,0,1.63,2.37L143.05,96.87a11.17,11.17,0,0,1-1.63-2.38" style="fill:#a4954d"/><path d="M143.05,96.87l49.23-26.79a11.91,11.91,0,0,0,.94.94L144,97.8a11.81,11.81,0,0,1-.94-.93" style="fill:#a0914b"/><path d="M144,97.8,193.22,71c.25.22.51.43.78.64L144.76,98.44a9.68,9.68,0,0,1-.77-.64" style="fill:#9d8e49"/><path d="M144.76,98.44,194,71.66c.24.18.49.36.75.53L145.51,99c-.26-.18-.51-.35-.75-.54" style="fill:#998b47"/><path d="M145.51,99l49.24-26.79c.24.17.49.32.75.48L146.27,99.45c-.26-.15-.51-.31-.76-.47" style="fill:#958746"/><path d="M146.27,99.45,195.5,72.67l.8.43L147.06,99.88l-.79-.43" style="fill:#928444"/><path d="M147.06,99.88,196.3,73.1c.27.14.56.27.85.4l-49.24,26.78-.85-.4" style="fill:#8e8142"/><path d="M147.91,100.28,197.15,73.5c.29.13.6.26.92.38l-49.24,26.78c-.31-.12-.62-.24-.92-.38" style="fill:#8a7d41"/><path d="M148.83,100.66l49.24-26.78c.33.13.66.24,1,.36L149.85,101q-.53-.17-1-.36" style="fill:#877a3f"/><path d="M149.85,101l49.23-26.78q.55.18,1.14.33L151,101.35q-.59-.15-1.14-.33" style="fill:#83773d"/><path d="M151,101.35l49.23-26.78.31.08.42.1-49.23,26.78-.43-.1-.3-.08" style="fill:#7f743b"/><path d="M151.72,101.53,201,74.75l.73.13-49.24,26.78-.72-.13" style="fill:#7c703a"/><path d="M152.44,101.66l49.24-26.78.2,0,.74.09-49.23,26.78c-.26,0-.5,0-.74-.09l-.21,0" style="fill:#786d38"/><path d="M153.39,101.78,202.62,75c.41,0,.83.06,1.28.08l-49.24,26.78c-.44,0-.87,0-1.27-.08" style="fill:#746a36"/><path d="M154.66,101.86,203.9,75.08c.58,0,1.19,0,1.83,0L156.5,101.87c-.65,0-1.26,0-1.84,0" style="fill:#716635"/><path d="M156.5,101.87l49.23-26.78q1.35,0,2.88-.18L159.38,101.7c-1,.09-2,.15-2.88.17" style="fill:#6d6333"/><path d="M159.38,101.7l49.23-26.79q2.34-.21,5.13-.69L164.51,101q-2.79.46-5.13.69" style="fill:#6a6031"/><path d="M164.51,101l49.23-26.79c1.23-.2,2.53-.45,3.89-.74L168.4,100.27c-1.36.28-2.66.53-3.89.74" style="fill:#665c30"/></g></g></g><path d="M195.29,37.31l.19,101.82L169,135.41c-1.54-.22-4.46-3.88-5.49-9.59.28-1.13,3.71-3.51,6.23-5.25,2.08-1.45,4.45-3.09,6.86-5a11.38,11.38,0,0,0,3.29-14.25,11.5,11.5,0,0,0-8.76-6.42,11.73,11.73,0,0,0-4,.13c-8.3,1.73-12.43,1.71-14.44,1.43-.35,0-.64-.11-.87-.16-1.87-.47-5.15-1.62-6.25-4s.17-5.64,1.43-7.94c2.7-5,5.71-9.84,8.63-14.54C163.28,57.37,170.54,45.64,171,33.9Z" style="fill:#927692;opacity:0.6901960968971252"/><polygon points="195.29 37.31 244.52 10.53 244.71 112.35 195.48 139.13 195.29 37.31" style="fill:#ac8cad;opacity:0.6901960968971252"/><polygon points="171.02 33.9 220.25 7.12 244.52 10.53 195.29 37.31 171.02 33.9" style="fill:#977b98;opacity:0.6901960968971252"/></g></g><g style="opacity:0.8"><g style="isolation:isolate"><polygon points="79.25 134.17 33.66 109.37 72.73 103.88 118.32 128.67 79.25 134.17" style="fill:#81753c"/><polygon points="78.02 134.82 32.43 110.02 32.92 109.52 78.51 134.32 78.02 134.82" style="fill:#766b37"/><g style="isolation:isolate"><g style="clip-path:url(#clip-path-7)"><g style="isolation:isolate"><path d="M79.25,134.17l-45.59-24.8a13,13,0,0,0,.85-1.08l45.59,24.8a13,13,0,0,1-.85,1.08" style="fill:#88793b"/><path d="M80.1,133.09l-45.59-24.8a14.3,14.3,0,0,0,.84-1.37l45.59,24.8a14.3,14.3,0,0,1-.84,1.37" style="fill:#847439"/><path d="M80.94,131.72l-45.59-24.8a16.72,16.72,0,0,0,.92-2l45.58,24.8a15.31,15.31,0,0,1-.91,2.05" style="fill:#7f7037"/><path d="M81.85,129.67l-45.58-24.8a21,21,0,0,0,.94-3.56C38,97,34.22,94.37,29,90.75c-2-1.4-4.32-3-6.58-4.83C19.63,83.66,19.32,81,20,79.17L65.59,104c-.69,1.87-.38,4.49,2.41,6.75,2.26,1.85,4.55,3.43,6.57,4.83,5.23,3.62,9,6.22,8.22,10.56a20.33,20.33,0,0,1-.94,3.56" style="fill:#7a6c35"/></g></g></g><g style="isolation:isolate"><g style="clip-path:url(#clip-path-8)"><g style="isolation:isolate"><path d="M81.85,129.67l-45.58-24.8a21,21,0,0,0,.94-3.56C38,97,34.22,94.37,29,90.75c-2-1.4-4.32-3-6.58-4.83C19.63,83.66,19.32,81,20,79.17L65.59,104c-.69,1.87-.38,4.49,2.41,6.75,2.26,1.85,4.55,3.43,6.57,4.83,5.23,3.62,9,6.22,8.22,10.56a20.33,20.33,0,0,1-.94,3.56" style="fill:#7a6c35"/></g></g></g><g style="isolation:isolate"><g style="clip-path:url(#clip-path-9)"><g style="isolation:isolate"><path d="M81.85,129.67l-45.58-24.8a21,21,0,0,0,.94-3.56C38,97,34.22,94.37,29,90.75c-2-1.4-4.32-3-6.58-4.83C19.63,83.66,19.32,81,20,79.17L65.59,104c-.69,1.87-.38,4.49,2.41,6.75,2.26,1.85,4.55,3.43,6.57,4.83,5.23,3.62,9,6.22,8.22,10.56a20.33,20.33,0,0,1-.94,3.56" style="fill:#7a6c35"/></g></g></g><g style="isolation:isolate"><g style="clip-path:url(#clip-path-10)"><g style="isolation:isolate"><path d="M81.85,129.67l-45.58-24.8a21,21,0,0,0,.94-3.56C38,97,34.22,94.37,29,90.75c-2-1.4-4.32-3-6.58-4.83C19.63,83.66,19.32,81,20,79.17L65.59,104c-.69,1.87-.38,4.49,2.41,6.75,2.26,1.85,4.55,3.43,6.57,4.83,5.23,3.62,9,6.22,8.22,10.56a20.33,20.33,0,0,1-.94,3.56" style="fill:#7a6c35"/></g></g></g><polygon points="118.32 128.67 72.73 103.88 72.92 2.54 118.51 27.34 118.32 128.67" style="fill:#5d542b"/><g style="isolation:isolate"><g style="clip-path:url(#clip-path-11)"><g style="isolation:isolate"><path d="M68.22,101.11,22.63,76.31a5.83,5.83,0,0,1,1.68-.49,7.22,7.22,0,0,1,2.44.09c7.17,1.5,12.51,2,16.09,1.47a13.38,13.38,0,0,0,1.4-.27,20.77,20.77,0,0,0,3.83-1.35l45.59,24.8a20.88,20.88,0,0,1-3.84,1.35,12.9,12.9,0,0,1-1.4.27c-3.58.5-8.91,0-16.09-1.47a7.16,7.16,0,0,0-2.43-.09,5.74,5.74,0,0,0-1.68.49" style="fill:#9b8943"/><path d="M93.66,100.56,48.07,75.76a15.77,15.77,0,0,0,2.32-1.33L96,99.23a17.32,17.32,0,0,1-2.32,1.33" style="fill:#968541"/><path d="M96,99.23,50.39,74.43a13.63,13.63,0,0,0,1.39-1.09l45.58,24.8A13.5,13.5,0,0,1,96,99.23" style="fill:#92813f"/><path d="M97.36,98.14,51.78,73.34a12.15,12.15,0,0,0,1-1l45.58,24.8a10.8,10.8,0,0,1-1,1" style="fill:#8d7d3d"/><path d="M98.37,97.12,52.79,72.32c.29-.33.56-.68.82-1l45.58,24.8a10.12,10.12,0,0,1-.82,1" style="fill:#88793b"/><path d="M99.19,96.08,53.61,71.28a12.24,12.24,0,0,0,.71-1.15l45.59,24.8a12.33,12.33,0,0,1-.72,1.15" style="fill:#847439"/><path d="M99.91,94.93,54.32,70.13c.12-.22.23-.45.33-.67s.24-.56.35-.84l45.58,24.8c-.1.28-.21.56-.34.84l-.33.67" style="fill:#7f7037"/><path d="M100.58,93.42,55,68.62c1.34-3.66.74-7.88-1.8-12.54-2.78-5.1-5.83-10-8.77-14.77-7.19-11.6-14-22.57-14.6-32.72l45.58,24.8C76,43.54,82.83,54.5,90,66.1c2.93,4.76,6,9.67,8.76,14.78,2.54,4.66,3.15,8.88,1.8,12.54" style="fill:#7a6c35"/></g></g></g><g style="isolation:isolate"><g style="clip-path:url(#clip-path-12)"><g style="isolation:isolate"><path d="M100.58,93.42,55,68.62c1.34-3.66.74-7.88-1.8-12.54-2.78-5.1-5.83-10-8.77-14.77-7.19-11.6-14-22.57-14.6-32.72l45.58,24.8C76,43.54,82.83,54.5,90,66.1c2.93,4.76,6,9.67,8.76,14.78,2.54,4.66,3.15,8.88,1.8,12.54" style="fill:#7a6c35"/></g></g></g><g style="isolation:isolate"><g style="clip-path:url(#clip-path-13)"><g style="isolation:isolate"><path d="M81.85,129.67l-45.58-24.8a21,21,0,0,0,.94-3.56C38,97,34.22,94.37,29,90.75c-2-1.4-4.32-3-6.58-4.83C19.63,83.66,19.32,81,20,79.17L65.59,104c-.69,1.87-.38,4.49,2.41,6.75,2.26,1.85,4.55,3.43,6.57,4.83,5.23,3.62,9,6.22,8.22,10.56a20.33,20.33,0,0,1-.94,3.56" style="fill:#7a6c35"/></g></g></g><g style="isolation:isolate"><g style="clip-path:url(#clip-path-14)"><g style="isolation:isolate"><path d="M81.85,129.67l-45.58-24.8a21,21,0,0,0,.94-3.56C38,97,34.22,94.37,29,90.75c-2-1.4-4.32-3-6.58-4.83C19.63,83.66,19.32,81,20,79.17L65.59,104c-.69,1.87-.38,4.49,2.41,6.75,2.26,1.85,4.55,3.43,6.57,4.83,5.23,3.62,9,6.22,8.22,10.56a20.33,20.33,0,0,1-.94,3.56" style="fill:#7a6c35"/></g></g></g><g style="isolation:isolate"><g style="clip-path:url(#clip-path-15)"><g style="isolation:isolate"><path d="M81.85,129.67l-45.58-24.8a21,21,0,0,0,.94-3.56C38,97,34.22,94.37,29,90.75c-2-1.4-4.32-3-6.58-4.83C19.63,83.66,19.32,81,20,79.17L65.59,104c-.69,1.87-.38,4.49,2.41,6.75,2.26,1.85,4.55,3.43,6.57,4.83,5.23,3.62,9,6.22,8.22,10.56a20.33,20.33,0,0,1-.94,3.56" style="fill:#7a6c35"/></g></g></g><g style="isolation:isolate"><g style="clip-path:url(#clip-path-16)"><g style="isolation:isolate"><path d="M81.85,129.67l-45.58-24.8a21,21,0,0,0,.94-3.56C38,97,34.22,94.37,29,90.75c-2-1.4-4.32-3-6.58-4.83C19.63,83.66,19.32,81,20,79.17L65.59,104c-.69,1.87-.38,4.49,2.41,6.75,2.26,1.85,4.55,3.43,6.57,4.83,5.23,3.62,9,6.22,8.22,10.56a20.33,20.33,0,0,1-.94,3.56" style="fill:#7a6c35"/></g></g></g><g style="isolation:isolate"><g style="clip-path:url(#clip-path-17)"><g style="isolation:isolate"><path d="M68.22,101.11,22.63,76.31a5.83,5.83,0,0,1,1.68-.49,7.22,7.22,0,0,1,2.44.09c7.17,1.5,12.51,2,16.09,1.47a13.38,13.38,0,0,0,1.4-.27,20.77,20.77,0,0,0,3.83-1.35l45.59,24.8a20.88,20.88,0,0,1-3.84,1.35,12.9,12.9,0,0,1-1.4.27c-3.58.5-8.91,0-16.09-1.47a7.16,7.16,0,0,0-2.43-.09,5.74,5.74,0,0,0-1.68.49" style="fill:#9b8943"/></g></g></g><g style="isolation:isolate"><g style="clip-path:url(#clip-path-18)"><g style="isolation:isolate"><path d="M81.85,129.67l-45.58-24.8a21,21,0,0,0,.94-3.56C38,97,34.22,94.37,29,90.75c-2-1.4-4.32-3-6.58-4.83C19.63,83.66,19.32,81,20,79.17L65.59,104c-.69,1.87-.38,4.49,2.41,6.75,2.26,1.85,4.55,3.43,6.57,4.83,5.23,3.62,9,6.22,8.22,10.56a20.33,20.33,0,0,1-.94,3.56" style="fill:#7a6c35"/><path d="M65.59,104,20,79.17c.07-.17.14-.33.22-.49a.89.89,0,0,1,.08-.17l45.59,24.8-.09.17a3.61,3.61,0,0,0-.21.49" style="fill:#7f7037"/><path d="M65.89,103.31,20.3,78.51c.1-.18.21-.35.32-.52l45.59,24.8a4.52,4.52,0,0,0-.32.52" style="fill:#847439"/><path d="M66.21,102.79,20.62,78a4.82,4.82,0,0,1,.35-.44l45.58,24.8a4.7,4.7,0,0,0-.34.44" style="fill:#88793b"/><path d="M66.55,102.35,21,77.55a5,5,0,0,1,.4-.4L67,102a5,5,0,0,0-.4.4" style="fill:#8d7d3d"/><path d="M67,102,21.37,77.15a4.61,4.61,0,0,1,.5-.4l45.59,24.8a3.9,3.9,0,0,0-.51.4" style="fill:#92813f"/><path d="M67.46,101.55,21.87,76.75a5.19,5.19,0,0,1,.76-.44l45.59,24.8a5.19,5.19,0,0,0-.76.44" style="fill:#968541"/><path d="M68.22,101.11,22.63,76.31a5.83,5.83,0,0,1,1.68-.49,7.22,7.22,0,0,1,2.44.09c7.17,1.5,12.51,2,16.09,1.47a13.38,13.38,0,0,0,1.4-.27,20.77,20.77,0,0,0,3.83-1.35l45.59,24.8a20.88,20.88,0,0,1-3.84,1.35,12.9,12.9,0,0,1-1.4.27c-3.58.5-8.91,0-16.09-1.47a7.16,7.16,0,0,0-2.43-.09,5.74,5.74,0,0,0-1.68.49" style="fill:#9b8943"/></g></g></g><g style="isolation:isolate"><g style="clip-path:url(#clip-path-19)"><g style="isolation:isolate"><path d="M78.51,134.32l-45.59-24.8c.15-.15.3-.31.44-.47L79,133.85c-.14.16-.29.32-.44.47" style="fill:#6d6333"/><path d="M79,133.85l-45.59-24.8a10.07,10.07,0,0,0,.81-1l45.59,24.79a12.28,12.28,0,0,1-.81,1" style="fill:#6a6031"/><path d="M79.76,132.82,34.17,108a14.37,14.37,0,0,0,.81-1.31l45.58,24.8a12.9,12.9,0,0,1-.8,1.3" style="fill:#665c30"/><path d="M80.56,131.52,35,106.72a16.24,16.24,0,0,0,.88-2l45.59,24.8a16.27,16.27,0,0,1-.89,2" style="fill:#62592e"/><path d="M81.45,129.54l-45.59-24.8a20.08,20.08,0,0,0,.91-3.46c.72-4-3-6.58-8-10.1-2-1.41-4.35-3-6.63-4.86-2.95-2.41-3.26-5.24-2.52-7.28l45.59,24.8c-.75,2-.44,4.87,2.52,7.28C70,113,72.28,114.56,74.32,116c5.08,3.52,8.75,6.06,8,10.1a21,21,0,0,1-.91,3.46" style="fill:#5f562c"/><path d="M65.18,103.84,19.59,79c.07-.19.15-.37.23-.54a1.62,1.62,0,0,1,.1-.18l45.58,24.8-.09.18a4.38,4.38,0,0,0-.23.54" style="fill:#62592e"/><path d="M65.5,103.12,19.92,78.32a5.58,5.58,0,0,1,.35-.58l45.59,24.8a5.65,5.65,0,0,0-.36.58" style="fill:#665c30"/><path d="M65.86,102.54,20.27,77.74a4.66,4.66,0,0,1,.39-.49l45.59,24.8a4.66,4.66,0,0,0-.39.49" style="fill:#6a6031"/><path d="M66.25,102.05,20.66,77.25c.14-.16.29-.31.45-.46l45.59,24.8a4.89,4.89,0,0,0-.45.46" style="fill:#6d6333"/><path d="M66.7,101.59,21.11,76.79c.18-.16.37-.3.56-.44l45.59,24.8a6,6,0,0,0-.56.44" style="fill:#716635"/><path d="M67.26,101.15,21.67,76.35a6.18,6.18,0,0,1,.83-.48l45.59,24.8a6.18,6.18,0,0,0-.83.48" style="fill:#746a36"/><path d="M68.09,100.67,22.5,75.87a6.39,6.39,0,0,1,1.82-.53,7.67,7.67,0,0,1,2.56.09l45.59,24.8a7.47,7.47,0,0,0-2.57-.09,6.42,6.42,0,0,0-1.81.53" style="fill:#786d38"/></g></g></g><g style="isolation:isolate"><g style="clip-path:url(#clip-path-20)"><g style="isolation:isolate"><path d="M100.58,93.42,55,68.62c1.34-3.66.74-7.88-1.8-12.54-2.78-5.1-5.83-10-8.77-14.77-7.19-11.6-14-22.57-14.6-32.72l45.58,24.8C76,43.54,82.83,54.5,90,66.1c2.93,4.76,6,9.67,8.76,14.78,2.54,4.66,3.15,8.88,1.8,12.54" style="fill:#7a6c35"/></g></g></g><path d="M75,33.22l44-6.43-.19,102.31L78,134.82l.49-.5a15.17,15.17,0,0,0,3.85-8.24c.71-4-3-6.58-8-10.1-2-1.42-4.34-3-6.62-4.86-3.23-2.63-3.3-5.77-2.29-7.82a5.77,5.77,0,0,1,4.49-3.16,7.47,7.47,0,0,1,2.57.09c7.14,1.49,12.42,2,16,1.47.48-.07.94-.16,1.35-.26,5-1.25,8.45-3.79,10.08-7.35s1.2-8-1.46-12.92c-2.78-5.1-5.81-10-8.76-14.76C82.36,54.67,75.48,43.57,75,33.22Zm43.36,95.45.19-101.33-43.1,6.05C76,43.54,82.83,54.5,90,66.1c2.93,4.76,6,9.67,8.76,14.78s3.23,9.52,1.46,13.38-5.31,6.36-10.42,7.65a12.9,12.9,0,0,1-1.4.27c-3.58.5-8.91,0-15.89-1.43a7.55,7.55,0,0,0-2.63-.13,5.21,5.21,0,0,0-4.1,2.86c-.93,1.88-.84,4.77,2.2,7.24,2.26,1.85,4.55,3.43,6.57,4.83,5.23,3.62,9,6.22,8.22,10.56a16.28,16.28,0,0,1-3.54,8.06l39.07-5.5" style="fill:#9f904a"/><path d="M118.51,27.34l-.19,101.33-39.07,5.5a16.28,16.28,0,0,0,3.54-8.06c.77-4.34-3-6.94-8.22-10.56-2-1.4-4.31-3-6.57-4.83-3-2.47-3.13-5.36-2.2-7.24a5.21,5.21,0,0,1,4.1-2.86,7.16,7.16,0,0,1,2.43.09c7.18,1.5,12.51,2,16.09,1.47a12.9,12.9,0,0,0,1.4-.27c5.11-1.29,8.72-3.93,10.42-7.65s1.28-8.36-1.46-13.38S93,70.86,90,66.1C82.83,54.5,76,43.54,75.41,33.39Z" style="fill:#cdb658"/><polygon points="75.41 33.39 29.83 8.59 72.92 2.54 118.51 27.34 75.41 33.39" style="fill:#a69347"/><g style="isolation:isolate"><g style="clip-path:url(#clip-path-21)"><g style="isolation:isolate"><path d="M72.47,100.23,26.88,75.43c7.14,1.49,12.42,2,16,1.47a12.18,12.18,0,0,0,1.36-.26,19.91,19.91,0,0,0,3.75-1.32l45.59,24.8a20.75,20.75,0,0,1-3.76,1.32c-.41.1-.87.19-1.35.26-3.53.49-8.81,0-16-1.47" style="fill:#786d38"/><path d="M93.53,100.12,47.94,75.32A15.57,15.57,0,0,0,50.18,74l45.59,24.8a15.57,15.57,0,0,1-2.24,1.28" style="fill:#746a36"/><path d="M95.77,98.84,50.18,74A13,13,0,0,0,51.52,73L97.1,97.79a12.81,12.81,0,0,1-1.33,1" style="fill:#716635"/><path d="M97.1,97.79,51.52,73a12.8,12.8,0,0,0,1-1l45.58,24.8a12.78,12.78,0,0,1-1,1" style="fill:#6d6333"/><path d="M98.07,96.81,52.49,72a12.1,12.1,0,0,0,.78-1l45.58,24.8a12.1,12.1,0,0,1-.78,1" style="fill:#6a6031"/><path d="M98.85,95.82,53.27,71a11.12,11.12,0,0,0,.67-1.1l45.59,24.8a9.57,9.57,0,0,1-.68,1.1" style="fill:#665c30"/><path d="M99.53,94.72,53.94,69.92c.12-.2.22-.42.32-.63s.22-.52.32-.78l45.59,24.8c-.1.26-.21.52-.32.78s-.21.42-.32.63" style="fill:#62592e"/><path d="M100.17,93.31,54.58,68.51c1.29-3.52.7-7.6-1.78-12.14C50,51.27,47,46.36,44,41.61,36.77,29.87,29.9,18.77,29.37,8.42L75,33.22c.52,10.35,7.4,21.45,14.67,33.19,3,4.75,6,9.66,8.76,14.76,2.47,4.54,3.07,8.62,1.78,12.14" style="fill:#5f562c"/></g></g></g><polygon points="74.96 33.22 29.37 8.43 73.36 1.99 118.95 26.79 74.96 33.22" style="fill:#81753c"/><path d="M70.05,33.9c.48,11.74,7.74,23.47,15.42,35.87,2.91,4.7,5.92,9.56,8.63,14.54,1.25,2.3,2.52,5.54,1.43,7.94s-4.38,3.54-6.24,4a8.15,8.15,0,0,1-.88.17c-2,.28-6.15.29-14.23-1.38a12,12,0,0,0-4.27-.18,11.49,11.49,0,0,0-8.74,6.41,11.38,11.38,0,0,0,3.29,14.25c2.4,2,4.77,3.59,6.86,5,2.52,1.73,6,4.11,6.23,5.25-1,5.72-4,9.37-5.5,9.59l-26.46,3.72.19-101.82Z" style="fill:#bb98b5;opacity:0.8509804010391235"/><polygon points="45.59 139.14 0 114.34 0.19 12.52 45.78 37.32 45.59 139.14" style="fill:#6d596a;opacity:0.8509804010391235"/><polygon points="45.78 37.32 0.19 12.52 24.46 9.11 70.05 33.91 45.78 37.32" style="fill:#977b92;opacity:0.8509804010391235"/></g></g></g></g></svg>