<svg xmlns="http://www.w3.org/2000/svg" viewBox="0 0 193.31 123.13"><title>tumblr</title><g id="Layer_2" data-name="Layer 2"><g id="Layer_2-2" data-name="Layer 2"><path d="M170.18,25.35c-16.13.94-20.07,12.57-20.07,12.57s-.56-10.32-5.25-14.63c-9-8.26-19.12-7.42-18.38-6.75,16.5,14.81,8.8,26.19,8.8,26.19s-9.55-7.25-20.06-1.06c-9.27,5.46-5.83,17.38-5.83,17.38,1-3.13,8.65-15.51,17.67-3.71,2.57,3.35.54,9.21-2.27,11.65-1,.88-11.07,11-28.13-4.13,7.5,12.19,34.32,21.57,50.17,11.27,10.06-6.54,11.24-13.41,20.16-25.9,13.13-18.38,26.17-10.58,26.07-11.06S184.23,24.53,170.18,25.35Z" style="stroke:#000;stroke-miterlimit:10;stroke-width:0.5px"/><path d="M66.25,70.27c-2.56-3.35-.54-9.21,2.27-11.65,1-.88,11.07-11,28.14,4.13C89.15,50.56,62.33,41.18,46.48,51.48,36.42,58,35.24,64.89,26.32,77.38,13.19,95.76.15,88,.25,88.45s8.83,12.63,22.88,11.81C39.26,99.32,43.2,87.7,43.2,87.7s.56,10.31,5.25,14.62c9,8.27,19.12,7.42,18.38,6.76C50.33,94.26,58,82.88,58,82.88s9.54,7.25,20.05,1.06c9.27-5.46,5.83-17.38,5.83-17.38C83,69.69,75.27,82.07,66.25,70.27Z" style="stroke:#000;stroke-miterlimit:10;stroke-width:0.5px"/><path d="M34.42,112.82c3.06,3.47,7.19,9,19.4,10C70.23,124.11,85.54,112.64,92.34,99c7.29-14.64,4.2-20.45,6.12-55.16.94-16.91,5-25.24,8.91-29.78,8.43-9.88,20.3-15.2,33.81-13.51,9.37,1.17,14.44,5.75,17.71,8.24" style="fill:none;stroke:#000;stroke-miterlimit:10;stroke-width:0.5px"/></g></g></svg>